<svg width="119" height="40" viewBox="0 0 119 40" fill="none" xmlns="http://www.w3.org/2000/svg">
<rect x="0.199219" y="0.533447" width="118.4" height="39.4667" rx="5.75556" fill="#0C0D10"/>
<rect x="0.61033" y="0.944558" width="117.578" height="38.6444" rx="5.34444" stroke="white" stroke-opacity="0.22" stroke-width="0.822222"/>
<path d="M80.6392 19.4785V21.7389H79.2224V23.2213H80.6392V28.2583C80.6392 29.9782 81.4173 30.6661 83.3747 30.6661C83.7187 30.6661 84.0463 30.6252 84.333 30.5761V29.11C84.0873 29.1346 83.9317 29.151 83.6614 29.151C82.7851 29.151 82.4001 28.7415 82.4001 27.8078V23.2213H84.333V21.7389H82.4001V19.4785H80.6392Z" fill="white"/>
<path d="M89.3194 30.789C91.9239 30.789 93.521 29.0445 93.521 26.1534C93.521 23.2787 91.9157 21.526 89.3194 21.526C86.715 21.526 85.1097 23.2787 85.1097 26.1534C85.1097 29.0445 86.7068 30.789 89.3194 30.789ZM89.3194 29.2247C87.7879 29.2247 86.9279 28.1026 86.9279 26.1534C86.9279 24.2205 87.7879 23.0903 89.3194 23.0903C90.8428 23.0903 91.711 24.2205 91.711 26.1534C91.711 28.0945 90.8428 29.2247 89.3194 29.2247Z" fill="white"/>
<path d="M94.8874 30.617H96.6483V25.3508C96.6483 24.0977 97.5901 23.2541 98.9251 23.2541C99.2364 23.2541 99.7605 23.3114 99.9079 23.3606V21.6243C99.7196 21.5751 99.3838 21.5506 99.1217 21.5506C97.9587 21.5506 96.9677 22.1894 96.7138 23.0657H96.5828V21.698H94.8874V30.617Z" fill="white"/>
<path d="M104.28 23.0248C105.582 23.0248 106.434 23.9339 106.475 25.3344H101.971C102.069 23.9421 102.978 23.0248 104.28 23.0248ZM106.467 28.2091C106.139 28.9053 105.41 29.2902 104.346 29.2902C102.937 29.2902 102.028 28.2992 101.971 26.7349V26.6366H108.269V26.0224C108.269 23.2213 106.77 21.526 104.288 21.526C101.774 21.526 100.177 23.336 100.177 26.1862C100.177 29.0363 101.741 30.789 104.297 30.789C106.336 30.789 107.761 29.8062 108.162 28.2091H106.467Z" fill="white"/>
<path d="M69.0917 27.3234C69.2275 29.5135 71.0526 30.9141 73.769 30.9141C76.6722 30.9141 78.4888 29.4456 78.4888 27.1026C78.4888 25.2606 77.4532 24.2419 74.9405 23.6562L73.5908 23.3251C71.9949 22.9516 71.3497 22.4508 71.3497 21.5764C71.3497 20.4729 72.3514 19.7513 73.8539 19.7513C75.28 19.7513 76.2647 20.4559 76.443 21.5849H78.2936C78.1832 19.5221 76.3666 18.0706 73.8794 18.0706C71.2054 18.0706 69.4228 19.5221 69.4228 21.7038C69.4228 23.5034 70.4329 24.573 72.6485 25.0908L74.2274 25.4728C75.8488 25.8548 76.5619 26.415 76.5619 27.3488C76.5619 28.4354 75.4413 29.2248 73.9133 29.2248C72.275 29.2248 71.1375 28.4863 70.9762 27.3234H69.0917Z" fill="white"/>
<path d="M50.8509 21.5506C49.6387 21.5506 48.5904 22.1566 48.0499 23.1722H47.9188V21.698H46.2235V33.5818H47.9843V29.2656H48.1236C48.5904 30.2075 49.5978 30.7644 50.8673 30.7644C53.1195 30.7644 54.5528 28.9872 54.5528 26.1534C54.5528 23.3196 53.1195 21.5506 50.8509 21.5506ZM50.3513 29.1837C48.8771 29.1837 47.9516 28.0207 47.9516 26.1616C47.9516 24.2942 48.8771 23.1313 50.3595 23.1313C51.8501 23.1313 52.7428 24.2697 52.7428 26.1534C52.7428 28.0453 51.8501 29.1837 50.3513 29.1837Z" fill="white"/>
<path d="M60.7144 21.5506C59.5022 21.5506 58.4539 22.1566 57.9134 23.1722H57.7823V21.698H56.087V33.5818H57.8478V29.2656H57.9871C58.4539 30.2075 59.4613 30.7644 60.7308 30.7644C62.983 30.7644 64.4163 28.9872 64.4163 26.1534C64.4163 23.3196 62.983 21.5506 60.7144 21.5506ZM60.2148 29.1837C58.7406 29.1837 57.8151 28.0207 57.8151 26.1616C57.8151 24.2942 58.7406 23.1313 60.223 23.1313C61.7136 23.1313 62.6063 24.2697 62.6063 26.1534C62.6063 28.0453 61.7136 29.1837 60.2148 29.1837Z" fill="white"/>
<path d="M43.0642 30.617H45.0845L40.6618 18.3677H38.616L34.1934 30.617H36.1458L37.2748 27.3658H41.9436L43.0642 30.617ZM39.5413 20.5917H39.6856L41.4598 25.7699H37.7587L39.5413 20.5917Z" fill="white"/>
<path d="M35.375 9.1284V15.0376H37.5085C39.2694 15.0376 40.2891 13.9524 40.2891 12.0645C40.2891 10.2054 39.2612 9.1284 37.5085 9.1284H35.375ZM36.2923 9.96379H37.4061C38.6306 9.96379 39.3554 10.7418 39.3554 12.0768C39.3554 13.4323 38.6429 14.2022 37.4061 14.2022H36.2923V9.96379Z" fill="white"/>
<path d="M43.4119 15.1236C44.7142 15.1236 45.5127 14.2513 45.5127 12.8058C45.5127 11.3684 44.7101 10.492 43.4119 10.492C42.1097 10.492 41.3071 11.3684 41.3071 12.8058C41.3071 14.2513 42.1056 15.1236 43.4119 15.1236ZM43.4119 14.3414C42.6462 14.3414 42.2162 13.7804 42.2162 12.8058C42.2162 11.8393 42.6462 11.2742 43.4119 11.2742C44.1736 11.2742 44.6077 11.8393 44.6077 12.8058C44.6077 13.7763 44.1736 14.3414 43.4119 14.3414Z" fill="white"/>
<path d="M52.313 10.578H51.4325L50.6381 13.981H50.5685L49.6512 10.578H48.8076L47.8903 13.981H47.8248L47.0262 10.578H46.1335L47.362 15.0376H48.267L49.1843 11.7533H49.2539L50.1753 15.0376H51.0885L52.313 10.578Z" fill="white"/>
<path d="M53.3269 15.0376H54.2073V12.429C54.2073 11.7328 54.6209 11.2988 55.272 11.2988C55.9231 11.2988 56.2344 11.655 56.2344 12.3717V15.0376H57.1148V12.1505C57.1148 11.0899 56.5661 10.492 55.571 10.492C54.8994 10.492 54.4571 10.791 54.2401 11.2865H54.1746V10.578H53.3269V15.0376Z" fill="white"/>
<path d="M58.5014 15.0376H59.3818V8.83765H58.5014V15.0376Z" fill="white"/>
<path d="M62.6931 15.1236C63.9953 15.1236 64.7939 14.2513 64.7939 12.8058C64.7939 11.3684 63.9912 10.492 62.6931 10.492C61.3909 10.492 60.5882 11.3684 60.5882 12.8058C60.5882 14.2513 61.3868 15.1236 62.6931 15.1236ZM62.6931 14.3414C61.9273 14.3414 61.4973 13.7804 61.4973 12.8058C61.4973 11.8393 61.9273 11.2742 62.6931 11.2742C63.4548 11.2742 63.8888 11.8393 63.8888 12.8058C63.8888 13.7763 63.4548 14.3414 62.6931 14.3414Z" fill="white"/>
<path d="M67.4171 14.3701C66.938 14.3701 66.5899 14.1366 66.5899 13.7353C66.5899 13.3422 66.8684 13.1334 67.4827 13.0924L68.5719 13.0228V13.3954C68.5719 13.9483 68.0805 14.3701 67.4171 14.3701ZM67.1919 15.1113C67.7775 15.1113 68.2648 14.8574 68.531 14.411H68.6006V15.0376H69.4483V11.9908C69.4483 11.049 68.8176 10.492 67.6997 10.492C66.6882 10.492 65.9675 10.9835 65.8774 11.7492H66.7292C66.8275 11.4339 67.1673 11.2537 67.6587 11.2537C68.2607 11.2537 68.5719 11.5199 68.5719 11.9908V12.3758L67.3639 12.4454C66.3033 12.5109 65.7054 12.9736 65.7054 13.7763C65.7054 14.5912 66.332 15.1113 67.1919 15.1113Z" fill="white"/>
<path d="M72.436 15.1113C73.0503 15.1113 73.5704 14.8205 73.8365 14.3332H73.9062V15.0376H74.7497V8.83765H73.8693V11.2865H73.8038C73.5622 10.7951 73.0462 10.5043 72.436 10.5043C71.3099 10.5043 70.5851 11.3971 70.5851 12.8058C70.5851 14.2185 71.3017 15.1113 72.436 15.1113ZM72.6858 11.2947C73.4229 11.2947 73.8857 11.8803 73.8857 12.8098C73.8857 13.7435 73.427 14.3209 72.6858 14.3209C71.9405 14.3209 71.4942 13.7517 71.4942 12.8058C71.4942 11.868 71.9446 11.2947 72.6858 11.2947Z" fill="white"/>
<path d="M80.4591 15.1236C81.7613 15.1236 82.5598 14.2513 82.5598 12.8058C82.5598 11.3684 81.7572 10.492 80.4591 10.492C79.1568 10.492 78.3542 11.3684 78.3542 12.8058C78.3542 14.2513 79.1527 15.1236 80.4591 15.1236ZM80.4591 14.3414C79.6933 14.3414 79.2633 13.7804 79.2633 12.8058C79.2633 11.8393 79.6933 11.2742 80.4591 11.2742C81.2207 11.2742 81.6548 11.8393 81.6548 12.8058C81.6548 13.7763 81.2207 14.3414 80.4591 14.3414Z" fill="white"/>
<path d="M83.7253 15.0376H84.6057V12.429C84.6057 11.7328 85.0193 11.2988 85.6704 11.2988C86.3215 11.2988 86.6328 11.655 86.6328 12.3717V15.0376H87.5132V12.1505C87.5132 11.0899 86.9645 10.492 85.9694 10.492C85.2978 10.492 84.8555 10.791 84.6385 11.2865H84.573V10.578H83.7253V15.0376Z" fill="white"/>
<path d="M91.5681 9.46828V10.5985H90.8597V11.3397H91.5681V13.8582C91.5681 14.7181 91.9571 15.0621 92.9359 15.0621C93.1079 15.0621 93.2717 15.0417 93.415 15.0171V14.2841C93.2921 14.2964 93.2143 14.3045 93.0792 14.3045C92.641 14.3045 92.4486 14.0998 92.4486 13.633V11.3397H93.415V10.5985H92.4486V9.46828H91.5681Z" fill="white"/>
<path d="M94.5968 15.0376H95.4773V12.4331C95.4773 11.7574 95.8786 11.3029 96.5993 11.3029C97.2217 11.3029 97.5534 11.6632 97.5534 12.3758V15.0376H98.4339V12.1587C98.4339 11.0981 97.8483 10.4961 96.8982 10.4961C96.2267 10.4961 95.7557 10.7951 95.5387 11.2947H95.4691V8.83765H94.5968V15.0376Z" fill="white"/>
<path d="M101.61 11.2414C102.261 11.2414 102.687 11.696 102.707 12.3962H100.455C100.504 11.7001 100.959 11.2414 101.61 11.2414ZM102.703 13.8336C102.54 14.1817 102.175 14.3742 101.643 14.3742C100.938 14.3742 100.484 13.8787 100.455 13.0965V13.0474H103.604V12.7402C103.604 11.3397 102.855 10.492 101.614 10.492C100.357 10.492 99.5584 11.3971 99.5584 12.8221C99.5584 14.2472 100.341 15.1236 101.618 15.1236C102.638 15.1236 103.35 14.6321 103.551 13.8336H102.703Z" fill="white"/>
<path d="M24.6391 20.5637C24.6604 18.9051 25.5512 17.3357 26.9642 16.467C26.0728 15.1938 24.5797 14.3866 23.0263 14.338C21.3694 14.1641 19.7632 15.3295 18.9189 15.3295C18.0582 15.3295 16.7583 14.3553 15.3585 14.3841C13.5339 14.4431 11.8329 15.4804 10.9452 17.0756C9.037 20.3794 10.4604 25.2348 12.2883 27.9053C13.2028 29.213 14.2716 30.6737 15.6702 30.6219C17.0388 30.5652 17.5499 29.7492 19.2019 29.7492C20.8385 29.7492 21.3181 30.6219 22.745 30.589C24.2135 30.5652 25.1388 29.2755 26.0212 27.9554C26.6783 27.0237 27.184 25.9939 27.5194 24.9042C25.7936 24.1742 24.6411 22.4375 24.6391 20.5637Z" fill="white"/>
<path d="M21.9438 12.5818C22.7445 11.6206 23.139 10.3851 23.0435 9.1377C21.8202 9.26618 20.6902 9.85084 19.8787 10.7752C19.0851 11.6783 18.6721 12.892 18.7502 14.0917C19.974 14.1043 21.177 13.5355 21.9438 12.5818Z" fill="white"/>
</svg>
