<svg width="171" height="36" viewBox="0 0 171 36" fill="none" xmlns="http://www.w3.org/2000/svg">
<path d="M1.70141 22V13.6H5.46941C6.43741 13.6 7.18141 13.796 7.70141 14.188C8.22141 14.572 8.48141 15.1 8.48141 15.772C8.48141 16.228 8.37741 16.612 8.16941 16.924C7.96941 17.236 7.69741 17.476 7.35341 17.644C7.00941 17.812 6.63741 17.896 6.23741 17.896L6.45341 17.536C6.93341 17.536 7.35741 17.62 7.72541 17.788C8.09341 17.956 8.38541 18.204 8.60141 18.532C8.81741 18.852 8.92541 19.252 8.92541 19.732C8.92541 20.452 8.65341 21.012 8.10941 21.412C7.57341 21.804 6.77341 22 5.70941 22H1.70141ZM2.90141 21.028H5.66141C6.32541 21.028 6.83341 20.916 7.18541 20.692C7.53741 20.468 7.71341 20.116 7.71341 19.636C7.71341 19.148 7.53741 18.792 7.18541 18.568C6.83341 18.344 6.32541 18.232 5.66141 18.232H2.79341V17.26H5.36141C5.96941 17.26 6.44141 17.148 6.77741 16.924C7.11341 16.7 7.28141 16.364 7.28141 15.916C7.28141 15.468 7.11341 15.132 6.77741 14.908C6.44141 14.684 5.96941 14.572 5.36141 14.572H2.90141V21.028ZM14.5134 22.096C13.4094 22.096 12.5414 21.78 11.9094 21.148C11.2774 20.516 10.9614 19.592 10.9614 18.376V13.6H12.1614V18.328C12.1614 19.264 12.3654 19.948 12.7734 20.38C13.1894 20.812 13.7734 21.028 14.5254 21.028C15.2854 21.028 15.8694 20.812 16.2774 20.38C16.6934 19.948 16.9014 19.264 16.9014 18.328V13.6H18.0654V18.376C18.0654 19.592 17.7494 20.516 17.1174 21.148C16.4934 21.78 15.6254 22.096 14.5134 22.096ZM20.7756 22V13.6H21.9756V22H20.7756ZM24.7405 22V13.6H25.9405V20.956H30.4885V22H24.7405ZM32.1155 22V13.6H35.6555C36.5515 13.6 37.3395 13.776 38.0195 14.128C38.7075 14.48 39.2395 14.972 39.6155 15.604C39.9995 16.236 40.1915 16.968 40.1915 17.8C40.1915 18.632 39.9995 19.364 39.6155 19.996C39.2395 20.628 38.7075 21.12 38.0195 21.472C37.3395 21.824 36.5515 22 35.6555 22H32.1155ZM33.3155 20.956H35.5835C36.2795 20.956 36.8795 20.824 37.3835 20.56C37.8955 20.296 38.2915 19.928 38.5715 19.456C38.8515 18.976 38.9915 18.424 38.9915 17.8C38.9915 17.168 38.8515 16.616 38.5715 16.144C38.2915 15.672 37.8955 15.304 37.3835 15.04C36.8795 14.776 36.2795 14.644 35.5835 14.644H33.3155V20.956ZM49.5442 22.096C48.9042 22.096 48.3082 21.988 47.7562 21.772C47.2122 21.556 46.7402 21.256 46.3402 20.872C45.9402 20.48 45.6282 20.024 45.4042 19.504C45.1802 18.984 45.0682 18.416 45.0682 17.8C45.0682 17.184 45.1802 16.616 45.4042 16.096C45.6282 15.576 45.9402 15.124 46.3402 14.74C46.7402 14.348 47.2122 14.044 47.7562 13.828C48.3002 13.612 48.8962 13.504 49.5442 13.504C50.1842 13.504 50.7722 13.612 51.3082 13.828C51.8522 14.036 52.3242 14.336 52.7242 14.728C53.1322 15.112 53.4442 15.564 53.6602 16.084C53.8842 16.604 53.9962 17.176 53.9962 17.8C53.9962 18.424 53.8842 18.996 53.6602 19.516C53.4442 20.036 53.1322 20.492 52.7242 20.884C52.3242 21.268 51.8522 21.568 51.3082 21.784C50.7722 21.992 50.1842 22.096 49.5442 22.096ZM49.5442 21.028C50.0082 21.028 50.4362 20.948 50.8282 20.788C51.2282 20.628 51.5722 20.404 51.8602 20.116C52.1562 19.82 52.3842 19.476 52.5442 19.084C52.7122 18.692 52.7962 18.264 52.7962 17.8C52.7962 17.336 52.7122 16.908 52.5442 16.516C52.3842 16.124 52.1562 15.784 51.8602 15.496C51.5722 15.2 51.2282 14.972 50.8282 14.812C50.4362 14.652 50.0082 14.572 49.5442 14.572C49.0722 14.572 48.6362 14.652 48.2362 14.812C47.8442 14.972 47.5002 15.2 47.2042 15.496C46.9082 15.784 46.6762 16.124 46.5082 16.516C46.3482 16.908 46.2682 17.336 46.2682 17.8C46.2682 18.264 46.3482 18.692 46.5082 19.084C46.6762 19.476 46.9082 19.82 47.2042 20.116C47.5002 20.404 47.8442 20.628 48.2362 20.788C48.6362 20.948 49.0722 21.028 49.5442 21.028ZM56.0803 22V13.6H57.0643L62.6203 20.5H62.1043V13.6H63.3043V22H62.3203L56.7643 15.1H57.2803V22H56.0803Z" fill="#FAFAFA"/>
<circle cx="91" cy="18" r="18" fill="#15171F"/>
<path d="M99.9073 22.7879L96.9359 25.9268C96.8713 25.995 96.7931 26.0494 96.7063 26.0865C96.6194 26.1237 96.5257 26.1428 96.4311 26.1428H82.345C82.2778 26.1428 82.212 26.1234 82.1558 26.0871C82.0996 26.0508 82.0554 25.9992 82.0286 25.9384C82.0018 25.8777 81.9936 25.8106 82.005 25.7454C82.0164 25.6801 82.0469 25.6196 82.0927 25.5712L85.0664 22.4322C85.1309 22.3642 85.2088 22.31 85.2953 22.2728C85.3819 22.2357 85.4753 22.2164 85.5697 22.2163H99.655C99.7222 22.2163 99.788 22.2356 99.8442 22.2719C99.9004 22.3082 99.9446 22.3599 99.9715 22.4206C99.9982 22.4813 100.006 22.5484 99.995 22.6137C99.9836 22.6789 99.9531 22.7395 99.9073 22.7879ZM96.9359 16.4669C96.8713 16.3987 96.7931 16.3444 96.7063 16.3072C96.6194 16.2701 96.5257 16.2509 96.4311 16.251H82.345C82.2778 16.251 82.212 16.2703 82.1558 16.3066C82.0996 16.3429 82.0554 16.3946 82.0286 16.4553C82.0018 16.516 81.9936 16.5831 82.005 16.6484C82.0164 16.7136 82.0469 16.7742 82.0927 16.8226L85.0664 19.9615C85.1309 20.0295 85.2088 20.0838 85.2953 20.1209C85.3819 20.1581 85.4753 20.1773 85.5697 20.1775H99.655C99.7222 20.1775 99.788 20.1581 99.8442 20.1218C99.9004 20.0855 99.9446 20.0338 99.9715 19.9731C99.9982 19.9124 100.006 19.8453 99.995 19.7801C99.9836 19.7148 99.9531 19.6543 99.9073 19.6059L96.9359 16.4669ZM82.345 14.2122H96.4311C96.5257 14.2122 96.6194 14.1931 96.7063 14.1559C96.7931 14.1188 96.8713 14.0644 96.9359 13.9962L99.9073 10.8573C99.9531 10.8089 99.9836 10.7483 99.995 10.6831C100.006 10.6178 99.9982 10.5507 99.9715 10.49C99.9446 10.4293 99.9004 10.3776 99.8442 10.3413C99.788 10.305 99.7222 10.2856 99.655 10.2856H85.5697C85.4753 10.2858 85.3819 10.3051 85.2953 10.3422C85.2088 10.3793 85.1309 10.4336 85.0664 10.5016L82.0935 13.6406C82.0477 13.6889 82.0172 13.7494 82.0058 13.8146C81.9944 13.8797 82.0025 13.9468 82.0292 14.0075C82.0559 14.0682 82.1 14.1198 82.1561 14.1562C82.2122 14.1926 82.2778 14.212 82.345 14.2122Z" fill="url(#paint0_linear_6061_1896)"/>
<path d="M121.097 22.096C120.457 22.096 119.845 22 119.261 21.808C118.677 21.608 118.217 21.352 117.881 21.04L118.325 20.104C118.645 20.384 119.053 20.616 119.549 20.8C120.045 20.984 120.561 21.076 121.097 21.076C121.585 21.076 121.981 21.02 122.285 20.908C122.589 20.796 122.813 20.644 122.957 20.452C123.101 20.252 123.173 20.028 123.173 19.78C123.173 19.492 123.077 19.26 122.885 19.084C122.701 18.908 122.457 18.768 122.153 18.664C121.857 18.552 121.529 18.456 121.169 18.376C120.809 18.296 120.445 18.204 120.077 18.1C119.717 17.988 119.385 17.848 119.081 17.68C118.785 17.512 118.545 17.288 118.361 17.008C118.177 16.72 118.085 16.352 118.085 15.904C118.085 15.472 118.197 15.076 118.421 14.716C118.653 14.348 119.005 14.056 119.477 13.84C119.957 13.616 120.565 13.504 121.301 13.504C121.789 13.504 122.273 13.568 122.753 13.696C123.233 13.824 123.649 14.008 124.001 14.248L123.605 15.208C123.245 14.968 122.865 14.796 122.465 14.692C122.065 14.58 121.677 14.524 121.301 14.524C120.829 14.524 120.441 14.584 120.137 14.704C119.833 14.824 119.609 14.984 119.465 15.184C119.329 15.384 119.261 15.608 119.261 15.856C119.261 16.152 119.353 16.388 119.537 16.564C119.729 16.74 119.973 16.88 120.269 16.984C120.573 17.088 120.905 17.184 121.265 17.272C121.625 17.352 121.985 17.444 122.345 17.548C122.713 17.652 123.045 17.788 123.341 17.956C123.645 18.124 123.889 18.348 124.073 18.628C124.257 18.908 124.349 19.268 124.349 19.708C124.349 20.132 124.233 20.528 124.001 20.896C123.769 21.256 123.409 21.548 122.921 21.772C122.441 21.988 121.833 22.096 121.097 22.096ZM130.144 22.096C129.504 22.096 128.908 21.988 128.356 21.772C127.812 21.556 127.34 21.256 126.94 20.872C126.54 20.48 126.228 20.024 126.004 19.504C125.78 18.984 125.668 18.416 125.668 17.8C125.668 17.184 125.78 16.616 126.004 16.096C126.228 15.576 126.54 15.124 126.94 14.74C127.34 14.348 127.812 14.044 128.356 13.828C128.9 13.612 129.496 13.504 130.144 13.504C130.784 13.504 131.372 13.612 131.908 13.828C132.452 14.036 132.924 14.336 133.324 14.728C133.732 15.112 134.044 15.564 134.26 16.084C134.484 16.604 134.596 17.176 134.596 17.8C134.596 18.424 134.484 18.996 134.26 19.516C134.044 20.036 133.732 20.492 133.324 20.884C132.924 21.268 132.452 21.568 131.908 21.784C131.372 21.992 130.784 22.096 130.144 22.096ZM130.144 21.028C130.608 21.028 131.036 20.948 131.428 20.788C131.828 20.628 132.172 20.404 132.46 20.116C132.756 19.82 132.984 19.476 133.144 19.084C133.312 18.692 133.396 18.264 133.396 17.8C133.396 17.336 133.312 16.908 133.144 16.516C132.984 16.124 132.756 15.784 132.46 15.496C132.172 15.2 131.828 14.972 131.428 14.812C131.036 14.652 130.608 14.572 130.144 14.572C129.672 14.572 129.236 14.652 128.836 14.812C128.444 14.972 128.1 15.2 127.804 15.496C127.508 15.784 127.276 16.124 127.108 16.516C126.948 16.908 126.868 17.336 126.868 17.8C126.868 18.264 126.948 18.692 127.108 19.084C127.276 19.476 127.508 19.82 127.804 20.116C128.1 20.404 128.444 20.628 128.836 20.788C129.236 20.948 129.672 21.028 130.144 21.028ZM136.68 22V13.6H137.88V20.956H142.428V22H136.68ZM142.783 22L146.587 13.6H147.775L151.591 22H150.331L146.935 14.272H147.415L144.019 22H142.783ZM144.403 19.9L144.727 18.94H149.455L149.803 19.9H144.403ZM153.094 22V13.6H154.078L159.634 20.5H159.118V13.6H160.318V22H159.334L153.778 15.1H154.294V22H153.094ZM161.81 22L165.614 13.6H166.802L170.618 22H169.358L165.962 14.272H166.442L163.046 22H161.81ZM163.43 19.9L163.754 18.94H168.482L168.83 19.9H163.43Z" fill="#FAFAFA"/>
<defs>
<linearGradient id="paint0_linear_6061_1896" x1="83.5194" y1="26.5207" x2="98.0416" y2="9.90065" gradientUnits="userSpaceOnUse">
<stop offset="0.08" stop-color="#9945FF"/>
<stop offset="0.3" stop-color="#8752F3"/>
<stop offset="0.5" stop-color="#5497D5"/>
<stop offset="0.6" stop-color="#43B4CA"/>
<stop offset="0.72" stop-color="#28E0B9"/>
<stop offset="0.97" stop-color="#19FB9B"/>
</linearGradient>
</defs>
</svg>
