<svg width="21" height="20" viewBox="0 0 21 20" fill="none" xmlns="http://www.w3.org/2000/svg">
<mask id="mask0_7281_9729" style="mask-type:luminance" maskUnits="userSpaceOnUse" x="1" y="0" width="19" height="20">
<path d="M10.4994 18.3333C11.5939 18.3347 12.6779 18.1197 13.6892 17.7009C14.7004 17.282 15.6189 16.6674 16.3919 15.8925C17.1668 15.1195 17.7813 14.201 18.2002 13.1898C18.6191 12.1786 18.834 11.0945 18.8327 10C18.834 8.90545 18.6191 7.82142 18.2002 6.8102C17.7813 5.79898 17.1668 4.88048 16.3919 4.1075C15.6189 3.33256 14.7004 2.718 13.6892 2.29913C12.6779 1.88025 11.5939 1.66531 10.4994 1.66666C9.40481 1.66531 8.32078 1.88025 7.30956 2.29913C6.29834 2.718 5.37984 3.33256 4.60686 4.1075C3.83192 4.88048 3.21736 5.79898 2.79849 6.8102C2.37961 7.82142 2.16467 8.90545 2.16602 10C2.16467 11.0945 2.37961 12.1786 2.79849 13.1898C3.21736 14.201 3.83192 15.1195 4.60686 15.8925C5.37984 16.6674 6.29834 17.282 7.30956 17.7009C8.32078 18.1197 9.40481 18.3347 10.4994 18.3333Z" fill="white" stroke="white" stroke-width="2" stroke-linejoin="round"/>
<path d="M7.16602 10L9.66602 12.5L14.666 7.5" stroke="black" stroke-width="2" stroke-linecap="round" stroke-linejoin="round"/>
</mask>
<g mask="url(#mask0_7281_9729)">
<path d="M0.5 0H20.5V20H0.5V0Z" fill="#FF9A0D"/>
</g>
</svg>
