<svg width="2498" height="691" viewBox="0 0 2498 691" fill="none" xmlns="http://www.w3.org/2000/svg">
<g clip-path="url(#clip0_244_70544)">
<rect width="2498" height="691" fill="white"/>
<path d="M0 672H2500V151.5H1701.16C1686.58 151.5 1672.73 157.862 1663.23 168.919L1536.81 316.081C1527.31 327.138 1513.46 333.5 1498.89 333.5H994.699C977.537 333.5 961.574 342.302 952.415 356.815L934.018 385.965C919.107 409.594 892.948 423.731 865.011 423.258L672.48 420H0V672Z" fill="url(#paint0_linear_244_70544)"/>
<path d="M0 -1H2498.5V141C2498.5 147.627 2493.12 153 2486.5 153H1703.27C1688.92 153 1675.26 159.164 1665.77 169.925L1533.77 319.575C1524.28 330.336 1510.62 336.5 1496.27 336.5H997.905C982.018 336.5 967.078 344.049 957.653 356.838L933.983 388.959C918.904 409.421 894.999 421.5 869.581 421.5H682.502H0V-1Z" fill="url(#paint1_linear_244_70544)"/>
<path d="M0 417.5H682.502L865.56 419.957C890.984 420.299 915.057 408.533 930.408 388.264L957.635 352.313C967.087 339.833 981.839 332.5 997.494 332.5H1496.59C1511.05 332.5 1524.79 326.243 1534.29 315.342L1664.25 166.158C1673.74 155.257 1687.49 149 1701.95 149H2499.46" stroke="url(#paint2_linear_244_70544)" stroke-width="7"/>
<g filter="url(#filter0_f_244_70544)">
<path d="M0 488.5H921.792L1004.91 396H1514.12L1705.89 250H2499.5V691H0V488.5Z" fill="url(#paint3_linear_244_70544)"/>
</g>
</g>
<defs>
<filter id="filter0_f_244_70544" x="-70" y="180" width="2639.5" height="581" filterUnits="userSpaceOnUse" color-interpolation-filters="sRGB">
<feFlood flood-opacity="0" result="BackgroundImageFix"/>
<feBlend mode="normal" in="SourceGraphic" in2="BackgroundImageFix" result="shape"/>
<feGaussianBlur stdDeviation="2" result="effect1_foregroundBlur_244_70544"/>
</filter>
<linearGradient id="paint0_linear_244_70544" x1="510.624" y1="548.501" x2="1954.3" y2="556.536" gradientUnits="userSpaceOnUse">
<stop/>
<stop offset="0.204268" stop-color="#2E3234"/>
<stop offset="0.266724" stop-color="#2E3234"/>
<stop offset="0.344957" stop-color="#16181A"/>
<stop offset="0.425146" stop-color="#191B1C"/>
<stop offset="0.695403" stop-color="#35373A"/>
<stop offset="0.738117" stop-color="#1B1D1F"/>
<stop offset="0.798772" stop-color="#131415"/>
<stop offset="0.825708" stop-color="#191A1B"/>
<stop offset="1"/>
</linearGradient>
<linearGradient id="paint1_linear_244_70544" x1="1123.97" y1="39" x2="1123.97" y2="641.5" gradientUnits="userSpaceOnUse">
<stop offset="0.00153249"/>
<stop offset="0.210963" stop-color="#191E32"/>
<stop offset="0.338339" stop-color="#2D385B"/>
<stop offset="0.452717" stop-color="#3C4E7D"/>
<stop offset="0.698275" stop-color="#98BFF6"/>
</linearGradient>
<linearGradient id="paint2_linear_244_70544" x1="854.88" y1="439.5" x2="1715.69" y2="70.6299" gradientUnits="userSpaceOnUse">
<stop stop-color="#DDEAFF"/>
<stop offset="0.36603" stop-color="#8EBDFF"/>
<stop offset="1" stop-color="#83ABF9" stop-opacity="0"/>
</linearGradient>
<linearGradient id="paint3_linear_244_70544" x1="1208.69" y1="382.5" x2="1208.69" y2="664" gradientUnits="userSpaceOnUse">
<stop stop-opacity="0.2"/>
<stop offset="1"/>
</linearGradient>
<clipPath id="clip0_244_70544">
<rect width="2498" height="691" fill="white"/>
</clipPath>
</defs>
</svg>
