<svg width="24" height="24" viewBox="0 0 24 24" fill="none" xmlns="http://www.w3.org/2000/svg">
<path d="M0 12C0 5.37258 5.37258 0 12 0C18.6274 0 24 5.37258 24 12C24 18.6274 18.6274 24 12 24C5.37258 24 0 18.6274 0 12Z" fill="#272D3D"/>
<path fill-rule="evenodd" clip-rule="evenodd" d="M18.7078 7.16244C18.9401 7.40094 19.105 7.69627 19.186 8.0186C19.4023 9.21306 19.5073 10.4249 19.4996 11.6386C19.5039 12.8342 19.399 14.0276 19.186 15.2042C19.105 15.5266 18.9401 15.8219 18.7078 16.0604C18.4756 16.2989 18.1843 16.4721 17.8633 16.5626C16.6907 16.875 12 16.875 12 16.875C12 16.875 7.30933 16.875 6.13667 16.5626C5.82224 16.4769 5.53532 16.3118 5.30363 16.0834C5.07193 15.855 4.9033 15.5709 4.81401 15.2586C4.59773 14.0641 4.49274 12.8523 4.50039 11.6386C4.49441 10.4339 4.59939 9.2313 4.81401 8.04576C4.895 7.72343 5.05994 7.42811 5.29218 7.1896C5.52441 6.9511 5.81572 6.77787 6.13667 6.68742C7.30933 6.375 12 6.375 12 6.375C12 6.375 16.6907 6.375 17.8633 6.66025C18.1843 6.75071 18.4756 6.92393 18.7078 7.16244ZM14.3862 11.6386L10.4659 13.8595V9.41768L14.3862 11.6386Z" fill="#EBEDF2"/>
</svg>
