<svg width="24" height="24" viewBox="0 0 24 24" fill="none" xmlns="http://www.w3.org/2000/svg">
<path d="M0 12C0 5.37258 5.37258 0 12 0C18.6274 0 24 5.37258 24 12C24 18.6274 18.6274 24 12 24C5.37258 24 0 18.6274 0 12Z" fill="#272D3D"/>
<path d="M17.1919 6.95006C16.2419 6.50719 15.2133 6.18575 14.1418 6.00003C14.1324 5.99973 14.1231 6.0015 14.1144 6.0052C14.1058 6.0089 14.0981 6.01445 14.0918 6.02146C13.9632 6.25718 13.8132 6.56433 13.7132 6.80005C12.5768 6.62862 11.421 6.62862 10.2846 6.80005C10.1846 6.55719 10.0346 6.25718 9.89884 6.02146C9.89169 6.00718 9.87026 6.00003 9.84883 6.00003C8.77738 6.18575 7.75592 6.50719 6.79875 6.95006C6.79161 6.95006 6.78447 6.9572 6.77732 6.96435C4.83441 9.87157 4.29868 12.7002 4.56298 15.5003C4.56298 15.5146 4.57012 15.5289 4.58441 15.536C5.87015 16.4789 7.1059 17.0503 8.32737 17.4289C8.34879 17.4361 8.37022 17.4289 8.37737 17.4146C8.66309 17.0218 8.92024 16.6075 9.14167 16.1717C9.15596 16.1432 9.14167 16.1146 9.1131 16.1075C8.70595 15.9503 8.32022 15.7646 7.94164 15.5503C7.91307 15.536 7.91307 15.4932 7.9345 15.4717C8.01307 15.4146 8.09164 15.3503 8.17022 15.2931C8.1845 15.2789 8.20593 15.2789 8.22022 15.286C10.6774 16.4075 13.3275 16.4075 15.7561 15.286C15.7704 15.2789 15.7919 15.2789 15.8061 15.2931C15.8847 15.3574 15.9633 15.4146 16.0419 15.4789C16.0704 15.5003 16.0704 15.5432 16.0347 15.5574C15.6633 15.7789 15.2704 15.9574 14.8633 16.1146C14.8347 16.1217 14.8275 16.1575 14.8347 16.1789C15.0633 16.6146 15.3204 17.0289 15.599 17.4218C15.6204 17.4289 15.6419 17.4361 15.6633 17.4289C16.8919 17.0503 18.1276 16.4789 19.4134 15.536C19.4277 15.5289 19.4348 15.5146 19.4348 15.5003C19.7491 12.2645 18.9134 9.45727 17.2205 6.96435C17.2133 6.9572 17.2062 6.95006 17.1919 6.95006ZM9.51311 13.7931C8.77738 13.7931 8.16307 13.1145 8.16307 12.2788C8.16307 11.443 8.76309 10.7644 9.51311 10.7644C10.2703 10.7644 10.8703 11.4502 10.8631 12.2788C10.8631 13.1145 10.2631 13.7931 9.51311 13.7931ZM14.4918 13.7931C13.7561 13.7931 13.1418 13.1145 13.1418 12.2788C13.1418 11.443 13.7418 10.7644 14.4918 10.7644C15.249 10.7644 15.849 11.4502 15.8419 12.2788C15.8419 13.1145 15.249 13.7931 14.4918 13.7931Z" fill="#EBEDF2"/>
</svg>
