<svg width="24" height="24" viewBox="0 0 24 24" fill="none" xmlns="http://www.w3.org/2000/svg">
<path d="M0 12C0 5.37258 5.37258 0 12 0C18.6274 0 24 5.37258 24 12C24 18.6274 18.6274 24 12 24C5.37258 24 0 18.6274 0 12Z" fill="#272D3D"/>
<path fill-rule="evenodd" clip-rule="evenodd" d="M19.4744 14.5843C19.4501 15.4003 19.3995 15.8703 19.2862 16.3353C18.9008 17.9157 17.7624 18.9943 16.1342 19.3217C15.3722 19.4749 14.7926 19.5002 12.0442 19.5C9.20226 19.4998 8.48476 19.4649 7.73425 19.2907C6.09503 18.9101 5.01042 17.7837 4.67061 16.1089C4.53149 15.4232 4.51812 15.1632 4.50325 12.8575C4.4895 10.7212 4.52002 9.03463 4.58239 8.48263C4.66093 7.78727 4.80636 7.25763 5.05598 6.75757C5.24653 6.37583 5.41444 6.14263 5.73845 5.80975C6.36896 5.16192 7.22359 4.76853 8.32793 4.61782C8.5013 4.59417 8.98618 4.56517 9.40545 4.55344C10.0524 4.53529 10.1189 4.52959 9.84524 4.51589C9.66786 4.507 10.6706 4.49983 12.0735 4.5C13.4764 4.50015 14.4396 4.50741 14.2138 4.51616C13.8198 4.5314 13.8345 4.5329 14.5803 4.55335C15.5976 4.58124 16.0976 4.64995 16.6913 4.84353C18.0493 5.28632 18.9363 6.25658 19.2822 7.67788C19.4004 8.16328 19.4472 8.62087 19.477 9.58002C19.5088 10.6035 19.5073 13.4814 19.4744 14.5843ZM18.1537 13.794C18.1353 15.2826 18.1221 15.4826 18.0088 15.9949C17.7214 17.2946 16.9341 17.913 15.308 18.1164C14.9293 18.1637 14.6008 18.1689 11.9562 18.1689C9.69495 18.1689 8.95387 18.16 8.71644 18.1301C7.74078 18.0071 7.19685 17.7781 6.70968 17.2852C6.27649 16.847 6.06243 16.3422 5.94579 15.4837C5.87361 14.9524 5.83552 13.14 5.85344 11.0871C5.86962 9.23351 5.88754 8.83263 5.97846 8.29242C6.10922 7.51524 6.41657 6.95463 6.93298 6.55132C7.41765 6.1728 7.9211 6.01287 8.93634 5.91496C9.46922 5.86354 14.5383 5.8641 15.1285 5.91563C15.8587 5.9794 16.3082 6.08992 16.7163 6.30612C17.6101 6.7797 18.0252 7.62831 18.1271 9.19023C18.1653 9.775 18.1774 11.8758 18.1537 13.794ZM16.8543 8.30111C16.6306 8.92709 15.8436 9.10747 15.3754 8.64013C15.1888 8.45393 15.1227 8.29023 15.1227 8.01442C15.1227 7.81744 15.1357 7.75394 15.2045 7.61403C15.3534 7.31153 15.6064 7.14933 15.9625 7.12808C16.1598 7.11632 16.2072 7.1241 16.3583 7.19304C16.5819 7.29503 16.7082 7.41773 16.8121 7.63399C16.9079 7.83327 16.925 8.10332 16.8543 8.30111ZM15.795 12.6715C15.6739 13.391 15.3154 14.0959 14.7898 14.6481C14.2626 15.202 13.6489 15.5564 12.8878 15.7466C12.6029 15.8178 12.5188 15.8256 12.0295 15.8267C11.267 15.8283 10.8746 15.738 10.241 15.4153C9.157 14.8632 8.40082 13.8203 8.20051 12.6011C8.1434 12.2535 8.15987 11.5517 8.23297 11.2188C8.40009 10.4576 8.73069 9.85636 9.28726 9.30143C10.0513 8.53964 10.9332 8.17566 12.0149 8.17557C13.0386 8.17551 13.9338 8.53741 14.6705 9.24925C15.2691 9.82753 15.6568 10.5504 15.7957 11.347C15.8514 11.6661 15.851 12.3387 15.795 12.6715ZM12.0442 19.4864C10.6413 19.4864 10.0631 19.4828 10.7593 19.4784C11.4555 19.4741 12.6033 19.4741 13.3101 19.4784C14.0168 19.4828 13.4471 19.4864 12.0442 19.4864ZM14.4605 12.4751C14.3277 13.1507 13.9069 13.757 13.3154 14.125C12.8767 14.3978 12.4217 14.5132 11.8846 14.4879C11.4769 14.4686 11.2074 14.3975 10.8562 14.2164C10.3653 13.9634 10.0157 13.6055 9.77171 13.1063C9.58652 12.7274 9.53724 12.5374 9.51704 12.1243C9.4608 10.9755 10.1612 9.97458 11.2672 9.62295C11.7552 9.46782 12.45 9.49395 12.9215 9.68519C13.6933 9.99819 14.2826 10.6952 14.4459 11.4882C14.4958 11.7305 14.5036 12.2558 14.4605 12.4751Z" fill="#EBEDF2"/>
</svg>
