<svg width="2502" height="412" viewBox="0 0 2502 412" fill="none" xmlns="http://www.w3.org/2000/svg">
<path d="M619.657 1H1V411H1082L1244.47 112H764.531C750.41 112 736.948 106.029 727.469 95.5629L656.718 17.4371C647.239 6.97062 633.777 1 619.657 1Z" fill="url(#paint0_linear_244_60681)" stroke="url(#paint1_linear_244_60681)"/>
<path d="M1898.43 2.33984H2501V411H1107L1268.59 112L1753.47 113.281C1767.64 113.318 1781.16 107.345 1790.67 96.8442L1861.37 18.7769C1870.84 8.31046 1884.31 2.33984 1898.43 2.33984Z" fill="url(#paint2_linear_244_60681)" stroke="url(#paint3_linear_244_60681)"/>
<defs>
<linearGradient id="paint0_linear_244_60681" x1="838.818" y1="447.168" x2="849.719" y2="104.73" gradientUnits="userSpaceOnUse">
<stop/>
<stop offset="1" stop-color="#0C0F18"/>
</linearGradient>
<linearGradient id="paint1_linear_244_60681" x1="710.188" y1="214.5" x2="677.847" y2="31.9418" gradientUnits="userSpaceOnUse">
<stop stop-color="#272E40" stop-opacity="0"/>
<stop offset="0.230503" stop-color="#2B313F" stop-opacity="0.641052"/>
<stop offset="1" stop-color="#2E333E"/>
</linearGradient>
<linearGradient id="paint2_linear_244_60681" x1="1446.03" y1="461.37" x2="1436.05" y2="107.955" gradientUnits="userSpaceOnUse">
<stop/>
<stop offset="1" stop-color="#0C0F18"/>
</linearGradient>
<linearGradient id="paint3_linear_244_60681" x1="1730.88" y1="214.5" x2="1761.86" y2="31.4547" gradientUnits="userSpaceOnUse">
<stop stop-color="#272E40" stop-opacity="0"/>
<stop offset="0.230503" stop-color="#2B313F" stop-opacity="0.641052"/>
<stop offset="1" stop-color="#2E333E"/>
</linearGradient>
</defs>
</svg>
