<svg width="24" height="24" viewBox="0 0 24 24" fill="none" xmlns="http://www.w3.org/2000/svg">
<path d="M0 12C0 5.37258 5.37258 0 12 0C18.6274 0 24 5.37258 24 12C24 18.6274 18.6274 24 12 24C5.37258 24 0 18.6274 0 12Z" fill="#272D3D"/>
<path fill-rule="evenodd" clip-rule="evenodd" d="M12.1738 9.81813L12.161 15.4619L12.0542 15.7578C11.9044 16.1728 11.7449 16.4276 11.4515 16.7203C10.5283 17.6413 9.05452 17.6283 8.12289 16.6909C7.06021 15.6217 7.25949 13.883 8.54014 13.05C8.96573 12.7731 9.29575 12.6915 9.99068 12.6915H10.5812V11.4323V10.173H9.92222C9.17582 10.173 8.69483 10.2477 8.14144 10.4497C5.61397 11.3721 4.29925 14.1584 5.2035 16.6761C5.87567 18.5477 7.58708 19.8144 9.57375 19.9106C10.9867 19.9791 12.3009 19.4551 13.2844 18.4309C13.8382 17.8543 14.1938 17.28 14.4279 16.5838C14.6658 15.8768 14.6675 15.8514 14.6973 12.4965L14.7253 9.34785L14.9616 9.50706C15.8357 10.0959 17.2167 10.5646 18.3543 10.6587L18.7321 10.6899V9.42936V8.16885L18.423 8.13579C17.3625 8.02232 16.178 7.45464 15.6736 6.81818C15.5491 6.66112 15.3822 6.41673 15.3027 6.27514C15.0293 5.78819 14.7035 4.74048 14.7027 4.34603L14.7024 4.17432H13.4445H12.1866L12.1738 9.81813Z" fill="#EBEDF2"/>
</svg>
