<svg width="24" height="24" viewBox="0 0 24 24" fill="none" xmlns="http://www.w3.org/2000/svg">
<path d="M0 12C0 5.37258 5.37258 0 12 0C18.6274 0 24 5.37258 24 12C24 18.6274 18.6274 24 12 24C5.37258 24 0 18.6274 0 12Z" fill="#272D3D"/>
<path d="M14.9905 13.3221L15.4829 10.6032H12.617V9.64164C12.617 8.20498 13.1729 7.65231 14.6114 7.65231C15.0582 7.65231 15.4179 7.66334 15.625 7.68541V5.221C15.2326 5.11032 14.2735 5 13.7176 5C10.7857 5 9.43417 6.40356 9.43417 9.43167V10.6032H7.625V13.3221H9.43417V19.2381C10.1129 19.4089 10.8229 19.5 11.5536 19.5C11.9133 19.5 12.2681 19.4776 12.6166 19.4349V13.3221H14.9901H14.9905Z" fill="#EBEDF2"/>
</svg>
