<svg width="2702" height="445" viewBox="0 0 2702 445" fill="none" xmlns="http://www.w3.org/2000/svg">
<path d="M669.15 1H1V443.8H1168.48L1343.94 120.88H825.614C810.363 120.88 795.824 114.432 785.588 103.128L709.176 18.752C698.939 7.44828 684.4 1 669.15 1Z" fill="url(#paint0_linear_7063_6381)" stroke="url(#paint1_linear_7063_6381)" stroke-width="1.08"/>
<path d="M2050.22 2.44727H2701V443.801H1195.48L1370 120.881L1893.67 122.264C1908.97 122.304 1923.57 115.853 1933.84 104.512L2010.19 20.1993C2020.43 8.89554 2034.97 2.44727 2050.22 2.44727Z" fill="url(#paint2_linear_7063_6381)" stroke="url(#paint3_linear_7063_6381)" stroke-width="1.08"/>
<defs>
<linearGradient id="paint0_linear_7063_6381" x1="905.844" y1="482.862" x2="917.617" y2="113.028" gradientUnits="userSpaceOnUse">
<stop/>
<stop offset="1" stop-color="#0C0F18"/>
</linearGradient>
<linearGradient id="paint1_linear_7063_6381" x1="766.923" y1="231.58" x2="731.995" y2="34.4171" gradientUnits="userSpaceOnUse">
<stop stop-color="#272E40" stop-opacity="0"/>
<stop offset="0.230503" stop-color="#2B313F" stop-opacity="0.641052"/>
<stop offset="1" stop-color="#2E333E"/>
</linearGradient>
<linearGradient id="paint2_linear_7063_6381" x1="1561.63" y1="498.2" x2="1550.86" y2="116.512" gradientUnits="userSpaceOnUse">
<stop/>
<stop offset="1" stop-color="#0C0F18"/>
</linearGradient>
<linearGradient id="paint3_linear_7063_6381" x1="1869.27" y1="231.58" x2="1902.73" y2="33.8913" gradientUnits="userSpaceOnUse">
<stop stop-color="#272E40" stop-opacity="0"/>
<stop offset="0.230503" stop-color="#2B313F" stop-opacity="0.641052"/>
<stop offset="1" stop-color="#2E333E"/>
</linearGradient>
</defs>
</svg>
