<svg width="24" height="24" viewBox="0 0 24 24" fill="none" xmlns="http://www.w3.org/2000/svg">
<path d="M0 12C0 5.37258 5.37258 0 12 0C18.6274 0 24 5.37258 24 12C24 18.6274 18.6274 24 12 24C5.37258 24 0 18.6274 0 12Z" fill="#272D3D"/>
<path d="M12.3206 5.25C11.9175 5.25 11.55 5.4625 10.8162 5.88562L6.79687 8.20186C6.10463 8.59273 5.52776 9.15929 5.12448 9.84437C4.72121 10.5294 4.5058 11.3088 4.5 12.1037V12.2512C4.50584 13.0451 4.72076 13.8235 5.1231 14.5079C5.52545 15.1924 6.10102 15.7587 6.79187 16.15L9.30623 17.6018C10.7775 18.4518 11.5131 18.8781 12.3212 18.8781C13.1287 18.8787 13.865 18.4543 15.3368 17.6043L17.9937 16.0712C18.7293 15.6462 19.0962 15.4337 19.2981 15.0843C19.4999 14.7343 19.5006 14.3093 19.4999 13.4593V11.8156C19.5001 11.7016 19.4702 11.5895 19.4133 11.4907C19.3564 11.3918 19.2745 11.3097 19.1759 11.2525C19.0772 11.1953 18.9652 11.1651 18.8512 11.1649C18.7372 11.1646 18.6251 11.1944 18.5262 11.2512L13.0712 14.3912C12.7043 14.6018 12.5212 14.7081 12.3206 14.7081C12.1187 14.7081 11.9356 14.6031 11.5681 14.3918L7.87811 12.2712C7.69249 12.1643 7.59936 12.1112 7.52499 12.1018C7.44281 12.091 7.35935 12.1077 7.28765 12.1493C7.21596 12.1909 7.16008 12.2551 7.12874 12.3318C7.10061 12.4012 7.10061 12.5081 7.10186 12.7225C7.10311 12.88 7.10186 12.9587 7.11749 13.0312C7.15061 13.1931 7.23561 13.3393 7.35936 13.4481C7.41499 13.4962 7.48311 13.5356 7.61936 13.6143L11.5662 15.8956C11.9343 16.1081 12.1187 16.2143 12.3206 16.2143C12.5225 16.2143 12.7062 16.1081 13.0743 15.8962L17.9118 13.1031C18.0381 13.0306 18.1006 12.9956 18.1474 13.0218C18.1943 13.0493 18.1943 13.1218 18.1943 13.2668V14.0125C18.1943 14.225 18.1949 14.3312 18.1443 14.4181C18.0943 14.5056 18.0024 14.5581 17.8181 14.6643L13.8293 16.9675C13.0931 17.3925 12.725 17.605 12.3212 17.605C11.9175 17.605 11.5487 17.3925 10.8137 16.9662L7.08249 14.8087L7.05561 14.7931C6.67108 14.5683 6.35177 14.2472 6.12918 13.8614C5.90658 13.4756 5.78838 13.0385 5.78624 12.5931V11.8768C5.78643 11.6308 5.85117 11.3891 5.974 11.1759C6.09684 10.9627 6.27347 10.7854 6.48624 10.6619C6.67446 10.5529 6.88806 10.4955 7.10553 10.4954C7.323 10.4953 7.53666 10.5525 7.72499 10.6612L10.8162 12.4475C11.55 12.8718 11.9175 13.0843 12.3206 13.085C12.7237 13.085 13.0912 12.8725 13.8268 12.4493L18.5031 9.75811C18.6069 9.69832 18.6932 9.61221 18.7532 9.50847C18.8131 9.40473 18.8447 9.28701 18.8447 9.16717C18.8447 9.04734 18.8131 8.92962 18.7532 8.82587C18.6932 8.72213 18.6069 8.63603 18.5031 8.57624L13.825 5.88312C13.0906 5.46125 12.7237 5.25 12.3212 5.25H12.3206Z" fill="#EBEDF2"/>
</svg>
