<svg width="24" height="24" viewBox="0 0 24 24" fill="none" xmlns="http://www.w3.org/2000/svg">
<path d="M0 12C0 5.37258 5.37258 0 12 0C18.6274 0 24 5.37258 24 12C24 18.6274 18.6274 24 12 24C5.37258 24 0 18.6274 0 12Z" fill="#272D3D"/>
<path d="M5.27577 10.1318H9.35395L6.45007 7.38179L8.05058 5.74978L10.8129 8.57688V4.55469H13.2133V8.57688L15.975 5.74978L17.5755 7.38179L14.6716 10.1318H18.75V12.4063H14.6456L17.5628 15.2334L15.9623 16.8269L12.0001 12.8561L8.03791 16.8269L6.43739 15.2334L9.35395 12.4063H5.25V10.1318H5.27577ZM10.8256 15.6575H13.226V21.0547H10.8256V15.6575Z" fill="#EBEDF2"/>
</svg>
