<svg width="24" height="24" viewBox="0 0 24 24" fill="none" xmlns="http://www.w3.org/2000/svg">
<g clip-path="url(#clip0_6061_1908)">
<path d="M0 12C0 5.37258 5.37258 0 12 0C18.6274 0 24 5.37258 24 12C24 18.6274 18.6274 24 12 24C5.37258 24 0 18.6274 0 12Z" fill="#272D3D"/>
<path fill-rule="evenodd" clip-rule="evenodd" d="M5.43104 11.8734C8.92928 10.3493 11.262 9.34452 12.4292 8.85905C15.7617 7.47294 16.4542 7.23216 16.9055 7.22421C17.0048 7.22246 17.2267 7.24706 17.3705 7.36372C17.4919 7.46223 17.5253 7.5953 17.5413 7.6887C17.5573 7.78209 17.5772 7.99485 17.5614 8.1611C17.3808 10.0586 16.5994 14.6633 16.2018 16.7885C16.0336 17.6877 15.7024 17.9892 15.3817 18.0188C14.6849 18.0829 14.1557 17.5582 13.4808 17.1158C12.4246 16.4235 11.8279 15.9925 10.8028 15.3169C9.61798 14.5362 10.386 14.107 11.0612 13.4058C11.2379 13.2222 14.3083 10.4295 14.3677 10.1761C14.3752 10.1444 14.3821 10.0263 14.3119 9.96397C14.2417 9.9016 14.1382 9.92293 14.0635 9.93989C13.9575 9.96393 12.2703 11.0791 9.00179 13.2855C8.52287 13.6143 8.08909 13.7745 7.70043 13.7662C7.27197 13.7569 6.44778 13.5239 5.83508 13.3247C5.08358 13.0804 4.4863 12.9513 4.53831 12.5364C4.5654 12.3203 4.86298 12.0993 5.43104 11.8734Z" fill="#EBEDF2"/>
<rect width="23.6874" height="6" transform="translate(-1.1875 12.2998) rotate(27.0257)" fill="#EBEDF2"/>
<path d="M10.3122 22.0493L11.1797 20.3486L11.8506 20.6909C11.9796 20.7567 12.0769 20.8374 12.1426 20.9329C12.2085 21.028 12.2431 21.1311 12.2464 21.2423C12.2505 21.3532 12.2238 21.4651 12.1662 21.5781C12.1086 21.691 12.0334 21.7782 11.9406 21.8397C11.8479 21.9012 11.743 21.9325 11.6259 21.9335C11.5095 21.9348 11.3859 21.9021 11.2553 21.8355L10.8276 21.6173L10.9746 21.3292L11.3441 21.5177C11.4133 21.553 11.4764 21.5702 11.5334 21.5692C11.5912 21.568 11.6421 21.5518 11.686 21.5204C11.7307 21.4888 11.7673 21.4451 11.7958 21.3892C11.8246 21.3327 11.8384 21.2776 11.8372 21.224C11.8368 21.1701 11.8198 21.1199 11.7863 21.0735C11.753 21.0265 11.7015 20.9853 11.6318 20.9497L11.3893 20.826L10.6718 22.2327L10.3122 22.0493Z" fill="#272D3D"/>
<path d="M10.5231 20.0143L10.8826 20.1977L10.3193 21.3021C10.256 21.4262 10.1711 21.5195 10.0644 21.5823C9.95829 21.6454 9.83909 21.676 9.70681 21.6741C9.57481 21.6716 9.43851 21.6346 9.29789 21.5628C9.15673 21.4908 9.04641 21.4021 8.96694 21.2967C8.88774 21.1907 8.84253 21.0763 8.83129 20.9533C8.82005 20.8304 8.84605 20.7069 8.90931 20.5829L9.47266 19.4785L9.83221 19.6619L9.28453 20.7356C9.2515 20.8004 9.23625 20.8652 9.23878 20.9299C9.24187 20.995 9.26209 21.0552 9.29945 21.1105C9.3368 21.1658 9.39008 21.2112 9.45927 21.2465C9.52903 21.282 9.59699 21.2986 9.66315 21.296C9.72988 21.2938 9.7902 21.2747 9.84413 21.2387C9.89861 21.203 9.94238 21.1528 9.97541 21.088L10.5231 20.0143Z" fill="#272D3D"/>
<path d="M8.77208 20.1928C8.67748 20.3783 8.56185 20.5181 8.42518 20.6123C8.28907 20.7068 8.14317 20.7576 7.98747 20.7647C7.83261 20.7715 7.68017 20.7367 7.53014 20.6602C7.37901 20.5831 7.26089 20.4796 7.17578 20.3496C7.09067 20.2197 7.04641 20.0719 7.04302 19.9063C7.03963 19.7406 7.08509 19.5653 7.1794 19.3804C7.274 19.1949 7.38936 19.055 7.52547 18.9605C7.66158 18.8659 7.80707 18.8153 7.96193 18.8085C8.11707 18.8011 8.27021 18.836 8.42134 18.913C8.57136 18.9896 8.68893 19.0928 8.77404 19.2227C8.85999 19.3524 8.90466 19.5 8.90805 19.6657C8.912 19.8317 8.86667 20.0074 8.77208 20.1928ZM8.40754 20.0069C8.46882 19.8867 8.5025 19.7762 8.50859 19.6754C8.51524 19.5749 8.49705 19.4867 8.45402 19.4111C8.41099 19.3354 8.34602 19.2754 8.25911 19.2311C8.1722 19.1867 8.08548 19.1694 7.99897 19.179C7.91246 19.1885 7.83017 19.2254 7.75211 19.2895C7.67461 19.3539 7.60522 19.4462 7.54394 19.5663C7.48266 19.6865 7.4487 19.7968 7.44206 19.8974C7.43597 19.9982 7.45443 20.0865 7.49746 20.1621C7.54049 20.2378 7.60546 20.2978 7.69237 20.3421C7.77928 20.3865 7.866 20.4038 7.95251 20.3942C8.03902 20.3847 8.12103 20.3477 8.19854 20.2832C8.2766 20.2191 8.34626 20.127 8.40754 20.0069Z" fill="#272D3D"/>
<path d="M5.2419 19.4633L6.10938 17.7627L6.78032 18.1049C6.90876 18.1705 7.00665 18.2493 7.074 18.3416C7.14219 18.4336 7.17876 18.5335 7.18373 18.6414C7.18954 18.749 7.16378 18.859 7.10646 18.9714C7.04885 19.0843 6.97493 19.169 6.88471 19.2256C6.79477 19.2815 6.69256 19.3075 6.57808 19.3036C6.46416 19.2999 6.34188 19.2647 6.21123 19.198L5.76199 18.9689L5.90939 18.6799L6.3005 18.8794C6.36915 18.9144 6.43097 18.9341 6.48596 18.9384C6.54096 18.9428 6.58913 18.9318 6.63048 18.9054C6.67237 18.8794 6.70758 18.8384 6.7361 18.7825C6.76491 18.726 6.77784 18.6726 6.77491 18.6223C6.77254 18.5722 6.75346 18.5255 6.71768 18.4821C6.68273 18.4385 6.63066 18.399 6.56146 18.3637L6.31899 18.2401L5.60146 19.6467L5.2419 19.4633ZM6.55507 19.1579L6.58297 20.1474L6.18605 19.9449L6.16728 18.9601L6.55507 19.1579Z" fill="#272D3D"/>
<path d="M5.17779 17.9803C5.18678 17.934 5.18866 17.8899 5.18344 17.8482C5.1785 17.8059 5.16631 17.7662 5.14687 17.7291C5.12828 17.6917 5.10257 17.6573 5.06974 17.6259C5.03748 17.5948 4.99809 17.5674 4.95159 17.5437C4.86468 17.4993 4.77727 17.482 4.68937 17.4915C4.60202 17.5014 4.51904 17.5383 4.44043 17.6021C4.3621 17.6654 4.29272 17.7563 4.23229 17.8747C4.17186 17.9932 4.13846 18.1031 4.13208 18.2045C4.12571 18.3059 4.14431 18.3953 4.18788 18.4726C4.23173 18.5494 4.29849 18.6107 4.38818 18.6564C4.46955 18.6979 4.54637 18.719 4.61863 18.7196C4.69172 18.7199 4.75704 18.7012 4.8146 18.6636C4.87271 18.6263 4.92026 18.5713 4.95725 18.4988L5.02482 18.5469L4.58638 18.3233L4.72446 18.0525L5.4361 18.4155L5.32682 18.6298C5.25058 18.7793 5.15351 18.8916 5.03562 18.9668C4.91801 19.0414 4.78902 19.0796 4.64865 19.0812C4.50857 19.0823 4.36711 19.0465 4.22429 18.9736C4.06485 18.8923 3.94273 18.7857 3.85791 18.6538C3.77337 18.5214 3.73051 18.3729 3.72933 18.2084C3.72899 18.0436 3.77456 17.8715 3.86606 17.6921C3.93637 17.5543 4.01899 17.4415 4.11391 17.3539C4.20967 17.266 4.31301 17.2029 4.42393 17.1646C4.53486 17.1264 4.64851 17.1121 4.76488 17.1219C4.88125 17.1318 4.99563 17.1654 5.10801 17.2227C5.20433 17.2718 5.28681 17.3317 5.35545 17.4023C5.42437 17.4723 5.47795 17.5492 5.51618 17.6328C5.55497 17.7168 5.57692 17.8044 5.58202 17.8956C5.58741 17.9863 5.57445 18.0766 5.54316 18.1667L5.17779 17.9803Z" fill="#272D3D"/>
</g>
<defs>
<clipPath id="clip0_6061_1908">
<path d="M0 12C0 5.37258 5.37258 0 12 0C18.6274 0 24 5.37258 24 12C24 18.6274 18.6274 24 12 24C5.37258 24 0 18.6274 0 12Z" fill="white"/>
</clipPath>
</defs>
</svg>
