<svg width="134" height="40" viewBox="0 0 134 40" fill="none" xmlns="http://www.w3.org/2000/svg">
<rect y="0.533447" width="133.2" height="39.4667" rx="4.11111" fill="black"/>
<rect x="0.411111" y="0.944558" width="132.378" height="38.6444" rx="3.7" stroke="white" stroke-opacity="0.22" stroke-width="0.822222"/>
<path d="M105.508 30.1335H107.349V17.7985H105.508V30.1335ZM122.091 22.2421L119.981 27.5897H119.917L117.727 22.2421H115.744L119.029 29.7161L117.156 33.8739H119.076L124.138 22.2421H122.091ZM111.649 28.7325C111.047 28.7325 110.206 28.4307 110.206 27.6849C110.206 26.7329 111.254 26.3679 112.157 26.3679C112.966 26.3679 113.348 26.5422 113.84 26.7804C113.697 27.9231 112.713 28.7325 111.649 28.7325V28.7325ZM111.872 21.9722C110.539 21.9722 109.159 22.5596 108.588 23.8608L110.221 24.543C110.571 23.8608 111.221 23.6388 111.904 23.6388C112.856 23.6388 113.824 24.2096 113.84 25.2256V25.3524C113.506 25.1619 112.792 24.8764 111.92 24.8764C110.157 24.8764 108.365 25.8441 108.365 27.6533C108.365 29.3037 109.809 30.367 111.427 30.367C112.664 30.367 113.348 29.8116 113.775 29.1607H113.84V30.1134H115.618V25.3839C115.618 23.194 113.982 21.9722 111.872 21.9722V21.9722ZM100.494 23.7436H97.8753V19.5156H100.494C101.87 19.5156 102.652 20.6549 102.652 21.6296C102.652 22.5855 101.87 23.7436 100.494 23.7436V23.7436ZM100.447 17.7985H96.035V30.1335H97.8753V25.4603H100.447C102.487 25.4603 104.493 23.9834 104.493 21.6296C104.493 19.2763 102.487 17.7985 100.447 17.7985ZM76.3903 28.7348C75.1184 28.7348 74.0538 27.6694 74.0538 26.2076C74.0538 24.7288 75.1184 23.6484 76.3903 23.6484C77.646 23.6484 78.6315 24.7288 78.6315 26.2076C78.6315 27.6694 77.646 28.7348 76.3903 28.7348V28.7348ZM78.5043 22.9328H78.4407C78.0275 22.4401 77.2324 21.995 76.2315 21.995C74.1329 21.995 72.2097 23.8392 72.2097 26.2076C72.2097 28.5598 74.1329 30.3878 76.2315 30.3878C77.2324 30.3878 78.0275 29.9426 78.4407 29.4343H78.5043V30.0378C78.5043 31.6439 77.646 32.5018 76.2631 32.5018C75.1349 32.5018 74.4355 31.6913 74.1491 31.008L72.5439 31.6755C73.0044 32.7878 74.2281 34.1553 76.2631 34.1553C78.4253 34.1553 80.2533 32.8834 80.2533 29.7835V22.2494H78.5043V22.9328ZM81.5252 30.1335H83.3683V17.7985H81.5252V30.1335ZM86.0866 26.0642C86.0392 24.4428 87.3431 23.6164 88.2804 23.6164C89.0119 23.6164 89.6312 23.9822 89.8386 24.5064L86.0866 26.0642ZM91.8089 24.6651C91.4593 23.7278 90.3944 21.995 88.2168 21.995C86.0546 21.995 84.2585 23.6958 84.2585 26.1914C84.2585 28.544 86.0392 30.3878 88.423 30.3878C90.3462 30.3878 91.4593 29.2119 91.9206 28.5281L90.4899 27.5742C90.0129 28.2738 89.3615 28.7348 88.423 28.7348C87.4856 28.7348 86.8178 28.3055 86.3892 27.4629L91.9996 25.1423L91.8089 24.6651ZM47.1052 23.2826V25.0629H51.3652C51.238 26.0642 50.9042 26.7954 50.3955 27.3041C49.7753 27.9238 48.8056 28.6076 47.1052 28.6076C44.4824 28.6076 42.432 26.4935 42.432 23.8708C42.432 21.248 44.4824 19.1337 47.1052 19.1337C48.52 19.1337 49.5529 19.6902 50.316 20.4055L51.5722 19.1495C50.5069 18.1323 49.0924 17.3535 47.1052 17.3535C43.5123 17.3535 40.4922 20.2783 40.4922 23.8708C40.4922 27.4629 43.5123 30.3878 47.1052 30.3878C49.0442 30.3878 50.5069 29.7519 51.6512 28.5598C52.8275 27.3835 53.1932 25.7305 53.1932 24.395C53.1932 23.9822 53.1612 23.6006 53.0976 23.2826H47.1052ZM58.0364 28.7348C56.7645 28.7348 55.6676 27.6856 55.6676 26.1914C55.6676 24.6813 56.7645 23.6484 58.0364 23.6484C59.3078 23.6484 60.4047 24.6813 60.4047 26.1914C60.4047 27.6856 59.3078 28.7348 58.0364 28.7348V28.7348ZM58.0364 21.995C55.715 21.995 53.8237 23.7594 53.8237 26.1914C53.8237 28.6076 55.715 30.3878 58.0364 30.3878C60.3569 30.3878 62.2486 28.6076 62.2486 26.1914C62.2486 23.7594 60.3569 21.995 58.0364 21.995ZM67.225 28.7348C65.954 28.7348 64.8567 27.6856 64.8567 26.1914C64.8567 24.6813 65.954 23.6484 67.225 23.6484C68.4969 23.6484 69.5934 24.6813 69.5934 26.1914C69.5934 27.6856 68.4969 28.7348 67.225 28.7348ZM67.225 21.995C64.9045 21.995 63.0133 23.7594 63.0133 26.1914C63.0133 28.6076 64.9045 30.3878 67.225 30.3878C69.5465 30.3878 71.4377 28.6076 71.4377 26.1914C71.4377 23.7594 69.5465 21.995 67.225 21.995Z" fill="white"/>
<path d="M43.8828 13.5915C42.9982 13.5915 42.2373 13.2803 41.6238 12.6669C41.0101 12.0532 40.6992 11.2847 40.6992 10.391C40.6992 9.49743 41.0102 8.7303 41.6238 8.11516C42.2373 7.5017 42.9982 7.19055 43.8828 7.19055C44.3334 7.19055 44.754 7.26839 45.156 7.43047C45.5581 7.59257 45.8871 7.8176 46.1461 8.11208L46.2072 8.18165L45.5171 8.87154L45.4481 8.78675C45.2764 8.57566 45.0578 8.41166 44.781 8.29245C44.5051 8.17354 44.203 8.11863 43.8828 8.11863C43.2597 8.11863 42.7427 8.33021 42.311 8.76035C42.3109 8.76045 42.3107 8.76044 42.3106 8.76055C41.8887 9.19936 41.6766 9.73362 41.6766 10.3911C41.6766 11.049 41.889 11.5834 42.3114 12.0223C42.7431 12.4523 43.26 12.665 43.8828 12.665C44.4531 12.665 44.9248 12.5058 45.2957 12.1906H45.2959C45.6411 11.8972 45.8483 11.5008 45.9216 10.9954H43.7841V10.0858H46.8455L46.8586 10.1691C46.8836 10.3289 46.9013 10.4833 46.9013 10.6316C46.9013 11.4803 46.6426 12.173 46.1349 12.6827C45.5619 13.2902 44.8082 13.5916 43.8828 13.5916L43.8828 13.5915ZM70.4653 13.5915C69.5794 13.5915 68.8274 13.2801 68.2218 12.6669C68.2218 12.6669 68.2217 12.6668 68.2216 12.6667C68.2216 12.6667 68.2215 12.6666 68.2214 12.6665C67.615 12.0599 67.3142 11.2913 67.3142 10.391C67.3142 9.49082 67.615 8.72213 68.2214 8.11554C68.2215 8.11547 68.2215 8.11544 68.2216 8.11534L68.2218 8.11514C68.8274 7.50183 69.5794 7.19053 70.4653 7.19053C71.3495 7.19053 72.1018 7.50191 72.7073 8.12439C73.3139 8.7309 73.615 9.49812 73.615 10.391C73.615 11.2913 73.3141 12.0599 72.7077 12.6665L72.7075 12.6667C72.1016 13.2804 71.3423 13.5915 70.4653 13.5915L70.4653 13.5915ZM47.7774 13.459V7.32313H47.8761H51.4419V8.25121H48.7379V9.93625H51.1768V10.8458H48.7379V12.5324H51.4419V13.459H47.7774ZM53.6847 13.459V8.25121H52.0258V7.32313H56.304V8.25121H56.2053H54.6451V13.459H53.6847ZM59.0381 13.459V7.32313H59.9986V7.4218V13.459H59.0381ZM62.4163 13.459V8.25121H60.7575V7.32313H65.0356V8.25121H64.9369H63.3768V13.459H62.4163ZM74.4675 13.459V7.32313H75.5505L78.3068 11.7358L78.2831 10.8981V7.32313H79.2436V13.459H78.2931L75.4043 8.82336L75.428 9.66049V9.66184V13.459H74.4675ZM70.4653 12.665C71.0884 12.665 71.597 12.4525 72.0116 12.0231L72.0122 12.0223L72.0128 12.0217C72.4333 11.6011 72.6391 11.0596 72.6391 10.391C72.6391 9.72405 72.4332 9.18075 72.0128 8.76032L72.0122 8.75973L72.0116 8.75913C71.5971 8.32981 71.0885 8.11857 70.4653 8.11857C69.8411 8.11857 69.3326 8.32944 68.9102 8.75875L68.9098 8.75914C68.497 9.18978 68.2916 9.72424 68.2916 10.391C68.2916 11.0594 68.497 11.5921 68.9098 12.0228L68.9102 12.0232C69.3326 12.4526 69.8412 12.665 70.4653 12.665V12.665Z" fill="white"/>
<path d="M20.4381 19.6976L9.93359 30.847C9.93399 30.8493 9.93478 30.8512 9.93517 30.8535C10.2573 32.0641 11.3631 32.9556 12.6754 32.9556C13.2001 32.9556 13.6926 32.8137 14.115 32.5647L14.1485 32.5451L25.9727 25.7221L20.4381 19.6976" fill="#EA4335"/>
<path d="M31.0672 17.7991L31.0572 17.7922L25.9524 14.8329L20.2012 19.9505L25.9724 25.7209L31.0503 22.791C31.9405 22.3104 32.5449 21.3719 32.5449 20.2896C32.5449 19.2152 31.9486 18.2813 31.0672 17.7991" fill="#FBBC04"/>
<path d="M9.93423 9.68621C9.87108 9.91906 9.83789 10.163 9.83789 10.4162V30.1176C9.83789 30.3704 9.87069 30.6151 9.93462 30.8472L20.8007 19.9831L9.93423 9.68621Z" fill="#4285F4"/>
<path d="M20.516 20.2666L25.9531 14.8311L14.1423 7.98339C13.713 7.72626 13.212 7.57787 12.6758 7.57787C11.3635 7.57787 10.2562 8.4709 9.93399 9.68302C9.93359 9.68421 9.93359 9.685 9.93359 9.68608L20.516 20.2666Z" fill="#34A853"/>
</svg>
