<svg width="30" height="32" viewBox="0 0 30 32" fill="none" xmlns="http://www.w3.org/2000/svg">
<path d="M24.6322 17.5048L22.3811 12.1272C22.2872 11.9006 22.1604 11.7181 22.0357 11.5653L22.8477 5.71831C22.9511 4.98283 22.4482 4.31214 21.71 4.20669C20.9893 4.09409 20.313 4.60549 20.2024 5.32354L19.4289 10.8694L19.0286 3.72479C19.0004 2.99221 18.357 2.45044 17.6324 2.45155C16.8925 2.48954 16.3263 3.1189 16.3668 3.85661L16.6421 9.0749L14.1908 3.2391C13.9089 2.55947 13.1189 2.2306 12.438 2.50943C11.7519 2.80054 11.442 3.57981 11.7239 4.25943L14.4231 10.7174L13.421 10.6895L11.8679 10.6629L8.83505 11.3035C8.83505 11.3035 7.29811 12.1775 6.98152 12.6945C6.65258 13.2063 6.57044 16.4304 6.57044 16.4304L6.58278 16.4355C6.60636 16.9355 6.90328 17.4051 7.39703 17.6107C7.72441 17.747 8.09226 17.7482 8.41968 17.6141C8.7471 17.4801 9.00726 17.2216 9.14292 16.8958C9.19408 16.7729 9.19797 16.6592 9.20697 16.5332L9.23678 16.5311L9.39343 14.1022L11.413 13.53C11.9829 13.7961 13.1887 14.4134 13.7782 14.702C15.8948 19.1154 12.2191 18.9693 12.2191 18.9693L7.40594 18.4938L7.12448 18.5785C6.75061 18.7112 6.50141 18.9967 6.37053 19.3459L5.84788 20.671L14.0406 23.3607C14.5046 23.5682 15.0206 23.5812 15.5043 23.3933L23.5478 20.1098C24.4782 19.7186 25.0195 18.4878 24.6322 17.5048Z" fill="url(#paint0_linear_8_16630)"/>
<path d="M23.671 21.4813L16.1458 24.8885L16.7484 26.5099C17.1521 27.5964 18.3921 28.1132 19.448 27.6351L25.2648 25.0014C26.1896 24.5827 26.6326 23.5198 26.279 22.5683C25.8889 21.5187 24.6911 21.0194 23.671 21.4813Z" fill="#FF9A0D"/>
<path d="M3.57681 7.69238L4.55037 9.83421L6.6922 10.8078L4.55037 11.7813L3.57681 13.9232L2.60325 11.7813L0.461426 10.8078L2.60325 9.83421L3.57681 7.69238Z" fill="#FF9A0D"/>
<path d="M2.53835 17.3848L3.18739 18.8127L4.61527 19.4617L3.18739 20.1107L2.53835 21.5386L1.88931 20.1107L0.461426 19.4617L1.88931 18.8127L2.53835 17.3848Z" fill="#FF9A0D" fill-opacity="0.7"/>
<defs>
<linearGradient id="paint0_linear_8_16630" x1="21.3509" y1="-21.8418" x2="15.0706" y2="17.0764" gradientUnits="userSpaceOnUse">
<stop offset="0.272686" stop-color="#FFD465"/>
<stop offset="1" stop-color="#FF9A0D"/>
</linearGradient>
</defs>
</svg>
