<svg width="31" height="24" viewBox="0 0 31 24" fill="none" xmlns="http://www.w3.org/2000/svg">
<path d="M4.25957 5.76929L5.35036 8.16902L7.7501 9.25981L5.35036 10.3506L4.25957 12.7503L3.16878 10.3506L0.769043 9.25981L3.16878 8.16902L4.25957 5.76929Z" fill="#FF9A0D"/>
<path d="M27.9136 18.2307L28.6078 19.7578L30.1349 20.452L28.6078 21.1461L27.9136 22.6732L27.2195 21.1461L25.6924 20.452L27.2195 19.7578L27.9136 18.2307Z" fill="#FF9A0D" fill-opacity="0.7"/>
<path d="M14.5674 5.16309C12.2651 5.70117 10.281 7.06278 8.93652 8.91797L5.95801 0.922852H12.9268L14.5674 5.16309ZM24.6211 8.91699C23.2763 7.06211 21.2927 5.70076 18.9902 5.16309L20.6328 0.922852H27.6016L24.6211 8.91699Z" fill="#FF9A0D" fill-opacity="0.7"/>
<path d="M16.7305 5.99927C17.339 5.99927 17.9337 6.06043 18.5078 6.177C21.1503 6.71342 23.367 8.42256 24.5908 10.7375C25.2451 11.9753 25.6152 13.3866 25.6152 14.884C25.6152 19.7911 21.6375 23.7688 16.7305 23.7688C11.8235 23.7687 7.8457 19.791 7.8457 14.884C7.84574 13.3866 8.21584 11.9753 8.87012 10.7375C10.0939 8.42243 12.3115 6.71341 14.9541 6.177C15.5281 6.0605 16.1221 5.99928 16.7305 5.99927ZM18.9619 16.2454C18.9619 18.2466 17.2764 19.9054 15.2158 19.8879C14.7825 19.8853 14.3657 19.8082 13.9795 19.6711C14.7424 20.256 15.7088 20.6026 16.7568 20.5959C19.2078 20.5812 21.1726 18.6194 21.1729 16.2405V12.4084L21.1719 12.4094C21.1717 12.1379 21.0141 11.8888 20.7637 11.7678L18.9619 10.8928V16.2454ZM12.6963 11.7678C12.4459 11.8888 12.2882 12.138 12.2881 12.4094V13.9631H12.2988V16.2483C12.2989 17.8393 13.6401 19.1625 15.2783 19.1477C16.0418 19.1409 16.7384 18.8492 17.2588 18.3782C17.0918 18.4182 16.9166 18.4407 16.7373 18.4407C15.5119 18.4445 14.5098 17.4423 14.5098 16.2522V10.887L12.6963 11.7678ZM15.25 10.5266V16.2815C15.25 17.0736 15.9135 17.72 16.7305 17.72C17.1264 17.72 17.4976 17.5706 17.7773 17.2991C18.0473 17.0382 18.2012 16.6922 18.2109 16.3225V10.5266L16.7305 9.80786L15.25 10.5266Z" fill="url(#paint0_linear_8_16671)"/>
<defs>
<linearGradient id="paint0_linear_8_16671" x1="16.7305" y1="21.9918" x2="16.7305" y2="5.99927" gradientUnits="userSpaceOnUse">
<stop stop-color="#FF9A0D"/>
<stop offset="1" stop-color="#FFBE43"/>
</linearGradient>
</defs>
</svg>
