<svg width="140" height="35" viewBox="0 0 140 35" fill="none" xmlns="http://www.w3.org/2000/svg">
<g clip-path="url(#clip0_6061_1490)">
<path d="M118.839 28.1278V6.87205H125.49V14.0079H133.35V6.87205H140V28.1278H133.35V20.2328H125.49V28.1278H118.839Z" fill="white"/>
<path d="M105.187 28.5833C98.8688 28.5833 93.9716 23.6641 93.9716 17.5C93.9716 11.3358 98.8688 6.41666 105.187 6.41666C110.991 6.41666 115.616 10.5463 116.341 15.9817H109.237C108.663 14.2205 107.061 13.097 105.187 13.097C102.829 13.097 100.924 14.8582 100.924 17.5C100.924 20.1418 102.829 21.903 105.187 21.903C107.061 21.903 108.663 20.7794 109.237 19.0183H116.341C115.616 24.4536 110.991 28.5833 105.187 28.5833Z" fill="white"/>
<path d="M84.3863 28.1278V6.87205H91.0367V28.1278H84.3863Z" fill="white"/>
<path d="M80.4006 28.1278H76.1685L66.1928 18.1072V28.1278H59.5423V6.87205H63.7744L73.7501 16.8926V6.87205H80.4006V28.1278Z" fill="white"/>
<path d="M45.278 28.5832C39.9879 28.5832 35 25.4252 35 18.0465V6.87205H41.6505V18.0465C41.6505 20.1417 43.0712 21.9029 45.278 21.9029C47.4847 21.9029 48.9055 20.1417 48.9055 18.0465V6.87205H55.556V18.0465C55.556 25.4252 50.5681 28.5832 45.278 28.5832Z" fill="white"/>
<path d="M18.6645 2.33423V21.0037C18.6645 21.0386 18.6645 21.0779 18.6645 21.1128V21.1346C18.634 22.3345 18.1496 23.4558 17.2986 24.3022C16.4171 25.1835 15.2475 25.6678 13.9994 25.6678C11.4246 25.6678 9.33418 23.5736 9.33418 21.0037V2.33423L13.9994 0L18.6645 2.33423Z" fill="url(#paint0_linear_6061_1490)"/>
<path d="M15.6713 27.8013C14.0305 29.3327 11.831 30.2795 9.422 30.3013C4.25932 30.3493 0.0349133 26.056 0.0349133 20.8945V13.4817H0V8.44238C0 7.56105 0.497503 6.75388 1.2874 6.36121L6.99995 3.50341V20.9076C6.99995 24.7689 10.1595 28.0194 14.0217 28.0063C14.5891 28.0063 15.1433 27.9365 15.6713 27.8056V27.8013Z" fill="url(#paint1_linear_6061_1490)"/>
<path d="M28 8.43793V20.8683C28 28.5865 21.8074 34.9522 14.083 35.0002C10.7794 35.022 7.7333 33.8964 5.32871 31.9984C6.54628 32.4435 7.85986 32.6922 9.22581 32.7009C15.7195 32.7576 21.0306 27.378 21.0306 20.8857V3.52077L26.7082 6.36112C27.4981 6.75379 27.9956 7.56096 27.9956 8.44229L28 8.43793Z" fill="url(#paint2_linear_6061_1490)"/>
</g>
<defs>
<linearGradient id="paint0_linear_6061_1490" x1="14" y1="0" x2="14" y2="35.0005" gradientUnits="userSpaceOnUse">
<stop stop-color="#FFAA32"/>
<stop offset="1" stop-color="#FF990A"/>
</linearGradient>
<linearGradient id="paint1_linear_6061_1490" x1="14" y1="0" x2="14" y2="35.0005" gradientUnits="userSpaceOnUse">
<stop stop-color="#FFAA32"/>
<stop offset="1" stop-color="#FF990A"/>
</linearGradient>
<linearGradient id="paint2_linear_6061_1490" x1="14" y1="0" x2="14" y2="35.0005" gradientUnits="userSpaceOnUse">
<stop stop-color="#FFAA32"/>
<stop offset="1" stop-color="#FF990A"/>
</linearGradient>
<clipPath id="clip0_6061_1490">
<rect width="140" height="35" fill="white"/>
</clipPath>
</defs>
</svg>
