<svg width="171" height="28" viewBox="0 0 171 28" fill="none" xmlns="http://www.w3.org/2000/svg">
<mask id="mask0_6061_1463" style="mask-type:luminance" maskUnits="userSpaceOnUse" x="0" y="0" width="171" height="28">
<path d="M170.24 0H0V28H170.24V0Z" fill="white"/>
</mask>
<g mask="url(#mask0_6061_1463)">
<path d="M44.4599 13.3318C42.5133 12.6967 40.7841 12.1106 40.7841 10.9877C40.7841 9.86465 42.0965 9.39994 43.3209 9.39994C44.0068 9.33274 44.6974 9.46555 45.3088 9.78221C45.9207 10.0989 46.427 10.5858 46.7666 11.1839L47.0719 11.7003L50.3567 10.1125L50.0978 9.52648C49.5363 8.20981 47.5095 5.97412 43.4918 5.97412C39.4741 5.97412 36.6163 8.07559 36.6163 11.078C36.6163 14.5942 39.9375 15.725 42.609 16.6311C44.6073 17.305 46.2874 17.8522 46.2874 19.0733C46.2874 20.2945 44.7785 21.0147 43.383 21.0147C42.5359 21.0686 41.6899 20.8913 40.9361 20.502C40.1822 20.1127 39.5488 19.5259 39.104 18.8049L38.7727 18.2885L35.5859 20.0466L35.9173 20.6327C36.8855 22.3908 38.9435 24.4767 43.2717 24.4767C47.6 24.4767 50.5199 22.1532 50.5199 18.9598C50.5666 15.3454 47.173 14.2354 44.4599 13.3318Z" fill="#FBFCFF"/>
<path d="M61.2422 5.98187C59.9985 5.93639 58.7582 6.1431 57.5967 6.58947C56.4354 7.03587 55.3766 7.71266 54.4853 8.57884C53.5935 9.44506 52.8876 10.4827 52.4098 11.6289C51.9321 12.7751 51.6923 14.0061 51.7056 15.2473C51.6763 16.4902 51.9035 17.7259 52.3728 18.8777C52.8426 20.0294 53.5445 21.0726 54.4349 21.9426C55.3253 22.8126 56.3859 23.4909 57.55 23.9352C58.7145 24.3796 59.9578 24.5805 61.2035 24.5258C62.4464 24.5673 63.6853 24.3575 64.8454 23.909C66.0049 23.4604 67.0621 22.7824 67.952 21.9157C68.8411 21.05 69.5452 20.0138 70.0225 18.8697C70.4998 17.7255 70.7405 16.4969 70.7297 15.2577C70.7432 14.0205 70.5056 12.7934 70.031 11.6501C69.5563 10.507 68.8549 9.47142 67.9685 8.60577C67.0821 7.74013 66.029 7.06231 64.8734 6.61315C63.7174 6.16396 62.4821 5.95275 61.2422 5.99217V5.98187ZM66.7946 15.2473C66.8254 15.9911 66.7023 16.7333 66.4327 17.4274C66.1636 18.1217 65.7536 18.7531 65.2286 19.2825C64.7054 19.8129 64.0779 20.2296 63.3853 20.5061C62.6937 20.7887 61.9508 20.9265 61.2035 20.9114C60.4592 20.9362 59.7181 20.8057 59.0273 20.5283C58.337 20.2508 57.7122 19.8325 57.193 19.3003C56.6739 18.768 56.2719 18.1335 56.0129 17.4373C55.754 16.7412 55.6439 15.9988 55.6894 15.2577C55.6551 14.519 55.7727 13.781 56.0348 13.0893C56.2972 12.3977 56.6984 11.7667 57.2139 11.2355C57.7318 10.7055 58.3531 10.2864 59.039 10.0041C59.7247 9.72177 60.4615 9.58208 61.2035 9.59355C61.949 9.57443 62.6906 9.70799 63.3827 9.98596C64.0744 10.2639 64.7019 10.6804 65.2259 11.2096C65.7482 11.7383 66.1569 12.3676 66.4265 13.0593C66.6966 13.7509 66.8218 14.4902 66.7946 15.2319V15.2473Z" fill="#FBFCFF"/>
<path d="M79.1768 0.0853272C75.3896 0.0853272 73.2076 2.3236 73.2076 6.19604V6.37676H71.3203V9.82841H73.2076V24.0868H77.1423V9.82841H80.8207V6.3716H77.1423V6.19604C77.1423 4.38891 77.8282 3.59377 79.4464 3.59377C79.6848 3.59378 79.9228 3.6145 80.1581 3.65573L80.9193 3.76416V0.219572L80.3417 0.147287C79.9548 0.105986 79.5662 0.0853041 79.1768 0.0853272Z" fill="#FBFCFF"/>
<path d="M90.9567 20.7175C89.2039 20.7175 88.5051 20.436 88.5051 17.604V9.83845H92.1809V6.38418H88.5051V3.02808H84.6065V6.45391H82.6211V9.90041H84.6065V17.8854C84.6065 23.5366 88.0626 24.3808 90.1229 24.3808C90.6759 24.3803 91.2281 24.3476 91.7771 24.2826L92.3542 24.1975V20.6916H91.6167C91.3974 20.7144 91.1768 20.7231 90.9567 20.7175Z" fill="#FBFCFF"/>
<path d="M102.148 13.3318C100.199 12.6967 98.4695 12.1106 98.4695 10.9877C98.4695 9.86465 99.7948 9.39994 101.007 9.39994C101.692 9.33177 102.384 9.46413 102.995 9.78088C103.607 10.0976 104.113 10.5851 104.452 11.1839L104.771 11.7003L108.045 10.1125L107.799 9.52648C107.235 8.20981 105.21 5.97412 101.193 5.97412C97.1752 5.97412 94.3146 8.07559 94.3146 11.078C94.3146 14.5942 97.6361 15.725 100.321 16.6311C102.306 17.305 103.999 17.8522 103.999 19.0733C103.999 20.2945 102.49 21.0147 101.094 21.0147C100.247 21.0686 99.4013 20.8913 98.6477 20.502C97.8937 20.1127 97.2603 19.5259 96.8156 18.8049L96.4841 18.2885L93.3105 20.0466L93.6287 20.6327C94.6101 22.3908 96.6681 24.4767 100.983 24.4767C105.299 24.4767 108.232 22.1532 108.232 18.9598C108.276 15.3454 104.881 14.2354 102.148 13.3318Z" fill="#FBFCFF"/>
<path d="M117.859 20.7175C116.12 20.7175 115.408 20.436 115.408 17.604V9.83845H119.087V6.38418H115.408V3.02808H111.504V6.45391H109.506V9.90041H111.491V17.8854C111.491 23.5366 114.947 24.3808 117.007 24.3808C117.56 24.3804 118.113 24.3476 118.661 24.2826L119.239 24.1975V20.6916H118.515C118.296 20.7121 118.078 20.7207 117.859 20.7175Z" fill="#FBFCFF"/>
<path d="M128.159 5.98169C125.829 6.00969 123.551 6.66338 121.563 7.87404L121.011 8.20449L122.704 11.1837L123.279 10.8429C124.684 9.99098 126.294 9.53094 127.938 9.5108C130.118 9.5108 131.369 10.5873 131.369 12.4668V13.2C130.19 12.6115 128.888 12.314 127.571 12.3325C123.413 12.3325 120.4 14.8703 120.4 18.4355C120.4 22.0008 123.391 24.5514 127.509 24.5514C128.999 24.5906 130.464 24.1636 131.698 23.3302L131.855 24.1229H135.244V12.65C135.244 8.33871 132.792 5.98169 128.159 5.98169ZM131.467 18.3736C131.467 19.9845 130.009 21.1075 127.938 21.1075C125.867 21.1075 124.333 19.9845 124.333 18.3736C124.333 16.7626 125.806 15.6757 127.9 15.6757C129.993 15.6757 131.467 16.7265 131.467 18.3606V18.3736Z" fill="#FBFCFF"/>
<path d="M146.572 9.61928C148.305 9.63604 149.96 10.3336 151.18 11.5607L151.878 12.2707L153.313 8.77768L152.984 8.46013C151.645 7.27363 150.001 6.48048 148.238 6.1688C146.474 5.85706 144.659 6.03897 142.991 6.6943C141.28 7.38563 139.816 8.57484 138.791 10.1072C137.766 11.6396 137.228 13.4441 137.245 15.2859C137.257 17.1 137.799 18.8711 138.805 20.3825C139.812 21.8938 141.237 23.0797 142.908 23.7949C144.581 24.51 146.425 24.7235 148.216 24.4089C150.008 24.0944 151.668 23.2656 152.994 22.0241L153.302 21.7195L152.076 18.2523L151.353 18.9597C150.757 19.5733 150.045 20.0639 149.258 20.4031C148.471 20.7425 147.626 20.9239 146.769 20.9372C146.035 20.9324 145.312 20.7813 144.638 20.4929C143.965 20.2047 143.355 19.7848 142.847 19.2581C142.339 18.7315 141.942 18.1088 141.677 17.4266C141.415 16.7444 141.291 16.0165 141.315 15.2859C141.269 14.5661 141.371 13.8446 141.613 13.1651C141.856 12.4857 142.234 11.8626 142.726 11.3337C143.219 10.8048 143.812 10.3813 144.473 10.0888C145.135 9.79627 145.848 9.64093 146.572 9.63222V9.61928Z" fill="#FBFCFF"/>
<path d="M161.987 14.4313L169.978 6.39728H164.847L158.881 12.4512V0H154.998V24.1099H158.881V16.5534L165.169 24.1099H170.242L161.987 14.4313Z" fill="#FBFCFF"/>
<path d="M4.1995 19.5903V3.99548H1.4593C1.12331 3.99619 0.801318 4.12979 0.56398 4.36699C0.326648 4.60418 0.193358 4.92555 0.193359 5.26067V19.6436C0.193359 20.7369 0.409327 21.8194 0.828926 22.8294C1.24853 23.8394 1.86353 24.7572 2.63883 25.5301C3.41412 26.3031 4.3345 26.9161 5.34743 27.3342C6.36031 27.7524 7.44593 27.9674 8.54215 27.9671H22.9642C23.3 27.9671 23.622 27.834 23.8594 27.5973C24.0969 27.3605 24.2302 27.0394 24.2302 26.7046V23.9718H8.59291C7.42769 23.9718 6.31022 23.5102 5.48629 22.6885C4.66237 21.8668 4.1995 20.7524 4.1995 19.5903Z" fill="#FBFCFF"/>
<path d="M24.23 8.37676V23.9716H26.9702C27.3059 23.9716 27.6278 23.8385 27.8653 23.6018C28.1027 23.365 28.2361 23.0439 28.2361 22.7091V8.32614C28.2364 7.23262 28.0207 6.14977 27.6013 5.13942C27.1818 4.12912 26.5669 3.21111 25.7916 2.43788C25.0162 1.66467 24.0957 1.05138 23.0826 0.633076C22.0695 0.214773 20.9838 -0.00034955 19.8873 4.26336e-07H5.46517C5.12919 0.000705862 4.80715 0.134312 4.56984 0.3715C4.33251 0.608689 4.19922 0.930085 4.19922 1.26517V3.99526H19.8365C21.0015 3.99597 22.1185 4.45782 22.9423 5.27933C23.7661 6.10089 24.2292 7.21494 24.23 8.37676Z" fill="#FBFCFF"/>
<path d="M16.2192 12.063V10.5209C16.2192 10.3796 16.163 10.2441 16.0628 10.1442C15.9626 10.0443 15.8267 9.98816 15.6851 9.98816H11.289C11.0091 10.0079 10.7459 10.129 10.5492 10.3286C10.3524 10.5282 10.2356 10.7927 10.2207 11.0722V15.467C10.2203 15.5348 10.234 15.6019 10.2608 15.664C10.2864 15.7271 10.3245 15.7841 10.3729 15.8319C10.42 15.8793 10.4763 15.9165 10.5385 15.9411C10.6011 15.9673 10.6683 15.9809 10.7362 15.9811H12.2852V12.063H16.2192Z" fill="#0052F4"/>
<path d="M17.7021 11.9859H16.153V15.9119H12.2109V17.4647C12.2143 17.602 12.2707 17.7328 12.3685 17.8296C12.4675 17.9248 12.5996 17.9782 12.7371 17.9788H17.1385C17.2883 17.9816 17.4372 17.9529 17.5753 17.8947C17.7133 17.8364 17.8375 17.7497 17.9397 17.6405C18.041 17.5341 18.1193 17.4081 18.1695 17.2703C18.2177 17.1318 18.2386 16.9852 18.2308 16.8388V12.4893C18.2284 12.3546 18.1727 12.2263 18.0759 12.1324C17.9751 12.0368 17.8411 11.9843 17.7021 11.9859Z" fill="#8ACFE5"/>
<path d="M16.2171 11.9858H12.2109V15.9811H16.2171V11.9858Z" fill="#4F97F5"/>
</g>
</svg>
