<svg width="180" height="180" viewBox="0 0 180 180" fill="none" xmlns="http://www.w3.org/2000/svg">
<circle cx="89.9996" cy="90" r="74.4" fill="#232938"/>
<mask id="mask0_6178_3905" style="mask-type:alpha" maskUnits="userSpaceOnUse" x="15" y="15" width="150" height="150">
<circle cx="89.9996" cy="90" r="74.4" fill="#232938"/>
</mask>
<g mask="url(#mask0_6178_3905)">
<path d="M90 170.4V95.662L142.8 90V157.189L90 170.4Z" fill="#353C4E"/>
<path d="M90 170.4V95.662L37.2 90V157.189L90 170.4Z" fill="#61687C"/>
<path d="M90 90.4138V96L36 90.4138L90 85.2V90.4138Z" fill="#353C4E"/>
<path d="M90.0008 90.4138V96L142.801 90L90.0008 85.2V90.4138Z" fill="#878EA1"/>
<path d="M37.2012 114V90L90.0012 96.1867V124.8L37.2012 114Z" fill="#353C4E"/>
<path d="M32.8501 110.881L37.2004 90L90.0004 96.144L85.9221 116.998C85.7228 118.017 84.7764 118.714 83.7439 118.602L34.5927 113.277C33.4181 113.15 32.6092 112.038 32.8501 110.881Z" fill="#61687C"/>
<path d="M147.15 110.881L142.8 90L89.9996 96.144L94.0779 116.998C94.2772 118.017 95.2236 118.714 96.2561 118.602L145.407 113.277C146.582 113.15 147.391 112.038 147.15 110.881Z" fill="#61687C"/>
</g>
<path d="M86.4458 82.7515C87.8802 74.5233 88.5222 55.6875 77.3842 52.4119C64.2327 48.5442 64.9622 64.7723 69.3015 60.6284C72.3697 57.6983 63.6104 53.4528 57.315 61.4557" stroke="#F2BD29" stroke-linecap="round"/>
<path d="M94.3118 90.8218C94.2575 82.8142 96.4405 64.7841 106.646 62.9297" stroke="#F2BD29" stroke-linecap="round"/>
<path d="M74.7852 46.736C73.6782 46.3007 68.4002 46.736 66.6002 49.2" stroke="#F2BD29" stroke-linecap="round"/>
<path d="M73.3462 44.1217C72.0423 43.8673 70.1988 44.1217 68.3988 45" stroke="#F2BD29" stroke-linecap="round"/>
</svg>
