<svg width="21" height="20" viewBox="0 0 21 20" fill="none" xmlns="http://www.w3.org/2000/svg">
<g clip-path="url(#clip0_7290_3827)">
<path d="M0.333984 10C0.333984 4.47715 4.81114 0 10.334 0C15.8568 0 20.334 4.47715 20.334 10C20.334 15.5228 15.8568 20 10.334 20C4.81114 20 0.333984 15.5228 0.333984 10Z" fill="#40475C"/>
<g clip-path="url(#clip1_7290_3827)">
<rect width="20" height="20" transform="translate(0.333984)" fill="white"/>
<path d="M10.334 0C15.854 0 20.334 4.476 20.334 10C20.334 15.524 15.854 20 10.334 20C4.81398 20 0.333984 15.52 0.333984 10C0.333984 4.48 4.80998 0 10.334 0Z" fill="#272D3D"/>
<path fill-rule="evenodd" clip-rule="evenodd" d="M4.95814 9.044H14.2141C14.3301 9.044 14.4381 9.088 14.5181 9.172L15.9821 10.644C16.2541 10.916 16.0621 11.38 15.6781 11.38H6.42214C6.30614 11.38 6.19814 11.336 6.11814 11.252L4.65414 9.78C4.38214 9.512 4.57414 9.044 4.95814 9.044ZM4.65014 7.092L6.11414 5.62C6.19814 5.536 6.30614 5.492 6.41814 5.492H15.6701C16.0541 5.492 16.2501 5.956 15.9741 6.228L14.5141 7.7C14.4341 7.784 14.3221 7.828 14.2101 7.828H4.95814C4.57414 7.828 4.38214 7.364 4.65014 7.092ZM15.9781 13.34L14.5141 14.816C14.4341 14.896 14.3221 14.944 14.2101 14.944H4.95814C4.57414 14.944 4.38214 14.48 4.65014 14.208L6.11414 12.732C6.19814 12.652 6.30614 12.604 6.41814 12.604H15.6701C16.0581 12.6 16.2541 13.064 15.9781 13.34Z" fill="url(#paint0_linear_7290_3827)"/>
</g>
</g>
<defs>
<linearGradient id="paint0_linear_7290_3827" x1="5.18454" y1="15.3466" x2="15.4477" y2="5.0834" gradientUnits="userSpaceOnUse">
<stop stop-color="#CB4EE8"/>
<stop offset="1" stop-color="#10F4B1"/>
</linearGradient>
<clipPath id="clip0_7290_3827">
<path d="M0.333984 10C0.333984 4.47715 4.81114 0 10.334 0C15.8568 0 20.334 4.47715 20.334 10C20.334 15.5228 15.8568 20 10.334 20C4.81114 20 0.333984 15.5228 0.333984 10Z" fill="white"/>
</clipPath>
<clipPath id="clip1_7290_3827">
<rect width="20" height="20" fill="white" transform="translate(0.333984)"/>
</clipPath>
</defs>
</svg>
