<svg width="16" height="16" viewBox="0 0 16 16" fill="none" xmlns="http://www.w3.org/2000/svg">
<path d="M0 8C0 3.58172 3.58172 0 8 0C12.4183 0 16 3.58172 16 8C16 12.4183 12.4183 16 8 16C3.58172 16 0 12.4183 0 8Z" fill="#0D0D0D" fill-opacity="0.9"/>
<path d="M8 0.25C12.2802 0.25 15.75 3.71979 15.75 8C15.75 12.2802 12.2802 15.75 8 15.75C3.71979 15.75 0.25 12.2802 0.25 8C0.25 3.71979 3.71979 0.25 8 0.25Z" stroke="#0D0D0D" stroke-opacity="0.1" stroke-width="0.5"/>
<path d="M11.2569 5.91734C11.1999 5.96971 11.1256 5.99916 11.0482 6H3.72221C3.46221 6 3.33088 5.70267 3.51088 5.52867L4.71421 4.36867C4.77014 4.31468 4.84448 4.28394 4.92221 4.28267H12.2769C12.5395 4.28267 12.6682 4.58267 12.4855 4.75734L11.2569 5.91734Z" fill="url(#paint0_linear_4016_13634)"/>
<path d="M11.2569 11.6347C11.1995 11.6861 11.1252 11.7146 11.0482 11.7147H3.72221C3.46221 11.7147 3.33088 11.42 3.51088 11.246L4.71421 10.0827C4.77029 10.0293 4.84481 9.99969 4.92221 10H12.2769C12.5395 10 12.6682 10.2973 12.4855 10.4713L11.2569 11.6347Z" fill="url(#paint1_linear_4016_13634)"/>
<path d="M11.2569 7.22267C11.1995 7.17126 11.1252 7.14278 11.0482 7.14267H3.72221C3.46221 7.14267 3.33088 7.43734 3.51088 7.61134L4.71421 8.77467C4.771 8.82689 4.84507 8.85633 4.92221 8.85734H12.2769C12.5395 8.85734 12.6682 8.56 12.4855 8.386L11.2569 7.22267Z" fill="url(#paint2_linear_4016_13634)"/>
<defs>
<linearGradient id="paint0_linear_4016_13634" x1="3.42821" y1="29.862" x2="12.8042" y2="29.776" gradientUnits="userSpaceOnUse">
<stop stop-color="#599DB0"/>
<stop offset="1" stop-color="#47F8C3"/>
</linearGradient>
<linearGradient id="paint1_linear_4016_13634" x1="3.42821" y1="6.56" x2="12.7442" y2="6.48867" gradientUnits="userSpaceOnUse">
<stop stop-color="#C44FE2"/>
<stop offset="1" stop-color="#73B0D0"/>
</linearGradient>
<linearGradient id="paint2_linear_4016_13634" x1="3.95421" y1="8" x2="12.2169" y2="8" gradientUnits="userSpaceOnUse">
<stop stop-color="#778CBF"/>
<stop offset="1" stop-color="#5DCDC9"/>
</linearGradient>
</defs>
</svg>
