<svg width="49" height="24" viewBox="0 0 49 24" fill="none" xmlns="http://www.w3.org/2000/svg">
<path d="M0 2C0 0.89543 0.895431 0 2 0H39C39.6295 0 40.2223 0.296388 40.6 0.8L48.1 10.8C48.6333 11.5111 48.6333 12.4889 48.1 13.2L40.6 23.2C40.2223 23.7036 39.6295 24 39 24H2C0.895431 24 0 23.1046 0 22V2Z" fill="#FF9A0D"/>
<path d="M13.922 18.216C12.866 18.216 11.942 18.06 11.15 17.748C10.358 17.424 9.74 16.974 9.296 16.398C8.852 15.81 8.63 15.126 8.63 14.346C8.63 13.566 8.846 12.906 9.278 12.366C9.722 11.814 10.34 11.4 11.132 11.124C11.924 10.836 12.854 10.692 13.922 10.692C15.002 10.692 15.938 10.836 16.73 11.124C17.534 11.4 18.152 11.814 18.584 12.366C19.028 12.906 19.25 13.566 19.25 14.346C19.25 15.126 19.028 15.81 18.584 16.398C18.14 16.974 17.516 17.424 16.712 17.748C15.92 18.06 14.99 18.216 13.922 18.216ZM13.922 16.074C14.654 16.074 15.23 15.912 15.65 15.588C16.082 15.264 16.298 14.82 16.298 14.256C16.298 13.692 16.082 13.254 15.65 12.942C15.23 12.618 14.654 12.456 13.922 12.456C13.202 12.456 12.632 12.618 12.212 12.942C11.792 13.254 11.582 13.692 11.582 14.256C11.582 14.82 11.792 15.264 12.212 15.588C12.632 15.912 13.202 16.074 13.922 16.074ZM13.922 12.168C12.95 12.168 12.098 12.036 11.366 11.772C10.646 11.508 10.082 11.124 9.674 10.62C9.278 10.104 9.08 9.492 9.08 8.784C9.08 8.04 9.284 7.404 9.692 6.876C10.1 6.336 10.67 5.922 11.402 5.634C12.134 5.334 12.974 5.184 13.922 5.184C14.894 5.184 15.74 5.334 16.46 5.634C17.192 5.922 17.762 6.336 18.17 6.876C18.59 7.404 18.8 8.04 18.8 8.784C18.8 9.492 18.596 10.104 18.188 10.62C17.792 11.124 17.228 11.508 16.496 11.772C15.764 12.036 14.906 12.168 13.922 12.168ZM13.922 10.458C14.534 10.458 15.014 10.32 15.362 10.044C15.722 9.768 15.902 9.39 15.902 8.91C15.902 8.406 15.716 8.016 15.344 7.74C14.984 7.464 14.51 7.326 13.922 7.326C13.346 7.326 12.878 7.464 12.518 7.74C12.158 8.016 11.978 8.406 11.978 8.91C11.978 9.39 12.152 9.768 12.5 10.044C12.848 10.32 13.322 10.458 13.922 10.458ZM22.227 18L30.831 5.4H32.973L24.369 18H22.227ZM23.325 12.204C22.713 12.204 22.173 12.066 21.705 11.79C21.237 11.502 20.865 11.1 20.589 10.584C20.325 10.056 20.193 9.438 20.193 8.73C20.193 8.022 20.325 7.41 20.589 6.894C20.865 6.378 21.237 5.976 21.705 5.688C22.173 5.4 22.713 5.256 23.325 5.256C23.937 5.256 24.477 5.4 24.945 5.688C25.413 5.976 25.779 6.378 26.043 6.894C26.307 7.41 26.439 8.022 26.439 8.73C26.439 9.438 26.307 10.056 26.043 10.584C25.779 11.1 25.413 11.502 24.945 11.79C24.477 12.066 23.937 12.204 23.325 12.204ZM23.325 10.728C23.721 10.728 24.039 10.566 24.279 10.242C24.519 9.906 24.639 9.402 24.639 8.73C24.639 8.058 24.519 7.56 24.279 7.236C24.039 6.9 23.721 6.732 23.325 6.732C22.941 6.732 22.623 6.9 22.371 7.236C22.131 7.56 22.011 8.058 22.011 8.73C22.011 9.39 22.131 9.888 22.371 10.224C22.623 10.56 22.941 10.728 23.325 10.728ZM31.875 18.144C31.275 18.144 30.735 18.006 30.255 17.73C29.787 17.442 29.421 17.04 29.157 16.524C28.893 15.996 28.761 15.378 28.761 14.67C28.761 13.962 28.893 13.35 29.157 12.834C29.421 12.318 29.787 11.916 30.255 11.628C30.735 11.34 31.275 11.196 31.875 11.196C32.499 11.196 33.045 11.34 33.513 11.628C33.981 11.916 34.347 12.318 34.611 12.834C34.875 13.35 35.007 13.962 35.007 14.67C35.007 15.378 34.875 15.996 34.611 16.524C34.347 17.04 33.981 17.442 33.513 17.73C33.045 18.006 32.499 18.144 31.875 18.144ZM31.875 16.668C32.271 16.668 32.589 16.506 32.829 16.182C33.069 15.846 33.189 15.342 33.189 14.67C33.189 14.01 33.069 13.512 32.829 13.176C32.589 12.84 32.271 12.672 31.875 12.672C31.491 12.672 31.173 12.84 30.921 13.176C30.681 13.5 30.561 13.998 30.561 14.67C30.561 15.342 30.681 15.846 30.921 16.182C31.173 16.506 31.491 16.668 31.875 16.668Z" fill="white"/>
</svg>
