<svg width="49" height="24" viewBox="0 0 49 24" fill="none" xmlns="http://www.w3.org/2000/svg">
<path d="M0 2C0 0.89543 0.895431 0 2 0H39C39.6295 0 40.2223 0.296388 40.6 0.8L48.1 10.8C48.6333 11.5111 48.6333 12.4889 48.1 13.2L40.6 23.2C40.2223 23.7036 39.6295 24 39 24H2C0.895431 24 0 23.1046 0 22V2Z" fill="#FF9A0D"/>
<path d="M12.788 18.216C11.912 18.216 11.042 18.102 10.178 17.874C9.314 17.634 8.582 17.298 7.982 16.866L9.116 14.634C9.596 14.982 10.154 15.258 10.79 15.462C11.426 15.666 12.068 15.768 12.716 15.768C13.448 15.768 14.024 15.624 14.444 15.336C14.864 15.048 15.074 14.652 15.074 14.148C15.074 13.668 14.888 13.29 14.516 13.014C14.144 12.738 13.544 12.6 12.716 12.6H11.384V10.674L14.894 6.696L15.218 7.74H8.612V5.4H17.432V7.29L13.94 11.268L12.464 10.422H13.31C14.858 10.422 16.028 10.77 16.82 11.466C17.612 12.162 18.008 13.056 18.008 14.148C18.008 14.856 17.822 15.522 17.45 16.146C17.078 16.758 16.508 17.256 15.74 17.64C14.972 18.024 13.988 18.216 12.788 18.216ZM20.9966 18L29.6006 5.4H31.7426L23.1386 18H20.9966ZM22.0946 12.204C21.4826 12.204 20.9426 12.066 20.4746 11.79C20.0066 11.502 19.6346 11.1 19.3586 10.584C19.0946 10.056 18.9626 9.438 18.9626 8.73C18.9626 8.022 19.0946 7.41 19.3586 6.894C19.6346 6.378 20.0066 5.976 20.4746 5.688C20.9426 5.4 21.4826 5.256 22.0946 5.256C22.7066 5.256 23.2466 5.4 23.7146 5.688C24.1826 5.976 24.5486 6.378 24.8126 6.894C25.0766 7.41 25.2086 8.022 25.2086 8.73C25.2086 9.438 25.0766 10.056 24.8126 10.584C24.5486 11.1 24.1826 11.502 23.7146 11.79C23.2466 12.066 22.7066 12.204 22.0946 12.204ZM22.0946 10.728C22.4906 10.728 22.8086 10.566 23.0486 10.242C23.2886 9.906 23.4086 9.402 23.4086 8.73C23.4086 8.058 23.2886 7.56 23.0486 7.236C22.8086 6.9 22.4906 6.732 22.0946 6.732C21.7106 6.732 21.3926 6.9 21.1406 7.236C20.9006 7.56 20.7806 8.058 20.7806 8.73C20.7806 9.39 20.9006 9.888 21.1406 10.224C21.3926 10.56 21.7106 10.728 22.0946 10.728ZM30.6446 18.144C30.0446 18.144 29.5046 18.006 29.0246 17.73C28.5566 17.442 28.1906 17.04 27.9266 16.524C27.6626 15.996 27.5306 15.378 27.5306 14.67C27.5306 13.962 27.6626 13.35 27.9266 12.834C28.1906 12.318 28.5566 11.916 29.0246 11.628C29.5046 11.34 30.0446 11.196 30.6446 11.196C31.2686 11.196 31.8146 11.34 32.2826 11.628C32.7506 11.916 33.1166 12.318 33.3806 12.834C33.6446 13.35 33.7766 13.962 33.7766 14.67C33.7766 15.378 33.6446 15.996 33.3806 16.524C33.1166 17.04 32.7506 17.442 32.2826 17.73C31.8146 18.006 31.2686 18.144 30.6446 18.144ZM30.6446 16.668C31.0406 16.668 31.3586 16.506 31.5986 16.182C31.8386 15.846 31.9586 15.342 31.9586 14.67C31.9586 14.01 31.8386 13.512 31.5986 13.176C31.3586 12.84 31.0406 12.672 30.6446 12.672C30.2606 12.672 29.9426 12.84 29.6906 13.176C29.4506 13.5 29.3306 13.998 29.3306 14.67C29.3306 15.342 29.4506 15.846 29.6906 16.182C29.9426 16.506 30.2606 16.668 30.6446 16.668Z" fill="white"/>
</svg>
