<svg width="25" height="20" viewBox="0 0 25 20" fill="none" xmlns="http://www.w3.org/2000/svg">
<path fill-rule="evenodd" clip-rule="evenodd" d="M2.14987 8.61759C8.59231 5.81072 12.8883 3.96027 15.0378 3.06622C21.175 0.513526 22.4503 0.0700963 23.2815 0.055454C23.4643 0.0522336 23.8731 0.0975404 24.1379 0.312389C24.3614 0.493804 24.4229 0.738868 24.4524 0.910869C24.4818 1.08287 24.5185 1.47469 24.4893 1.78085C24.1568 5.27529 22.7177 13.7554 21.9856 17.6692C21.6758 19.3253 21.0658 19.8806 20.4753 19.9349C19.1919 20.053 18.2174 19.0868 16.9744 18.272C15.0294 16.997 13.9305 16.2033 12.0425 14.9591C9.86064 13.5213 11.2751 12.731 12.5185 11.4395C12.844 11.1015 18.4985 5.95834 18.6079 5.49177C18.6216 5.43342 18.6343 5.21591 18.5051 5.10106C18.3759 4.9862 18.1851 5.02548 18.0475 5.05671C17.8524 5.10099 14.7452 7.15475 8.72584 11.218C7.84386 11.8236 7.045 12.1187 6.32924 12.1032C5.54018 12.0862 4.02233 11.6571 2.89397 11.2903C1.50999 10.8404 0.410032 10.6026 0.505814 9.83855C0.555703 9.44059 1.10372 9.03361 2.14987 8.61759Z" fill="#FAFAFA"/>
</svg>
