<svg width="25" height="24" viewBox="0 0 25 24" fill="none" xmlns="http://www.w3.org/2000/svg">
<path d="M0.5 12C0.5 5.37258 5.87258 0 12.5 0C19.1274 0 24.5 5.37258 24.5 12C24.5 18.6274 19.1274 24 12.5 24C5.87258 24 0.5 18.6274 0.5 12Z" fill="url(#paint0_linear_6192_2650)"/>
<path d="M14.749 5.18781V14.1892C14.749 14.206 14.749 14.2249 14.749 14.2418V14.2523C14.7342 14.8308 14.5007 15.3714 14.0904 15.7795C13.6654 16.2044 13.1015 16.4379 12.4997 16.4379C11.2583 16.4379 10.2504 15.4282 10.2504 14.1892V5.18781L12.4997 4.06238L14.749 5.18781Z" fill="#06070A"/>
<path d="M13.3058 17.4666C12.5147 18.2049 11.4542 18.6614 10.2928 18.6719C7.8036 18.6951 5.76683 16.6251 5.76683 14.1365V10.5625H5.75V8.13281C5.75 7.70788 5.98987 7.31871 6.37071 7.12939L9.12498 5.75152V14.1428C9.12498 16.0045 10.6483 17.5717 12.5105 17.5654C12.784 17.5654 13.0512 17.5318 13.3058 17.4687V17.4666Z" fill="#06070A"/>
<path d="M19.25 8.13067V14.1239C19.25 17.8452 16.2643 20.9143 12.54 20.9375C10.9472 20.948 9.47856 20.4053 8.3192 19.4902C8.90624 19.7048 9.53958 19.8247 10.1982 19.8289C13.3291 19.8562 15.8898 17.2625 15.8898 14.1323V5.75989L18.6272 7.12934C19.008 7.31867 19.2479 7.70784 19.2479 8.13277L19.25 8.13067Z" fill="#06070A"/>
<defs>
<linearGradient id="paint0_linear_6192_2650" x1="12.5" y1="0" x2="12.5" y2="24" gradientUnits="userSpaceOnUse">
<stop stop-color="#FFC12F"/>
<stop offset="1" stop-color="#FF9A0C"/>
</linearGradient>
</defs>
</svg>
