<svg width="1232" height="273" viewBox="0 0 1232 273" fill="none" xmlns="http://www.w3.org/2000/svg">
<mask id="path-1-outside-1_6061_1072" maskUnits="userSpaceOnUse" x="0.201172" y="0.747559" width="1232" height="272" fill="black">
<rect fill="white" x="0.201172" y="0.747559" width="1232" height="272"/>
<path d="M75.9541 148.262C75.9541 170.216 80.2302 185.706 88.5498 194.984L88.9551 195.417C97.5138 204.442 109.098 208.992 123.824 208.992C138.784 208.992 150.373 204.297 158.722 194.994L159.108 194.554C167.179 185.231 171.326 169.881 171.326 148.262V6.8999H244.977V150.466C244.977 188.869 234.263 218.676 212.708 239.735C191.162 260.785 161.244 271.252 123.089 271.252C85.5302 271.252 55.952 261.11 34.4854 240.714L33.4697 239.735C11.9152 218.676 1.2012 188.869 1.20117 150.466V6.8999H75.9541V148.262ZM842.045 1.74756C865.923 1.7476 887.256 5.93299 906.021 14.3276H906.02C925.023 22.7194 940.83 34.8204 953.426 50.6265L954.012 51.3608L953.315 51.9917L907.018 93.8794L906.253 94.5718L905.585 93.7856C897.33 84.0737 888.244 76.6902 878.333 71.6138L878.324 71.6099C868.684 66.5489 857.822 64.0073 845.719 64.0073C835.622 64.0074 826.342 65.5999 817.871 68.772L817.054 69.0835C808.367 72.4619 800.895 77.4029 794.63 83.9087L794.631 83.9097C788.604 90.1775 783.77 97.7836 780.139 106.742C776.763 115.672 775.068 125.586 775.068 136.496C775.068 147.413 776.766 157.335 780.146 166.27C783.776 175.216 788.607 182.938 794.631 189.448C800.894 195.707 808.364 200.528 817.054 203.908L817.871 204.219C826.342 207.391 835.621 208.984 845.719 208.984C857.822 208.984 868.684 206.443 878.324 201.382L878.333 201.377L879.26 200.895C888.811 195.838 897.588 188.615 905.585 179.207L906.253 178.42L907.018 179.112L953.315 221L954.017 221.635L953.421 222.372C940.826 237.93 925.022 250.027 906.025 258.662L906.021 258.664C887.256 267.058 865.924 271.244 842.045 271.244C821.608 271.244 802.628 268.042 785.115 261.629L785.106 261.626L785.099 261.624C767.837 254.965 752.782 245.589 739.945 233.493L739.938 233.486C727.35 221.39 717.476 207.196 710.32 190.912L710.318 190.907C703.155 174.358 699.58 156.216 699.58 136.496C699.58 116.776 703.155 98.7549 710.32 82.4478C717.475 65.9197 727.348 51.6022 739.938 39.5054L739.945 39.4985L741.155 38.3726C753.322 27.1965 767.44 18.5194 783.498 12.3403L785.11 11.731C802.624 5.07186 821.606 1.7476 842.045 1.74756ZM353.925 7.26221L465.693 142.194V6.8999H538.977V266.108H477.614L477.314 265.746L365.545 130.811V266.108H292.262V6.8999H353.625L353.925 7.26221ZM663.048 266.108H588.295V6.8999H663.048V266.108ZM1058.84 103.537H1156.04V6.8999H1230.8V266.108H1156.04V165.797H1058.84V266.108H984.083V6.8999H1058.84V103.537ZM364.546 128.039L478.084 265.108L364.546 128.037V128.039ZM788.665 261.823C788.128 261.64 787.592 261.455 787.058 261.266L787.043 261.261C787.582 261.452 788.123 261.638 788.665 261.823ZM770.029 253.702C770.748 254.08 771.473 254.45 772.201 254.816C771.419 254.422 770.642 254.023 769.87 253.617L770.029 253.702ZM749.307 240.255C749.735 240.594 750.166 240.93 750.599 241.263L749.308 240.255C748.879 239.917 748.453 239.576 748.029 239.233L749.307 240.255ZM212.009 239.02C211.381 239.633 210.745 240.236 210.104 240.831C210.405 240.551 210.707 240.271 211.005 239.988L212.01 239.02C212.339 238.698 212.666 238.374 212.99 238.047L212.009 239.02ZM744.271 236.071C744.682 236.43 745.096 236.786 745.512 237.14L744.272 236.071C743.861 235.711 743.453 235.349 743.046 234.985L744.271 236.071ZM730.729 222.144C731.072 222.556 731.418 222.965 731.767 223.373L730.73 222.144C730.387 221.732 730.047 221.319 729.709 220.903L730.729 222.144ZM847.452 209.965C846.877 209.977 846.299 209.983 845.719 209.983L845.72 209.984C846.3 209.984 846.877 209.977 847.452 209.965ZM817.611 205.189C817.985 205.328 818.36 205.464 818.736 205.597C818.36 205.464 817.985 205.328 817.611 205.189ZM815.527 204.374C815.913 204.531 816.301 204.688 816.691 204.84C816.803 204.884 816.915 204.925 817.026 204.967L816.691 204.839C816.301 204.687 815.913 204.531 815.527 204.374ZM815.053 204.18C815.181 204.234 815.311 204.285 815.44 204.338C815.039 204.174 814.64 204.007 814.244 203.836L815.053 204.18ZM811.86 202.756C812.121 202.881 812.384 203.003 812.647 203.125L811.86 202.755C811.599 202.631 811.339 202.506 811.08 202.378L811.86 202.756ZM806.551 199.933C806.593 199.958 806.636 199.982 806.679 200.007C806.391 199.838 806.105 199.668 805.82 199.495L806.551 199.933ZM800.912 196.19C801.363 196.525 801.819 196.854 802.279 197.177L801.593 196.687C801.137 196.358 800.686 196.024 800.24 195.683L800.912 196.19ZM793.91 190.143C794.308 190.541 794.711 190.933 795.119 191.32L794.512 190.735C794.31 190.539 794.109 190.341 793.91 190.142C793.719 189.936 793.529 189.728 793.34 189.519L793.91 190.143ZM791.671 187.605C791.853 187.821 792.036 188.036 792.221 188.25L791.672 187.605C791.49 187.389 791.309 187.171 791.13 186.953L791.671 187.605ZM788.029 182.888C788.194 183.121 788.361 183.353 788.528 183.583L788.029 182.887C787.864 182.654 787.7 182.42 787.537 182.185L788.029 182.888ZM785.188 178.565C785.225 178.627 785.264 178.687 785.302 178.749C785.113 178.44 784.924 178.131 784.738 177.819L785.188 178.565ZM1057.84 164.797H1157.04V164.796H1057.84V164.797ZM774.39 128.413C774.381 128.521 774.374 128.629 774.365 128.738C774.399 128.3 774.436 127.863 774.476 127.428L774.39 128.413ZM701.424 120.368C701.345 121.106 701.273 121.847 701.205 122.591C701.273 121.848 701.345 121.107 701.424 120.369V120.368ZM903.982 90.4438L903.184 89.5728C903.143 89.5292 903.102 89.4863 903.062 89.4429C903.37 89.7735 903.677 90.1069 903.982 90.4438ZM789.034 88.9106C788.864 89.1335 788.696 89.358 788.528 89.5835L789.034 88.9116C789.204 88.6888 789.375 88.4668 789.547 88.2466L789.034 88.9106ZM791.671 85.6694C791.307 86.0884 790.949 86.5124 790.595 86.9419L791.13 86.3022C791.489 85.8778 791.852 85.4584 792.221 85.0444L791.671 85.6694ZM894.07 80.894C894.504 81.2556 894.935 81.6235 895.364 81.9956C894.934 81.6232 894.503 81.255 894.069 80.8931L894.07 80.894ZM891.643 78.9399L891.479 78.812C891.313 78.6842 891.146 78.5585 890.98 78.4321C891.201 78.6004 891.422 78.7694 891.643 78.9399ZM817.521 67.8354C817.444 67.8641 817.367 67.8934 817.291 67.9224C817.644 67.7886 817.999 67.6581 818.355 67.5298L817.521 67.8354ZM820.888 66.6704C820.604 66.7608 820.321 66.8531 820.039 66.9468L820.889 66.6704C821.172 66.5801 821.457 66.4908 821.742 66.4038L820.888 66.6704ZM823.466 65.9019C823.177 65.9822 822.889 66.0642 822.602 66.1479L823.467 65.9019C823.756 65.8215 824.045 65.7425 824.336 65.6655L823.466 65.9019ZM952.644 51.2495H952.645C952.301 50.8182 951.953 50.391 951.604 49.9653C951.953 50.3909 952.3 50.8184 952.644 51.2495ZM742.526 38.479C741.89 39.0552 741.257 39.6363 740.631 40.2261L739.468 41.3579C739.209 41.6124 738.954 41.87 738.698 42.1265C739.336 41.4878 739.98 40.8537 740.632 40.2271C741.258 39.6373 741.89 39.0552 742.526 38.479ZM944.174 41.6782L943.989 41.4888C943.84 41.3375 943.689 41.188 943.539 41.0376C943.751 41.2504 943.963 41.4637 944.174 41.6782ZM783.857 13.2739C783.47 13.4232 783.084 13.5759 782.698 13.728C783.155 13.5476 783.614 13.3687 784.074 13.1919L783.857 13.2739ZM844.265 2.76025C845.728 2.77638 847.181 2.80782 848.624 2.85596C847.181 2.80782 845.728 2.77541 844.265 2.75928L842.045 2.74756L844.265 2.76025Z"/>
</mask>
<path d="M75.9541 148.262C75.9541 170.216 80.2302 185.706 88.5498 194.984L88.9551 195.417C97.5138 204.442 109.098 208.992 123.824 208.992C138.784 208.992 150.373 204.297 158.722 194.994L159.108 194.554C167.179 185.231 171.326 169.881 171.326 148.262V6.8999H244.977V150.466C244.977 188.869 234.263 218.676 212.708 239.735C191.162 260.785 161.244 271.252 123.089 271.252C85.5302 271.252 55.952 261.11 34.4854 240.714L33.4697 239.735C11.9152 218.676 1.2012 188.869 1.20117 150.466V6.8999H75.9541V148.262ZM842.045 1.74756C865.923 1.7476 887.256 5.93299 906.021 14.3276H906.02C925.023 22.7194 940.83 34.8204 953.426 50.6265L954.012 51.3608L953.315 51.9917L907.018 93.8794L906.253 94.5718L905.585 93.7856C897.33 84.0737 888.244 76.6902 878.333 71.6138L878.324 71.6099C868.684 66.5489 857.822 64.0073 845.719 64.0073C835.622 64.0074 826.342 65.5999 817.871 68.772L817.054 69.0835C808.367 72.4619 800.895 77.4029 794.63 83.9087L794.631 83.9097C788.604 90.1775 783.77 97.7836 780.139 106.742C776.763 115.672 775.068 125.586 775.068 136.496C775.068 147.413 776.766 157.335 780.146 166.27C783.776 175.216 788.607 182.938 794.631 189.448C800.894 195.707 808.364 200.528 817.054 203.908L817.871 204.219C826.342 207.391 835.621 208.984 845.719 208.984C857.822 208.984 868.684 206.443 878.324 201.382L878.333 201.377L879.26 200.895C888.811 195.838 897.588 188.615 905.585 179.207L906.253 178.42L907.018 179.112L953.315 221L954.017 221.635L953.421 222.372C940.826 237.93 925.022 250.027 906.025 258.662L906.021 258.664C887.256 267.058 865.924 271.244 842.045 271.244C821.608 271.244 802.628 268.042 785.115 261.629L785.106 261.626L785.099 261.624C767.837 254.965 752.782 245.589 739.945 233.493L739.938 233.486C727.35 221.39 717.476 207.196 710.32 190.912L710.318 190.907C703.155 174.358 699.58 156.216 699.58 136.496C699.58 116.776 703.155 98.7549 710.32 82.4478C717.475 65.9197 727.348 51.6022 739.938 39.5054L739.945 39.4985L741.155 38.3726C753.322 27.1965 767.44 18.5194 783.498 12.3403L785.11 11.731C802.624 5.07186 821.606 1.7476 842.045 1.74756ZM353.925 7.26221L465.693 142.194V6.8999H538.977V266.108H477.614L477.314 265.746L365.545 130.811V266.108H292.262V6.8999H353.625L353.925 7.26221ZM663.048 266.108H588.295V6.8999H663.048V266.108ZM1058.84 103.537H1156.04V6.8999H1230.8V266.108H1156.04V165.797H1058.84V266.108H984.083V6.8999H1058.84V103.537ZM364.546 128.039L478.084 265.108L364.546 128.037V128.039ZM788.665 261.823C788.128 261.64 787.592 261.455 787.058 261.266L787.043 261.261C787.582 261.452 788.123 261.638 788.665 261.823ZM770.029 253.702C770.748 254.08 771.473 254.45 772.201 254.816C771.419 254.422 770.642 254.023 769.87 253.617L770.029 253.702ZM749.307 240.255C749.735 240.594 750.166 240.93 750.599 241.263L749.308 240.255C748.879 239.917 748.453 239.576 748.029 239.233L749.307 240.255ZM212.009 239.02C211.381 239.633 210.745 240.236 210.104 240.831C210.405 240.551 210.707 240.271 211.005 239.988L212.01 239.02C212.339 238.698 212.666 238.374 212.99 238.047L212.009 239.02ZM744.271 236.071C744.682 236.43 745.096 236.786 745.512 237.14L744.272 236.071C743.861 235.711 743.453 235.349 743.046 234.985L744.271 236.071ZM730.729 222.144C731.072 222.556 731.418 222.965 731.767 223.373L730.73 222.144C730.387 221.732 730.047 221.319 729.709 220.903L730.729 222.144ZM847.452 209.965C846.877 209.977 846.299 209.983 845.719 209.983L845.72 209.984C846.3 209.984 846.877 209.977 847.452 209.965ZM817.611 205.189C817.985 205.328 818.36 205.464 818.736 205.597C818.36 205.464 817.985 205.328 817.611 205.189ZM815.527 204.374C815.913 204.531 816.301 204.688 816.691 204.84C816.803 204.884 816.915 204.925 817.026 204.967L816.691 204.839C816.301 204.687 815.913 204.531 815.527 204.374ZM815.053 204.18C815.181 204.234 815.311 204.285 815.44 204.338C815.039 204.174 814.64 204.007 814.244 203.836L815.053 204.18ZM811.86 202.756C812.121 202.881 812.384 203.003 812.647 203.125L811.86 202.755C811.599 202.631 811.339 202.506 811.08 202.378L811.86 202.756ZM806.551 199.933C806.593 199.958 806.636 199.982 806.679 200.007C806.391 199.838 806.105 199.668 805.82 199.495L806.551 199.933ZM800.912 196.19C801.363 196.525 801.819 196.854 802.279 197.177L801.593 196.687C801.137 196.358 800.686 196.024 800.24 195.683L800.912 196.19ZM793.91 190.143C794.308 190.541 794.711 190.933 795.119 191.32L794.512 190.735C794.31 190.539 794.109 190.341 793.91 190.142C793.719 189.936 793.529 189.728 793.34 189.519L793.91 190.143ZM791.671 187.605C791.853 187.821 792.036 188.036 792.221 188.25L791.672 187.605C791.49 187.389 791.309 187.171 791.13 186.953L791.671 187.605ZM788.029 182.888C788.194 183.121 788.361 183.353 788.528 183.583L788.029 182.887C787.864 182.654 787.7 182.42 787.537 182.185L788.029 182.888ZM785.188 178.565C785.225 178.627 785.264 178.687 785.302 178.749C785.113 178.44 784.924 178.131 784.738 177.819L785.188 178.565ZM1057.84 164.797H1157.04V164.796H1057.84V164.797ZM774.39 128.413C774.381 128.521 774.374 128.629 774.365 128.738C774.399 128.3 774.436 127.863 774.476 127.428L774.39 128.413ZM701.424 120.368C701.345 121.106 701.273 121.847 701.205 122.591C701.273 121.848 701.345 121.107 701.424 120.369V120.368ZM903.982 90.4438L903.184 89.5728C903.143 89.5292 903.102 89.4863 903.062 89.4429C903.37 89.7735 903.677 90.1069 903.982 90.4438ZM789.034 88.9106C788.864 89.1335 788.696 89.358 788.528 89.5835L789.034 88.9116C789.204 88.6888 789.375 88.4668 789.547 88.2466L789.034 88.9106ZM791.671 85.6694C791.307 86.0884 790.949 86.5124 790.595 86.9419L791.13 86.3022C791.489 85.8778 791.852 85.4584 792.221 85.0444L791.671 85.6694ZM894.07 80.894C894.504 81.2556 894.935 81.6235 895.364 81.9956C894.934 81.6232 894.503 81.255 894.069 80.8931L894.07 80.894ZM891.643 78.9399L891.479 78.812C891.313 78.6842 891.146 78.5585 890.98 78.4321C891.201 78.6004 891.422 78.7694 891.643 78.9399ZM817.521 67.8354C817.444 67.8641 817.367 67.8934 817.291 67.9224C817.644 67.7886 817.999 67.6581 818.355 67.5298L817.521 67.8354ZM820.888 66.6704C820.604 66.7608 820.321 66.8531 820.039 66.9468L820.889 66.6704C821.172 66.5801 821.457 66.4908 821.742 66.4038L820.888 66.6704ZM823.466 65.9019C823.177 65.9822 822.889 66.0642 822.602 66.1479L823.467 65.9019C823.756 65.8215 824.045 65.7425 824.336 65.6655L823.466 65.9019ZM952.644 51.2495H952.645C952.301 50.8182 951.953 50.391 951.604 49.9653C951.953 50.3909 952.3 50.8184 952.644 51.2495ZM742.526 38.479C741.89 39.0552 741.257 39.6363 740.631 40.2261L739.468 41.3579C739.209 41.6124 738.954 41.87 738.698 42.1265C739.336 41.4878 739.98 40.8537 740.632 40.2271C741.258 39.6373 741.89 39.0552 742.526 38.479ZM944.174 41.6782L943.989 41.4888C943.84 41.3375 943.689 41.188 943.539 41.0376C943.751 41.2504 943.963 41.4637 944.174 41.6782ZM783.857 13.2739C783.47 13.4232 783.084 13.5759 782.698 13.728C783.155 13.5476 783.614 13.3687 784.074 13.1919L783.857 13.2739ZM844.265 2.76025C845.728 2.77638 847.181 2.80782 848.624 2.85596C847.181 2.80782 845.728 2.77541 844.265 2.75928L842.045 2.74756L844.265 2.76025Z" fill="url(#paint0_radial_6061_1072)"/>
<path d="M75.9541 148.262H74.9541H75.9541ZM88.5498 194.984L87.8053 195.651C87.8101 195.657 87.815 195.662 87.82 195.668L88.5498 194.984ZM88.9551 195.417L88.2253 196.1L88.2294 196.105L88.9551 195.417ZM123.824 208.992V209.992H123.824L123.824 208.992ZM158.722 194.994L159.466 195.662L159.472 195.654L158.722 194.994ZM159.108 194.554L159.859 195.215L159.864 195.209L159.108 194.554ZM171.326 148.262H172.326H171.326ZM171.326 6.8999V5.8999C170.774 5.8999 170.326 6.34762 170.326 6.8999H171.326ZM244.977 6.8999H245.977C245.977 6.34762 245.529 5.8999 244.977 5.8999V6.8999ZM244.977 150.466H245.977H244.977ZM212.708 239.735L213.407 240.45L212.708 239.735ZM123.089 271.252V272.252V271.252ZM34.4854 240.714L33.7911 241.434L33.7966 241.439L34.4854 240.714ZM33.4697 239.735L32.7709 240.45L32.7755 240.455L33.4697 239.735ZM1.20117 150.466H0.201172H1.20117ZM1.20117 6.8999V5.8999C0.648887 5.8999 0.201172 6.34762 0.201172 6.8999H1.20117ZM75.9541 6.8999H76.9541C76.9541 6.34762 76.5064 5.8999 75.9541 5.8999V6.8999ZM842.045 1.74756V0.747559V1.74756ZM906.021 14.3276V15.3276C906.492 15.3276 906.9 14.9978 906.998 14.5364C907.097 14.075 906.86 13.6075 906.429 13.4148L906.021 14.3276ZM906.02 14.3276V13.3276C905.547 13.3276 905.139 13.6587 905.041 14.1212C904.943 14.5838 905.183 15.0514 905.616 15.2424L906.02 14.3276ZM953.426 50.6265L952.644 51.2497L952.644 51.2501L953.426 50.6265ZM954.012 51.3608L954.683 52.1019C955.074 51.7474 955.123 51.1499 954.793 50.7372L954.012 51.3608ZM953.315 51.9917L953.986 52.7332L953.987 52.7328L953.315 51.9917ZM907.018 93.8794L906.347 93.1379L906.346 93.1381L907.018 93.8794ZM906.253 94.5718L905.491 95.2193C905.666 95.4256 905.918 95.552 906.188 95.5696C906.458 95.5873 906.724 95.4947 906.924 95.313L906.253 94.5718ZM905.585 93.7856L906.347 93.1381L906.347 93.138L905.585 93.7856ZM878.333 71.6138L878.789 70.7237C878.773 70.7153 878.756 70.7074 878.739 70.7L878.333 71.6138ZM878.324 71.6099L877.859 72.4953C877.879 72.5054 877.898 72.5148 877.918 72.5237L878.324 71.6099ZM845.719 64.0073V63.0073V64.0073ZM817.871 68.772L817.52 67.8355L817.515 67.8375L817.871 68.772ZM817.054 69.0835L816.698 68.149L816.691 68.1515L817.054 69.0835ZM794.63 83.9087L793.91 83.215C793.532 83.6076 793.537 84.2305 793.923 84.6158L794.63 83.9087ZM794.631 83.9097L795.352 84.6028C795.729 84.2102 795.723 83.5877 795.338 83.2026L794.631 83.9097ZM780.139 106.742L779.212 106.366C779.209 106.373 779.206 106.381 779.203 106.388L780.139 106.742ZM775.068 136.496H774.068H775.068ZM780.146 166.27L779.211 166.624C779.214 166.631 779.217 166.639 779.22 166.646L780.146 166.27ZM794.631 189.448L793.897 190.127C793.906 190.136 793.915 190.146 793.924 190.155L794.631 189.448ZM817.054 203.908L816.691 204.84L816.698 204.842L817.054 203.908ZM817.871 204.219L817.515 205.154L817.52 205.156L817.871 204.219ZM845.719 208.984V209.984V208.984ZM878.324 201.382L878.789 202.268C878.796 202.264 878.803 202.26 878.81 202.256L878.324 201.382ZM878.333 201.377L877.871 200.49C877.863 200.495 877.855 200.499 877.847 200.503L878.333 201.377ZM879.26 200.895L879.721 201.782L879.728 201.779L879.26 200.895ZM905.585 179.207L906.347 179.854L906.347 179.854L905.585 179.207ZM906.253 178.42L906.924 177.679C906.723 177.497 906.457 177.405 906.187 177.423C905.917 177.44 905.666 177.567 905.491 177.773L906.253 178.42ZM907.018 179.112L907.688 178.37L907.688 178.37L907.018 179.112ZM953.315 221L953.987 220.259L953.986 220.259L953.315 221ZM954.017 221.635L954.794 222.264C955.128 221.852 955.081 221.25 954.688 220.894L954.017 221.635ZM953.421 222.372L954.198 223.001L954.198 223.001L953.421 222.372ZM906.025 258.662L906.397 259.59C906.411 259.584 906.425 259.578 906.439 259.572L906.025 258.662ZM906.021 258.664L905.649 257.735C905.637 257.74 905.624 257.745 905.612 257.751L906.021 258.664ZM842.045 271.244V272.244V271.244ZM785.115 261.629L785.459 260.69C785.45 260.687 785.441 260.684 785.431 260.681L785.115 261.629ZM785.106 261.626L784.755 262.563C784.767 262.567 784.779 262.571 784.79 262.575L785.106 261.626ZM785.099 261.624L784.739 262.557L784.747 262.56L785.099 261.624ZM739.945 233.493L739.238 234.2C739.245 234.207 739.252 234.214 739.26 234.22L739.945 233.493ZM739.938 233.486L740.646 232.779C740.641 232.774 740.636 232.769 740.631 232.765L739.938 233.486ZM710.32 190.912L709.392 191.283C709.396 191.293 709.4 191.304 709.405 191.314L710.32 190.912ZM710.318 190.907L711.247 190.535C711.243 190.527 711.24 190.518 711.236 190.51L710.318 190.907ZM699.58 136.496H698.58H699.58ZM710.32 82.4478L711.236 82.85L711.238 82.845L710.32 82.4478ZM739.938 39.5054L740.631 40.2265C740.636 40.2219 740.641 40.2172 740.646 40.2125L739.938 39.5054ZM739.945 39.4985L739.264 38.7665C739.255 38.7746 739.247 38.783 739.238 38.7914L739.945 39.4985ZM741.155 38.3726L740.479 37.6361L740.474 37.6405L741.155 38.3726ZM783.498 12.3403L783.144 11.4049L783.139 11.407L783.498 12.3403ZM785.11 11.731L785.464 12.6664L785.466 12.6657L785.11 11.731ZM353.925 7.26221L353.154 7.89973L353.155 7.90012L353.925 7.26221ZM465.693 142.194L464.923 142.832C465.192 143.156 465.636 143.278 466.032 143.135C466.429 142.992 466.693 142.615 466.693 142.194H465.693ZM465.693 6.8999V5.8999C465.141 5.8999 464.693 6.34762 464.693 6.8999H465.693ZM538.977 6.8999H539.977C539.977 6.34762 539.529 5.8999 538.977 5.8999V6.8999ZM538.977 266.108V267.108C539.529 267.108 539.977 266.66 539.977 266.108H538.977ZM477.614 266.108L476.844 266.745C477.034 266.975 477.316 267.108 477.614 267.108V266.108ZM477.314 265.746L478.085 265.108L478.085 265.108L477.314 265.746ZM365.545 130.811L366.315 130.173C366.046 129.848 365.602 129.727 365.206 129.87C364.809 130.013 364.545 130.389 364.545 130.811H365.545ZM365.545 266.108V267.108C366.097 267.108 366.545 266.66 366.545 266.108H365.545ZM292.262 266.108H291.262C291.262 266.66 291.709 267.108 292.262 267.108V266.108ZM292.262 6.8999V5.8999C291.709 5.8999 291.262 6.34762 291.262 6.8999H292.262ZM353.625 6.8999L354.395 6.26238C354.205 6.0328 353.923 5.8999 353.625 5.8999V6.8999ZM663.048 266.108V267.108C663.6 267.108 664.048 266.66 664.048 266.108H663.048ZM588.295 266.108H587.295C587.295 266.66 587.743 267.108 588.295 267.108V266.108ZM588.295 6.8999V5.8999C587.743 5.8999 587.295 6.34762 587.295 6.8999H588.295ZM663.048 6.8999H664.048C664.048 6.34762 663.6 5.8999 663.048 5.8999V6.8999ZM1058.84 103.537H1057.84C1057.84 104.089 1058.28 104.537 1058.84 104.537V103.537ZM1156.04 103.537V104.537C1156.6 104.537 1157.04 104.089 1157.04 103.537H1156.04ZM1156.04 6.8999V5.8999C1155.49 5.8999 1155.04 6.34762 1155.04 6.8999H1156.04ZM1230.8 6.8999H1231.8C1231.8 6.34762 1231.35 5.8999 1230.8 5.8999V6.8999ZM1230.8 266.108V267.108C1231.35 267.108 1231.8 266.66 1231.8 266.108H1230.8ZM1156.04 266.108H1155.04C1155.04 266.66 1155.49 267.108 1156.04 267.108V266.108ZM1156.04 165.797H1157.04C1157.04 165.245 1156.6 164.797 1156.04 164.797V165.797ZM1058.84 165.797V164.797C1058.28 164.797 1057.84 165.245 1057.84 165.797H1058.84ZM1058.84 266.108V267.108C1059.39 267.108 1059.84 266.66 1059.84 266.108H1058.84ZM984.083 266.108H983.083C983.083 266.66 983.531 267.108 984.083 267.108V266.108ZM984.083 6.8999V5.8999C983.531 5.8999 983.083 6.34762 983.083 6.8999H984.083ZM1058.84 6.8999H1059.84C1059.84 6.34762 1059.39 5.8999 1058.84 5.8999V6.8999ZM364.546 128.039H363.546C363.546 128.271 363.627 128.497 363.776 128.676L364.546 128.039ZM478.084 265.108L477.314 265.746C477.666 266.171 478.297 266.23 478.722 265.878C479.147 265.526 479.206 264.895 478.854 264.47L478.084 265.108ZM364.546 128.037L365.316 127.399C365.047 127.074 364.603 126.953 364.207 127.096C363.81 127.239 363.546 127.615 363.546 128.037H364.546ZM788.343 262.769C788.866 262.947 789.434 262.668 789.612 262.145C789.79 261.622 789.51 261.054 788.987 260.876L788.343 262.769ZM787.058 261.266L787.39 260.323C787.385 260.321 787.379 260.319 787.374 260.317L787.058 261.266ZM787.043 261.261L787.359 260.313C786.839 260.139 786.275 260.417 786.097 260.937C785.919 261.456 786.192 262.021 786.71 262.204L787.043 261.261ZM770.029 253.702L769.558 254.584L769.564 254.587L770.029 253.702ZM772.201 254.816L771.752 255.709C772.245 255.957 772.846 255.759 773.094 255.265C773.343 254.772 773.144 254.171 772.651 253.923L772.201 254.816ZM769.87 253.617L770.336 252.732C769.849 252.475 769.245 252.661 768.987 253.148C768.728 253.635 768.913 254.239 769.399 254.499L769.87 253.617ZM749.307 240.255L748.682 241.036L748.687 241.04L749.307 240.255ZM750.599 241.263L749.989 242.056C750.425 242.392 751.051 242.311 751.389 241.876C751.727 241.44 751.648 240.814 751.214 240.475L750.599 241.263ZM749.308 240.255L748.688 241.04L748.692 241.044L749.308 240.255ZM748.029 239.233L748.654 238.452C748.224 238.108 747.596 238.176 747.25 238.606C746.905 239.035 746.972 239.663 747.4 240.01L748.029 239.233ZM212.009 239.02L212.708 239.735L212.713 239.73L212.009 239.02ZM210.104 240.831L209.424 240.097C209.019 240.472 208.995 241.105 209.37 241.51C209.745 241.915 210.378 241.939 210.783 241.564L210.104 240.831ZM211.005 239.988L211.694 240.713L211.699 240.708L211.005 239.988ZM212.01 239.02L212.703 239.74L212.709 239.735L212.01 239.02ZM212.99 238.047L213.7 238.752C214.088 238.361 214.087 237.73 213.698 237.341C213.309 236.951 212.678 236.949 212.286 237.337L212.99 238.047ZM744.271 236.071L743.608 236.819L743.613 236.824L744.271 236.071ZM745.512 237.14L744.863 237.901C745.282 238.259 745.912 238.21 746.271 237.791C746.63 237.373 746.582 236.743 746.165 236.383L745.512 237.14ZM744.272 236.071L743.614 236.824L743.619 236.828L744.272 236.071ZM743.046 234.985L743.709 234.236C743.297 233.871 742.666 233.908 742.299 234.32C741.933 234.731 741.968 235.362 742.378 235.729L743.046 234.985ZM730.729 222.144L729.957 222.779L729.961 222.784L730.729 222.144ZM731.767 223.373L731.006 224.022C731.364 224.441 731.994 224.492 732.414 224.135C732.834 223.778 732.886 223.149 732.531 222.728L731.767 223.373ZM730.73 222.144L729.962 222.784L729.966 222.789L730.73 222.144ZM729.709 220.903L730.481 220.268C730.131 219.842 729.503 219.78 729.076 220.129C728.649 220.477 728.585 221.106 728.933 221.533L729.709 220.903ZM847.472 210.965C848.024 210.954 848.463 210.497 848.452 209.945C848.441 209.393 847.984 208.954 847.432 208.966L847.472 210.965ZM845.719 209.983V208.983C845.314 208.983 844.95 209.227 844.795 209.6C844.64 209.974 844.726 210.404 845.012 210.69L845.719 209.983ZM845.72 209.984L845.013 210.691C845.2 210.879 845.455 210.984 845.72 210.984V209.984ZM817.611 205.189L817.959 204.251C817.442 204.059 816.866 204.323 816.674 204.84C816.482 205.358 816.745 205.933 817.262 206.126L817.611 205.189ZM818.403 206.54C818.923 206.724 819.495 206.451 819.679 205.931C819.863 205.41 819.591 204.839 819.07 204.654L818.403 206.54ZM815.527 204.374L815.906 203.448C815.394 203.239 814.811 203.484 814.602 203.995C814.393 204.506 814.638 205.09 815.149 205.299L815.527 204.374ZM816.691 204.84L816.329 205.772L816.691 204.84ZM817.026 204.967L816.67 205.901C817.185 206.099 817.763 205.84 817.961 205.324C818.158 204.808 817.899 204.23 817.383 204.033L817.026 204.967ZM816.691 204.839L816.329 205.771L816.335 205.774L816.691 204.839ZM815.053 204.18L814.661 205.1L814.668 205.103L815.053 204.18ZM815.44 204.338L815.061 205.264C815.572 205.473 816.156 205.229 816.366 204.718C816.575 204.207 816.331 203.623 815.82 203.413L815.44 204.338ZM814.244 203.836L814.635 202.916C814.128 202.7 813.542 202.936 813.325 203.443C813.108 203.95 813.342 204.536 813.848 204.755L814.244 203.836ZM811.86 202.756L811.424 203.656L811.43 203.659L811.86 202.756ZM812.647 203.125L812.229 204.033C812.729 204.263 813.322 204.046 813.554 203.546C813.787 203.047 813.571 202.453 813.072 202.219L812.647 203.125ZM811.86 202.755L811.43 203.658L811.436 203.661L811.86 202.755ZM811.08 202.378L811.516 201.478C811.02 201.238 810.423 201.445 810.181 201.94C809.94 202.435 810.144 203.033 810.639 203.276L811.08 202.378ZM806.551 199.933L806.036 200.791L806.042 200.794L806.551 199.933ZM806.679 200.007L806.172 200.869C806.648 201.149 807.261 200.99 807.541 200.514C807.821 200.038 807.662 199.425 807.186 199.145L806.679 200.007ZM805.82 199.495L806.335 198.637C805.862 198.354 805.25 198.506 804.965 198.977C804.679 199.449 804.83 200.062 805.3 200.349L805.82 199.495ZM800.912 196.19L800.31 196.988L800.316 196.993L800.912 196.19ZM802.279 197.177L801.704 197.995C802.155 198.312 802.777 198.205 803.095 197.755C803.414 197.306 803.309 196.684 802.86 196.363L802.279 197.177ZM801.593 196.687L801.007 197.498L801.012 197.501L801.593 196.687ZM800.24 195.683L800.842 194.885C800.403 194.553 799.777 194.64 799.444 195.078C799.111 195.517 799.195 196.143 799.633 196.478L800.24 195.683ZM793.91 190.143L793.172 190.818C793.182 190.829 793.192 190.84 793.203 190.85L793.91 190.143ZM795.119 191.32L794.431 192.045C794.831 192.424 795.462 192.409 795.842 192.011C796.223 191.613 796.21 190.982 795.813 190.6L795.119 191.32ZM794.512 190.735L793.814 191.451L793.818 191.455L794.512 190.735ZM793.91 190.142L793.176 190.821C793.185 190.831 793.194 190.84 793.203 190.849L793.91 190.142ZM793.34 189.519L794.078 188.844C793.706 188.438 793.075 188.408 792.667 188.779C792.259 189.15 792.228 189.781 792.598 190.19L793.34 189.519ZM791.671 187.605L790.901 188.243L790.905 188.248L791.671 187.605ZM792.221 188.25L791.463 188.903C791.823 189.321 792.452 189.369 792.871 189.01C793.29 188.652 793.339 188.023 792.983 187.603L792.221 188.25ZM791.672 187.605L790.906 188.249L790.91 188.253L791.672 187.605ZM791.13 186.953L791.9 186.314C791.548 185.89 790.919 185.83 790.494 186.181C790.068 186.532 790.007 187.161 790.357 187.587L791.13 186.953ZM788.029 182.888L787.21 183.462L787.213 183.466L788.029 182.888ZM788.528 183.583L787.719 184.171C788.043 184.617 788.666 184.717 789.113 184.394C789.56 184.072 789.662 183.449 789.341 183.001L788.528 183.583ZM788.029 182.887L787.213 183.465L787.216 183.47L788.029 182.887ZM787.537 182.185L788.356 181.612C788.04 181.16 787.419 181.049 786.966 181.364C786.514 181.679 786.401 182.3 786.714 182.754L787.537 182.185ZM785.188 178.565L784.331 179.081L784.334 179.085L785.188 178.565ZM785.302 178.749L784.449 179.271C784.738 179.742 785.354 179.89 785.825 179.601C786.295 179.312 786.443 178.697 786.154 178.226L785.302 178.749ZM784.738 177.819L785.595 177.303C785.311 176.831 784.698 176.678 784.225 176.961C783.752 177.243 783.597 177.856 783.878 178.329L784.738 177.819ZM1057.84 164.797H1056.84C1056.84 165.35 1057.28 165.797 1057.84 165.797V164.797ZM1157.04 164.797V165.797C1157.6 165.797 1158.04 165.35 1158.04 164.797H1157.04ZM1157.04 164.796H1158.04C1158.04 164.244 1157.6 163.796 1157.04 163.796V164.796ZM1057.84 164.796V163.796C1057.28 163.796 1056.84 164.244 1056.84 164.796H1057.84ZM774.39 128.413L773.393 128.326L773.393 128.331L774.39 128.413ZM774.365 128.738L773.368 128.66C773.325 129.211 773.737 129.692 774.288 129.735C774.838 129.778 775.319 129.366 775.362 128.815L774.365 128.738ZM774.476 127.428L775.472 127.515C775.52 126.966 775.114 126.481 774.565 126.432C774.016 126.383 773.53 126.787 773.48 127.337L774.476 127.428ZM701.424 120.368H702.424C702.424 119.836 702.008 119.397 701.477 119.369C700.946 119.341 700.486 119.733 700.43 120.261L701.424 120.368ZM701.205 122.591L700.209 122.5C700.159 123.05 700.564 123.537 701.114 123.587C701.664 123.637 702.151 123.232 702.201 122.682L701.205 122.591ZM701.424 120.369L702.418 120.475C702.422 120.44 702.424 120.404 702.424 120.369H701.424ZM903.982 90.4438L903.245 91.1197C903.618 91.526 904.249 91.5542 904.656 91.1828C905.064 90.8114 905.093 90.1804 904.723 89.7721L903.982 90.4438ZM903.184 89.5728L903.921 88.8969L903.917 88.893L903.184 89.5728ZM903.062 89.4429L903.793 88.7612C903.417 88.3572 902.784 88.3347 902.38 88.711C901.976 89.0874 901.953 89.72 902.33 90.1242L903.062 89.4429ZM789.034 88.9106L788.243 88.2995L788.239 88.3042L789.034 88.9106ZM788.528 89.5835L787.726 88.987C787.397 89.4294 787.488 90.0542 787.929 90.3843C788.371 90.7143 788.996 90.6252 789.327 90.185L788.528 89.5835ZM789.034 88.9116L788.239 88.3052L788.235 88.3101L789.034 88.9116ZM789.547 88.2466L790.338 88.8577C790.675 88.4216 790.596 87.7952 790.161 87.4571C789.726 87.1189 789.099 87.1964 788.759 87.6302L789.547 88.2466ZM791.671 85.6694L790.92 85.0089L790.916 85.0141L791.671 85.6694ZM790.595 86.9419L789.823 86.3059C789.473 86.731 789.532 87.3594 789.956 87.7113C790.38 88.0631 791.008 88.0061 791.362 87.5836L790.595 86.9419ZM791.13 86.3022L790.366 85.6566L790.363 85.6606L791.13 86.3022ZM792.221 85.0444L792.972 85.7049C793.336 85.2911 793.296 84.6608 792.883 84.2956C792.471 83.9303 791.84 83.9679 791.474 84.3795L792.221 85.0444ZM894.07 80.894L893.363 81.6012C893.384 81.6224 893.407 81.6427 893.43 81.662L894.07 80.894ZM895.364 81.9956L894.71 82.7516C895.127 83.1131 895.759 83.0677 896.12 82.6502C896.482 82.2327 896.436 81.6012 896.019 81.2397L895.364 81.9956ZM894.069 80.8931L894.71 80.1251C894.299 79.7826 893.692 79.8238 893.331 80.2186C892.97 80.6134 892.984 81.2221 893.362 81.6002L894.069 80.8931ZM891.643 78.9399L891.03 79.7305C891.466 80.0683 892.094 79.9892 892.432 79.5536C892.771 79.118 892.693 78.4906 892.258 78.1513L891.643 78.9399ZM891.479 78.812L892.093 78.0234L892.09 78.0207L891.479 78.812ZM890.98 78.4321L891.586 77.6364C891.147 77.3019 890.519 77.387 890.185 77.8264C889.85 78.2659 889.935 78.8933 890.375 79.2278L890.98 78.4321ZM817.521 67.8354L817.177 66.8964L817.17 66.899L817.521 67.8354ZM816.937 66.9871C816.421 67.1826 816.16 67.7598 816.356 68.2763C816.551 68.7928 817.128 69.0531 817.645 68.8576L816.937 66.9871ZM818.355 67.5298L818.699 68.4688C819.217 68.2793 819.484 67.7066 819.295 67.1885C819.107 66.6703 818.535 66.4021 818.017 66.589L818.355 67.5298ZM820.888 66.6704L820.59 65.7158L820.584 65.7176L820.888 66.6704ZM820.039 66.9468L819.724 65.9978C819.201 66.1715 818.917 66.7356 819.089 67.2591C819.261 67.7826 819.824 68.0682 820.348 67.8977L820.039 66.9468ZM820.889 66.6704L820.585 65.7175L820.579 65.7195L820.889 66.6704ZM821.742 66.4038L822.04 67.3584C822.566 67.1943 822.86 66.6356 822.698 66.1091C822.535 65.5825 821.978 65.2866 821.451 65.4473L821.742 66.4038ZM823.466 65.9019L823.204 64.9368L823.198 64.9384L823.466 65.9019ZM822.602 66.1479L822.322 65.1879C821.793 65.3421 821.488 65.8951 821.641 66.4246C821.793 66.9541 822.345 67.2605 822.875 67.1098L822.602 66.1479ZM823.467 65.9019L823.199 64.9384L823.193 64.94L823.467 65.9019ZM824.336 65.6655L824.598 66.6306C825.13 66.4861 825.445 65.9386 825.302 65.4064C825.159 64.8741 824.612 64.5577 824.08 64.6989L824.336 65.6655ZM952.644 51.2495L951.862 51.8727C952.051 52.1108 952.339 52.2495 952.644 52.2495V51.2495ZM952.645 51.2495V52.2495C953.029 52.2495 953.379 52.0296 953.545 51.6836C953.712 51.3376 953.666 50.9267 953.427 50.6263L952.645 51.2495ZM951.604 49.9653L952.378 49.3318C952.028 48.9045 951.398 48.8417 950.971 49.1916C950.544 49.5414 950.481 50.1714 950.831 50.5988L951.604 49.9653ZM743.197 39.2204C743.607 38.8498 743.638 38.2174 743.268 37.8079C742.897 37.3985 742.265 37.367 741.855 37.7376L743.197 39.2204ZM740.631 40.2261L739.945 39.4983C739.941 39.502 739.937 39.5057 739.933 39.5094L740.631 40.2261ZM739.468 41.3579L738.77 40.6412L738.766 40.6455L739.468 41.3579ZM737.99 41.42C737.6 41.8109 737.601 42.444 737.992 42.8342C738.383 43.2244 739.016 43.2238 739.406 42.8329L737.99 41.42ZM740.632 40.2271L739.946 39.4992L739.939 39.5059L740.632 40.2271ZM944.174 41.6782L943.461 42.3791C943.847 42.7724 944.479 42.7786 944.873 42.393C945.267 42.0073 945.275 41.3754 944.89 40.9804L944.174 41.6782ZM943.989 41.4888L944.706 40.7909L944.701 40.7863L943.989 41.4888ZM943.539 41.0376L944.247 40.3314C943.857 39.9404 943.224 39.9396 942.833 40.3296C942.442 40.7196 942.441 41.3528 942.831 41.7438L943.539 41.0376ZM783.857 13.2739L783.504 12.3386L783.498 12.3406L783.857 13.2739ZM782.331 12.7979C781.817 13.0006 781.565 13.5814 781.768 14.0951C781.971 14.6089 782.552 14.861 783.065 14.6582L782.331 12.7979ZM784.074 13.1919L784.433 14.1254C784.948 13.9276 785.205 13.3507 785.009 12.8356C784.812 12.3205 784.236 12.0615 783.72 12.2566L784.074 13.1919ZM844.265 2.76025L844.276 1.7603L844.27 1.76027L844.265 2.76025ZM848.591 3.8554C849.143 3.87381 849.605 3.44127 849.623 2.88929C849.642 2.33731 849.209 1.87492 848.657 1.85651L848.591 3.8554ZM844.265 2.75928L844.276 1.75932L844.27 1.75929L844.265 2.75928ZM842.045 2.74756L842.05 1.74757C841.498 1.74466 841.048 2.18987 841.045 2.74206C841.042 3.29425 841.487 3.74438 842.039 3.74754L842.045 2.74756ZM75.9541 148.262H74.9541C74.9541 170.3 79.238 186.097 87.8053 195.651L88.5498 194.984L89.2943 194.316C81.2224 185.314 76.9541 170.132 76.9541 148.262H75.9541ZM88.5498 194.984L87.82 195.668L88.2253 196.1L88.9551 195.417L89.6849 194.733L89.2796 194.3L88.5498 194.984ZM88.9551 195.417L88.2294 196.105C97.0096 205.364 108.875 209.992 123.824 209.992V208.992V207.992C109.322 207.992 98.018 203.521 89.6807 194.728L88.9551 195.417ZM123.824 208.992L123.824 209.992C139.011 209.992 150.893 205.215 159.466 195.662L158.722 194.994L157.977 194.326C149.853 203.378 138.557 207.992 123.824 207.992L123.824 208.992ZM158.722 194.994L159.472 195.654L159.859 195.215L159.108 194.554L158.358 193.894L157.971 194.333L158.722 194.994ZM159.108 194.554L159.864 195.209C168.171 185.613 172.326 169.965 172.326 148.262H171.326H170.326C170.326 169.797 166.187 184.849 158.352 193.9L159.108 194.554ZM171.326 148.262H172.326V6.8999H171.326H170.326V148.262H171.326ZM171.326 6.8999V7.8999H244.977V6.8999V5.8999H171.326V6.8999ZM244.977 6.8999H243.977V150.466H244.977H245.977V6.8999H244.977ZM244.977 150.466H243.977C243.977 188.68 233.321 218.198 212.009 239.02L212.708 239.735L213.407 240.45C235.204 219.153 245.977 189.058 245.977 150.466H244.977ZM212.708 239.735L212.009 239.02C190.698 259.841 161.057 270.252 123.089 270.252V271.252V272.252C161.43 272.252 191.627 261.73 213.407 240.45L212.708 239.735ZM123.089 271.252V270.252C85.7129 270.252 56.4077 260.164 35.1741 239.989L34.4854 240.714L33.7966 241.439C55.4964 262.057 85.3475 272.252 123.089 272.252V271.252ZM34.4854 240.714L35.1795 239.995L34.1639 239.015L33.4697 239.735L32.7755 240.455L33.7912 241.434L34.4854 240.714ZM33.4697 239.735L34.1686 239.02C12.8571 218.198 2.2012 188.68 2.20117 150.466H1.20117H0.201172C0.2012 189.059 10.9732 219.153 32.7709 240.45L33.4697 239.735ZM1.20117 150.466H2.20117V6.8999H1.20117H0.201172V150.466H1.20117ZM1.20117 6.8999V7.8999H75.9541V6.8999V5.8999H1.20117V6.8999ZM75.9541 6.8999H74.9541V148.262H75.9541H76.9541V6.8999H75.9541ZM842.045 1.74756V2.74756C865.806 2.7476 886.995 6.912 905.612 15.2405L906.021 14.3276L906.429 13.4148C887.516 4.95398 866.041 0.747598 842.045 0.747559V1.74756ZM906.021 14.3276V13.3276H906.02V14.3276V15.3276H906.021V14.3276ZM906.02 14.3276L905.616 15.2424C924.475 23.5709 940.152 35.5736 952.644 51.2497L953.426 50.6265L954.208 50.0033C941.509 34.0673 925.57 21.8679 906.423 13.4129L906.02 14.3276ZM953.426 50.6265L952.644 51.2501L953.23 51.9845L954.012 51.3608L954.793 50.7372L954.207 50.0028L953.426 50.6265ZM954.012 51.3608L953.34 50.6198L952.644 51.2506L953.315 51.9917L953.987 52.7328L954.683 52.1019L954.012 51.3608ZM953.315 51.9917L952.645 51.2502L906.347 93.1379L907.018 93.8794L907.688 94.6209L953.986 52.7332L953.315 51.9917ZM907.018 93.8794L906.346 93.1381L905.582 93.8305L906.253 94.5718L906.924 95.313L907.689 94.6207L907.018 93.8794ZM906.253 94.5718L907.015 93.9243L906.347 93.1381L905.585 93.7856L904.823 94.4332L905.491 95.2193L906.253 94.5718ZM905.585 93.7856L906.347 93.138C898.018 83.3399 888.832 75.8678 878.789 70.7237L878.333 71.6138L877.877 72.5038C887.656 77.5125 896.641 84.8076 904.823 94.4333L905.585 93.7856ZM878.333 71.6138L878.739 70.7L878.73 70.6961L878.324 71.6099L877.918 72.5237L877.927 72.5276L878.333 71.6138ZM878.324 71.6099L878.789 70.7245C868.991 65.5805 857.967 63.0073 845.719 63.0073V64.0073V65.0073C857.678 65.0073 868.377 67.5174 877.859 72.4953L878.324 71.6099ZM845.719 64.0073V63.0073C835.515 63.0074 826.115 64.617 817.52 67.8355L817.871 68.772L818.222 69.7085C826.569 66.5829 835.728 65.0074 845.719 65.0073V64.0073ZM817.871 68.772L817.515 67.8375L816.698 68.1491L817.054 69.0835L817.41 70.0179L818.227 69.7064L817.871 68.772ZM817.054 69.0835L816.691 68.1515C807.873 71.5807 800.278 76.6015 793.91 83.215L794.63 83.9087L795.35 84.6023C801.511 78.2043 808.86 73.343 817.416 70.0155L817.054 69.0835ZM794.63 83.9087L793.923 84.6158L793.924 84.6168L794.631 83.9097L795.338 83.2026L795.337 83.2016L794.63 83.9087ZM794.631 83.9097L793.91 83.2166C787.786 89.5855 782.886 97.3026 779.212 106.366L780.139 106.742L781.065 107.117C784.654 98.2646 789.422 90.7696 795.352 84.6028L794.631 83.9097ZM780.139 106.742L779.203 106.388C775.78 115.446 774.068 125.482 774.068 136.496H775.068H776.068C776.068 125.691 777.747 115.898 781.074 107.095L780.139 106.742ZM775.068 136.496H774.068C774.068 147.518 775.782 157.561 779.211 166.624L780.146 166.27L781.082 165.916C777.75 157.108 776.068 147.309 776.068 136.496H775.068ZM780.146 166.27L779.22 166.646C782.891 175.694 787.784 183.521 793.897 190.127L794.631 189.448L795.365 188.769C789.429 182.354 784.661 174.737 781.073 165.894L780.146 166.27ZM794.631 189.448L793.924 190.155C800.29 196.517 807.879 201.413 816.691 204.84L817.054 203.908L817.416 202.976C808.849 199.644 801.498 194.897 795.338 188.74L794.631 189.448ZM817.054 203.908L816.698 204.842L817.515 205.154L817.871 204.219L818.227 203.285L817.41 202.973L817.054 203.908ZM817.871 204.219L817.52 205.156C826.115 208.374 835.515 209.984 845.719 209.984V208.984V207.984C835.728 207.984 826.569 206.408 818.222 203.283L817.871 204.219ZM845.719 208.984V209.984C857.967 209.984 868.991 207.412 878.789 202.268L878.324 201.382L877.859 200.497C868.377 205.475 857.678 207.984 845.719 207.984V208.984ZM878.324 201.382L878.81 202.256L878.819 202.252L878.333 201.377L877.847 200.503L877.839 200.508L878.324 201.382ZM878.333 201.377L878.795 202.264L879.721 201.782L879.26 200.895L878.798 200.008L877.871 200.49L878.333 201.377ZM879.26 200.895L879.728 201.779C889.406 196.654 898.279 189.346 906.347 179.854L905.585 179.207L904.823 178.559C896.897 187.884 888.217 195.021 878.792 200.011L879.26 200.895ZM905.585 179.207L906.347 179.854L907.015 179.068L906.253 178.42L905.491 177.773L904.823 178.559L905.585 179.207ZM906.253 178.42L905.582 179.162L906.347 179.854L907.018 179.112L907.688 178.37L906.924 177.679L906.253 178.42ZM907.018 179.112L906.347 179.853L952.645 221.742L953.315 221L953.986 220.259L907.688 178.37L907.018 179.112ZM953.315 221L952.644 221.742L953.345 222.377L954.017 221.635L954.688 220.894L953.987 220.259L953.315 221ZM954.017 221.635L953.239 221.006L952.643 221.743L953.421 222.372L954.198 223.001L954.794 222.264L954.017 221.635ZM953.421 222.372L952.644 221.742C940.151 237.175 924.473 249.178 905.612 257.751L906.025 258.662L906.439 259.572C925.571 250.876 941.501 238.685 954.198 223.001L953.421 222.372ZM906.025 258.662L905.654 257.733L905.649 257.735L906.021 258.664L906.392 259.592L906.397 259.59L906.025 258.662ZM906.021 258.664L905.612 257.751C886.995 266.079 865.806 270.244 842.045 270.244V271.244V272.244C866.041 272.244 887.516 268.037 906.429 259.576L906.021 258.664ZM842.045 271.244V270.244C821.713 270.244 802.851 267.059 785.459 260.69L785.115 261.629L784.771 262.568C802.404 269.025 821.502 272.244 842.045 272.244V271.244ZM785.115 261.629L785.431 260.681L785.423 260.678L785.106 261.626L784.79 262.575L784.799 262.578L785.115 261.629ZM785.106 261.626L785.458 260.69L785.45 260.687L785.099 261.624L784.747 262.56L784.755 262.563L785.106 261.626ZM785.099 261.624L785.458 260.691C768.312 254.077 753.369 244.768 740.631 232.765L739.945 233.493L739.26 234.22C752.195 246.41 767.362 255.854 784.739 262.557L785.099 261.624ZM739.945 233.493L740.652 232.786L740.646 232.779L739.938 233.486L739.231 234.193L739.238 234.2L739.945 233.493ZM739.938 233.486L740.631 232.765C728.139 220.762 718.34 206.676 711.236 190.509L710.32 190.912L709.405 191.314C716.612 207.716 726.56 222.019 739.246 234.207L739.938 233.486ZM710.32 190.912L711.249 190.54L711.247 190.535L710.318 190.907L709.39 191.278L709.392 191.283L710.32 190.912ZM710.318 190.907L711.236 190.51C704.132 174.097 700.58 156.092 700.58 136.496H699.58H698.58C698.58 156.339 702.178 174.618 709.401 191.304L710.318 190.907ZM699.58 136.496H700.58C700.58 116.899 704.132 99.0171 711.236 82.85L710.32 82.4478L709.405 82.0455C702.178 98.4927 698.58 116.653 698.58 136.496H699.58ZM710.32 82.4478L711.238 82.845C718.342 66.4347 728.14 52.2283 740.631 40.2265L739.938 39.5054L739.246 38.7843C726.556 50.976 716.608 65.4046 709.403 82.0505L710.32 82.4478ZM739.938 39.5054L740.646 40.2125L740.652 40.2056L739.945 39.4985L739.238 38.7914L739.231 38.7983L739.938 39.5054ZM739.945 39.4985L740.627 40.2306L741.836 39.1046L741.155 38.3726L740.474 37.6405L739.264 38.7665L739.945 39.4985ZM741.155 38.3726L741.832 39.109C753.903 28.0215 767.911 19.4096 783.857 13.2736L783.498 12.3403L783.139 11.407C766.969 17.6293 752.742 26.3715 740.479 37.6361L741.155 38.3726ZM783.498 12.3403L783.852 13.2758L785.464 12.6664L785.11 11.731L784.757 10.7955L783.145 11.4049L783.498 12.3403ZM785.11 11.731L785.466 12.6657C802.856 6.05357 821.716 2.7476 842.045 2.74756V1.74756V0.747559C821.496 0.747605 802.392 4.09015 784.755 10.7962L785.11 11.731ZM353.925 7.26221L353.155 7.90012L464.923 142.832L465.693 142.194L466.463 141.556L354.695 6.6243L353.925 7.26221ZM465.693 142.194H466.693V6.8999H465.693H464.693V142.194H465.693ZM465.693 6.8999V7.8999H538.977V6.8999V5.8999H465.693V6.8999ZM538.977 6.8999H537.977V266.108H538.977H539.977V6.8999H538.977ZM538.977 266.108V265.108H477.614V266.108V267.108H538.977V266.108ZM477.614 266.108L478.385 265.47L478.085 265.108L477.314 265.746L476.544 266.383L476.844 266.745L477.614 266.108ZM477.314 265.746L478.085 265.108L366.315 130.173L365.545 130.811L364.775 131.449L476.544 266.384L477.314 265.746ZM365.545 130.811H364.545V266.108H365.545H366.545V130.811H365.545ZM365.545 266.108V265.108H292.262V266.108V267.108H365.545V266.108ZM292.262 266.108H293.262V6.8999H292.262H291.262V266.108H292.262ZM292.262 6.8999V7.8999H353.625V6.8999V5.8999H292.262V6.8999ZM353.625 6.8999L352.855 7.53743L353.154 7.89973L353.925 7.26221L354.695 6.62468L354.395 6.26238L353.625 6.8999ZM663.048 266.108V265.108H588.295V266.108V267.108H663.048V266.108ZM588.295 266.108H589.295V6.8999H588.295H587.295V266.108H588.295ZM588.295 6.8999V7.8999H663.048V6.8999V5.8999H588.295V6.8999ZM663.048 6.8999H662.048V266.108H663.048H664.048V6.8999H663.048ZM1058.84 103.537V104.537H1156.04V103.537V102.537H1058.84V103.537ZM1156.04 103.537H1157.04V6.8999H1156.04H1155.04V103.537H1156.04ZM1156.04 6.8999V7.8999H1230.8V6.8999V5.8999H1156.04V6.8999ZM1230.8 6.8999H1229.8V266.108H1230.8H1231.8V6.8999H1230.8ZM1230.8 266.108V265.108H1156.04V266.108V267.108H1230.8V266.108ZM1156.04 266.108H1157.04V165.797H1156.04H1155.04V266.108H1156.04ZM1156.04 165.797V164.797H1058.84V165.797V166.797H1156.04V165.797ZM1058.84 165.797H1057.84V266.108H1058.84H1059.84V165.797H1058.84ZM1058.84 266.108V265.108H984.083V266.108V267.108H1058.84V266.108ZM984.083 266.108H985.083V6.8999H984.083H983.083V266.108H984.083ZM984.083 6.8999V7.8999H1058.84V6.8999V5.8999H984.083V6.8999ZM1058.84 6.8999H1057.84V103.537H1058.84H1059.84V6.8999H1058.84ZM364.546 128.039L363.776 128.676L477.314 265.746L478.084 265.108L478.854 264.47L365.316 127.401L364.546 128.039ZM478.084 265.108L478.854 264.47L365.316 127.399L364.546 128.037L363.776 128.675L477.314 265.746L478.084 265.108ZM364.546 128.037H363.546V128.039H364.546H365.546V128.037H364.546ZM788.665 261.823L788.987 260.876C788.453 260.694 787.921 260.51 787.39 260.323L787.058 261.266L786.725 262.209C787.263 262.399 787.803 262.586 788.343 262.769L788.665 261.823ZM787.058 261.266L787.374 260.317L787.359 260.313L787.043 261.261L786.727 262.21L786.741 262.215L787.058 261.266ZM787.043 261.261L786.71 262.204C787.254 262.396 787.798 262.584 788.343 262.769L788.665 261.823L788.987 260.876C788.448 260.693 787.911 260.507 787.376 260.318L787.043 261.261ZM770.029 253.702L769.564 254.587C770.29 254.969 771.02 255.341 771.752 255.709L772.201 254.816L772.651 253.923C771.925 253.558 771.206 253.191 770.495 252.817L770.029 253.702ZM772.201 254.816L772.651 253.923C771.873 253.531 771.101 253.135 770.336 252.732L769.87 253.617L769.404 254.501C770.182 254.912 770.965 255.313 771.751 255.709L772.201 254.816ZM769.87 253.617L769.399 254.499L769.558 254.584L770.029 253.702L770.5 252.819L770.341 252.734L769.87 253.617ZM749.307 240.255L748.687 241.04C749.118 241.381 749.552 241.72 749.989 242.056L750.599 241.263L751.209 240.471C750.779 240.14 750.352 239.807 749.927 239.471L749.307 240.255ZM750.599 241.263L751.214 240.475L749.923 239.467L749.308 240.255L748.692 241.044L749.983 242.051L750.599 241.263ZM749.308 240.255L749.927 239.471C749.502 239.135 749.079 238.797 748.659 238.456L748.029 239.233L747.4 240.01C747.827 240.356 748.257 240.699 748.688 241.04L749.308 240.255ZM748.029 239.233L747.404 240.014L748.682 241.036L749.307 240.255L749.932 239.475L748.654 238.452L748.029 239.233ZM212.009 239.02L211.31 238.305C210.69 238.911 210.06 239.507 209.424 240.097L210.104 240.831L210.783 241.564C211.431 240.964 212.073 240.355 212.708 239.735L212.009 239.02ZM210.104 240.831L210.783 241.564C211.085 241.285 211.39 241.001 211.694 240.713L211.005 239.988L210.316 239.263C210.023 239.542 209.725 239.818 209.424 240.097L210.104 240.831ZM211.005 239.988L211.699 240.708L212.703 239.74L212.01 239.02L211.316 238.3L210.311 239.268L211.005 239.988ZM212.01 239.02L212.709 239.735C213.042 239.41 213.372 239.082 213.7 238.752L212.99 238.047L212.281 237.343C211.96 237.666 211.637 237.987 211.311 238.305L212.01 239.02ZM212.99 238.047L212.286 237.337L211.305 238.31L212.009 239.02L212.713 239.73L213.694 238.758L212.99 238.047ZM744.271 236.071L743.613 236.824C744.028 237.187 744.446 237.545 744.863 237.901L745.512 237.14L746.16 236.379C745.747 236.027 745.337 235.674 744.93 235.318L744.271 236.071ZM745.512 237.14L746.165 236.383L744.926 235.314L744.272 236.071L743.619 236.828L744.858 237.897L745.512 237.14ZM744.272 236.071L744.931 235.318C744.523 234.961 744.117 234.602 743.713 234.24L743.046 234.985L742.378 235.729C742.788 236.097 743.2 236.462 743.614 236.824L744.272 236.071ZM743.046 234.985L742.383 235.733L743.608 236.819L744.271 236.071L744.935 235.322L743.709 234.236L743.046 234.985ZM730.729 222.144L729.961 222.784C730.307 223.199 730.656 223.612 731.006 224.022L731.767 223.373L732.527 222.723C732.181 222.318 731.838 221.912 731.498 221.504L730.729 222.144ZM731.767 223.373L732.531 222.728L731.495 221.499L730.73 222.144L729.966 222.789L731.002 224.017L731.767 223.373ZM730.73 222.144L731.499 221.504C731.158 221.095 730.82 220.685 730.485 220.272L729.709 220.903L728.933 221.533C729.273 221.953 729.617 222.369 729.962 222.784L730.73 222.144ZM729.709 220.903L728.937 221.538L729.957 222.779L730.729 222.144L731.502 221.509L730.481 220.268L729.709 220.903ZM847.452 209.965L847.432 208.966C846.864 208.977 846.292 208.983 845.719 208.983V209.983V210.983C846.306 210.983 846.891 210.977 847.472 210.965L847.452 209.965ZM845.719 209.983L845.012 210.69L845.013 210.691L845.72 209.984L846.427 209.277L846.426 209.276L845.719 209.983ZM845.72 209.984V210.984C846.308 210.984 846.892 210.977 847.472 210.965L847.452 209.965L847.432 208.966C846.863 208.977 846.292 208.984 845.72 208.984V209.984ZM817.611 205.189L817.263 206.126C817.641 206.267 818.021 206.405 818.403 206.54L818.736 205.597L819.07 204.654C818.699 204.523 818.329 204.389 817.959 204.251L817.611 205.189ZM818.736 205.597L819.07 204.654C818.698 204.523 818.328 204.389 817.96 204.252L817.611 205.189L817.262 206.126C817.641 206.267 818.022 206.405 818.403 206.54L818.736 205.597ZM815.527 204.374L815.149 205.299C815.536 205.457 815.93 205.617 816.329 205.772L816.691 204.84L817.054 203.908C816.671 203.76 816.29 203.605 815.906 203.448L815.527 204.374ZM816.691 204.84L816.329 205.772C816.437 205.814 816.582 205.868 816.669 205.901L817.026 204.967L817.383 204.033C817.248 203.981 817.168 203.953 817.054 203.908L816.691 204.84ZM817.026 204.967L817.383 204.033L817.048 203.905L816.691 204.839L816.335 205.774L816.67 205.901L817.026 204.967ZM816.691 204.839L817.054 203.907C816.671 203.758 816.289 203.604 815.906 203.448L815.527 204.374L815.149 205.299C815.538 205.458 815.931 205.617 816.329 205.771L816.691 204.839ZM815.053 204.18L814.668 205.103C814.796 205.157 814.95 205.218 815.061 205.264L815.44 204.338L815.82 203.413C815.673 203.353 815.567 203.311 815.438 203.257L815.053 204.18ZM815.44 204.338L815.82 203.413C815.422 203.25 815.029 203.086 814.64 202.918L814.244 203.836L813.848 204.755C814.251 204.929 814.656 205.098 815.061 205.264L815.44 204.338ZM814.244 203.836L813.853 204.757L814.661 205.1L815.053 204.18L815.444 203.26L814.635 202.916L814.244 203.836ZM811.86 202.756L811.43 203.659C811.696 203.786 811.963 203.91 812.229 204.033L812.647 203.125L813.066 202.216C812.805 202.096 812.547 201.975 812.29 201.853L811.86 202.756ZM812.647 203.125L813.072 202.219L812.285 201.85L811.86 202.755L811.436 203.661L812.223 204.03L812.647 203.125ZM811.86 202.755L812.29 201.853C812.032 201.729 811.775 201.606 811.521 201.481L811.08 202.378L810.639 203.276C810.902 203.405 811.167 203.533 811.43 203.658L811.86 202.755ZM811.08 202.378L810.644 203.278L811.424 203.656L811.86 202.756L812.296 201.856L811.516 201.478L811.08 202.378ZM806.551 199.933L806.042 200.794C806.069 200.81 806.095 200.825 806.116 200.837C806.138 200.85 806.155 200.86 806.172 200.869L806.679 200.007L807.186 199.145C807.076 199.081 807.145 199.122 807.06 199.072L806.551 199.933ZM806.679 200.007L807.185 199.145C806.901 198.978 806.619 198.81 806.34 198.64L805.82 199.495L805.3 200.349C805.59 200.525 805.881 200.698 806.172 200.869L806.679 200.007ZM805.82 199.495L805.306 200.352L806.036 200.79L806.551 199.933L807.065 199.076L806.335 198.637L805.82 199.495ZM800.912 196.19L800.316 196.993C800.774 197.333 801.237 197.667 801.704 197.995L802.279 197.177L802.854 196.359C802.4 196.04 801.952 195.717 801.509 195.387L800.912 196.19ZM802.279 197.177L802.86 196.363L802.174 195.873L801.593 196.687L801.012 197.501L801.698 197.991L802.279 197.177ZM801.593 196.687L802.179 195.877C801.729 195.552 801.285 195.223 800.847 194.888L800.24 195.683L799.633 196.478C800.087 196.824 800.545 197.164 801.007 197.498L801.593 196.687ZM800.24 195.683L799.638 196.481L800.31 196.988L800.912 196.19L801.514 195.392L800.842 194.885L800.24 195.683ZM793.91 190.143L793.203 190.85C793.608 191.255 794.017 191.653 794.431 192.045L795.119 191.32L795.807 190.594C795.406 190.213 795.009 189.827 794.617 189.436L793.91 190.143ZM795.119 191.32L795.813 190.6L795.205 190.015L794.512 190.735L793.818 191.455L794.425 192.04L795.119 191.32ZM794.512 190.735L795.209 190.018C795.01 189.824 794.812 189.63 794.617 189.435L793.91 190.142L793.203 190.849C793.406 191.052 793.611 191.253 793.814 191.451L794.512 190.735ZM793.91 190.142L794.644 189.463C794.455 189.259 794.268 189.054 794.082 188.848L793.34 189.519L792.598 190.19C792.79 190.402 792.983 190.612 793.176 190.821L793.91 190.142ZM793.34 189.519L792.602 190.194L793.172 190.818L793.91 190.143L794.648 189.468L794.078 188.844L793.34 189.519ZM791.671 187.605L790.905 188.248C791.091 188.469 791.277 188.687 791.463 188.903L792.221 188.25L792.978 187.598C792.796 187.386 792.615 187.174 792.436 186.961L791.671 187.605ZM792.221 188.25L792.983 187.603L792.434 186.957L791.672 187.605L790.91 188.253L791.459 188.898L792.221 188.25ZM791.672 187.605L792.437 186.961C792.258 186.748 792.08 186.534 791.903 186.318L791.13 186.953L790.357 187.587C790.539 187.809 790.722 188.029 790.906 188.249L791.672 187.605ZM791.13 186.953L790.36 187.591L790.901 188.243L791.671 187.605L792.441 186.967L791.9 186.314L791.13 186.953ZM788.029 182.888L787.213 183.466C787.381 183.703 787.55 183.938 787.719 184.171L788.528 183.583L789.337 182.996C789.172 182.768 789.008 182.539 788.845 182.31L788.029 182.888ZM788.528 183.583L789.341 183.001L788.842 182.305L788.029 182.887L787.216 183.47L787.716 184.166L788.528 183.583ZM788.029 182.887L788.845 182.309C788.681 182.078 788.519 181.847 788.36 181.617L787.537 182.185L786.714 182.754C786.88 182.993 787.047 183.231 787.213 183.465L788.029 182.887ZM787.537 182.185L786.718 182.759L787.21 183.462L788.029 182.888L788.849 182.315L788.356 181.612L787.537 182.185ZM785.188 178.565L784.334 179.085C784.356 179.123 784.379 179.158 784.398 179.189C784.418 179.22 784.434 179.246 784.449 179.271L785.302 178.749L786.154 178.226C786.074 178.094 786.105 178.149 786.041 178.045L785.188 178.565ZM785.302 178.749L786.154 178.226C785.965 177.918 785.78 177.614 785.598 177.308L784.738 177.819L783.878 178.329C784.068 178.648 784.26 178.963 784.449 179.271L785.302 178.749ZM784.738 177.819L783.882 178.335L784.331 179.081L785.188 178.565L786.044 178.049L785.595 177.303L784.738 177.819ZM1057.84 164.797V165.797H1157.04V164.797V163.797H1057.84V164.797ZM1157.04 164.797H1158.04V164.796H1157.04H1156.04V164.797H1157.04ZM1157.04 164.796V163.796H1057.84V164.796V165.796H1157.04V164.796ZM1057.84 164.796H1056.84V164.797H1057.84H1058.84V164.796H1057.84ZM774.39 128.413L773.393 128.331C773.385 128.433 773.375 128.576 773.368 128.66L774.365 128.738L775.362 128.815C775.373 128.682 775.377 128.609 775.386 128.494L774.39 128.413ZM774.365 128.738L775.362 128.815C775.396 128.381 775.432 127.949 775.471 127.52L774.476 127.428L773.48 127.337C773.439 127.777 773.403 128.219 773.368 128.66L774.365 128.738ZM774.476 127.428L773.479 127.341L773.393 128.326L774.39 128.413L775.386 128.5L775.472 127.515L774.476 127.428ZM701.424 120.368L700.43 120.261C700.35 121.006 700.278 121.753 700.209 122.5L701.205 122.591L702.201 122.682C702.269 121.942 702.34 121.206 702.418 120.474L701.424 120.368ZM701.205 122.591L702.201 122.682C702.269 121.942 702.34 121.207 702.418 120.475L701.424 120.369L700.43 120.262C700.35 121.007 700.278 121.753 700.209 122.5L701.205 122.591ZM701.424 120.369H702.424V120.368H701.424H700.424V120.369H701.424ZM903.982 90.4438L904.719 89.768L903.921 88.8969L903.184 89.5728L902.447 90.2486L903.245 91.1197L903.982 90.4438ZM903.184 89.5728L903.917 88.893C903.893 88.8671 903.869 88.8422 903.849 88.8208C903.828 88.7983 903.811 88.7798 903.793 88.7615L903.062 89.4429L902.33 90.1242C902.411 90.2112 902.385 90.1825 902.45 90.2526L903.184 89.5728ZM903.062 89.4429L902.33 90.1245C902.636 90.4527 902.94 90.7826 903.242 91.1156L903.982 90.4438L904.723 89.7721C904.414 89.4311 904.104 89.0944 903.793 88.7612L903.062 89.4429ZM789.034 88.9106L788.239 88.3042C788.066 88.5313 787.895 88.7593 787.726 88.987L788.528 89.5835L789.331 90.1799C789.497 89.9567 789.663 89.7357 789.829 89.5171L789.034 88.9106ZM788.528 89.5835L789.327 90.185L789.833 89.5131L789.034 88.9116L788.235 88.3101L787.729 88.982L788.528 89.5835ZM789.034 88.9116L789.829 89.518C789.998 89.2967 790.166 89.0784 790.334 88.8629L789.547 88.2466L788.759 87.6302C788.583 87.8552 788.41 88.081 788.239 88.3052L789.034 88.9116ZM789.547 88.2466L788.755 87.6355L788.243 88.2995L789.034 88.9106L789.826 89.5218L790.338 88.8577L789.547 88.2466ZM791.671 85.6694L790.916 85.0141C790.547 85.4393 790.182 85.8698 789.823 86.3059L790.595 86.9419L791.366 87.5778C791.715 87.1551 792.068 86.7375 792.426 86.3248L791.671 85.6694ZM790.595 86.9419L791.362 87.5836L791.897 86.9439L791.13 86.3022L790.363 85.6606L789.828 86.3002L790.595 86.9419ZM791.13 86.3022L791.893 86.9479C792.247 86.5296 792.605 86.1166 792.968 85.7093L792.221 85.0444L791.474 84.3795C791.099 84.8001 790.73 85.226 790.366 85.6566L791.13 86.3022ZM792.221 85.0444L791.47 84.3839L790.92 85.0089L791.671 85.6694L792.422 86.3299L792.972 85.7049L792.221 85.0444ZM894.07 80.894L893.43 81.662C893.857 82.0187 894.283 82.3824 894.71 82.7515L895.364 81.9956L896.019 81.2397C895.586 80.8647 895.15 80.4926 894.711 80.1261L894.07 80.894ZM895.364 81.9956L896.019 81.2397C895.586 80.8645 895.15 80.492 894.71 80.1251L894.069 80.8931L893.429 81.661C893.857 82.0179 894.283 82.382 894.71 82.7516L895.364 81.9956ZM894.069 80.8931L893.362 81.6002L893.363 81.6012L894.07 80.894L894.777 80.1869L894.776 80.186L894.069 80.8931ZM891.643 78.9399L892.258 78.1513L892.093 78.0234L891.479 78.812L890.864 79.6006L891.028 79.7285L891.643 78.9399ZM891.479 78.812L892.09 78.0207C891.921 77.89 891.747 77.7593 891.586 77.6364L890.98 78.4321L890.375 79.2278C890.545 79.3577 890.705 79.4784 890.867 79.6033L891.479 78.812ZM890.98 78.4321L890.375 79.2278C890.595 79.3951 890.813 79.5623 891.03 79.7305L891.643 78.9399L892.255 78.1493C892.032 77.9764 891.808 77.8056 891.586 77.6364L890.98 78.4321ZM817.521 67.8354L817.17 66.899C817.092 66.9282 817.008 66.9604 816.937 66.9871L817.291 67.9224L817.645 68.8576C817.727 68.8265 817.796 68.8 817.871 68.7719L817.521 67.8354ZM817.291 67.9224L817.645 68.8576C817.993 68.7261 818.342 68.5974 818.694 68.4706L818.355 67.5298L818.017 66.589C817.656 66.7188 817.296 66.8512 816.937 66.9871L817.291 67.9224ZM818.355 67.5298L818.012 66.5907L817.177 66.8964L817.521 67.8354L817.864 68.7745L818.699 68.4688L818.355 67.5298ZM820.888 66.6704L820.584 65.7176C820.296 65.8094 820.009 65.903 819.724 65.9978L820.039 66.9468L820.354 67.8958C820.633 67.8032 820.912 67.7122 821.191 67.6233L820.888 66.6704ZM820.039 66.9468L820.348 67.8977L821.198 67.6214L820.889 66.6704L820.579 65.7195L819.73 65.9958L820.039 66.9468ZM820.889 66.6704L821.192 67.6233C821.473 67.5337 821.753 67.4458 822.034 67.3603L821.742 66.4038L821.451 65.4473C821.16 65.5358 820.872 65.6264 820.585 65.7176L820.889 66.6704ZM821.742 66.4038L821.444 65.4492L820.59 65.7158L820.888 66.6704L821.186 67.625L822.04 67.3584L821.742 66.4038ZM823.466 65.9019L823.198 64.9384C822.905 65.0199 822.613 65.103 822.322 65.1879L822.602 66.1479L822.881 67.108C823.165 67.0255 823.449 66.9446 823.734 66.8653L823.466 65.9019ZM822.602 66.1479L822.875 67.1098L823.74 66.8637L823.467 65.9019L823.193 64.94L822.328 65.1861L822.602 66.1479ZM823.467 65.9019L823.735 66.8653C824.02 66.7858 824.306 66.708 824.592 66.6322L824.336 65.6655L824.08 64.6989C823.785 64.7771 823.491 64.8572 823.199 64.9384L823.467 65.9019ZM824.336 65.6655L824.074 64.7005L823.204 64.9368L823.466 65.9019L823.728 66.8669L824.598 66.6306L824.336 65.6655ZM952.644 51.2495V52.2495H952.645V51.2495V50.2495H952.644V51.2495ZM952.645 51.2495L953.427 50.6263C953.079 50.1898 952.728 49.7587 952.378 49.3318L951.604 49.9653L950.831 50.5989C951.178 51.0234 951.523 51.4466 951.862 51.8727L952.645 51.2495ZM951.604 49.9653L950.831 50.5988C951.177 51.0225 951.522 51.4462 951.862 51.8727L952.644 51.2495L953.426 50.6263C953.078 50.1905 952.728 49.7594 952.378 49.3319L951.604 49.9653ZM742.526 38.479L741.855 37.7376C741.215 38.3168 740.577 38.9026 739.945 39.4983L740.631 40.2261L741.317 40.9539C741.936 40.3699 742.564 39.7936 743.197 39.2204L742.526 38.479ZM740.631 40.2261L739.933 39.5094L738.77 40.6412L739.468 41.3579L740.165 42.0746L741.328 40.9427L740.631 40.2261ZM739.468 41.3579L738.766 40.6455C738.504 40.904 738.243 41.1671 737.99 41.42L738.698 42.1265L739.406 42.8329C739.666 42.5729 739.915 42.3209 740.17 42.0703L739.468 41.3579ZM738.698 42.1265L739.406 42.8329C740.04 42.1982 740.678 41.5692 741.325 40.9482L740.632 40.2271L739.939 39.5059C739.281 40.1383 738.632 40.7773 737.991 41.42L738.698 42.1265ZM740.632 40.2271L741.318 40.9548C741.938 40.3703 742.565 39.7928 743.197 39.2204L742.526 38.479L741.855 37.7376C741.215 38.3176 740.577 38.9042 739.946 39.4993L740.632 40.2271ZM944.174 41.6782L944.89 40.9804L944.706 40.791L943.989 41.4888L943.273 42.1866L943.458 42.376L944.174 41.6782ZM943.989 41.4888L944.701 40.7863C944.55 40.633 944.391 40.4758 944.247 40.3314L943.539 41.0376L942.831 41.7438C942.987 41.9002 943.13 42.042 943.278 42.1912L943.989 41.4888ZM943.539 41.0376L942.831 41.7438C943.042 41.9554 943.252 42.1669 943.461 42.3791L944.174 41.6782L944.887 40.9773C944.674 40.7605 944.46 40.5453 944.247 40.3314L943.539 41.0376ZM783.857 13.2739L783.498 12.3406C783.106 12.4918 782.715 12.6463 782.331 12.7979L782.698 13.728L783.065 14.6582C783.452 14.5054 783.834 14.3545 784.217 14.2072L783.857 13.2739ZM782.698 13.728L783.065 14.6582C783.52 14.4787 783.976 14.301 784.433 14.1254L784.074 13.1919L783.716 12.2584C783.252 12.4364 782.791 12.6164 782.331 12.7979L782.698 13.728ZM784.074 13.1919L783.72 12.2566L783.504 12.3386L783.857 13.2739L784.211 14.2092L784.428 14.1272L784.074 13.1919ZM844.265 2.76025L844.254 3.76019C845.71 3.77625 847.155 3.80753 848.591 3.8554L848.624 2.85596L848.657 1.85651C847.206 1.80811 845.746 1.77652 844.276 1.76031L844.265 2.76025ZM848.624 2.85596L848.657 1.85651C847.207 1.80813 845.746 1.77555 844.276 1.75934L844.265 2.75928L844.254 3.75922C845.709 3.77527 847.155 3.80751 848.591 3.8554L848.624 2.85596ZM844.265 2.75928L844.27 1.75929L842.05 1.74757L842.045 2.74756L842.04 3.74754L844.259 3.75926L844.265 2.75928ZM842.045 2.74756L842.039 3.74754L844.259 3.76024L844.265 2.76025L844.27 1.76027L842.051 1.74757L842.045 2.74756Z" fill="url(#paint1_linear_6061_1072)" mask="url(#path-1-outside-1_6061_1072)"/>
<defs>
<radialGradient id="paint0_radial_6061_1072" cx="0" cy="0" r="1" gradientUnits="userSpaceOnUse" gradientTransform="translate(580.412 17.3125) rotate(92.5363) scale(307.258 767.073)">
<stop stop-color="#0A121D"/>
<stop offset="1"/>
</radialGradient>
<linearGradient id="paint1_linear_6061_1072" x1="596.849" y1="-185.949" x2="615.777" y2="322.118" gradientUnits="userSpaceOnUse">
<stop stop-color="#C3DEFF" stop-opacity="0.93"/>
<stop offset="0.942308" stop-opacity="0.14"/>
</linearGradient>
</defs>
</svg>
