<svg width="1920" height="299" viewBox="0 0 1920 299" fill="none" xmlns="http://www.w3.org/2000/svg">
<mask id="path-1-outside-1_6061_1071" maskUnits="userSpaceOnUse" x="344.201" y="13.7476" width="1232" height="272" fill="black">
<rect fill="white" x="344.201" y="13.7476" width="1232" height="272"/>
<path d="M419.954 161.262C419.954 183.216 424.23 198.706 432.55 207.984L432.955 208.417C441.514 217.442 453.098 221.992 467.824 221.992C482.784 221.992 494.373 217.297 502.722 207.994L503.108 207.554C511.179 198.231 515.326 182.881 515.326 161.262V19.8999H588.977V163.466C588.977 201.869 578.263 231.676 556.708 252.735C535.162 273.785 505.244 284.252 467.089 284.252C429.53 284.252 399.952 274.11 378.485 253.714L377.47 252.735C355.915 231.676 345.201 201.869 345.201 163.466V19.8999H419.954V161.262ZM1186.04 14.7476C1209.92 14.7476 1231.26 18.933 1250.02 27.3276H1250.02C1269.02 35.7194 1284.83 47.8204 1297.43 63.6265L1298.01 64.3608L1297.32 64.9917L1251.02 106.879L1250.25 107.572L1249.58 106.786C1241.33 97.0737 1232.24 89.6902 1222.33 84.6138L1222.32 84.6099C1212.68 79.5489 1201.82 77.0073 1189.72 77.0073C1179.62 77.0074 1170.34 78.5999 1161.87 81.772L1161.05 82.0835C1152.37 85.4619 1144.89 90.4029 1138.63 96.9087L1138.63 96.9097C1132.6 103.178 1127.77 110.784 1124.14 119.742C1120.76 128.672 1119.07 138.586 1119.07 149.496C1119.07 160.413 1120.77 170.335 1124.15 179.27C1127.78 188.216 1132.61 195.938 1138.63 202.448C1144.89 208.707 1152.36 213.528 1161.05 216.908L1161.87 217.219C1170.34 220.391 1179.62 221.984 1189.72 221.984C1201.82 221.984 1212.68 219.443 1222.32 214.382L1222.33 214.377L1223.26 213.895C1232.81 208.838 1241.59 201.615 1249.58 192.207L1250.25 191.42L1251.02 192.112L1297.32 234L1298.02 234.635L1297.42 235.372C1284.83 250.93 1269.02 263.027 1250.03 271.662L1250.02 271.664C1231.26 280.058 1209.92 284.244 1186.04 284.244C1165.61 284.244 1146.63 281.042 1129.12 274.629L1129.11 274.626L1129.1 274.624C1111.84 267.965 1096.78 258.589 1083.95 246.493L1083.94 246.486C1071.35 234.39 1061.48 220.196 1054.32 203.912L1054.32 203.907C1047.16 187.358 1043.58 169.216 1043.58 149.496C1043.58 129.776 1047.16 111.755 1054.32 95.4478C1061.47 78.9197 1071.35 64.6022 1083.94 52.5054L1083.95 52.4985L1085.16 51.3726C1097.32 40.1965 1111.44 31.5194 1127.5 25.3403L1129.11 24.731C1146.62 18.0719 1165.61 14.7476 1186.04 14.7476ZM697.925 20.2622L809.693 155.194V19.8999H882.977V279.108H821.614L821.314 278.746L709.545 143.811V279.108H636.262V19.8999H697.625L697.925 20.2622ZM1007.05 279.108H932.295V19.8999H1007.05V279.108ZM1402.84 116.537H1500.04V19.8999H1574.8V279.108H1500.04V178.797H1402.84V279.108H1328.08V19.8999H1402.84V116.537ZM708.546 141.039L822.084 278.108L708.546 141.037V141.039ZM1132.67 274.823C1132.13 274.64 1131.59 274.455 1131.06 274.266L1131.04 274.261C1131.58 274.452 1132.12 274.638 1132.67 274.823ZM1114.03 266.702C1114.75 267.08 1115.47 267.45 1116.2 267.816C1115.42 267.422 1114.64 267.023 1113.87 266.617L1114.03 266.702ZM1093.31 253.255C1093.74 253.594 1094.17 253.93 1094.6 254.263L1093.31 253.255C1092.88 252.917 1092.45 252.576 1092.03 252.233L1093.31 253.255ZM556.009 252.02C555.381 252.633 554.745 253.236 554.104 253.831C554.405 253.551 554.707 253.271 555.005 252.988L556.01 252.02C556.339 251.698 556.666 251.374 556.99 251.047L556.009 252.02ZM1088.27 249.071C1088.68 249.43 1089.1 249.786 1089.51 250.14L1088.27 249.071C1087.86 248.711 1087.45 248.349 1087.05 247.985L1088.27 249.071ZM1074.73 235.144C1075.07 235.556 1075.42 235.965 1075.77 236.373L1074.73 235.144C1074.39 234.732 1074.05 234.319 1073.71 233.903L1074.73 235.144ZM1191.45 222.965C1190.88 222.977 1190.3 222.983 1189.72 222.983L1189.72 222.984C1190.3 222.984 1190.88 222.977 1191.45 222.965ZM1161.61 218.189C1161.98 218.328 1162.36 218.464 1162.74 218.597C1162.36 218.464 1161.98 218.328 1161.61 218.189ZM1159.53 217.374C1159.91 217.531 1160.3 217.688 1160.69 217.84C1160.8 217.884 1160.91 217.925 1161.03 217.967L1160.69 217.839C1160.3 217.687 1159.91 217.531 1159.53 217.374ZM1159.05 217.18C1159.18 217.234 1159.31 217.285 1159.44 217.338C1159.04 217.174 1158.64 217.007 1158.24 216.836L1159.05 217.18ZM1155.86 215.756C1156.12 215.881 1156.38 216.003 1156.65 216.125L1155.86 215.755C1155.6 215.631 1155.34 215.506 1155.08 215.378L1155.86 215.756ZM1150.55 212.933C1150.59 212.958 1150.64 212.982 1150.68 213.007C1150.39 212.838 1150.1 212.668 1149.82 212.495L1150.55 212.933ZM1144.91 209.19C1145.36 209.525 1145.82 209.854 1146.28 210.177L1145.59 209.687C1145.14 209.358 1144.69 209.024 1144.24 208.683L1144.91 209.19ZM1137.91 203.143C1138.31 203.541 1138.71 203.933 1139.12 204.32L1138.51 203.735C1138.31 203.539 1138.11 203.341 1137.91 203.142C1137.72 202.936 1137.53 202.728 1137.34 202.519L1137.91 203.143ZM1135.67 200.605C1135.85 200.821 1136.04 201.036 1136.22 201.25L1135.67 200.605C1135.49 200.389 1135.31 200.171 1135.13 199.953L1135.67 200.605ZM1132.03 195.888C1132.19 196.121 1132.36 196.353 1132.53 196.583L1132.03 195.887C1131.86 195.654 1131.7 195.42 1131.54 195.185L1132.03 195.888ZM1129.19 191.565C1129.23 191.627 1129.26 191.687 1129.3 191.749C1129.11 191.44 1128.92 191.131 1128.74 190.819L1129.19 191.565ZM1401.84 177.797H1501.04V177.796H1401.84V177.797ZM1118.39 141.413C1118.38 141.521 1118.37 141.629 1118.37 141.738C1118.4 141.3 1118.44 140.863 1118.48 140.428L1118.39 141.413ZM1045.42 133.368C1045.34 134.106 1045.27 134.847 1045.21 135.591C1045.27 134.848 1045.34 134.107 1045.42 133.369V133.368ZM1247.98 103.444L1247.18 102.573C1247.14 102.529 1247.1 102.486 1247.06 102.443C1247.37 102.774 1247.68 103.107 1247.98 103.444ZM1133.03 101.911C1132.86 102.134 1132.7 102.358 1132.53 102.583L1133.03 101.912C1133.2 101.689 1133.37 101.467 1133.55 101.247L1133.03 101.911ZM1135.67 98.6694C1135.31 99.0884 1134.95 99.5124 1134.59 99.9419L1135.13 99.3022C1135.49 98.8778 1135.85 98.4584 1136.22 98.0444L1135.67 98.6694ZM1238.07 93.894C1238.5 94.2556 1238.93 94.6235 1239.36 94.9956C1238.93 94.6232 1238.5 94.255 1238.07 93.8931L1238.07 93.894ZM1235.64 91.9399L1235.48 91.812C1235.31 91.6842 1235.15 91.5585 1234.98 91.4321C1235.2 91.6004 1235.42 91.7694 1235.64 91.9399ZM1161.52 80.8354C1161.44 80.8641 1161.37 80.8934 1161.29 80.9224C1161.64 80.7886 1162 80.6581 1162.36 80.5298L1161.52 80.8354ZM1164.89 79.6704C1164.6 79.7608 1164.32 79.8531 1164.04 79.9468L1164.89 79.6704C1165.17 79.5801 1165.46 79.4908 1165.74 79.4038L1164.89 79.6704ZM1167.47 78.9019C1167.18 78.9822 1166.89 79.0642 1166.6 79.1479L1167.47 78.9019C1167.76 78.8215 1168.05 78.7425 1168.34 78.6655L1167.47 78.9019ZM1296.64 64.2495H1296.64C1296.3 63.8182 1295.95 63.391 1295.6 62.9653C1295.95 63.3909 1296.3 63.8184 1296.64 64.2495ZM1086.53 51.479C1085.89 52.0552 1085.26 52.6363 1084.63 53.2261L1083.47 54.3579C1083.21 54.6124 1082.95 54.87 1082.7 55.1265C1083.34 54.4878 1083.98 53.8537 1084.63 53.2271C1085.26 52.6373 1085.89 52.0552 1086.53 51.479ZM1288.17 54.6782L1287.99 54.4888C1287.84 54.3375 1287.69 54.188 1287.54 54.0376C1287.75 54.2504 1287.96 54.4637 1288.17 54.6782ZM1127.86 26.2739C1127.47 26.4232 1127.08 26.5759 1126.7 26.728C1127.16 26.5476 1127.61 26.3687 1128.07 26.1919L1127.86 26.2739ZM1188.26 15.7603C1189.73 15.7764 1191.18 15.8078 1192.62 15.856C1191.18 15.8078 1189.73 15.7754 1188.26 15.7593L1186.04 15.7476L1188.26 15.7603Z"/>
</mask>
<path d="M419.954 161.262C419.954 183.216 424.23 198.706 432.55 207.984L432.955 208.417C441.514 217.442 453.098 221.992 467.824 221.992C482.784 221.992 494.373 217.297 502.722 207.994L503.108 207.554C511.179 198.231 515.326 182.881 515.326 161.262V19.8999H588.977V163.466C588.977 201.869 578.263 231.676 556.708 252.735C535.162 273.785 505.244 284.252 467.089 284.252C429.53 284.252 399.952 274.11 378.485 253.714L377.47 252.735C355.915 231.676 345.201 201.869 345.201 163.466V19.8999H419.954V161.262ZM1186.04 14.7476C1209.92 14.7476 1231.26 18.933 1250.02 27.3276H1250.02C1269.02 35.7194 1284.83 47.8204 1297.43 63.6265L1298.01 64.3608L1297.32 64.9917L1251.02 106.879L1250.25 107.572L1249.58 106.786C1241.33 97.0737 1232.24 89.6902 1222.33 84.6138L1222.32 84.6099C1212.68 79.5489 1201.82 77.0073 1189.72 77.0073C1179.62 77.0074 1170.34 78.5999 1161.87 81.772L1161.05 82.0835C1152.37 85.4619 1144.89 90.4029 1138.63 96.9087L1138.63 96.9097C1132.6 103.178 1127.77 110.784 1124.14 119.742C1120.76 128.672 1119.07 138.586 1119.07 149.496C1119.07 160.413 1120.77 170.335 1124.15 179.27C1127.78 188.216 1132.61 195.938 1138.63 202.448C1144.89 208.707 1152.36 213.528 1161.05 216.908L1161.87 217.219C1170.34 220.391 1179.62 221.984 1189.72 221.984C1201.82 221.984 1212.68 219.443 1222.32 214.382L1222.33 214.377L1223.26 213.895C1232.81 208.838 1241.59 201.615 1249.58 192.207L1250.25 191.42L1251.02 192.112L1297.32 234L1298.02 234.635L1297.42 235.372C1284.83 250.93 1269.02 263.027 1250.03 271.662L1250.02 271.664C1231.26 280.058 1209.92 284.244 1186.04 284.244C1165.61 284.244 1146.63 281.042 1129.12 274.629L1129.11 274.626L1129.1 274.624C1111.84 267.965 1096.78 258.589 1083.95 246.493L1083.94 246.486C1071.35 234.39 1061.48 220.196 1054.32 203.912L1054.32 203.907C1047.16 187.358 1043.58 169.216 1043.58 149.496C1043.58 129.776 1047.16 111.755 1054.32 95.4478C1061.47 78.9197 1071.35 64.6022 1083.94 52.5054L1083.95 52.4985L1085.16 51.3726C1097.32 40.1965 1111.44 31.5194 1127.5 25.3403L1129.11 24.731C1146.62 18.0719 1165.61 14.7476 1186.04 14.7476ZM697.925 20.2622L809.693 155.194V19.8999H882.977V279.108H821.614L821.314 278.746L709.545 143.811V279.108H636.262V19.8999H697.625L697.925 20.2622ZM1007.05 279.108H932.295V19.8999H1007.05V279.108ZM1402.84 116.537H1500.04V19.8999H1574.8V279.108H1500.04V178.797H1402.84V279.108H1328.08V19.8999H1402.84V116.537ZM708.546 141.039L822.084 278.108L708.546 141.037V141.039ZM1132.67 274.823C1132.13 274.64 1131.59 274.455 1131.06 274.266L1131.04 274.261C1131.58 274.452 1132.12 274.638 1132.67 274.823ZM1114.03 266.702C1114.75 267.08 1115.47 267.45 1116.2 267.816C1115.42 267.422 1114.64 267.023 1113.87 266.617L1114.03 266.702ZM1093.31 253.255C1093.74 253.594 1094.17 253.93 1094.6 254.263L1093.31 253.255C1092.88 252.917 1092.45 252.576 1092.03 252.233L1093.31 253.255ZM556.009 252.02C555.381 252.633 554.745 253.236 554.104 253.831C554.405 253.551 554.707 253.271 555.005 252.988L556.01 252.02C556.339 251.698 556.666 251.374 556.99 251.047L556.009 252.02ZM1088.27 249.071C1088.68 249.43 1089.1 249.786 1089.51 250.14L1088.27 249.071C1087.86 248.711 1087.45 248.349 1087.05 247.985L1088.27 249.071ZM1074.73 235.144C1075.07 235.556 1075.42 235.965 1075.77 236.373L1074.73 235.144C1074.39 234.732 1074.05 234.319 1073.71 233.903L1074.73 235.144ZM1191.45 222.965C1190.88 222.977 1190.3 222.983 1189.72 222.983L1189.72 222.984C1190.3 222.984 1190.88 222.977 1191.45 222.965ZM1161.61 218.189C1161.98 218.328 1162.36 218.464 1162.74 218.597C1162.36 218.464 1161.98 218.328 1161.61 218.189ZM1159.53 217.374C1159.91 217.531 1160.3 217.688 1160.69 217.84C1160.8 217.884 1160.91 217.925 1161.03 217.967L1160.69 217.839C1160.3 217.687 1159.91 217.531 1159.53 217.374ZM1159.05 217.18C1159.18 217.234 1159.31 217.285 1159.44 217.338C1159.04 217.174 1158.64 217.007 1158.24 216.836L1159.05 217.18ZM1155.86 215.756C1156.12 215.881 1156.38 216.003 1156.65 216.125L1155.86 215.755C1155.6 215.631 1155.34 215.506 1155.08 215.378L1155.86 215.756ZM1150.55 212.933C1150.59 212.958 1150.64 212.982 1150.68 213.007C1150.39 212.838 1150.1 212.668 1149.82 212.495L1150.55 212.933ZM1144.91 209.19C1145.36 209.525 1145.82 209.854 1146.28 210.177L1145.59 209.687C1145.14 209.358 1144.69 209.024 1144.24 208.683L1144.91 209.19ZM1137.91 203.143C1138.31 203.541 1138.71 203.933 1139.12 204.32L1138.51 203.735C1138.31 203.539 1138.11 203.341 1137.91 203.142C1137.72 202.936 1137.53 202.728 1137.34 202.519L1137.91 203.143ZM1135.67 200.605C1135.85 200.821 1136.04 201.036 1136.22 201.25L1135.67 200.605C1135.49 200.389 1135.31 200.171 1135.13 199.953L1135.67 200.605ZM1132.03 195.888C1132.19 196.121 1132.36 196.353 1132.53 196.583L1132.03 195.887C1131.86 195.654 1131.7 195.42 1131.54 195.185L1132.03 195.888ZM1129.19 191.565C1129.23 191.627 1129.26 191.687 1129.3 191.749C1129.11 191.44 1128.92 191.131 1128.74 190.819L1129.19 191.565ZM1401.84 177.797H1501.04V177.796H1401.84V177.797ZM1118.39 141.413C1118.38 141.521 1118.37 141.629 1118.37 141.738C1118.4 141.3 1118.44 140.863 1118.48 140.428L1118.39 141.413ZM1045.42 133.368C1045.34 134.106 1045.27 134.847 1045.21 135.591C1045.27 134.848 1045.34 134.107 1045.42 133.369V133.368ZM1247.98 103.444L1247.18 102.573C1247.14 102.529 1247.1 102.486 1247.06 102.443C1247.37 102.774 1247.68 103.107 1247.98 103.444ZM1133.03 101.911C1132.86 102.134 1132.7 102.358 1132.53 102.583L1133.03 101.912C1133.2 101.689 1133.37 101.467 1133.55 101.247L1133.03 101.911ZM1135.67 98.6694C1135.31 99.0884 1134.95 99.5124 1134.59 99.9419L1135.13 99.3022C1135.49 98.8778 1135.85 98.4584 1136.22 98.0444L1135.67 98.6694ZM1238.07 93.894C1238.5 94.2556 1238.93 94.6235 1239.36 94.9956C1238.93 94.6232 1238.5 94.255 1238.07 93.8931L1238.07 93.894ZM1235.64 91.9399L1235.48 91.812C1235.31 91.6842 1235.15 91.5585 1234.98 91.4321C1235.2 91.6004 1235.42 91.7694 1235.64 91.9399ZM1161.52 80.8354C1161.44 80.8641 1161.37 80.8934 1161.29 80.9224C1161.64 80.7886 1162 80.6581 1162.36 80.5298L1161.52 80.8354ZM1164.89 79.6704C1164.6 79.7608 1164.32 79.8531 1164.04 79.9468L1164.89 79.6704C1165.17 79.5801 1165.46 79.4908 1165.74 79.4038L1164.89 79.6704ZM1167.47 78.9019C1167.18 78.9822 1166.89 79.0642 1166.6 79.1479L1167.47 78.9019C1167.76 78.8215 1168.05 78.7425 1168.34 78.6655L1167.47 78.9019ZM1296.64 64.2495H1296.64C1296.3 63.8182 1295.95 63.391 1295.6 62.9653C1295.95 63.3909 1296.3 63.8184 1296.64 64.2495ZM1086.53 51.479C1085.89 52.0552 1085.26 52.6363 1084.63 53.2261L1083.47 54.3579C1083.21 54.6124 1082.95 54.87 1082.7 55.1265C1083.34 54.4878 1083.98 53.8537 1084.63 53.2271C1085.26 52.6373 1085.89 52.0552 1086.53 51.479ZM1288.17 54.6782L1287.99 54.4888C1287.84 54.3375 1287.69 54.188 1287.54 54.0376C1287.75 54.2504 1287.96 54.4637 1288.17 54.6782ZM1127.86 26.2739C1127.47 26.4232 1127.08 26.5759 1126.7 26.728C1127.16 26.5476 1127.61 26.3687 1128.07 26.1919L1127.86 26.2739ZM1188.26 15.7603C1189.73 15.7764 1191.18 15.8078 1192.62 15.856C1191.18 15.8078 1189.73 15.7754 1188.26 15.7593L1186.04 15.7476L1188.26 15.7603Z" fill="url(#paint0_radial_6061_1071)"/>
<path d="M419.954 161.262H418.954H419.954ZM432.55 207.984L431.805 208.651C431.81 208.657 431.815 208.662 431.82 208.668L432.55 207.984ZM432.955 208.417L432.225 209.1L432.229 209.105L432.955 208.417ZM467.824 221.992V222.992H467.824L467.824 221.992ZM502.722 207.994L503.466 208.662L503.472 208.654L502.722 207.994ZM503.108 207.554L503.859 208.215L503.864 208.209L503.108 207.554ZM515.326 161.262H516.326H515.326ZM515.326 19.8999V18.8999C514.774 18.8999 514.326 19.3476 514.326 19.8999H515.326ZM588.977 19.8999H589.977C589.977 19.3476 589.529 18.8999 588.977 18.8999V19.8999ZM588.977 163.466H589.977H588.977ZM556.708 252.735L557.407 253.45L556.708 252.735ZM467.089 284.252V285.252V284.252ZM378.485 253.714L377.791 254.434L377.797 254.439L378.485 253.714ZM377.47 252.735L376.771 253.45L376.776 253.455L377.47 252.735ZM345.201 163.466H344.201H345.201ZM345.201 19.8999V18.8999C344.649 18.8999 344.201 19.3476 344.201 19.8999H345.201ZM419.954 19.8999H420.954C420.954 19.3476 420.506 18.8999 419.954 18.8999V19.8999ZM1186.04 14.7476V13.7476V14.7476ZM1250.02 27.3276V28.3276C1250.49 28.3276 1250.9 27.9978 1251 27.5364C1251.1 27.075 1250.86 26.6075 1250.43 26.4148L1250.02 27.3276ZM1250.02 27.3276V26.3276C1249.55 26.3276 1249.14 26.6587 1249.04 27.1212C1248.94 27.5838 1249.18 28.0514 1249.62 28.2424L1250.02 27.3276ZM1297.43 63.6265L1296.64 64.2497L1296.64 64.2501L1297.43 63.6265ZM1298.01 64.3608L1298.68 65.1019C1299.07 64.7474 1299.12 64.1499 1298.79 63.7372L1298.01 64.3608ZM1297.32 64.9917L1297.99 65.7332L1297.99 65.7328L1297.32 64.9917ZM1251.02 106.879L1250.35 106.138L1250.35 106.138L1251.02 106.879ZM1250.25 107.572L1249.49 108.219C1249.67 108.426 1249.92 108.552 1250.19 108.57C1250.46 108.587 1250.72 108.495 1250.92 108.313L1250.25 107.572ZM1249.58 106.786L1250.35 106.138L1250.35 106.138L1249.58 106.786ZM1222.33 84.6138L1222.79 83.7237C1222.77 83.7153 1222.76 83.7074 1222.74 83.7L1222.33 84.6138ZM1222.32 84.6099L1221.86 85.4953C1221.88 85.5054 1221.9 85.5148 1221.92 85.5237L1222.32 84.6099ZM1189.72 77.0073V76.0073V77.0073ZM1161.87 81.772L1161.52 80.8355L1161.51 80.8375L1161.87 81.772ZM1161.05 82.0835L1160.7 81.149L1160.69 81.1515L1161.05 82.0835ZM1138.63 96.9087L1137.91 96.215C1137.53 96.6076 1137.54 97.2305 1137.92 97.6158L1138.63 96.9087ZM1138.63 96.9097L1139.35 97.6028C1139.73 97.2102 1139.72 96.5877 1139.34 96.2026L1138.63 96.9097ZM1124.14 119.742L1123.21 119.366C1123.21 119.373 1123.21 119.381 1123.2 119.388L1124.14 119.742ZM1119.07 149.496H1118.07H1119.07ZM1124.15 179.27L1123.21 179.624C1123.21 179.631 1123.22 179.639 1123.22 179.646L1124.15 179.27ZM1138.63 202.448L1137.9 203.127C1137.91 203.136 1137.91 203.146 1137.92 203.155L1138.63 202.448ZM1161.05 216.908L1160.69 217.84L1160.7 217.842L1161.05 216.908ZM1161.87 217.219L1161.51 218.154L1161.52 218.156L1161.87 217.219ZM1189.72 221.984V222.984V221.984ZM1222.32 214.382L1222.79 215.268C1222.8 215.264 1222.8 215.26 1222.81 215.256L1222.32 214.382ZM1222.33 214.377L1221.87 213.49C1221.86 213.495 1221.86 213.499 1221.85 213.503L1222.33 214.377ZM1223.26 213.895L1223.72 214.782L1223.73 214.779L1223.26 213.895ZM1249.58 192.207L1250.35 192.854L1250.35 192.854L1249.58 192.207ZM1250.25 191.42L1250.92 190.679C1250.72 190.497 1250.46 190.405 1250.19 190.423C1249.92 190.44 1249.67 190.567 1249.49 190.773L1250.25 191.42ZM1251.02 192.112L1251.69 191.37L1251.69 191.37L1251.02 192.112ZM1297.32 234L1297.99 233.259L1297.99 233.259L1297.32 234ZM1298.02 234.635L1298.79 235.264C1299.13 234.852 1299.08 234.25 1298.69 233.894L1298.02 234.635ZM1297.42 235.372L1298.2 236.001L1298.2 236.001L1297.42 235.372ZM1250.03 271.662L1250.4 272.59C1250.41 272.584 1250.43 272.578 1250.44 272.572L1250.03 271.662ZM1250.02 271.664L1249.65 270.735C1249.64 270.74 1249.62 270.745 1249.61 270.751L1250.02 271.664ZM1186.04 284.244V285.244V284.244ZM1129.12 274.629L1129.46 273.69C1129.45 273.687 1129.44 273.684 1129.43 273.681L1129.12 274.629ZM1129.11 274.626L1128.76 275.563C1128.77 275.567 1128.78 275.571 1128.79 275.575L1129.11 274.626ZM1129.1 274.624L1128.74 275.557L1128.75 275.56L1129.1 274.624ZM1083.95 246.493L1083.24 247.2C1083.25 247.207 1083.25 247.214 1083.26 247.22L1083.95 246.493ZM1083.94 246.486L1084.65 245.779C1084.64 245.774 1084.64 245.769 1084.63 245.765L1083.94 246.486ZM1054.32 203.912L1053.39 204.283C1053.4 204.293 1053.4 204.304 1053.4 204.314L1054.32 203.912ZM1054.32 203.907L1055.25 203.535C1055.24 203.527 1055.24 203.518 1055.24 203.51L1054.32 203.907ZM1043.58 149.496H1042.58H1043.58ZM1054.32 95.4478L1055.24 95.85L1055.24 95.845L1054.32 95.4478ZM1083.94 52.5054L1084.63 53.2265C1084.64 53.2219 1084.64 53.2172 1084.65 53.2125L1083.94 52.5054ZM1083.95 52.4985L1083.26 51.7665C1083.26 51.7746 1083.25 51.783 1083.24 51.7914L1083.95 52.4985ZM1085.16 51.3726L1084.48 50.6361L1084.47 50.6405L1085.16 51.3726ZM1127.5 25.3403L1127.14 24.4049L1127.14 24.407L1127.5 25.3403ZM1129.11 24.731L1129.46 25.6664L1129.47 25.6657L1129.11 24.731ZM697.925 20.2622L697.154 20.8997L697.155 20.9001L697.925 20.2622ZM809.693 155.194L808.923 155.832C809.192 156.156 809.636 156.278 810.032 156.135C810.429 155.992 810.693 155.615 810.693 155.194H809.693ZM809.693 19.8999V18.8999C809.141 18.8999 808.693 19.3476 808.693 19.8999H809.693ZM882.977 19.8999H883.977C883.977 19.3476 883.529 18.8999 882.977 18.8999V19.8999ZM882.977 279.108V280.108C883.529 280.108 883.977 279.66 883.977 279.108H882.977ZM821.614 279.108L820.844 279.745C821.034 279.975 821.316 280.108 821.614 280.108V279.108ZM821.314 278.746L822.085 278.108L822.085 278.108L821.314 278.746ZM709.545 143.811L710.315 143.173C710.046 142.848 709.602 142.727 709.206 142.87C708.809 143.013 708.545 143.389 708.545 143.811H709.545ZM709.545 279.108V280.108C710.097 280.108 710.545 279.66 710.545 279.108H709.545ZM636.262 279.108H635.262C635.262 279.66 635.709 280.108 636.262 280.108V279.108ZM636.262 19.8999V18.8999C635.709 18.8999 635.262 19.3476 635.262 19.8999H636.262ZM697.625 19.8999L698.395 19.2624C698.205 19.0328 697.923 18.8999 697.625 18.8999V19.8999ZM1007.05 279.108V280.108C1007.6 280.108 1008.05 279.66 1008.05 279.108H1007.05ZM932.295 279.108H931.295C931.295 279.66 931.743 280.108 932.295 280.108V279.108ZM932.295 19.8999V18.8999C931.743 18.8999 931.295 19.3476 931.295 19.8999H932.295ZM1007.05 19.8999H1008.05C1008.05 19.3476 1007.6 18.8999 1007.05 18.8999V19.8999ZM1402.84 116.537H1401.84C1401.84 117.089 1402.28 117.537 1402.84 117.537V116.537ZM1500.04 116.537V117.537C1500.6 117.537 1501.04 117.089 1501.04 116.537H1500.04ZM1500.04 19.8999V18.8999C1499.49 18.8999 1499.04 19.3476 1499.04 19.8999H1500.04ZM1574.8 19.8999H1575.8C1575.8 19.3476 1575.35 18.8999 1574.8 18.8999V19.8999ZM1574.8 279.108V280.108C1575.35 280.108 1575.8 279.66 1575.8 279.108H1574.8ZM1500.04 279.108H1499.04C1499.04 279.66 1499.49 280.108 1500.04 280.108V279.108ZM1500.04 178.797H1501.04C1501.04 178.245 1500.6 177.797 1500.04 177.797V178.797ZM1402.84 178.797V177.797C1402.28 177.797 1401.84 178.245 1401.84 178.797H1402.84ZM1402.84 279.108V280.108C1403.39 280.108 1403.84 279.66 1403.84 279.108H1402.84ZM1328.08 279.108H1327.08C1327.08 279.66 1327.53 280.108 1328.08 280.108V279.108ZM1328.08 19.8999V18.8999C1327.53 18.8999 1327.08 19.3476 1327.08 19.8999H1328.08ZM1402.84 19.8999H1403.84C1403.84 19.3476 1403.39 18.8999 1402.84 18.8999V19.8999ZM708.546 141.039H707.546C707.546 141.271 707.627 141.497 707.776 141.676L708.546 141.039ZM822.084 278.108L821.314 278.746C821.666 279.171 822.297 279.23 822.722 278.878C823.147 278.526 823.206 277.895 822.854 277.47L822.084 278.108ZM708.546 141.037L709.316 140.399C709.047 140.074 708.603 139.953 708.207 140.096C707.81 140.239 707.546 140.615 707.546 141.037H708.546ZM1132.34 275.769C1132.87 275.947 1133.43 275.668 1133.61 275.145C1133.79 274.622 1133.51 274.054 1132.99 273.876L1132.34 275.769ZM1131.06 274.266L1131.39 273.323C1131.38 273.321 1131.38 273.319 1131.37 273.317L1131.06 274.266ZM1131.04 274.261L1131.36 273.313C1130.84 273.139 1130.28 273.417 1130.1 273.937C1129.92 274.456 1130.19 275.021 1130.71 275.204L1131.04 274.261ZM1114.03 266.702L1113.56 267.584L1113.56 267.587L1114.03 266.702ZM1116.2 267.816L1115.75 268.709C1116.25 268.957 1116.85 268.759 1117.09 268.265C1117.34 267.772 1117.14 267.171 1116.65 266.923L1116.2 267.816ZM1113.87 266.617L1114.34 265.732C1113.85 265.475 1113.25 265.661 1112.99 266.148C1112.73 266.635 1112.91 267.239 1113.4 267.499L1113.87 266.617ZM1093.31 253.255L1092.68 254.036L1092.69 254.04L1093.31 253.255ZM1094.6 254.263L1093.99 255.056C1094.43 255.392 1095.05 255.311 1095.39 254.876C1095.73 254.44 1095.65 253.814 1095.21 253.475L1094.6 254.263ZM1093.31 253.255L1092.69 254.04L1092.69 254.044L1093.31 253.255ZM1092.03 252.233L1092.65 251.452C1092.22 251.108 1091.6 251.176 1091.25 251.606C1090.9 252.035 1090.97 252.663 1091.4 253.01L1092.03 252.233ZM556.009 252.02L556.708 252.735L556.713 252.73L556.009 252.02ZM554.104 253.831L553.424 253.097C553.019 253.472 552.995 254.105 553.37 254.51C553.745 254.915 554.378 254.939 554.783 254.564L554.104 253.831ZM555.005 252.988L555.694 253.713L555.699 253.708L555.005 252.988ZM556.01 252.02L556.703 252.74L556.709 252.735L556.01 252.02ZM556.99 251.047L557.7 251.752C558.088 251.361 558.087 250.73 557.698 250.341C557.309 249.951 556.678 249.949 556.286 250.337L556.99 251.047ZM1088.27 249.071L1087.61 249.819L1087.61 249.824L1088.27 249.071ZM1089.51 250.14L1088.86 250.901C1089.28 251.259 1089.91 251.21 1090.27 250.791C1090.63 250.373 1090.58 249.743 1090.17 249.383L1089.51 250.14ZM1088.27 249.071L1087.61 249.824L1087.62 249.828L1088.27 249.071ZM1087.05 247.985L1087.71 247.236C1087.3 246.871 1086.67 246.908 1086.3 247.32C1085.93 247.731 1085.97 248.362 1086.38 248.729L1087.05 247.985ZM1074.73 235.144L1073.96 235.779L1073.96 235.784L1074.73 235.144ZM1075.77 236.373L1075.01 237.022C1075.36 237.441 1075.99 237.492 1076.41 237.135C1076.83 236.778 1076.89 236.149 1076.53 235.728L1075.77 236.373ZM1074.73 235.144L1073.96 235.784L1073.97 235.789L1074.73 235.144ZM1073.71 233.903L1074.48 233.268C1074.13 232.842 1073.5 232.78 1073.08 233.129C1072.65 233.477 1072.59 234.106 1072.93 234.533L1073.71 233.903ZM1191.47 223.965C1192.02 223.954 1192.46 223.497 1192.45 222.945C1192.44 222.393 1191.98 221.954 1191.43 221.966L1191.47 223.965ZM1189.72 222.983V221.983C1189.31 221.983 1188.95 222.227 1188.79 222.6C1188.64 222.974 1188.73 223.404 1189.01 223.69L1189.72 222.983ZM1189.72 222.984L1189.01 223.691C1189.2 223.879 1189.45 223.984 1189.72 223.984V222.984ZM1161.61 218.189L1161.96 217.251C1161.44 217.059 1160.87 217.323 1160.67 217.84C1160.48 218.358 1160.74 218.933 1161.26 219.126L1161.61 218.189ZM1162.4 219.54C1162.92 219.724 1163.49 219.451 1163.68 218.931C1163.86 218.41 1163.59 217.839 1163.07 217.654L1162.4 219.54ZM1159.53 217.374L1159.91 216.448C1159.39 216.239 1158.81 216.484 1158.6 216.995C1158.39 217.506 1158.64 218.09 1159.15 218.299L1159.53 217.374ZM1160.69 217.84L1160.33 218.772L1160.69 217.84ZM1161.03 217.967L1160.67 218.901C1161.19 219.099 1161.76 218.84 1161.96 218.324C1162.16 217.808 1161.9 217.23 1161.38 217.033L1161.03 217.967ZM1160.69 217.839L1160.33 218.771L1160.33 218.774L1160.69 217.839ZM1159.05 217.18L1158.66 218.1L1158.67 218.103L1159.05 217.18ZM1159.44 217.338L1159.06 218.264C1159.57 218.473 1160.16 218.229 1160.37 217.718C1160.58 217.207 1160.33 216.623 1159.82 216.413L1159.44 217.338ZM1158.24 216.836L1158.64 215.916C1158.13 215.7 1157.54 215.936 1157.32 216.443C1157.11 216.95 1157.34 217.536 1157.85 217.755L1158.24 216.836ZM1155.86 215.756L1155.42 216.656L1155.43 216.659L1155.86 215.756ZM1156.65 216.125L1156.23 217.033C1156.73 217.263 1157.32 217.046 1157.55 216.546C1157.79 216.047 1157.57 215.453 1157.07 215.219L1156.65 216.125ZM1155.86 215.755L1155.43 216.658L1155.44 216.661L1155.86 215.755ZM1155.08 215.378L1155.52 214.478C1155.02 214.238 1154.42 214.445 1154.18 214.94C1153.94 215.435 1154.14 216.033 1154.64 216.276L1155.08 215.378ZM1150.55 212.933L1150.04 213.791L1150.04 213.794L1150.55 212.933ZM1150.68 213.007L1150.17 213.869C1150.65 214.149 1151.26 213.99 1151.54 213.514C1151.82 213.038 1151.66 212.425 1151.19 212.145L1150.68 213.007ZM1149.82 212.495L1150.33 211.637C1149.86 211.354 1149.25 211.506 1148.96 211.977C1148.68 212.449 1148.83 213.062 1149.3 213.349L1149.82 212.495ZM1144.91 209.19L1144.31 209.988L1144.32 209.993L1144.91 209.19ZM1146.28 210.177L1145.7 210.995C1146.16 211.312 1146.78 211.205 1147.1 210.755C1147.41 210.306 1147.31 209.684 1146.86 209.363L1146.28 210.177ZM1145.59 209.687L1145.01 210.498L1145.01 210.501L1145.59 209.687ZM1144.24 208.683L1144.84 207.885C1144.4 207.553 1143.78 207.64 1143.44 208.078C1143.11 208.517 1143.2 209.143 1143.63 209.478L1144.24 208.683ZM1137.91 203.143L1137.17 203.818C1137.18 203.829 1137.19 203.84 1137.2 203.85L1137.91 203.143ZM1139.12 204.32L1138.43 205.045C1138.83 205.424 1139.46 205.409 1139.84 205.011C1140.22 204.613 1140.21 203.982 1139.81 203.6L1139.12 204.32ZM1138.51 203.735L1137.81 204.451L1137.82 204.455L1138.51 203.735ZM1137.91 203.142L1137.18 203.821C1137.19 203.831 1137.19 203.84 1137.2 203.849L1137.91 203.142ZM1137.34 202.519L1138.08 201.844C1137.71 201.438 1137.08 201.408 1136.67 201.779C1136.26 202.15 1136.23 202.781 1136.6 203.19L1137.34 202.519ZM1135.67 200.605L1134.9 201.243L1134.91 201.248L1135.67 200.605ZM1136.22 201.25L1135.46 201.903C1135.82 202.321 1136.45 202.369 1136.87 202.01C1137.29 201.652 1137.34 201.023 1136.98 200.603L1136.22 201.25ZM1135.67 200.605L1134.91 201.249L1134.91 201.253L1135.67 200.605ZM1135.13 199.953L1135.9 199.314C1135.55 198.89 1134.92 198.83 1134.49 199.181C1134.07 199.532 1134.01 200.161 1134.36 200.587L1135.13 199.953ZM1132.03 195.888L1131.21 196.462L1131.21 196.466L1132.03 195.888ZM1132.53 196.583L1131.72 197.171C1132.04 197.617 1132.67 197.717 1133.11 197.394C1133.56 197.072 1133.66 196.449 1133.34 196.001L1132.53 196.583ZM1132.03 195.887L1131.21 196.465L1131.22 196.47L1132.03 195.887ZM1131.54 195.185L1132.36 194.612C1132.04 194.16 1131.42 194.049 1130.97 194.364C1130.51 194.679 1130.4 195.3 1130.71 195.754L1131.54 195.185ZM1129.19 191.565L1128.33 192.081L1128.33 192.085L1129.19 191.565ZM1129.3 191.749L1128.45 192.271C1128.74 192.742 1129.35 192.89 1129.82 192.601C1130.3 192.312 1130.44 191.697 1130.15 191.226L1129.3 191.749ZM1128.74 190.819L1129.59 190.303C1129.31 189.831 1128.7 189.678 1128.23 189.961C1127.75 190.243 1127.6 190.856 1127.88 191.329L1128.74 190.819ZM1401.84 177.797H1400.84C1400.84 178.35 1401.28 178.797 1401.84 178.797V177.797ZM1501.04 177.797V178.797C1501.6 178.797 1502.04 178.35 1502.04 177.797H1501.04ZM1501.04 177.796H1502.04C1502.04 177.244 1501.6 176.796 1501.04 176.796V177.796ZM1401.84 177.796V176.796C1401.28 176.796 1400.84 177.244 1400.84 177.796H1401.84ZM1118.39 141.413L1117.39 141.326L1117.39 141.331L1118.39 141.413ZM1118.37 141.738L1117.37 141.66C1117.33 142.211 1117.74 142.692 1118.29 142.735C1118.84 142.778 1119.32 142.366 1119.36 141.815L1118.37 141.738ZM1118.48 140.428L1119.47 140.515C1119.52 139.966 1119.11 139.481 1118.56 139.432C1118.02 139.383 1117.53 139.787 1117.48 140.337L1118.48 140.428ZM1045.42 133.368H1046.42C1046.42 132.836 1046.01 132.397 1045.48 132.369C1044.95 132.341 1044.49 132.733 1044.43 133.261L1045.42 133.368ZM1045.21 135.591L1044.21 135.5C1044.16 136.05 1044.56 136.537 1045.11 136.587C1045.66 136.637 1046.15 136.232 1046.2 135.682L1045.21 135.591ZM1045.42 133.369L1046.42 133.475C1046.42 133.44 1046.42 133.404 1046.42 133.369H1045.42ZM1247.98 103.444L1247.25 104.12C1247.62 104.526 1248.25 104.554 1248.66 104.183C1249.06 103.811 1249.09 103.18 1248.72 102.772L1247.98 103.444ZM1247.18 102.573L1247.92 101.897L1247.92 101.893L1247.18 102.573ZM1247.06 102.443L1247.79 101.761C1247.42 101.357 1246.78 101.335 1246.38 101.711C1245.98 102.087 1245.95 102.72 1246.33 103.124L1247.06 102.443ZM1133.03 101.911L1132.24 101.3L1132.24 101.304L1133.03 101.911ZM1132.53 102.583L1131.73 101.987C1131.4 102.429 1131.49 103.054 1131.93 103.384C1132.37 103.714 1133 103.625 1133.33 103.185L1132.53 102.583ZM1133.03 101.912L1132.24 101.305L1132.24 101.31L1133.03 101.912ZM1133.55 101.247L1134.34 101.858C1134.68 101.422 1134.6 100.795 1134.16 100.457C1133.73 100.119 1133.1 100.196 1132.76 100.63L1133.55 101.247ZM1135.67 98.6694L1134.92 98.0089L1134.92 98.0141L1135.67 98.6694ZM1134.59 99.9419L1133.82 99.3059C1133.47 99.731 1133.53 100.359 1133.96 100.711C1134.38 101.063 1135.01 101.006 1135.36 100.584L1134.59 99.9419ZM1135.13 99.3022L1134.37 98.6566L1134.36 98.6606L1135.13 99.3022ZM1136.22 98.0444L1136.97 98.7049C1137.34 98.2911 1137.3 97.6608 1136.88 97.2956C1136.47 96.9303 1135.84 96.9679 1135.47 97.3795L1136.22 98.0444ZM1238.07 93.894L1237.36 94.6012C1237.38 94.6224 1237.41 94.6427 1237.43 94.662L1238.07 93.894ZM1239.36 94.9956L1238.71 95.7516C1239.13 96.1131 1239.76 96.0677 1240.12 95.6502C1240.48 95.2327 1240.44 94.6012 1240.02 94.2397L1239.36 94.9956ZM1238.07 93.8931L1238.71 93.1251C1238.3 92.7826 1237.69 92.8238 1237.33 93.2186C1236.97 93.6134 1236.98 94.2221 1237.36 94.6002L1238.07 93.8931ZM1235.64 91.9399L1235.03 92.7305C1235.47 93.0683 1236.09 92.9892 1236.43 92.5536C1236.77 92.118 1236.69 91.4906 1236.26 91.1513L1235.64 91.9399ZM1235.48 91.812L1236.09 91.0234L1236.09 91.0207L1235.48 91.812ZM1234.98 91.4321L1235.59 90.6364C1235.15 90.3019 1234.52 90.387 1234.18 90.8264C1233.85 91.2659 1233.94 91.8933 1234.37 92.2278L1234.98 91.4321ZM1161.52 80.8354L1161.18 79.8964L1161.17 79.899L1161.52 80.8354ZM1160.94 79.9871C1160.42 80.1826 1160.16 80.7598 1160.36 81.2763C1160.55 81.7928 1161.13 82.0531 1161.64 81.8576L1160.94 79.9871ZM1162.36 80.5298L1162.7 81.4688C1163.22 81.2793 1163.48 80.7066 1163.3 80.1885C1163.11 79.6703 1162.54 79.4021 1162.02 79.589L1162.36 80.5298ZM1164.89 79.6704L1164.59 78.7158L1164.58 78.7176L1164.89 79.6704ZM1164.04 79.9468L1163.72 78.9978C1163.2 79.1715 1162.92 79.7356 1163.09 80.2591C1163.26 80.7826 1163.82 81.0682 1164.35 80.8977L1164.04 79.9468ZM1164.89 79.6704L1164.59 78.7175L1164.58 78.7195L1164.89 79.6704ZM1165.74 79.4038L1166.04 80.3584C1166.57 80.1943 1166.86 79.6356 1166.7 79.1091C1166.54 78.5825 1165.98 78.2866 1165.45 78.4473L1165.74 79.4038ZM1167.47 78.9019L1167.2 77.9368L1167.2 77.9384L1167.47 78.9019ZM1166.6 79.1479L1166.32 78.1879C1165.79 78.3421 1165.49 78.8951 1165.64 79.4246C1165.79 79.9541 1166.35 80.2605 1166.88 80.1098L1166.6 79.1479ZM1167.47 78.9019L1167.2 77.9384L1167.19 77.94L1167.47 78.9019ZM1168.34 78.6655L1168.6 79.6306C1169.13 79.4861 1169.44 78.9386 1169.3 78.4064C1169.16 77.8741 1168.61 77.5577 1168.08 77.6989L1168.34 78.6655ZM1296.64 64.2495L1295.86 64.8727C1296.05 65.1108 1296.34 65.2495 1296.64 65.2495V64.2495ZM1296.64 64.2495V65.2495C1297.03 65.2495 1297.38 65.0296 1297.55 64.6836C1297.71 64.3376 1297.67 63.9267 1297.43 63.6263L1296.64 64.2495ZM1295.6 62.9653L1296.38 62.3318C1296.03 61.9045 1295.4 61.8417 1294.97 62.1916C1294.54 62.5414 1294.48 63.1714 1294.83 63.5988L1295.6 62.9653ZM1087.2 52.2204C1087.61 51.8498 1087.64 51.2174 1087.27 50.8079C1086.9 50.3985 1086.26 50.367 1085.86 50.7376L1087.2 52.2204ZM1084.63 53.2261L1083.95 52.4983C1083.94 52.502 1083.94 52.5057 1083.93 52.5094L1084.63 53.2261ZM1083.47 54.3579L1082.77 53.6412L1082.77 53.6455L1083.47 54.3579ZM1081.99 54.42C1081.6 54.8109 1081.6 55.444 1081.99 55.8342C1082.38 56.2244 1083.02 56.2238 1083.41 55.8329L1081.99 54.42ZM1084.63 53.2271L1083.95 52.4992L1083.94 52.5059L1084.63 53.2271ZM1288.17 54.6782L1287.46 55.3791C1287.85 55.7724 1288.48 55.7786 1288.87 55.393C1289.27 55.0073 1289.27 54.3754 1288.89 53.9804L1288.17 54.6782ZM1287.99 54.4888L1288.71 53.7909L1288.7 53.7863L1287.99 54.4888ZM1287.54 54.0376L1288.25 53.3314C1287.86 52.9404 1287.22 52.9396 1286.83 53.3296C1286.44 53.7196 1286.44 54.3528 1286.83 54.7438L1287.54 54.0376ZM1127.86 26.2739L1127.5 25.3386L1127.5 25.3406L1127.86 26.2739ZM1126.33 25.7979C1125.82 26.0006 1125.57 26.5814 1125.77 27.0951C1125.97 27.6089 1126.55 27.861 1127.07 27.6582L1126.33 25.7979ZM1128.07 26.1919L1128.43 27.1254C1128.95 26.9276 1129.21 26.3507 1129.01 25.8356C1128.81 25.3205 1128.24 25.0615 1127.72 25.2566L1128.07 26.1919ZM1188.26 15.7603L1188.28 14.7603L1188.27 14.7603L1188.26 15.7603ZM1192.59 16.8554C1193.14 16.8738 1193.61 16.4413 1193.62 15.8893C1193.64 15.3373 1193.21 14.8749 1192.66 14.8565L1192.59 16.8554ZM1188.26 15.7593L1188.28 14.7593L1188.27 14.7593L1188.26 15.7593ZM1186.04 15.7476L1186.05 14.7476C1185.5 14.7447 1185.05 15.1899 1185.04 15.7421C1185.04 16.2942 1185.49 16.7444 1186.04 16.7475L1186.04 15.7476ZM419.954 161.262H418.954C418.954 183.3 423.238 199.097 431.805 208.651L432.55 207.984L433.294 207.316C425.222 198.314 420.954 183.132 420.954 161.262H419.954ZM432.55 207.984L431.82 208.668L432.225 209.1L432.955 208.417L433.685 207.733L433.28 207.3L432.55 207.984ZM432.955 208.417L432.229 209.105C441.01 218.364 452.875 222.992 467.824 222.992V221.992V220.992C453.322 220.992 442.018 216.521 433.681 207.728L432.955 208.417ZM467.824 221.992L467.824 222.992C483.011 222.992 494.893 218.215 503.466 208.662L502.722 207.994L501.977 207.326C493.853 216.378 482.557 220.992 467.824 220.992L467.824 221.992ZM502.722 207.994L503.472 208.654L503.859 208.215L503.108 207.554L502.358 206.894L501.971 207.333L502.722 207.994ZM503.108 207.554L503.864 208.209C512.171 198.613 516.326 182.965 516.326 161.262H515.326H514.326C514.326 182.797 510.187 197.849 502.352 206.9L503.108 207.554ZM515.326 161.262H516.326V19.8999H515.326H514.326V161.262H515.326ZM515.326 19.8999V20.8999H588.977V19.8999V18.8999H515.326V19.8999ZM588.977 19.8999H587.977V163.466H588.977H589.977V19.8999H588.977ZM588.977 163.466H587.977C587.977 201.68 577.321 231.198 556.009 252.02L556.708 252.735L557.407 253.45C579.204 232.153 589.977 202.058 589.977 163.466H588.977ZM556.708 252.735L556.009 252.02C534.698 272.841 505.057 283.252 467.089 283.252V284.252V285.252C505.43 285.252 535.627 274.73 557.407 253.45L556.708 252.735ZM467.089 284.252V283.252C429.713 283.252 400.408 273.164 379.174 252.989L378.485 253.714L377.797 254.439C399.496 275.057 429.347 285.252 467.089 285.252V284.252ZM378.485 253.714L379.18 252.995L378.164 252.015L377.47 252.735L376.776 253.455L377.791 254.434L378.485 253.714ZM377.47 252.735L378.169 252.02C356.857 231.198 346.201 201.68 346.201 163.466H345.201H344.201C344.201 202.059 354.973 232.153 376.771 253.45L377.47 252.735ZM345.201 163.466H346.201V19.8999H345.201H344.201V163.466H345.201ZM345.201 19.8999V20.8999H419.954V19.8999V18.8999H345.201V19.8999ZM419.954 19.8999H418.954V161.262H419.954H420.954V19.8999H419.954ZM1186.04 14.7476V15.7476C1209.81 15.7476 1231 19.912 1249.61 28.2405L1250.02 27.3276L1250.43 26.4148C1231.52 17.954 1210.04 13.7476 1186.04 13.7476V14.7476ZM1250.02 27.3276V26.3276H1250.02V27.3276V28.3276H1250.02V27.3276ZM1250.02 27.3276L1249.62 28.2424C1268.48 36.5709 1284.15 48.5736 1296.64 64.2497L1297.43 63.6265L1298.21 63.0033C1285.51 47.0673 1269.57 34.8679 1250.42 26.4129L1250.02 27.3276ZM1297.43 63.6265L1296.64 64.2501L1297.23 64.9845L1298.01 64.3608L1298.79 63.7372L1298.21 63.0028L1297.43 63.6265ZM1298.01 64.3608L1297.34 63.6198L1296.64 64.2506L1297.32 64.9917L1297.99 65.7328L1298.68 65.1019L1298.01 64.3608ZM1297.32 64.9917L1296.64 64.2502L1250.35 106.138L1251.02 106.879L1251.69 107.621L1297.99 65.7332L1297.32 64.9917ZM1251.02 106.879L1250.35 106.138L1249.58 106.831L1250.25 107.572L1250.92 108.313L1251.69 107.621L1251.02 106.879ZM1250.25 107.572L1251.02 106.924L1250.35 106.138L1249.58 106.786L1248.82 107.433L1249.49 108.219L1250.25 107.572ZM1249.58 106.786L1250.35 106.138C1242.02 96.3399 1232.83 88.8678 1222.79 83.7237L1222.33 84.6138L1221.88 85.5038C1231.66 90.5125 1240.64 97.8076 1248.82 107.433L1249.58 106.786ZM1222.33 84.6138L1222.74 83.7L1222.73 83.6961L1222.32 84.6099L1221.92 85.5237L1221.93 85.5276L1222.33 84.6138ZM1222.32 84.6099L1222.79 83.7245C1212.99 78.5805 1201.97 76.0073 1189.72 76.0073V77.0073V78.0073C1201.68 78.0073 1212.38 80.5174 1221.86 85.4953L1222.32 84.6099ZM1189.72 77.0073V76.0073C1179.52 76.0074 1170.12 77.617 1161.52 80.8355L1161.87 81.772L1162.22 82.7085C1170.57 79.5829 1179.73 78.0074 1189.72 78.0073V77.0073ZM1161.87 81.772L1161.51 80.8375L1160.7 81.1491L1161.05 82.0835L1161.41 83.0179L1162.23 82.7064L1161.87 81.772ZM1161.05 82.0835L1160.69 81.1515C1151.87 84.5807 1144.28 89.6015 1137.91 96.215L1138.63 96.9087L1139.35 97.6023C1145.51 91.2043 1152.86 86.343 1161.42 83.0155L1161.05 82.0835ZM1138.63 96.9087L1137.92 97.6158L1137.92 97.6168L1138.63 96.9097L1139.34 96.2026L1139.34 96.2016L1138.63 96.9087ZM1138.63 96.9097L1137.91 96.2166C1131.79 102.585 1126.89 110.303 1123.21 119.366L1124.14 119.742L1125.07 120.117C1128.65 111.265 1133.42 103.77 1139.35 97.6028L1138.63 96.9097ZM1124.14 119.742L1123.2 119.388C1119.78 128.446 1118.07 138.482 1118.07 149.496H1119.07H1120.07C1120.07 138.691 1121.75 128.898 1125.07 120.095L1124.14 119.742ZM1119.07 149.496H1118.07C1118.07 160.518 1119.78 170.561 1123.21 179.624L1124.15 179.27L1125.08 178.916C1121.75 170.108 1120.07 160.309 1120.07 149.496H1119.07ZM1124.15 179.27L1123.22 179.646C1126.89 188.694 1131.78 196.521 1137.9 203.127L1138.63 202.448L1139.36 201.769C1133.43 195.354 1128.66 187.737 1125.07 178.894L1124.15 179.27ZM1138.63 202.448L1137.92 203.155C1144.29 209.517 1151.88 214.413 1160.69 217.84L1161.05 216.908L1161.42 215.976C1152.85 212.644 1145.5 207.897 1139.34 201.74L1138.63 202.448ZM1161.05 216.908L1160.7 217.842L1161.51 218.154L1161.87 217.219L1162.23 216.285L1161.41 215.973L1161.05 216.908ZM1161.87 217.219L1161.52 218.156C1170.12 221.374 1179.52 222.984 1189.72 222.984V221.984V220.984C1179.73 220.984 1170.57 219.408 1162.22 216.283L1161.87 217.219ZM1189.72 221.984V222.984C1201.97 222.984 1212.99 220.412 1222.79 215.268L1222.32 214.382L1221.86 213.497C1212.38 218.475 1201.68 220.984 1189.72 220.984V221.984ZM1222.32 214.382L1222.81 215.256L1222.82 215.252L1222.33 214.377L1221.85 213.503L1221.84 213.508L1222.32 214.382ZM1222.33 214.377L1222.79 215.264L1223.72 214.782L1223.26 213.895L1222.8 213.008L1221.87 213.49L1222.33 214.377ZM1223.26 213.895L1223.73 214.779C1233.41 209.654 1242.28 202.346 1250.35 192.854L1249.58 192.207L1248.82 191.559C1240.9 200.884 1232.22 208.021 1222.79 213.011L1223.26 213.895ZM1249.58 192.207L1250.35 192.854L1251.02 192.068L1250.25 191.42L1249.49 190.773L1248.82 191.559L1249.58 192.207ZM1250.25 191.42L1249.58 192.162L1250.35 192.854L1251.02 192.112L1251.69 191.37L1250.92 190.679L1250.25 191.42ZM1251.02 192.112L1250.35 192.853L1296.64 234.742L1297.32 234L1297.99 233.259L1251.69 191.37L1251.02 192.112ZM1297.32 234L1296.64 234.742L1297.35 235.377L1298.02 234.635L1298.69 233.894L1297.99 233.259L1297.32 234ZM1298.02 234.635L1297.24 234.006L1296.64 234.743L1297.42 235.372L1298.2 236.001L1298.79 235.264L1298.02 234.635ZM1297.42 235.372L1296.64 234.742C1284.15 250.175 1268.47 262.178 1249.61 270.751L1250.03 271.662L1250.44 272.572C1269.57 263.876 1285.5 251.685 1298.2 236.001L1297.42 235.372ZM1250.03 271.662L1249.65 270.733L1249.65 270.735L1250.02 271.664L1250.39 272.592L1250.4 272.59L1250.03 271.662ZM1250.02 271.664L1249.61 270.751C1231 279.079 1209.81 283.244 1186.04 283.244V284.244V285.244C1210.04 285.244 1231.52 281.037 1250.43 272.576L1250.02 271.664ZM1186.04 284.244V283.244C1165.71 283.244 1146.85 280.059 1129.46 273.69L1129.12 274.629L1128.77 275.568C1146.4 282.025 1165.5 285.244 1186.04 285.244V284.244ZM1129.12 274.629L1129.43 273.681L1129.42 273.678L1129.11 274.626L1128.79 275.575L1128.8 275.578L1129.12 274.629ZM1129.11 274.626L1129.46 273.69L1129.45 273.687L1129.1 274.624L1128.75 275.56L1128.76 275.563L1129.11 274.626ZM1129.1 274.624L1129.46 273.691C1112.31 267.077 1097.37 257.768 1084.63 245.765L1083.95 246.493L1083.26 247.22C1096.2 259.41 1111.36 268.854 1128.74 275.557L1129.1 274.624ZM1083.95 246.493L1084.65 245.786L1084.65 245.779L1083.94 246.486L1083.23 247.193L1083.24 247.2L1083.95 246.493ZM1083.94 246.486L1084.63 245.765C1072.14 233.762 1062.34 219.676 1055.24 203.509L1054.32 203.912L1053.4 204.314C1060.61 220.716 1070.56 235.019 1083.25 247.207L1083.94 246.486ZM1054.32 203.912L1055.25 203.54L1055.25 203.535L1054.32 203.907L1053.39 204.278L1053.39 204.283L1054.32 203.912ZM1054.32 203.907L1055.24 203.51C1048.13 187.097 1044.58 169.092 1044.58 149.496H1043.58H1042.58C1042.58 169.339 1046.18 187.618 1053.4 204.304L1054.32 203.907ZM1043.58 149.496H1044.58C1044.58 129.899 1048.13 112.017 1055.24 95.85L1054.32 95.4478L1053.4 95.0455C1046.18 111.493 1042.58 129.653 1042.58 149.496H1043.58ZM1054.32 95.4478L1055.24 95.845C1062.34 79.4347 1072.14 65.2283 1084.63 53.2265L1083.94 52.5054L1083.25 51.7843C1070.56 63.976 1060.61 78.4046 1053.4 95.0505L1054.32 95.4478ZM1083.94 52.5054L1084.65 53.2125L1084.65 53.2056L1083.95 52.4985L1083.24 51.7914L1083.23 51.7983L1083.94 52.5054ZM1083.95 52.4985L1084.63 53.2306L1085.84 52.1046L1085.16 51.3726L1084.47 50.6405L1083.26 51.7665L1083.95 52.4985ZM1085.16 51.3726L1085.83 52.109C1097.9 41.0215 1111.91 32.4096 1127.86 26.2736L1127.5 25.3403L1127.14 24.407C1110.97 30.6293 1096.74 39.3715 1084.48 50.6361L1085.16 51.3726ZM1127.5 25.3403L1127.85 26.2758L1129.46 25.6664L1129.11 24.731L1128.76 23.7955L1127.14 24.4049L1127.5 25.3403ZM1129.11 24.731L1129.47 25.6657C1146.86 19.0536 1165.72 15.7476 1186.04 15.7476V14.7476V13.7476C1165.5 13.7476 1146.39 17.0901 1128.75 23.7962L1129.11 24.731ZM697.925 20.2622L697.155 20.9001L808.923 155.832L809.693 155.194L810.463 154.556L698.695 19.6243L697.925 20.2622ZM809.693 155.194H810.693V19.8999H809.693H808.693V155.194H809.693ZM809.693 19.8999V20.8999H882.977V19.8999V18.8999H809.693V19.8999ZM882.977 19.8999H881.977V279.108H882.977H883.977V19.8999H882.977ZM882.977 279.108V278.108H821.614V279.108V280.108H882.977V279.108ZM821.614 279.108L822.385 278.47L822.085 278.108L821.314 278.746L820.544 279.383L820.844 279.745L821.614 279.108ZM821.314 278.746L822.085 278.108L710.315 143.173L709.545 143.811L708.775 144.449L820.544 279.384L821.314 278.746ZM709.545 143.811H708.545V279.108H709.545H710.545V143.811H709.545ZM709.545 279.108V278.108H636.262V279.108V280.108H709.545V279.108ZM636.262 279.108H637.262V19.8999H636.262H635.262V279.108H636.262ZM636.262 19.8999V20.8999H697.625V19.8999V18.8999H636.262V19.8999ZM697.625 19.8999L696.855 20.5374L697.154 20.8997L697.925 20.2622L698.695 19.6247L698.395 19.2624L697.625 19.8999ZM1007.05 279.108V278.108H932.295V279.108V280.108H1007.05V279.108ZM932.295 279.108H933.295V19.8999H932.295H931.295V279.108H932.295ZM932.295 19.8999V20.8999H1007.05V19.8999V18.8999H932.295V19.8999ZM1007.05 19.8999H1006.05V279.108H1007.05H1008.05V19.8999H1007.05ZM1402.84 116.537V117.537H1500.04V116.537V115.537H1402.84V116.537ZM1500.04 116.537H1501.04V19.8999H1500.04H1499.04V116.537H1500.04ZM1500.04 19.8999V20.8999H1574.8V19.8999V18.8999H1500.04V19.8999ZM1574.8 19.8999H1573.8V279.108H1574.8H1575.8V19.8999H1574.8ZM1574.8 279.108V278.108H1500.04V279.108V280.108H1574.8V279.108ZM1500.04 279.108H1501.04V178.797H1500.04H1499.04V279.108H1500.04ZM1500.04 178.797V177.797H1402.84V178.797V179.797H1500.04V178.797ZM1402.84 178.797H1401.84V279.108H1402.84H1403.84V178.797H1402.84ZM1402.84 279.108V278.108H1328.08V279.108V280.108H1402.84V279.108ZM1328.08 279.108H1329.08V19.8999H1328.08H1327.08V279.108H1328.08ZM1328.08 19.8999V20.8999H1402.84V19.8999V18.8999H1328.08V19.8999ZM1402.84 19.8999H1401.84V116.537H1402.84H1403.84V19.8999H1402.84ZM708.546 141.039L707.776 141.676L821.314 278.746L822.084 278.108L822.854 277.47L709.316 140.401L708.546 141.039ZM822.084 278.108L822.854 277.47L709.316 140.399L708.546 141.037L707.776 141.675L821.314 278.746L822.084 278.108ZM708.546 141.037H707.546V141.039H708.546H709.546V141.037H708.546ZM1132.67 274.823L1132.99 273.876C1132.45 273.694 1131.92 273.51 1131.39 273.323L1131.06 274.266L1130.72 275.209C1131.26 275.399 1131.8 275.586 1132.34 275.769L1132.67 274.823ZM1131.06 274.266L1131.37 273.317L1131.36 273.313L1131.04 274.261L1130.73 275.21L1130.74 275.215L1131.06 274.266ZM1131.04 274.261L1130.71 275.204C1131.25 275.396 1131.8 275.584 1132.34 275.769L1132.67 274.823L1132.99 273.876C1132.45 273.693 1131.91 273.507 1131.38 273.318L1131.04 274.261ZM1114.03 266.702L1113.56 267.587C1114.29 267.969 1115.02 268.341 1115.75 268.709L1116.2 267.816L1116.65 266.923C1115.93 266.558 1115.21 266.191 1114.49 265.817L1114.03 266.702ZM1116.2 267.816L1116.65 266.923C1115.87 266.531 1115.1 266.135 1114.34 265.732L1113.87 266.617L1113.4 267.501C1114.18 267.912 1114.97 268.313 1115.75 268.709L1116.2 267.816ZM1113.87 266.617L1113.4 267.499L1113.56 267.584L1114.03 266.702L1114.5 265.819L1114.34 265.734L1113.87 266.617ZM1093.31 253.255L1092.69 254.04C1093.12 254.381 1093.55 254.72 1093.99 255.056L1094.6 254.263L1095.21 253.471C1094.78 253.14 1094.35 252.807 1093.93 252.471L1093.31 253.255ZM1094.6 254.263L1095.21 253.475L1093.92 252.467L1093.31 253.255L1092.69 254.044L1093.98 255.051L1094.6 254.263ZM1093.31 253.255L1093.93 252.471C1093.5 252.135 1093.08 251.797 1092.66 251.456L1092.03 252.233L1091.4 253.01C1091.83 253.356 1092.26 253.699 1092.69 254.04L1093.31 253.255ZM1092.03 252.233L1091.4 253.014L1092.68 254.036L1093.31 253.255L1093.93 252.475L1092.65 251.452L1092.03 252.233ZM556.009 252.02L555.31 251.305C554.69 251.911 554.06 252.507 553.424 253.097L554.104 253.831L554.783 254.564C555.431 253.964 556.073 253.355 556.708 252.735L556.009 252.02ZM554.104 253.831L554.783 254.564C555.085 254.285 555.39 254.001 555.694 253.713L555.005 252.988L554.316 252.263C554.023 252.542 553.725 252.818 553.424 253.097L554.104 253.831ZM555.005 252.988L555.699 253.708L556.703 252.74L556.01 252.02L555.316 251.3L554.311 252.268L555.005 252.988ZM556.01 252.02L556.709 252.735C557.042 252.41 557.372 252.082 557.7 251.752L556.99 251.047L556.281 250.343C555.96 250.666 555.637 250.987 555.311 251.305L556.01 252.02ZM556.99 251.047L556.286 250.337L555.305 251.31L556.009 252.02L556.713 252.73L557.694 251.758L556.99 251.047ZM1088.27 249.071L1087.61 249.824C1088.03 250.187 1088.45 250.545 1088.86 250.901L1089.51 250.14L1090.16 249.379C1089.75 249.027 1089.34 248.674 1088.93 248.318L1088.27 249.071ZM1089.51 250.14L1090.17 249.383L1088.93 248.314L1088.27 249.071L1087.62 249.828L1088.86 250.897L1089.51 250.14ZM1088.27 249.071L1088.93 248.318C1088.52 247.961 1088.12 247.602 1087.71 247.24L1087.05 247.985L1086.38 248.729C1086.79 249.097 1087.2 249.462 1087.61 249.824L1088.27 249.071ZM1087.05 247.985L1086.38 248.733L1087.61 249.819L1088.27 249.071L1088.93 248.322L1087.71 247.236L1087.05 247.985ZM1074.73 235.144L1073.96 235.784C1074.31 236.199 1074.66 236.612 1075.01 237.022L1075.77 236.373L1076.53 235.723C1076.18 235.318 1075.84 234.912 1075.5 234.504L1074.73 235.144ZM1075.77 236.373L1076.53 235.728L1075.49 234.499L1074.73 235.144L1073.97 235.789L1075 237.017L1075.77 236.373ZM1074.73 235.144L1075.5 234.504C1075.16 234.095 1074.82 233.685 1074.49 233.272L1073.71 233.903L1072.93 234.533C1073.27 234.953 1073.62 235.369 1073.96 235.784L1074.73 235.144ZM1073.71 233.903L1072.94 234.538L1073.96 235.779L1074.73 235.144L1075.5 234.509L1074.48 233.268L1073.71 233.903ZM1191.45 222.965L1191.43 221.966C1190.86 221.977 1190.29 221.983 1189.72 221.983V222.983V223.983C1190.31 223.983 1190.89 223.977 1191.47 223.965L1191.45 222.965ZM1189.72 222.983L1189.01 223.69L1189.01 223.691L1189.72 222.984L1190.43 222.277L1190.43 222.276L1189.72 222.983ZM1189.72 222.984V223.984C1190.31 223.984 1190.89 223.977 1191.47 223.965L1191.45 222.965L1191.43 221.966C1190.86 221.977 1190.29 221.984 1189.72 221.984V222.984ZM1161.61 218.189L1161.26 219.126C1161.64 219.267 1162.02 219.405 1162.4 219.54L1162.74 218.597L1163.07 217.654C1162.7 217.523 1162.33 217.389 1161.96 217.251L1161.61 218.189ZM1162.74 218.597L1163.07 217.654C1162.7 217.523 1162.33 217.389 1161.96 217.252L1161.61 218.189L1161.26 219.126C1161.64 219.267 1162.02 219.405 1162.4 219.54L1162.74 218.597ZM1159.53 217.374L1159.15 218.299C1159.54 218.457 1159.93 218.617 1160.33 218.772L1160.69 217.84L1161.05 216.908C1160.67 216.76 1160.29 216.605 1159.91 216.448L1159.53 217.374ZM1160.69 217.84L1160.33 218.772C1160.44 218.814 1160.58 218.868 1160.67 218.901L1161.03 217.967L1161.38 217.033C1161.25 216.981 1161.17 216.953 1161.05 216.908L1160.69 217.84ZM1161.03 217.967L1161.38 217.033L1161.05 216.905L1160.69 217.839L1160.33 218.774L1160.67 218.901L1161.03 217.967ZM1160.69 217.839L1161.05 216.907C1160.67 216.758 1160.29 216.604 1159.91 216.448L1159.53 217.374L1159.15 218.299C1159.54 218.458 1159.93 218.617 1160.33 218.771L1160.69 217.839ZM1159.05 217.18L1158.67 218.103C1158.8 218.157 1158.95 218.218 1159.06 218.264L1159.44 217.338L1159.82 216.413C1159.67 216.353 1159.57 216.311 1159.44 216.257L1159.05 217.18ZM1159.44 217.338L1159.82 216.413C1159.42 216.25 1159.03 216.086 1158.64 215.918L1158.24 216.836L1157.85 217.755C1158.25 217.929 1158.66 218.098 1159.06 218.264L1159.44 217.338ZM1158.24 216.836L1157.85 217.757L1158.66 218.1L1159.05 217.18L1159.44 216.26L1158.64 215.916L1158.24 216.836ZM1155.86 215.756L1155.43 216.659C1155.7 216.786 1155.96 216.91 1156.23 217.033L1156.65 216.125L1157.07 215.216C1156.81 215.096 1156.55 214.975 1156.29 214.853L1155.86 215.756ZM1156.65 216.125L1157.07 215.219L1156.28 214.85L1155.86 215.755L1155.44 216.661L1156.22 217.03L1156.65 216.125ZM1155.86 215.755L1156.29 214.853C1156.03 214.729 1155.78 214.606 1155.52 214.481L1155.08 215.378L1154.64 216.276C1154.9 216.405 1155.17 216.533 1155.43 216.658L1155.86 215.755ZM1155.08 215.378L1154.64 216.278L1155.42 216.656L1155.86 215.756L1156.3 214.856L1155.52 214.478L1155.08 215.378ZM1150.55 212.933L1150.04 213.794C1150.07 213.81 1150.09 213.825 1150.12 213.837C1150.14 213.85 1150.16 213.86 1150.17 213.869L1150.68 213.007L1151.19 212.145C1151.08 212.081 1151.14 212.122 1151.06 212.072L1150.55 212.933ZM1150.68 213.007L1151.19 212.145C1150.9 211.978 1150.62 211.81 1150.34 211.64L1149.82 212.495L1149.3 213.349C1149.59 213.525 1149.88 213.698 1150.17 213.869L1150.68 213.007ZM1149.82 212.495L1149.31 213.352L1150.04 213.79L1150.55 212.933L1151.07 212.076L1150.33 211.637L1149.82 212.495ZM1144.91 209.19L1144.32 209.993C1144.77 210.333 1145.24 210.667 1145.7 210.995L1146.28 210.177L1146.85 209.359C1146.4 209.04 1145.95 208.717 1145.51 208.387L1144.91 209.19ZM1146.28 210.177L1146.86 209.363L1146.17 208.873L1145.59 209.687L1145.01 210.501L1145.7 210.991L1146.28 210.177ZM1145.59 209.687L1146.18 208.877C1145.73 208.552 1145.29 208.223 1144.85 207.888L1144.24 208.683L1143.63 209.478C1144.09 209.824 1144.55 210.164 1145.01 210.498L1145.59 209.687ZM1144.24 208.683L1143.64 209.481L1144.31 209.988L1144.91 209.19L1145.51 208.392L1144.84 207.885L1144.24 208.683ZM1137.91 203.143L1137.2 203.85C1137.61 204.255 1138.02 204.653 1138.43 205.045L1139.12 204.32L1139.81 203.594C1139.41 203.213 1139.01 202.827 1138.62 202.436L1137.91 203.143ZM1139.12 204.32L1139.81 203.6L1139.21 203.015L1138.51 203.735L1137.82 204.455L1138.43 205.04L1139.12 204.32ZM1138.51 203.735L1139.21 203.018C1139.01 202.824 1138.81 202.63 1138.62 202.435L1137.91 203.142L1137.2 203.849C1137.41 204.052 1137.61 204.253 1137.81 204.451L1138.51 203.735ZM1137.91 203.142L1138.64 202.463C1138.46 202.259 1138.27 202.054 1138.08 201.848L1137.34 202.519L1136.6 203.19C1136.79 203.402 1136.98 203.612 1137.18 203.821L1137.91 203.142ZM1137.34 202.519L1136.6 203.194L1137.17 203.818L1137.91 203.143L1138.65 202.468L1138.08 201.844L1137.34 202.519ZM1135.67 200.605L1134.91 201.248C1135.09 201.469 1135.28 201.687 1135.46 201.903L1136.22 201.25L1136.98 200.598C1136.8 200.386 1136.62 200.174 1136.44 199.961L1135.67 200.605ZM1136.22 201.25L1136.98 200.603L1136.43 199.957L1135.67 200.605L1134.91 201.253L1135.46 201.898L1136.22 201.25ZM1135.67 200.605L1136.44 199.961C1136.26 199.748 1136.08 199.534 1135.9 199.318L1135.13 199.953L1134.36 200.587C1134.54 200.809 1134.72 201.029 1134.91 201.249L1135.67 200.605ZM1135.13 199.953L1134.36 200.591L1134.9 201.243L1135.67 200.605L1136.44 199.967L1135.9 199.314L1135.13 199.953ZM1132.03 195.888L1131.21 196.466C1131.38 196.703 1131.55 196.938 1131.72 197.171L1132.53 196.583L1133.34 195.996C1133.17 195.768 1133.01 195.539 1132.85 195.31L1132.03 195.888ZM1132.53 196.583L1133.34 196.001L1132.84 195.305L1132.03 195.887L1131.22 196.47L1131.72 197.166L1132.53 196.583ZM1132.03 195.887L1132.85 195.309C1132.68 195.078 1132.52 194.847 1132.36 194.617L1131.54 195.185L1130.71 195.754C1130.88 195.993 1131.05 196.231 1131.21 196.465L1132.03 195.887ZM1131.54 195.185L1130.72 195.759L1131.21 196.462L1132.03 195.888L1132.85 195.315L1132.36 194.612L1131.54 195.185ZM1129.19 191.565L1128.33 192.085C1128.36 192.123 1128.38 192.158 1128.4 192.189C1128.42 192.22 1128.43 192.246 1128.45 192.271L1129.3 191.749L1130.15 191.226C1130.07 191.094 1130.11 191.149 1130.04 191.045L1129.19 191.565ZM1129.3 191.749L1130.15 191.226C1129.97 190.918 1129.78 190.614 1129.6 190.308L1128.74 190.819L1127.88 191.329C1128.07 191.648 1128.26 191.963 1128.45 192.271L1129.3 191.749ZM1128.74 190.819L1127.88 191.335L1128.33 192.081L1129.19 191.565L1130.04 191.049L1129.59 190.303L1128.74 190.819ZM1401.84 177.797V178.797H1501.04V177.797V176.797H1401.84V177.797ZM1501.04 177.797H1502.04V177.796H1501.04H1500.04V177.797H1501.04ZM1501.04 177.796V176.796H1401.84V177.796V178.796H1501.04V177.796ZM1401.84 177.796H1400.84V177.797H1401.84H1402.84V177.796H1401.84ZM1118.39 141.413L1117.39 141.331C1117.38 141.433 1117.37 141.576 1117.37 141.66L1118.37 141.738L1119.36 141.815C1119.37 141.682 1119.38 141.609 1119.39 141.494L1118.39 141.413ZM1118.37 141.738L1119.36 141.815C1119.4 141.381 1119.43 140.949 1119.47 140.52L1118.48 140.428L1117.48 140.337C1117.44 140.777 1117.4 141.219 1117.37 141.66L1118.37 141.738ZM1118.48 140.428L1117.48 140.341L1117.39 141.326L1118.39 141.413L1119.39 141.5L1119.47 140.515L1118.48 140.428ZM1045.42 133.368L1044.43 133.261C1044.35 134.006 1044.28 134.753 1044.21 135.5L1045.21 135.591L1046.2 135.682C1046.27 134.942 1046.34 134.206 1046.42 133.474L1045.42 133.368ZM1045.21 135.591L1046.2 135.682C1046.27 134.942 1046.34 134.207 1046.42 133.475L1045.42 133.369L1044.43 133.262C1044.35 134.007 1044.28 134.753 1044.21 135.5L1045.21 135.591ZM1045.42 133.369H1046.42V133.368H1045.42H1044.42V133.369H1045.42ZM1247.98 103.444L1248.72 102.768L1247.92 101.897L1247.18 102.573L1246.45 103.249L1247.25 104.12L1247.98 103.444ZM1247.18 102.573L1247.92 101.893C1247.89 101.867 1247.87 101.842 1247.85 101.821C1247.83 101.798 1247.81 101.78 1247.79 101.762L1247.06 102.443L1246.33 103.124C1246.41 103.211 1246.39 103.183 1246.45 103.253L1247.18 102.573ZM1247.06 102.443L1246.33 103.124C1246.64 103.453 1246.94 103.783 1247.24 104.116L1247.98 103.444L1248.72 102.772C1248.41 102.431 1248.1 102.094 1247.79 101.761L1247.06 102.443ZM1133.03 101.911L1132.24 101.304C1132.07 101.531 1131.89 101.759 1131.73 101.987L1132.53 102.583L1133.33 103.18C1133.5 102.957 1133.66 102.736 1133.83 102.517L1133.03 101.911ZM1132.53 102.583L1133.33 103.185L1133.83 102.513L1133.03 101.912L1132.24 101.31L1131.73 101.982L1132.53 102.583ZM1133.03 101.912L1133.83 102.518C1134 102.297 1134.17 102.078 1134.33 101.863L1133.55 101.247L1132.76 100.63C1132.58 100.855 1132.41 101.081 1132.24 101.305L1133.03 101.912ZM1133.55 101.247L1132.76 100.635L1132.24 101.3L1133.03 101.911L1133.83 102.522L1134.34 101.858L1133.55 101.247ZM1135.67 98.6694L1134.92 98.0141C1134.55 98.4393 1134.18 98.8698 1133.82 99.3059L1134.59 99.9419L1135.37 100.578C1135.71 100.155 1136.07 99.7375 1136.43 99.3248L1135.67 98.6694ZM1134.59 99.9419L1135.36 100.584L1135.9 99.9439L1135.13 99.3022L1134.36 98.6606L1133.83 99.3002L1134.59 99.9419ZM1135.13 99.3022L1135.89 99.9479C1136.25 99.5296 1136.61 99.1166 1136.97 98.7093L1136.22 98.0444L1135.47 97.3795C1135.1 97.8001 1134.73 98.226 1134.37 98.6566L1135.13 99.3022ZM1136.22 98.0444L1135.47 97.3839L1134.92 98.0089L1135.67 98.6694L1136.42 99.3299L1136.97 98.7049L1136.22 98.0444ZM1238.07 93.894L1237.43 94.662C1237.86 95.0187 1238.28 95.3824 1238.71 95.7515L1239.36 94.9956L1240.02 94.2397C1239.59 93.8647 1239.15 93.4926 1238.71 93.1261L1238.07 93.894ZM1239.36 94.9956L1240.02 94.2397C1239.59 93.8645 1239.15 93.492 1238.71 93.1251L1238.07 93.8931L1237.43 94.661C1237.86 95.0179 1238.28 95.382 1238.71 95.7516L1239.36 94.9956ZM1238.07 93.8931L1237.36 94.6002L1237.36 94.6012L1238.07 93.894L1238.78 93.1869L1238.78 93.186L1238.07 93.8931ZM1235.64 91.9399L1236.26 91.1513L1236.09 91.0234L1235.48 91.812L1234.86 92.6006L1235.03 92.7285L1235.64 91.9399ZM1235.48 91.812L1236.09 91.0207C1235.92 90.89 1235.75 90.7593 1235.59 90.6364L1234.98 91.4321L1234.37 92.2278C1234.55 92.3577 1234.71 92.4784 1234.87 92.6033L1235.48 91.812ZM1234.98 91.4321L1234.37 92.2278C1234.59 92.3951 1234.81 92.5623 1235.03 92.7305L1235.64 91.9399L1236.25 91.1493C1236.03 90.9764 1235.81 90.8056 1235.59 90.6364L1234.98 91.4321ZM1161.52 80.8354L1161.17 79.899C1161.09 79.9282 1161.01 79.9604 1160.94 79.9871L1161.29 80.9224L1161.64 81.8576C1161.73 81.8265 1161.8 81.8 1161.87 81.7719L1161.52 80.8354ZM1161.29 80.9224L1161.64 81.8576C1161.99 81.7261 1162.34 81.5974 1162.69 81.4706L1162.36 80.5298L1162.02 79.589C1161.66 79.7188 1161.3 79.8512 1160.94 79.9871L1161.29 80.9224ZM1162.36 80.5298L1162.01 79.5907L1161.18 79.8964L1161.52 80.8354L1161.86 81.7745L1162.7 81.4688L1162.36 80.5298ZM1164.89 79.6704L1164.58 78.7176C1164.3 78.8094 1164.01 78.903 1163.72 78.9978L1164.04 79.9468L1164.35 80.8958C1164.63 80.8032 1164.91 80.7122 1165.19 80.6233L1164.89 79.6704ZM1164.04 79.9468L1164.35 80.8977L1165.2 80.6214L1164.89 79.6704L1164.58 78.7195L1163.73 78.9958L1164.04 79.9468ZM1164.89 79.6704L1165.19 80.6233C1165.47 80.5337 1165.75 80.4458 1166.03 80.3603L1165.74 79.4038L1165.45 78.4473C1165.16 78.5358 1164.87 78.6264 1164.59 78.7176L1164.89 79.6704ZM1165.74 79.4038L1165.44 78.4492L1164.59 78.7158L1164.89 79.6704L1165.19 80.625L1166.04 80.3584L1165.74 79.4038ZM1167.47 78.9019L1167.2 77.9384C1166.91 78.0199 1166.61 78.103 1166.32 78.1879L1166.6 79.1479L1166.88 80.108C1167.16 80.0255 1167.45 79.9446 1167.73 79.8653L1167.47 78.9019ZM1166.6 79.1479L1166.88 80.1098L1167.74 79.8637L1167.47 78.9019L1167.19 77.94L1166.33 78.1861L1166.6 79.1479ZM1167.47 78.9019L1167.73 79.8653C1168.02 79.7858 1168.31 79.708 1168.59 79.6322L1168.34 78.6655L1168.08 77.6989C1167.78 77.7771 1167.49 77.8572 1167.2 77.9384L1167.47 78.9019ZM1168.34 78.6655L1168.07 77.7005L1167.2 77.9368L1167.47 78.9019L1167.73 79.8669L1168.6 79.6306L1168.34 78.6655ZM1296.64 64.2495V65.2495H1296.64V64.2495V63.2495H1296.64V64.2495ZM1296.64 64.2495L1297.43 63.6263C1297.08 63.1898 1296.73 62.7587 1296.38 62.3318L1295.6 62.9653L1294.83 63.5989C1295.18 64.0234 1295.52 64.4466 1295.86 64.8727L1296.64 64.2495ZM1295.6 62.9653L1294.83 63.5988C1295.18 64.0225 1295.52 64.4462 1295.86 64.8727L1296.64 64.2495L1297.43 63.6263C1297.08 63.1905 1296.73 62.7594 1296.38 62.3319L1295.6 62.9653ZM1086.53 51.479L1085.86 50.7376C1085.22 51.3168 1084.58 51.9026 1083.95 52.4983L1084.63 53.2261L1085.32 53.9539C1085.94 53.3699 1086.56 52.7936 1087.2 52.2204L1086.53 51.479ZM1084.63 53.2261L1083.93 52.5094L1082.77 53.6412L1083.47 54.3579L1084.17 55.0746L1085.33 53.9427L1084.63 53.2261ZM1083.47 54.3579L1082.77 53.6455C1082.5 53.904 1082.24 54.1671 1081.99 54.42L1082.7 55.1265L1083.41 55.8329C1083.67 55.5729 1083.92 55.3209 1084.17 55.0703L1083.47 54.3579ZM1082.7 55.1265L1083.41 55.8329C1084.04 55.1982 1084.68 54.5692 1085.32 53.9482L1084.63 53.2271L1083.94 52.5059C1083.28 53.1383 1082.63 53.7773 1081.99 54.42L1082.7 55.1265ZM1084.63 53.2271L1085.32 53.9548C1085.94 53.3703 1086.57 52.7928 1087.2 52.2204L1086.53 51.479L1085.86 50.7376C1085.21 51.3176 1084.58 51.9042 1083.95 52.4993L1084.63 53.2271ZM1288.17 54.6782L1288.89 53.9804L1288.71 53.791L1287.99 54.4888L1287.27 55.1866L1287.46 55.376L1288.17 54.6782ZM1287.99 54.4888L1288.7 53.7863C1288.55 53.633 1288.39 53.4758 1288.25 53.3314L1287.54 54.0376L1286.83 54.7438C1286.99 54.9002 1287.13 55.042 1287.28 55.1912L1287.99 54.4888ZM1287.54 54.0376L1286.83 54.7438C1287.04 54.9554 1287.25 55.1669 1287.46 55.3791L1288.17 54.6782L1288.89 53.9773C1288.67 53.7605 1288.46 53.5453 1288.25 53.3314L1287.54 54.0376ZM1127.86 26.2739L1127.5 25.3406C1127.11 25.4918 1126.72 25.6463 1126.33 25.7979L1126.7 26.728L1127.07 27.6582C1127.45 27.5054 1127.83 27.3545 1128.22 27.2072L1127.86 26.2739ZM1126.7 26.728L1127.07 27.6582C1127.52 27.4787 1127.98 27.301 1128.43 27.1254L1128.07 26.1919L1127.72 25.2584C1127.25 25.4364 1126.79 25.6164 1126.33 25.7979L1126.7 26.728ZM1128.07 26.1919L1127.72 25.2566L1127.5 25.3386L1127.86 26.2739L1128.21 27.2092L1128.43 27.1272L1128.07 26.1919ZM1188.26 15.7603L1188.25 16.7602C1189.71 16.7762 1191.16 16.8075 1192.59 16.8554L1192.62 15.856L1192.66 14.8565C1191.21 14.8081 1189.75 14.7765 1188.28 14.7603L1188.26 15.7603ZM1192.62 15.856L1192.66 14.8565C1191.21 14.8081 1189.75 14.7756 1188.28 14.7593L1188.26 15.7593L1188.25 16.7592C1189.71 16.7753 1191.15 16.8075 1192.59 16.8554L1192.62 15.856ZM1188.26 15.7593L1188.27 14.7593L1186.05 14.7476L1186.04 15.7476L1186.04 16.7475L1188.26 16.7593L1188.26 15.7593ZM1186.04 15.7476L1186.04 16.7475L1188.26 16.7602L1188.26 15.7603L1188.27 14.7603L1186.05 14.7476L1186.04 15.7476Z" fill="url(#paint1_linear_6061_1071)" mask="url(#path-1-outside-1_6061_1071)"/>
<defs>
<radialGradient id="paint0_radial_6061_1071" cx="0" cy="0" r="1" gradientUnits="userSpaceOnUse" gradientTransform="translate(924.412 30.3125) rotate(92.5363) scale(307.258 767.073)">
<stop stop-color="#0A121D"/>
<stop offset="1"/>
</radialGradient>
<linearGradient id="paint1_linear_6061_1071" x1="940.849" y1="-172.949" x2="959.777" y2="335.118" gradientUnits="userSpaceOnUse">
<stop stop-color="#C3DEFF" stop-opacity="0.93"/>
<stop offset="0.942308" stop-opacity="0.14"/>
</linearGradient>
</defs>
</svg>
