<svg width="1280" height="299" viewBox="0 0 1280 299" fill="none" xmlns="http://www.w3.org/2000/svg">
<mask id="path-1-outside-1_6070_1162" maskUnits="userSpaceOnUse" x="24.2031" y="13.7476" width="1232" height="272" fill="black">
<rect fill="white" x="24.2031" y="13.7476" width="1232" height="272"/>
<path d="M99.9561 161.262C99.9561 183.216 104.232 198.706 112.552 207.984L112.957 208.417C121.516 217.442 133.1 221.992 147.826 221.992C162.786 221.992 174.375 217.297 182.724 207.994L183.11 207.554C191.181 198.231 195.328 182.881 195.328 161.262V19.8999H268.979V163.466C268.978 201.869 258.264 231.676 236.71 252.735C215.164 273.785 185.246 284.252 147.091 284.252C109.532 284.252 79.954 274.11 58.4873 253.714L57.4717 252.735C35.9171 231.676 25.2032 201.869 25.2031 163.466V19.8999H99.9561V161.262ZM866.047 14.7476C889.925 14.7476 911.258 18.933 930.022 27.3276H930.021C949.025 35.7194 964.832 47.8204 977.428 63.6265L978.014 64.3608L977.317 64.9917L931.02 106.879L930.255 107.572L929.587 106.786C921.332 97.0737 912.246 89.6902 902.335 84.6138L902.326 84.6099C892.686 79.5489 881.824 77.0073 869.721 77.0073C859.623 77.0074 850.344 78.5999 841.873 81.772L841.056 82.0835C832.368 85.4619 824.897 90.4029 818.632 96.9087L818.633 96.9097C812.606 103.178 807.772 110.784 804.141 119.742C800.765 128.672 799.07 138.586 799.07 149.496C799.07 160.413 800.768 170.335 804.148 179.27C807.778 188.216 812.609 195.938 818.633 202.448C824.896 208.707 832.366 213.528 841.056 216.908L841.873 217.219C850.344 220.391 859.623 221.984 869.721 221.984C881.824 221.984 892.686 219.443 902.326 214.382L902.335 214.377L903.262 213.895C912.813 208.838 921.59 201.615 929.587 192.207L930.255 191.42L931.02 192.112L977.317 234L978.019 234.635L977.423 235.372C964.828 250.93 949.024 263.027 930.027 271.662L930.022 271.664C911.258 280.058 889.926 284.244 866.047 284.244C845.61 284.244 826.63 281.042 809.117 274.629L809.108 274.626L809.101 274.624C791.839 267.965 776.784 258.589 763.947 246.493L763.94 246.486C751.352 234.39 741.478 220.196 734.322 203.912L734.32 203.907C727.157 187.358 723.582 169.216 723.582 149.496C723.582 129.776 727.157 111.755 734.322 95.4478C741.477 78.9197 751.35 64.6022 763.94 52.5054L763.947 52.4985L765.157 51.3726C777.324 40.1965 791.442 31.5194 807.5 25.3403L809.112 24.731C826.626 18.0719 845.608 14.7476 866.047 14.7476ZM377.927 20.2622L489.695 155.194V19.8999H562.979V279.108H501.616L501.316 278.746L389.547 143.811V279.108H316.264V19.8999H377.627L377.927 20.2622ZM687.05 279.108H612.297V19.8999H687.05V279.108ZM1082.84 116.537H1180.05V19.8999H1254.8V279.108H1180.05V178.797H1082.84V279.108H1008.08V19.8999H1082.84V116.537ZM388.548 141.039L502.086 278.108L388.548 141.037V141.039ZM812.667 274.823C812.13 274.64 811.594 274.455 811.06 274.266L811.045 274.261C811.584 274.452 812.125 274.638 812.667 274.823ZM794.031 266.702C794.75 267.08 795.475 267.45 796.203 267.816C795.421 267.422 794.644 267.023 793.872 266.617L794.031 266.702ZM773.309 253.255C773.737 253.594 774.168 253.93 774.601 254.263L773.31 253.255C772.881 252.917 772.455 252.576 772.031 252.233L773.309 253.255ZM236.011 252.02C235.383 252.633 234.747 253.236 234.105 253.831C234.407 253.551 234.708 253.271 235.007 252.988L236.012 252.02C236.341 251.698 236.668 251.374 236.992 251.047L236.011 252.02ZM768.273 249.071C768.684 249.43 769.098 249.786 769.514 250.14L768.274 249.071C767.863 248.711 767.455 248.349 767.048 247.985L768.273 249.071ZM754.731 235.144C755.074 235.556 755.42 235.965 755.769 236.373L754.732 235.144C754.389 234.732 754.049 234.319 753.711 233.903L754.731 235.144ZM871.454 222.965C870.879 222.977 870.301 222.983 869.721 222.983L869.722 222.984C870.302 222.984 870.879 222.977 871.454 222.965ZM841.613 218.189C841.987 218.328 842.362 218.464 842.738 218.597C842.362 218.464 841.987 218.328 841.613 218.189ZM839.529 217.374C839.915 217.531 840.303 217.688 840.693 217.84C840.805 217.884 840.917 217.925 841.028 217.967L840.693 217.839C840.303 217.687 839.915 217.531 839.529 217.374ZM839.055 217.18C839.183 217.234 839.313 217.285 839.442 217.338C839.041 217.174 838.642 217.007 838.246 216.836L839.055 217.18ZM835.862 215.756C836.123 215.881 836.386 216.003 836.649 216.125L835.862 215.755C835.601 215.631 835.341 215.506 835.082 215.378L835.862 215.756ZM830.553 212.933C830.595 212.958 830.638 212.982 830.681 213.007C830.393 212.838 830.107 212.668 829.822 212.495L830.553 212.933ZM824.914 209.19C825.365 209.525 825.821 209.854 826.281 210.177L825.595 209.687C825.139 209.358 824.688 209.024 824.242 208.683L824.914 209.19ZM817.912 203.143C818.31 203.541 818.713 203.933 819.121 204.32L818.514 203.735C818.312 203.539 818.111 203.341 817.912 203.142C817.721 202.936 817.531 202.728 817.342 202.519L817.912 203.143ZM815.673 200.605C815.855 200.821 816.038 201.036 816.223 201.25L815.674 200.605C815.492 200.389 815.311 200.171 815.132 199.953L815.673 200.605ZM812.031 195.888C812.196 196.121 812.363 196.353 812.53 196.583L812.031 195.887C811.866 195.654 811.702 195.42 811.539 195.185L812.031 195.888ZM809.189 191.565C809.227 191.627 809.266 191.687 809.304 191.749C809.115 191.44 808.926 191.131 808.74 190.819L809.189 191.565ZM1081.84 177.797H1181.05V177.796H1081.84V177.797ZM798.392 141.413C798.383 141.521 798.376 141.629 798.367 141.738C798.401 141.3 798.438 140.863 798.478 140.428L798.392 141.413ZM725.426 133.368C725.347 134.106 725.275 134.847 725.207 135.591C725.275 134.848 725.347 134.107 725.426 133.369V133.368ZM927.984 103.444L927.186 102.573C927.145 102.529 927.104 102.486 927.063 102.443C927.372 102.774 927.679 103.107 927.984 103.444ZM813.036 101.911C812.866 102.134 812.698 102.358 812.53 102.583L813.036 101.912C813.206 101.689 813.377 101.467 813.549 101.247L813.036 101.911ZM815.673 98.6694C815.309 99.0884 814.951 99.5124 814.597 99.9419L815.132 99.3022C815.491 98.8778 815.854 98.4584 816.223 98.0444L815.673 98.6694ZM918.072 93.894C918.506 94.2556 918.937 94.6235 919.366 94.9956C918.936 94.6232 918.505 94.255 918.071 93.8931L918.072 93.894ZM915.645 91.9399L915.48 91.812C915.315 91.6842 915.148 91.5585 914.982 91.4321C915.203 91.6004 915.424 91.7694 915.645 91.9399ZM841.522 80.8354C841.446 80.8641 841.369 80.8934 841.293 80.9224C841.646 80.7886 842.001 80.6581 842.357 80.5298L841.522 80.8354ZM844.89 79.6704C844.606 79.7608 844.323 79.8531 844.041 79.9468L844.891 79.6704C845.174 79.5801 845.459 79.4908 845.744 79.4038L844.89 79.6704ZM847.468 78.9019C847.179 78.9822 846.891 79.0642 846.604 79.1479L847.469 78.9019C847.758 78.8215 848.047 78.7425 848.338 78.6655L847.468 78.9019ZM976.646 64.2495H976.646C976.303 63.8182 975.955 63.391 975.606 62.9653C975.955 63.3909 976.302 63.8184 976.646 64.2495ZM766.528 51.479C765.892 52.0552 765.259 52.6363 764.633 53.2261L763.47 54.3579C763.211 54.6124 762.956 54.87 762.7 55.1265C763.338 54.4878 763.982 53.8537 764.634 53.2271C765.26 52.6373 765.892 52.0552 766.528 51.479ZM968.176 54.6782L967.991 54.4888C967.842 54.3375 967.691 54.188 967.541 54.0376C967.753 54.2504 967.965 54.4637 968.176 54.6782ZM807.859 26.2739C807.472 26.4232 807.086 26.5759 806.7 26.728C807.157 26.5476 807.616 26.3687 808.076 26.1919L807.859 26.2739ZM868.267 15.7603C869.73 15.7764 871.183 15.8078 872.626 15.856C871.183 15.8078 869.729 15.7754 868.267 15.7593L866.047 15.7476L868.267 15.7603Z"/>
</mask>
<path d="M99.9561 161.262C99.9561 183.216 104.232 198.706 112.552 207.984L112.957 208.417C121.516 217.442 133.1 221.992 147.826 221.992C162.786 221.992 174.375 217.297 182.724 207.994L183.11 207.554C191.181 198.231 195.328 182.881 195.328 161.262V19.8999H268.979V163.466C268.978 201.869 258.264 231.676 236.71 252.735C215.164 273.785 185.246 284.252 147.091 284.252C109.532 284.252 79.954 274.11 58.4873 253.714L57.4717 252.735C35.9171 231.676 25.2032 201.869 25.2031 163.466V19.8999H99.9561V161.262ZM866.047 14.7476C889.925 14.7476 911.258 18.933 930.022 27.3276H930.021C949.025 35.7194 964.832 47.8204 977.428 63.6265L978.014 64.3608L977.317 64.9917L931.02 106.879L930.255 107.572L929.587 106.786C921.332 97.0737 912.246 89.6902 902.335 84.6138L902.326 84.6099C892.686 79.5489 881.824 77.0073 869.721 77.0073C859.623 77.0074 850.344 78.5999 841.873 81.772L841.056 82.0835C832.368 85.4619 824.897 90.4029 818.632 96.9087L818.633 96.9097C812.606 103.178 807.772 110.784 804.141 119.742C800.765 128.672 799.07 138.586 799.07 149.496C799.07 160.413 800.768 170.335 804.148 179.27C807.778 188.216 812.609 195.938 818.633 202.448C824.896 208.707 832.366 213.528 841.056 216.908L841.873 217.219C850.344 220.391 859.623 221.984 869.721 221.984C881.824 221.984 892.686 219.443 902.326 214.382L902.335 214.377L903.262 213.895C912.813 208.838 921.59 201.615 929.587 192.207L930.255 191.42L931.02 192.112L977.317 234L978.019 234.635L977.423 235.372C964.828 250.93 949.024 263.027 930.027 271.662L930.022 271.664C911.258 280.058 889.926 284.244 866.047 284.244C845.61 284.244 826.63 281.042 809.117 274.629L809.108 274.626L809.101 274.624C791.839 267.965 776.784 258.589 763.947 246.493L763.94 246.486C751.352 234.39 741.478 220.196 734.322 203.912L734.32 203.907C727.157 187.358 723.582 169.216 723.582 149.496C723.582 129.776 727.157 111.755 734.322 95.4478C741.477 78.9197 751.35 64.6022 763.94 52.5054L763.947 52.4985L765.157 51.3726C777.324 40.1965 791.442 31.5194 807.5 25.3403L809.112 24.731C826.626 18.0719 845.608 14.7476 866.047 14.7476ZM377.927 20.2622L489.695 155.194V19.8999H562.979V279.108H501.616L501.316 278.746L389.547 143.811V279.108H316.264V19.8999H377.627L377.927 20.2622ZM687.05 279.108H612.297V19.8999H687.05V279.108ZM1082.84 116.537H1180.05V19.8999H1254.8V279.108H1180.05V178.797H1082.84V279.108H1008.08V19.8999H1082.84V116.537ZM388.548 141.039L502.086 278.108L388.548 141.037V141.039ZM812.667 274.823C812.13 274.64 811.594 274.455 811.06 274.266L811.045 274.261C811.584 274.452 812.125 274.638 812.667 274.823ZM794.031 266.702C794.75 267.08 795.475 267.45 796.203 267.816C795.421 267.422 794.644 267.023 793.872 266.617L794.031 266.702ZM773.309 253.255C773.737 253.594 774.168 253.93 774.601 254.263L773.31 253.255C772.881 252.917 772.455 252.576 772.031 252.233L773.309 253.255ZM236.011 252.02C235.383 252.633 234.747 253.236 234.105 253.831C234.407 253.551 234.708 253.271 235.007 252.988L236.012 252.02C236.341 251.698 236.668 251.374 236.992 251.047L236.011 252.02ZM768.273 249.071C768.684 249.43 769.098 249.786 769.514 250.14L768.274 249.071C767.863 248.711 767.455 248.349 767.048 247.985L768.273 249.071ZM754.731 235.144C755.074 235.556 755.42 235.965 755.769 236.373L754.732 235.144C754.389 234.732 754.049 234.319 753.711 233.903L754.731 235.144ZM871.454 222.965C870.879 222.977 870.301 222.983 869.721 222.983L869.722 222.984C870.302 222.984 870.879 222.977 871.454 222.965ZM841.613 218.189C841.987 218.328 842.362 218.464 842.738 218.597C842.362 218.464 841.987 218.328 841.613 218.189ZM839.529 217.374C839.915 217.531 840.303 217.688 840.693 217.84C840.805 217.884 840.917 217.925 841.028 217.967L840.693 217.839C840.303 217.687 839.915 217.531 839.529 217.374ZM839.055 217.18C839.183 217.234 839.313 217.285 839.442 217.338C839.041 217.174 838.642 217.007 838.246 216.836L839.055 217.18ZM835.862 215.756C836.123 215.881 836.386 216.003 836.649 216.125L835.862 215.755C835.601 215.631 835.341 215.506 835.082 215.378L835.862 215.756ZM830.553 212.933C830.595 212.958 830.638 212.982 830.681 213.007C830.393 212.838 830.107 212.668 829.822 212.495L830.553 212.933ZM824.914 209.19C825.365 209.525 825.821 209.854 826.281 210.177L825.595 209.687C825.139 209.358 824.688 209.024 824.242 208.683L824.914 209.19ZM817.912 203.143C818.31 203.541 818.713 203.933 819.121 204.32L818.514 203.735C818.312 203.539 818.111 203.341 817.912 203.142C817.721 202.936 817.531 202.728 817.342 202.519L817.912 203.143ZM815.673 200.605C815.855 200.821 816.038 201.036 816.223 201.25L815.674 200.605C815.492 200.389 815.311 200.171 815.132 199.953L815.673 200.605ZM812.031 195.888C812.196 196.121 812.363 196.353 812.53 196.583L812.031 195.887C811.866 195.654 811.702 195.42 811.539 195.185L812.031 195.888ZM809.189 191.565C809.227 191.627 809.266 191.687 809.304 191.749C809.115 191.44 808.926 191.131 808.74 190.819L809.189 191.565ZM1081.84 177.797H1181.05V177.796H1081.84V177.797ZM798.392 141.413C798.383 141.521 798.376 141.629 798.367 141.738C798.401 141.3 798.438 140.863 798.478 140.428L798.392 141.413ZM725.426 133.368C725.347 134.106 725.275 134.847 725.207 135.591C725.275 134.848 725.347 134.107 725.426 133.369V133.368ZM927.984 103.444L927.186 102.573C927.145 102.529 927.104 102.486 927.063 102.443C927.372 102.774 927.679 103.107 927.984 103.444ZM813.036 101.911C812.866 102.134 812.698 102.358 812.53 102.583L813.036 101.912C813.206 101.689 813.377 101.467 813.549 101.247L813.036 101.911ZM815.673 98.6694C815.309 99.0884 814.951 99.5124 814.597 99.9419L815.132 99.3022C815.491 98.8778 815.854 98.4584 816.223 98.0444L815.673 98.6694ZM918.072 93.894C918.506 94.2556 918.937 94.6235 919.366 94.9956C918.936 94.6232 918.505 94.255 918.071 93.8931L918.072 93.894ZM915.645 91.9399L915.48 91.812C915.315 91.6842 915.148 91.5585 914.982 91.4321C915.203 91.6004 915.424 91.7694 915.645 91.9399ZM841.522 80.8354C841.446 80.8641 841.369 80.8934 841.293 80.9224C841.646 80.7886 842.001 80.6581 842.357 80.5298L841.522 80.8354ZM844.89 79.6704C844.606 79.7608 844.323 79.8531 844.041 79.9468L844.891 79.6704C845.174 79.5801 845.459 79.4908 845.744 79.4038L844.89 79.6704ZM847.468 78.9019C847.179 78.9822 846.891 79.0642 846.604 79.1479L847.469 78.9019C847.758 78.8215 848.047 78.7425 848.338 78.6655L847.468 78.9019ZM976.646 64.2495H976.646C976.303 63.8182 975.955 63.391 975.606 62.9653C975.955 63.3909 976.302 63.8184 976.646 64.2495ZM766.528 51.479C765.892 52.0552 765.259 52.6363 764.633 53.2261L763.47 54.3579C763.211 54.6124 762.956 54.87 762.7 55.1265C763.338 54.4878 763.982 53.8537 764.634 53.2271C765.26 52.6373 765.892 52.0552 766.528 51.479ZM968.176 54.6782L967.991 54.4888C967.842 54.3375 967.691 54.188 967.541 54.0376C967.753 54.2504 967.965 54.4637 968.176 54.6782ZM807.859 26.2739C807.472 26.4232 807.086 26.5759 806.7 26.728C807.157 26.5476 807.616 26.3687 808.076 26.1919L807.859 26.2739ZM868.267 15.7603C869.73 15.7764 871.183 15.8078 872.626 15.856C871.183 15.8078 869.729 15.7754 868.267 15.7593L866.047 15.7476L868.267 15.7603Z" fill="url(#paint0_radial_6070_1162)"/>
<path d="M99.9561 161.262H98.9561H99.9561ZM112.552 207.984L111.807 208.651C111.812 208.657 111.817 208.662 111.822 208.668L112.552 207.984ZM112.957 208.417L112.227 209.1L112.231 209.105L112.957 208.417ZM147.826 221.992V222.992H147.826L147.826 221.992ZM182.724 207.994L183.468 208.662L183.474 208.654L182.724 207.994ZM183.11 207.554L183.861 208.215L183.866 208.209L183.11 207.554ZM195.328 161.262H196.328H195.328ZM195.328 19.8999V18.8999C194.776 18.8999 194.328 19.3476 194.328 19.8999H195.328ZM268.979 19.8999H269.979C269.979 19.3476 269.531 18.8999 268.979 18.8999V19.8999ZM268.979 163.466H269.979H268.979ZM236.71 252.735L237.409 253.45L236.71 252.735ZM147.091 284.252V285.252V284.252ZM58.4873 253.714L57.7931 254.434L57.7985 254.439L58.4873 253.714ZM57.4717 252.735L56.7728 253.45L56.7775 253.455L57.4717 252.735ZM25.2031 163.466H24.2031H25.2031ZM25.2031 19.8999V18.8999C24.6508 18.8999 24.2031 19.3476 24.2031 19.8999H25.2031ZM99.9561 19.8999H100.956C100.956 19.3476 100.508 18.8999 99.9561 18.8999V19.8999ZM866.047 14.7476V13.7476V14.7476ZM930.022 27.3276V28.3276C930.494 28.3276 930.902 27.9978 931 27.5364C931.099 27.075 930.862 26.6075 930.431 26.4148L930.022 27.3276ZM930.021 27.3276V26.3276C929.549 26.3276 929.141 26.6587 929.043 27.1212C928.945 27.5838 929.185 28.0514 929.618 28.2424L930.021 27.3276ZM977.428 63.6265L976.646 64.2497L976.646 64.2501L977.428 63.6265ZM978.014 64.3608L978.685 65.1019C979.076 64.7474 979.125 64.1499 978.795 63.7372L978.014 64.3608ZM977.317 64.9917L977.988 65.7332L977.989 65.7328L977.317 64.9917ZM931.02 106.879L930.349 106.138L930.348 106.138L931.02 106.879ZM930.255 107.572L929.493 108.219C929.668 108.426 929.919 108.552 930.19 108.57C930.46 108.587 930.725 108.495 930.926 108.313L930.255 107.572ZM929.587 106.786L930.349 106.138L930.349 106.138L929.587 106.786ZM902.335 84.6138L902.791 83.7237C902.774 83.7153 902.758 83.7074 902.741 83.7L902.335 84.6138ZM902.326 84.6099L901.861 85.4953C901.881 85.5054 901.9 85.5148 901.92 85.5237L902.326 84.6099ZM869.721 77.0073V76.0073V77.0073ZM841.873 81.772L841.522 80.8355L841.517 80.8375L841.873 81.772ZM841.056 82.0835L840.7 81.149L840.693 81.1515L841.056 82.0835ZM818.632 96.9087L817.911 96.215C817.534 96.6076 817.539 97.2305 817.925 97.6158L818.632 96.9087ZM818.633 96.9097L819.354 97.6028C819.731 97.2102 819.725 96.5877 819.34 96.2026L818.633 96.9097ZM804.141 119.742L803.214 119.366C803.211 119.373 803.208 119.381 803.205 119.388L804.141 119.742ZM799.07 149.496H798.07H799.07ZM804.148 179.27L803.213 179.624C803.216 179.631 803.219 179.639 803.222 179.646L804.148 179.27ZM818.633 202.448L817.899 203.127C817.908 203.136 817.917 203.146 817.926 203.155L818.633 202.448ZM841.056 216.908L840.693 217.84L840.7 217.842L841.056 216.908ZM841.873 217.219L841.517 218.154L841.522 218.156L841.873 217.219ZM869.721 221.984V222.984V221.984ZM902.326 214.382L902.791 215.268C902.798 215.264 902.805 215.26 902.812 215.256L902.326 214.382ZM902.335 214.377L901.873 213.49C901.865 213.495 901.857 213.499 901.849 213.503L902.335 214.377ZM903.262 213.895L903.723 214.782L903.73 214.779L903.262 213.895ZM929.587 192.207L930.349 192.854L930.349 192.854L929.587 192.207ZM930.255 191.42L930.926 190.679C930.725 190.497 930.459 190.405 930.189 190.423C929.919 190.44 929.668 190.567 929.493 190.773L930.255 191.42ZM931.02 192.112L931.69 191.37L931.69 191.37L931.02 192.112ZM977.317 234L977.989 233.259L977.988 233.259L977.317 234ZM978.019 234.635L978.796 235.264C979.13 234.852 979.083 234.25 978.69 233.894L978.019 234.635ZM977.423 235.372L978.2 236.001L978.2 236.001L977.423 235.372ZM930.027 271.662L930.399 272.59C930.413 272.584 930.427 272.578 930.441 272.572L930.027 271.662ZM930.022 271.664L929.651 270.735C929.639 270.74 929.626 270.745 929.614 270.751L930.022 271.664ZM866.047 284.244V285.244V284.244ZM809.117 274.629L809.461 273.69C809.452 273.687 809.443 273.684 809.433 273.681L809.117 274.629ZM809.108 274.626L808.757 275.563C808.769 275.567 808.78 275.571 808.792 275.575L809.108 274.626ZM809.101 274.624L808.741 275.557L808.749 275.56L809.101 274.624ZM763.947 246.493L763.24 247.2C763.247 247.207 763.254 247.214 763.261 247.22L763.947 246.493ZM763.94 246.486L764.648 245.779C764.643 245.774 764.638 245.769 764.633 245.765L763.94 246.486ZM734.322 203.912L733.394 204.283C733.398 204.293 733.402 204.304 733.407 204.314L734.322 203.912ZM734.32 203.907L735.249 203.535C735.245 203.527 735.242 203.518 735.238 203.51L734.32 203.907ZM723.582 149.496H722.582H723.582ZM734.322 95.4478L735.238 95.85L735.24 95.845L734.322 95.4478ZM763.94 52.5054L764.633 53.2265C764.638 53.2219 764.643 53.2172 764.648 53.2125L763.94 52.5054ZM763.947 52.4985L763.266 51.7665C763.257 51.7746 763.249 51.783 763.24 51.7914L763.947 52.4985ZM765.157 51.3726L764.481 50.6361L764.476 50.6405L765.157 51.3726ZM807.5 25.3403L807.146 24.4049L807.141 24.407L807.5 25.3403ZM809.112 24.731L809.466 25.6664L809.468 25.6657L809.112 24.731ZM377.927 20.2622L377.156 20.8997L377.157 20.9001L377.927 20.2622ZM489.695 155.194L488.925 155.832C489.194 156.156 489.638 156.278 490.034 156.135C490.431 155.992 490.695 155.615 490.695 155.194H489.695ZM489.695 19.8999V18.8999C489.143 18.8999 488.695 19.3476 488.695 19.8999H489.695ZM562.979 19.8999H563.979C563.979 19.3476 563.531 18.8999 562.979 18.8999V19.8999ZM562.979 279.108V280.108C563.531 280.108 563.979 279.66 563.979 279.108H562.979ZM501.616 279.108L500.846 279.745C501.036 279.975 501.318 280.108 501.616 280.108V279.108ZM501.316 278.746L502.087 278.108L502.087 278.108L501.316 278.746ZM389.547 143.811L390.317 143.173C390.048 142.848 389.604 142.727 389.208 142.87C388.811 143.013 388.547 143.389 388.547 143.811H389.547ZM389.547 279.108V280.108C390.099 280.108 390.547 279.66 390.547 279.108H389.547ZM316.264 279.108H315.264C315.264 279.66 315.711 280.108 316.264 280.108V279.108ZM316.264 19.8999V18.8999C315.711 18.8999 315.264 19.3476 315.264 19.8999H316.264ZM377.627 19.8999L378.397 19.2624C378.207 19.0328 377.925 18.8999 377.627 18.8999V19.8999ZM687.05 279.108V280.108C687.602 280.108 688.05 279.66 688.05 279.108H687.05ZM612.297 279.108H611.297C611.297 279.66 611.745 280.108 612.297 280.108V279.108ZM612.297 19.8999V18.8999C611.745 18.8999 611.297 19.3476 611.297 19.8999H612.297ZM687.05 19.8999H688.05C688.05 19.3476 687.602 18.8999 687.05 18.8999V19.8999ZM1082.84 116.537H1081.84C1081.84 117.089 1082.29 117.537 1082.84 117.537V116.537ZM1180.05 116.537V117.537C1180.6 117.537 1181.05 117.089 1181.05 116.537H1180.05ZM1180.05 19.8999V18.8999C1179.49 18.8999 1179.05 19.3476 1179.05 19.8999H1180.05ZM1254.8 19.8999H1255.8C1255.8 19.3476 1255.35 18.8999 1254.8 18.8999V19.8999ZM1254.8 279.108V280.108C1255.35 280.108 1255.8 279.66 1255.8 279.108H1254.8ZM1180.05 279.108H1179.05C1179.05 279.66 1179.49 280.108 1180.05 280.108V279.108ZM1180.05 178.797H1181.05C1181.05 178.245 1180.6 177.797 1180.05 177.797V178.797ZM1082.84 178.797V177.797C1082.29 177.797 1081.84 178.245 1081.84 178.797H1082.84ZM1082.84 279.108V280.108C1083.39 280.108 1083.84 279.66 1083.84 279.108H1082.84ZM1008.08 279.108H1007.08C1007.08 279.66 1007.53 280.108 1008.08 280.108V279.108ZM1008.08 19.8999V18.8999C1007.53 18.8999 1007.08 19.3476 1007.08 19.8999H1008.08ZM1082.84 19.8999H1083.84C1083.84 19.3476 1083.39 18.8999 1082.84 18.8999V19.8999ZM388.548 141.039H387.548C387.548 141.271 387.629 141.497 387.778 141.676L388.548 141.039ZM502.086 278.108L501.316 278.746C501.668 279.171 502.299 279.23 502.724 278.878C503.149 278.526 503.208 277.895 502.856 277.47L502.086 278.108ZM388.548 141.037L389.318 140.399C389.049 140.074 388.605 139.953 388.209 140.096C387.812 140.239 387.548 140.615 387.548 141.037H388.548ZM812.345 275.769C812.868 275.947 813.436 275.668 813.614 275.145C813.792 274.622 813.512 274.054 812.989 273.876L812.345 275.769ZM811.06 274.266L811.392 273.323C811.387 273.321 811.381 273.319 811.376 273.317L811.06 274.266ZM811.045 274.261L811.361 273.313C810.841 273.139 810.277 273.417 810.099 273.937C809.921 274.456 810.194 275.021 810.712 275.204L811.045 274.261ZM794.031 266.702L793.56 267.584L793.566 267.587L794.031 266.702ZM796.203 267.816L795.754 268.709C796.247 268.957 796.848 268.759 797.096 268.265C797.345 267.772 797.146 267.171 796.653 266.923L796.203 267.816ZM793.872 266.617L794.338 265.732C793.851 265.475 793.247 265.661 792.989 266.148C792.73 266.635 792.915 267.239 793.401 267.499L793.872 266.617ZM773.309 253.255L772.684 254.036L772.689 254.04L773.309 253.255ZM774.601 254.263L773.991 255.056C774.427 255.392 775.053 255.311 775.391 254.876C775.729 254.44 775.65 253.814 775.216 253.475L774.601 254.263ZM773.31 253.255L772.69 254.04L772.694 254.044L773.31 253.255ZM772.031 252.233L772.656 251.452C772.226 251.108 771.598 251.176 771.252 251.606C770.907 252.035 770.974 252.663 771.402 253.01L772.031 252.233ZM236.011 252.02L236.71 252.735L236.715 252.73L236.011 252.02ZM234.105 253.831L233.426 253.097C233.021 253.472 232.997 254.105 233.372 254.51C233.747 254.915 234.38 254.939 234.785 254.564L234.105 253.831ZM235.007 252.988L235.696 253.713L235.701 253.708L235.007 252.988ZM236.012 252.02L236.705 252.74L236.711 252.735L236.012 252.02ZM236.992 251.047L237.702 251.752C238.09 251.361 238.089 250.73 237.7 250.341C237.311 249.951 236.679 249.949 236.288 250.337L236.992 251.047ZM768.273 249.071L767.61 249.819L767.615 249.824L768.273 249.071ZM769.514 250.14L768.865 250.901C769.284 251.259 769.914 251.21 770.273 250.791C770.632 250.373 770.584 249.743 770.167 249.383L769.514 250.14ZM768.274 249.071L767.616 249.824L767.621 249.828L768.274 249.071ZM767.048 247.985L767.711 247.236C767.299 246.871 766.668 246.908 766.301 247.32C765.935 247.731 765.97 248.362 766.38 248.729L767.048 247.985ZM754.731 235.144L753.959 235.779L753.963 235.784L754.731 235.144ZM755.769 236.373L755.008 237.022C755.366 237.441 755.996 237.492 756.416 237.135C756.836 236.778 756.888 236.149 756.533 235.728L755.769 236.373ZM754.732 235.144L753.964 235.784L753.968 235.789L754.732 235.144ZM753.711 233.903L754.483 233.268C754.133 232.842 753.505 232.78 753.078 233.129C752.651 233.477 752.587 234.106 752.935 234.533L753.711 233.903ZM871.474 223.965C872.026 223.954 872.465 223.497 872.454 222.945C872.443 222.393 871.986 221.954 871.434 221.966L871.474 223.965ZM869.721 222.983V221.983C869.316 221.983 868.952 222.227 868.797 222.6C868.642 222.974 868.728 223.404 869.014 223.69L869.721 222.983ZM869.722 222.984L869.015 223.691C869.202 223.879 869.456 223.984 869.722 223.984V222.984ZM841.613 218.189L841.961 217.251C841.444 217.059 840.868 217.323 840.676 217.84C840.484 218.358 840.747 218.933 841.264 219.126L841.613 218.189ZM842.405 219.54C842.925 219.724 843.497 219.451 843.681 218.931C843.865 218.41 843.592 217.839 843.072 217.654L842.405 219.54ZM839.529 217.374L839.908 216.448C839.396 216.239 838.813 216.484 838.604 216.995C838.395 217.506 838.64 218.09 839.151 218.299L839.529 217.374ZM840.693 217.84L840.331 218.772L840.693 217.84ZM841.028 217.967L840.672 218.901C841.187 219.099 841.765 218.84 841.962 218.324C842.16 217.808 841.901 217.23 841.385 217.033L841.028 217.967ZM840.693 217.839L840.331 218.771L840.337 218.774L840.693 217.839ZM839.055 217.18L838.663 218.1L838.67 218.103L839.055 217.18ZM839.442 217.338L839.063 218.264C839.574 218.473 840.158 218.229 840.368 217.718C840.577 217.207 840.333 216.623 839.822 216.413L839.442 217.338ZM838.246 216.836L838.637 215.916C838.13 215.7 837.544 215.936 837.327 216.443C837.11 216.95 837.344 217.536 837.85 217.755L838.246 216.836ZM835.862 215.756L835.426 216.656L835.432 216.659L835.862 215.756ZM836.649 216.125L836.231 217.033C836.731 217.263 837.324 217.046 837.556 216.546C837.789 216.047 837.573 215.453 837.074 215.219L836.649 216.125ZM835.862 215.755L835.432 216.658L835.438 216.661L835.862 215.755ZM835.082 215.378L835.518 214.478C835.022 214.238 834.425 214.445 834.183 214.94C833.942 215.435 834.146 216.033 834.641 216.276L835.082 215.378ZM830.553 212.933L830.038 213.791L830.044 213.794L830.553 212.933ZM830.681 213.007L830.174 213.869C830.65 214.149 831.263 213.99 831.543 213.514C831.823 213.038 831.664 212.425 831.188 212.145L830.681 213.007ZM829.822 212.495L830.337 211.637C829.864 211.354 829.252 211.506 828.966 211.977C828.681 212.449 828.832 213.062 829.302 213.349L829.822 212.495ZM824.914 209.19L824.312 209.988L824.318 209.993L824.914 209.19ZM826.281 210.177L825.706 210.995C826.157 211.312 826.779 211.205 827.097 210.755C827.416 210.306 827.311 209.684 826.862 209.363L826.281 210.177ZM825.595 209.687L825.009 210.498L825.014 210.501L825.595 209.687ZM824.242 208.683L824.844 207.885C824.404 207.553 823.779 207.64 823.446 208.078C823.112 208.517 823.197 209.143 823.635 209.478L824.242 208.683ZM817.912 203.143L817.174 203.818C817.184 203.829 817.194 203.84 817.205 203.85L817.912 203.143ZM819.121 204.32L818.433 205.045C818.833 205.424 819.464 205.409 819.844 205.011C820.225 204.613 820.211 203.982 819.815 203.6L819.121 204.32ZM818.514 203.735L817.816 204.451L817.82 204.455L818.514 203.735ZM817.912 203.142L817.178 203.821C817.187 203.831 817.196 203.84 817.205 203.849L817.912 203.142ZM817.342 202.519L818.08 201.844C817.708 201.438 817.077 201.408 816.669 201.779C816.261 202.15 816.23 202.781 816.6 203.19L817.342 202.519ZM815.673 200.605L814.903 201.243L814.907 201.248L815.673 200.605ZM816.223 201.25L815.465 201.903C815.825 202.321 816.454 202.369 816.873 202.01C817.292 201.652 817.341 201.023 816.984 200.603L816.223 201.25ZM815.674 200.605L814.908 201.249L814.912 201.253L815.674 200.605ZM815.132 199.953L815.902 199.314C815.55 198.89 814.921 198.83 814.495 199.181C814.07 199.532 814.009 200.161 814.359 200.587L815.132 199.953ZM812.031 195.888L811.212 196.462L811.215 196.466L812.031 195.888ZM812.53 196.583L811.721 197.171C812.045 197.617 812.668 197.717 813.115 197.394C813.562 197.072 813.664 196.449 813.343 196.001L812.53 196.583ZM812.031 195.887L811.215 196.465L811.218 196.47L812.031 195.887ZM811.539 195.185L812.358 194.612C812.042 194.16 811.421 194.049 810.968 194.364C810.516 194.679 810.403 195.3 810.716 195.754L811.539 195.185ZM809.189 191.565L808.333 192.081L808.336 192.085L809.189 191.565ZM809.304 191.749L808.451 192.271C808.74 192.742 809.356 192.89 809.827 192.601C810.297 192.312 810.445 191.697 810.156 191.226L809.304 191.749ZM808.74 190.819L809.597 190.303C809.313 189.831 808.7 189.678 808.227 189.961C807.754 190.243 807.599 190.856 807.88 191.329L808.74 190.819ZM1081.84 177.797H1080.84C1080.84 178.35 1081.29 178.797 1081.84 178.797V177.797ZM1181.05 177.797V178.797C1181.6 178.797 1182.05 178.35 1182.05 177.797H1181.05ZM1181.05 177.796H1182.05C1182.05 177.244 1181.6 176.796 1181.05 176.796V177.796ZM1081.84 177.796V176.796C1081.29 176.796 1080.84 177.244 1080.84 177.796H1081.84ZM798.392 141.413L797.395 141.326L797.395 141.331L798.392 141.413ZM798.367 141.738L797.37 141.66C797.327 142.211 797.739 142.692 798.29 142.735C798.84 142.778 799.321 142.366 799.364 141.815L798.367 141.738ZM798.478 140.428L799.474 140.515C799.522 139.966 799.116 139.481 798.567 139.432C798.018 139.383 797.532 139.787 797.482 140.337L798.478 140.428ZM725.426 133.368H726.426C726.426 132.836 726.01 132.397 725.479 132.369C724.948 132.341 724.488 132.733 724.431 133.261L725.426 133.368ZM725.207 135.591L724.211 135.5C724.161 136.05 724.566 136.537 725.116 136.587C725.666 136.637 726.153 136.232 726.203 135.682L725.207 135.591ZM725.426 133.369L726.42 133.475C726.424 133.44 726.426 133.404 726.426 133.369H725.426ZM927.984 103.444L927.247 104.12C927.62 104.526 928.251 104.554 928.658 104.183C929.065 103.811 929.095 103.18 928.725 102.772L927.984 103.444ZM927.186 102.573L927.923 101.897L927.919 101.893L927.186 102.573ZM927.063 102.443L927.795 101.761C927.419 101.357 926.786 101.335 926.382 101.711C925.978 102.087 925.955 102.72 926.332 103.124L927.063 102.443ZM813.036 101.911L812.245 101.3L812.241 101.304L813.036 101.911ZM812.53 102.583L811.728 101.987C811.399 102.429 811.49 103.054 811.931 103.384C812.373 103.714 812.998 103.625 813.329 103.185L812.53 102.583ZM813.036 101.912L812.241 101.305L812.237 101.31L813.036 101.912ZM813.549 101.247L814.34 101.858C814.677 101.422 814.598 100.795 814.163 100.457C813.728 100.119 813.101 100.196 812.761 100.63L813.549 101.247ZM815.673 98.6694L814.922 98.0089L814.917 98.0141L815.673 98.6694ZM814.597 99.9419L813.825 99.3059C813.475 99.731 813.534 100.359 813.958 100.711C814.382 101.063 815.01 101.006 815.364 100.584L814.597 99.9419ZM815.132 99.3022L814.368 98.6566L814.365 98.6606L815.132 99.3022ZM816.223 98.0444L816.974 98.7049C817.338 98.2911 817.298 97.6608 816.885 97.2956C816.473 96.9303 815.842 96.9679 815.476 97.3795L816.223 98.0444ZM918.072 93.894L917.365 94.6012C917.386 94.6224 917.409 94.6427 917.432 94.662L918.072 93.894ZM919.366 94.9956L918.712 95.7516C919.129 96.1131 919.761 96.0677 920.122 95.6502C920.484 95.2327 920.438 94.6012 920.021 94.2397L919.366 94.9956ZM918.071 93.8931L918.712 93.1251C918.301 92.7826 917.694 92.8238 917.333 93.2186C916.972 93.6134 916.986 94.2221 917.364 94.6002L918.071 93.8931ZM915.645 91.9399L915.032 92.7305C915.468 93.0683 916.096 92.9892 916.434 92.5536C916.773 92.118 916.694 91.4906 916.259 91.1513L915.645 91.9399ZM915.48 91.812L916.095 91.0234L916.092 91.0207L915.48 91.812ZM914.982 91.4321L915.588 90.6364C915.149 90.3019 914.521 90.387 914.187 90.8264C913.852 91.2659 913.937 91.8933 914.377 92.2278L914.982 91.4321ZM841.522 80.8354L841.179 79.8964L841.172 79.899L841.522 80.8354ZM840.939 79.9871C840.422 80.1826 840.162 80.7598 840.358 81.2763C840.553 81.7928 841.13 82.0531 841.647 81.8576L840.939 79.9871ZM842.357 80.5298L842.701 81.4688C843.219 81.2793 843.486 80.7066 843.297 80.1885C843.109 79.6703 842.537 79.4021 842.019 79.589L842.357 80.5298ZM844.89 79.6704L844.592 78.7158L844.586 78.7176L844.89 79.6704ZM844.041 79.9468L843.726 78.9978C843.203 79.1715 842.919 79.7356 843.091 80.2591C843.263 80.7826 843.826 81.0682 844.35 80.8977L844.041 79.9468ZM844.891 79.6704L844.587 78.7175L844.581 78.7195L844.891 79.6704ZM845.744 79.4038L846.042 80.3584C846.568 80.1943 846.862 79.6356 846.7 79.1091C846.537 78.5825 845.98 78.2866 845.453 78.4473L845.744 79.4038ZM847.468 78.9019L847.206 77.9368L847.2 77.9384L847.468 78.9019ZM846.604 79.1479L846.324 78.1879C845.795 78.3421 845.49 78.8951 845.643 79.4246C845.795 79.9541 846.347 80.2605 846.877 80.1098L846.604 79.1479ZM847.469 78.9019L847.201 77.9384L847.195 77.94L847.469 78.9019ZM848.338 78.6655L848.6 79.6306C849.132 79.4861 849.447 78.9386 849.304 78.4064C849.161 77.8741 848.614 77.5577 848.082 77.6989L848.338 78.6655ZM976.646 64.2495L975.863 64.8727C976.053 65.1108 976.341 65.2495 976.646 65.2495V64.2495ZM976.646 64.2495V65.2495C977.031 65.2495 977.381 65.0296 977.547 64.6836C977.714 64.3376 977.668 63.9267 977.429 63.6263L976.646 64.2495ZM975.606 62.9653L976.38 62.3318C976.03 61.9045 975.4 61.8417 974.973 62.1916C974.546 62.5414 974.483 63.1714 974.833 63.5988L975.606 62.9653ZM767.199 52.2204C767.609 51.8498 767.64 51.2174 767.27 50.8079C766.899 50.3985 766.267 50.367 765.857 50.7376L767.199 52.2204ZM764.633 53.2261L763.947 52.4983C763.943 52.502 763.939 52.5057 763.935 52.5094L764.633 53.2261ZM763.47 54.3579L762.772 53.6412L762.768 53.6455L763.47 54.3579ZM761.992 54.42C761.602 54.8109 761.603 55.444 761.994 55.8342C762.385 56.2244 763.018 56.2238 763.408 55.8329L761.992 54.42ZM764.634 53.2271L763.948 52.4992L763.941 52.5059L764.634 53.2271ZM968.176 54.6782L967.463 55.3791C967.849 55.7724 968.481 55.7786 968.875 55.393C969.269 55.0073 969.277 54.3754 968.892 53.9804L968.176 54.6782ZM967.991 54.4888L968.708 53.7909L968.703 53.7863L967.991 54.4888ZM967.541 54.0376L968.249 53.3314C967.859 52.9404 967.226 52.9396 966.835 53.3296C966.444 53.7196 966.443 54.3528 966.833 54.7438L967.541 54.0376ZM807.859 26.2739L807.505 25.3386L807.5 25.3406L807.859 26.2739ZM806.333 25.7979C805.819 26.0006 805.567 26.5814 805.77 27.0951C805.973 27.6089 806.554 27.861 807.067 27.6582L806.333 25.7979ZM808.076 26.1919L808.435 27.1254C808.949 26.9276 809.207 26.3507 809.011 25.8356C808.814 25.3205 808.238 25.0615 807.722 25.2566L808.076 26.1919ZM868.267 15.7603L868.278 14.7603L868.272 14.7603L868.267 15.7603ZM872.593 16.8554C873.145 16.8738 873.607 16.4413 873.625 15.8893C873.644 15.3373 873.211 14.8749 872.659 14.8565L872.593 16.8554ZM868.267 15.7593L868.278 14.7593L868.272 14.7593L868.267 15.7593ZM866.047 15.7476L866.052 14.7476C865.5 14.7447 865.05 15.1899 865.047 15.7421C865.044 16.2942 865.489 16.7444 866.041 16.7475L866.047 15.7476ZM99.9561 161.262H98.9561C98.9561 183.3 103.24 199.097 111.807 208.651L112.552 207.984L113.296 207.316C105.224 198.314 100.956 183.132 100.956 161.262H99.9561ZM112.552 207.984L111.822 208.668L112.227 209.1L112.957 208.417L113.687 207.733L113.282 207.3L112.552 207.984ZM112.957 208.417L112.231 209.105C121.012 218.364 132.877 222.992 147.826 222.992V221.992V220.992C133.324 220.992 122.02 216.521 113.683 207.728L112.957 208.417ZM147.826 221.992L147.826 222.992C163.013 222.992 174.894 218.215 183.468 208.662L182.724 207.994L181.979 207.326C173.855 216.378 162.559 220.992 147.826 220.992L147.826 221.992ZM182.724 207.994L183.474 208.654L183.861 208.215L183.11 207.554L182.36 206.894L181.973 207.333L182.724 207.994ZM183.11 207.554L183.866 208.209C192.173 198.613 196.328 182.965 196.328 161.262H195.328H194.328C194.328 182.797 190.189 197.849 182.354 206.9L183.11 207.554ZM195.328 161.262H196.328V19.8999H195.328H194.328V161.262H195.328ZM195.328 19.8999V20.8999H268.979V19.8999V18.8999H195.328V19.8999ZM268.979 19.8999H267.979V163.466H268.979H269.979V19.8999H268.979ZM268.979 163.466H267.979C267.978 201.68 257.323 231.198 236.011 252.02L236.71 252.735L237.409 253.45C259.206 232.153 269.978 202.058 269.979 163.466H268.979ZM236.71 252.735L236.011 252.02C214.7 272.841 185.059 283.252 147.091 283.252V284.252V285.252C185.432 285.252 215.629 274.73 237.409 253.45L236.71 252.735ZM147.091 284.252V283.252C109.715 283.252 80.4096 273.164 59.1761 252.989L58.4873 253.714L57.7985 254.439C79.4983 275.057 109.349 285.252 147.091 285.252V284.252ZM58.4873 253.714L59.1815 252.995L58.1659 252.015L57.4717 252.735L56.7775 253.455L57.7931 254.434L58.4873 253.714ZM57.4717 252.735L58.1705 252.02C36.8591 231.198 26.2032 201.68 26.2031 163.466H25.2031H24.2031C24.2032 202.059 34.9751 232.153 56.7728 253.45L57.4717 252.735ZM25.2031 163.466H26.2031V19.8999H25.2031H24.2031V163.466H25.2031ZM25.2031 19.8999V20.8999H99.9561V19.8999V18.8999H25.2031V19.8999ZM99.9561 19.8999H98.9561V161.262H99.9561H100.956V19.8999H99.9561ZM866.047 14.7476V15.7476C889.808 15.7476 910.997 19.912 929.614 28.2405L930.022 27.3276L930.431 26.4148C911.518 17.954 890.043 13.7476 866.047 13.7476V14.7476ZM930.022 27.3276V26.3276H930.021V27.3276V28.3276H930.022V27.3276ZM930.021 27.3276L929.618 28.2424C948.477 36.5709 964.154 48.5736 976.646 64.2497L977.428 63.6265L978.21 63.0033C965.511 47.0673 949.572 34.8679 930.425 26.4129L930.021 27.3276ZM977.428 63.6265L976.646 64.2501L977.232 64.9845L978.014 64.3608L978.795 63.7372L978.209 63.0028L977.428 63.6265ZM978.014 64.3608L977.342 63.6198L976.646 64.2506L977.317 64.9917L977.989 65.7328L978.685 65.1019L978.014 64.3608ZM977.317 64.9917L976.646 64.2502L930.349 106.138L931.02 106.879L931.69 107.621L977.988 65.7332L977.317 64.9917ZM931.02 106.879L930.348 106.138L929.584 106.831L930.255 107.572L930.926 108.313L931.691 107.621L931.02 106.879ZM930.255 107.572L931.017 106.924L930.349 106.138L929.587 106.786L928.825 107.433L929.493 108.219L930.255 107.572ZM929.587 106.786L930.349 106.138C922.02 96.3399 912.834 88.8678 902.791 83.7237L902.335 84.6138L901.879 85.5038C911.658 90.5125 920.643 97.8076 928.825 107.433L929.587 106.786ZM902.335 84.6138L902.741 83.7L902.732 83.6961L902.326 84.6099L901.92 85.5237L901.929 85.5276L902.335 84.6138ZM902.326 84.6099L902.791 83.7245C892.993 78.5805 881.969 76.0073 869.721 76.0073V77.0073V78.0073C881.68 78.0073 892.379 80.5174 901.861 85.4953L902.326 84.6099ZM869.721 77.0073V76.0073C859.517 76.0074 850.117 77.617 841.522 80.8355L841.873 81.772L842.224 82.7085C850.571 79.5829 859.73 78.0074 869.721 78.0073V77.0073ZM841.873 81.772L841.517 80.8375L840.7 81.1491L841.056 82.0835L841.412 83.0179L842.229 82.7064L841.873 81.772ZM841.056 82.0835L840.693 81.1515C831.875 84.5807 824.28 89.6015 817.911 96.215L818.632 96.9087L819.352 97.6023C825.513 91.2043 832.862 86.343 841.418 83.0155L841.056 82.0835ZM818.632 96.9087L817.925 97.6158L817.926 97.6168L818.633 96.9097L819.34 96.2026L819.339 96.2016L818.632 96.9087ZM818.633 96.9097L817.912 96.2166C811.788 102.585 806.888 110.303 803.214 119.366L804.141 119.742L805.067 120.117C808.656 111.265 813.424 103.77 819.354 97.6028L818.633 96.9097ZM804.141 119.742L803.205 119.388C799.782 128.446 798.07 138.482 798.07 149.496H799.07H800.07C800.07 138.691 801.749 128.898 805.076 120.095L804.141 119.742ZM799.07 149.496H798.07C798.07 160.518 799.784 170.561 803.213 179.624L804.148 179.27L805.084 178.916C801.751 170.108 800.07 160.309 800.07 149.496H799.07ZM804.148 179.27L803.222 179.646C806.893 188.694 811.786 196.521 817.899 203.127L818.633 202.448L819.367 201.769C813.431 195.354 808.663 187.737 805.075 178.894L804.148 179.27ZM818.633 202.448L817.926 203.155C824.292 209.517 831.881 214.413 840.693 217.84L841.056 216.908L841.418 215.976C832.851 212.644 825.5 207.897 819.34 201.74L818.633 202.448ZM841.056 216.908L840.7 217.842L841.517 218.154L841.873 217.219L842.229 216.285L841.412 215.973L841.056 216.908ZM841.873 217.219L841.522 218.156C850.117 221.374 859.517 222.984 869.721 222.984V221.984V220.984C859.73 220.984 850.571 219.408 842.224 216.283L841.873 217.219ZM869.721 221.984V222.984C881.969 222.984 892.993 220.412 902.791 215.268L902.326 214.382L901.861 213.497C892.379 218.475 881.68 220.984 869.721 220.984V221.984ZM902.326 214.382L902.812 215.256L902.821 215.252L902.335 214.377L901.849 213.503L901.841 213.508L902.326 214.382ZM902.335 214.377L902.797 215.264L903.723 214.782L903.262 213.895L902.8 213.008L901.873 213.49L902.335 214.377ZM903.262 213.895L903.73 214.779C913.407 209.654 922.281 202.346 930.349 192.854L929.587 192.207L928.825 191.559C920.899 200.884 912.219 208.021 902.794 213.011L903.262 213.895ZM929.587 192.207L930.349 192.854L931.017 192.068L930.255 191.42L929.493 190.773L928.825 191.559L929.587 192.207ZM930.255 191.42L929.584 192.162L930.349 192.854L931.02 192.112L931.69 191.37L930.926 190.679L930.255 191.42ZM931.02 192.112L930.349 192.853L976.646 234.742L977.317 234L977.988 233.259L931.69 191.37L931.02 192.112ZM977.317 234L976.646 234.742L977.347 235.377L978.019 234.635L978.69 233.894L977.989 233.259L977.317 234ZM978.019 234.635L977.241 234.006L976.645 234.743L977.423 235.372L978.2 236.001L978.796 235.264L978.019 234.635ZM977.423 235.372L976.646 234.742C964.153 250.175 948.475 262.178 929.614 270.751L930.027 271.662L930.441 272.572C949.573 263.876 965.503 251.685 978.2 236.001L977.423 235.372ZM930.027 271.662L929.656 270.733L929.651 270.735L930.022 271.664L930.394 272.592L930.399 272.59L930.027 271.662ZM930.022 271.664L929.614 270.751C910.997 279.079 889.808 283.244 866.047 283.244V284.244V285.244C890.043 285.244 911.518 281.037 930.431 272.576L930.022 271.664ZM866.047 284.244V283.244C845.715 283.244 826.853 280.059 809.461 273.69L809.117 274.629L808.773 275.568C826.406 282.025 845.504 285.244 866.047 285.244V284.244ZM809.117 274.629L809.433 273.681L809.425 273.678L809.108 274.626L808.792 275.575L808.801 275.578L809.117 274.629ZM809.108 274.626L809.46 273.69L809.452 273.687L809.101 274.624L808.749 275.56L808.757 275.563L809.108 274.626ZM809.101 274.624L809.46 273.691C792.314 267.077 777.371 257.768 764.633 245.765L763.947 246.493L763.261 247.22C776.197 259.41 791.364 268.854 808.741 275.557L809.101 274.624ZM763.947 246.493L764.654 245.786L764.648 245.779L763.94 246.486L763.233 247.193L763.24 247.2L763.947 246.493ZM763.94 246.486L764.633 245.765C752.141 233.762 742.341 219.676 735.238 203.509L734.322 203.912L733.407 204.314C740.614 220.716 750.562 235.019 763.248 247.207L763.94 246.486ZM734.322 203.912L735.251 203.54L735.249 203.535L734.32 203.907L733.392 204.278L733.394 204.283L734.322 203.912ZM734.32 203.907L735.238 203.51C728.134 187.097 724.582 169.092 724.582 149.496H723.582H722.582C722.582 169.339 726.18 187.618 733.403 204.304L734.32 203.907ZM723.582 149.496H724.582C724.582 129.899 728.134 112.017 735.238 95.85L734.322 95.4478L733.407 95.0455C726.18 111.493 722.582 129.653 722.582 149.496H723.582ZM734.322 95.4478L735.24 95.845C742.344 79.4347 752.142 65.2283 764.633 53.2265L763.94 52.5054L763.248 51.7843C750.558 63.976 740.61 78.4046 733.405 95.0505L734.322 95.4478ZM763.94 52.5054L764.648 53.2125L764.654 53.2056L763.947 52.4985L763.24 51.7914L763.233 51.7983L763.94 52.5054ZM763.947 52.4985L764.628 53.2306L765.838 52.1046L765.157 51.3726L764.476 50.6405L763.266 51.7665L763.947 52.4985ZM765.157 51.3726L765.834 52.109C777.904 41.0215 791.913 32.4096 807.859 26.2736L807.5 25.3403L807.141 24.407C790.971 30.6293 776.744 39.3715 764.481 50.6361L765.157 51.3726ZM807.5 25.3403L807.854 26.2758L809.466 25.6664L809.112 24.731L808.759 23.7955L807.146 24.4049L807.5 25.3403ZM809.112 24.731L809.468 25.6657C826.858 19.0536 845.718 15.7476 866.047 15.7476V14.7476V13.7476C845.498 13.7476 826.394 17.0901 808.757 23.7962L809.112 24.731ZM377.927 20.2622L377.157 20.9001L488.925 155.832L489.695 155.194L490.465 154.556L378.697 19.6243L377.927 20.2622ZM489.695 155.194H490.695V19.8999H489.695H488.695V155.194H489.695ZM489.695 19.8999V20.8999H562.979V19.8999V18.8999H489.695V19.8999ZM562.979 19.8999H561.979V279.108H562.979H563.979V19.8999H562.979ZM562.979 279.108V278.108H501.616V279.108V280.108H562.979V279.108ZM501.616 279.108L502.387 278.47L502.087 278.108L501.316 278.746L500.546 279.383L500.846 279.745L501.616 279.108ZM501.316 278.746L502.087 278.108L390.317 143.173L389.547 143.811L388.777 144.449L500.546 279.384L501.316 278.746ZM389.547 143.811H388.547V279.108H389.547H390.547V143.811H389.547ZM389.547 279.108V278.108H316.264V279.108V280.108H389.547V279.108ZM316.264 279.108H317.264V19.8999H316.264H315.264V279.108H316.264ZM316.264 19.8999V20.8999H377.627V19.8999V18.8999H316.264V19.8999ZM377.627 19.8999L376.857 20.5374L377.156 20.8997L377.927 20.2622L378.697 19.6247L378.397 19.2624L377.627 19.8999ZM687.05 279.108V278.108H612.297V279.108V280.108H687.05V279.108ZM612.297 279.108H613.297V19.8999H612.297H611.297V279.108H612.297ZM612.297 19.8999V20.8999H687.05V19.8999V18.8999H612.297V19.8999ZM687.05 19.8999H686.05V279.108H687.05H688.05V19.8999H687.05ZM1082.84 116.537V117.537H1180.05V116.537V115.537H1082.84V116.537ZM1180.05 116.537H1181.05V19.8999H1180.05H1179.05V116.537H1180.05ZM1180.05 19.8999V20.8999H1254.8V19.8999V18.8999H1180.05V19.8999ZM1254.8 19.8999H1253.8V279.108H1254.8H1255.8V19.8999H1254.8ZM1254.8 279.108V278.108H1180.05V279.108V280.108H1254.8V279.108ZM1180.05 279.108H1181.05V178.797H1180.05H1179.05V279.108H1180.05ZM1180.05 178.797V177.797H1082.84V178.797V179.797H1180.05V178.797ZM1082.84 178.797H1081.84V279.108H1082.84H1083.84V178.797H1082.84ZM1082.84 279.108V278.108H1008.08V279.108V280.108H1082.84V279.108ZM1008.08 279.108H1009.08V19.8999H1008.08H1007.08V279.108H1008.08ZM1008.08 19.8999V20.8999H1082.84V19.8999V18.8999H1008.08V19.8999ZM1082.84 19.8999H1081.84V116.537H1082.84H1083.84V19.8999H1082.84ZM388.548 141.039L387.778 141.676L501.316 278.746L502.086 278.108L502.856 277.47L389.318 140.401L388.548 141.039ZM502.086 278.108L502.856 277.47L389.318 140.399L388.548 141.037L387.778 141.675L501.316 278.746L502.086 278.108ZM388.548 141.037H387.548V141.039H388.548H389.548V141.037H388.548ZM812.667 274.823L812.989 273.876C812.455 273.694 811.923 273.51 811.392 273.323L811.06 274.266L810.727 275.209C811.265 275.399 811.805 275.586 812.345 275.769L812.667 274.823ZM811.06 274.266L811.376 273.317L811.361 273.313L811.045 274.261L810.729 275.21L810.743 275.215L811.06 274.266ZM811.045 274.261L810.712 275.204C811.256 275.396 811.8 275.584 812.345 275.769L812.667 274.823L812.989 273.876C812.45 273.693 811.913 273.507 811.378 273.318L811.045 274.261ZM794.031 266.702L793.566 267.587C794.292 267.969 795.022 268.341 795.754 268.709L796.203 267.816L796.652 266.923C795.927 266.558 795.208 266.191 794.497 265.817L794.031 266.702ZM796.203 267.816L796.653 266.923C795.875 266.531 795.103 266.135 794.338 265.732L793.872 266.617L793.406 267.501C794.184 267.912 794.967 268.313 795.753 268.709L796.203 267.816ZM793.872 266.617L793.401 267.499L793.56 267.584L794.031 266.702L794.502 265.819L794.343 265.734L793.872 266.617ZM773.309 253.255L772.689 254.04C773.12 254.381 773.554 254.72 773.991 255.056L774.601 254.263L775.211 253.471C774.781 253.14 774.354 252.807 773.928 252.471L773.309 253.255ZM774.601 254.263L775.216 253.475L773.925 252.467L773.31 253.255L772.694 254.044L773.985 255.051L774.601 254.263ZM773.31 253.255L773.929 252.471C773.504 252.135 773.081 251.797 772.661 251.456L772.031 252.233L771.402 253.01C771.829 253.356 772.258 253.699 772.69 254.04L773.31 253.255ZM772.031 252.233L771.406 253.014L772.684 254.036L773.309 253.255L773.934 252.475L772.656 251.452L772.031 252.233ZM236.011 252.02L235.312 251.305C234.692 251.911 234.062 252.507 233.426 253.097L234.105 253.831L234.785 254.564C235.433 253.964 236.075 253.355 236.71 252.735L236.011 252.02ZM234.105 253.831L234.785 254.564C235.087 254.285 235.392 254.001 235.696 253.713L235.007 252.988L234.318 252.263C234.025 252.542 233.727 252.818 233.426 253.097L234.105 253.831ZM235.007 252.988L235.701 253.708L236.705 252.74L236.012 252.02L235.318 251.3L234.313 252.268L235.007 252.988ZM236.012 252.02L236.711 252.735C237.044 252.41 237.374 252.082 237.702 251.752L236.992 251.047L236.283 250.343C235.962 250.666 235.639 250.987 235.313 251.305L236.012 252.02ZM236.992 251.047L236.288 250.337L235.307 251.31L236.011 252.02L236.715 252.73L237.696 251.758L236.992 251.047ZM768.273 249.071L767.615 249.824C768.03 250.187 768.448 250.545 768.865 250.901L769.514 250.14L770.162 249.379C769.749 249.027 769.339 248.674 768.932 248.318L768.273 249.071ZM769.514 250.14L770.167 249.383L768.928 248.314L768.274 249.071L767.621 249.828L768.86 250.897L769.514 250.14ZM768.274 249.071L768.933 248.318C768.525 247.961 768.119 247.602 767.715 247.24L767.048 247.985L766.38 248.729C766.79 249.097 767.202 249.462 767.616 249.824L768.274 249.071ZM767.048 247.985L766.385 248.733L767.61 249.819L768.273 249.071L768.937 248.322L767.711 247.236L767.048 247.985ZM754.731 235.144L753.963 235.784C754.309 236.199 754.658 236.612 755.008 237.022L755.769 236.373L756.529 235.723C756.183 235.318 755.84 234.912 755.5 234.504L754.731 235.144ZM755.769 236.373L756.533 235.728L755.497 234.499L754.732 235.144L753.968 235.789L755.004 237.017L755.769 236.373ZM754.732 235.144L755.501 234.504C755.16 234.095 754.822 233.685 754.487 233.272L753.711 233.903L752.935 234.533C753.275 234.953 753.619 235.369 753.964 235.784L754.732 235.144ZM753.711 233.903L752.938 234.538L753.959 235.779L754.731 235.144L755.504 234.509L754.483 233.268L753.711 233.903ZM871.454 222.965L871.434 221.966C870.866 221.977 870.294 221.983 869.721 221.983V222.983V223.983C870.308 223.983 870.893 223.977 871.474 223.965L871.454 222.965ZM869.721 222.983L869.014 223.69L869.015 223.691L869.722 222.984L870.429 222.277L870.428 222.276L869.721 222.983ZM869.722 222.984V223.984C870.31 223.984 870.894 223.977 871.474 223.965L871.454 222.965L871.434 221.966C870.865 221.977 870.294 221.984 869.722 221.984V222.984ZM841.613 218.189L841.265 219.126C841.643 219.267 842.023 219.405 842.405 219.54L842.738 218.597L843.072 217.654C842.701 217.523 842.331 217.389 841.961 217.251L841.613 218.189ZM842.738 218.597L843.072 217.654C842.7 217.523 842.33 217.389 841.962 217.252L841.613 218.189L841.264 219.126C841.643 219.267 842.024 219.405 842.405 219.54L842.738 218.597ZM839.529 217.374L839.151 218.299C839.538 218.457 839.932 218.617 840.331 218.772L840.693 217.84L841.056 216.908C840.673 216.76 840.292 216.605 839.908 216.448L839.529 217.374ZM840.693 217.84L840.331 218.772C840.439 218.814 840.584 218.868 840.671 218.901L841.028 217.967L841.385 217.033C841.25 216.981 841.17 216.953 841.056 216.908L840.693 217.84ZM841.028 217.967L841.385 217.033L841.05 216.905L840.693 217.839L840.337 218.774L840.672 218.901L841.028 217.967ZM840.693 217.839L841.056 216.907C840.673 216.758 840.291 216.604 839.908 216.448L839.529 217.374L839.151 218.299C839.54 218.458 839.933 218.617 840.331 218.771L840.693 217.839ZM839.055 217.18L838.67 218.103C838.798 218.157 838.951 218.218 839.063 218.264L839.442 217.338L839.822 216.413C839.675 216.353 839.569 216.311 839.44 216.257L839.055 217.18ZM839.442 217.338L839.822 216.413C839.424 216.25 839.031 216.086 838.642 215.918L838.246 216.836L837.85 217.755C838.253 217.929 838.658 218.098 839.063 218.264L839.442 217.338ZM838.246 216.836L837.855 217.757L838.663 218.1L839.055 217.18L839.446 216.26L838.637 215.916L838.246 216.836ZM835.862 215.756L835.432 216.659C835.698 216.786 835.965 216.91 836.231 217.033L836.649 216.125L837.068 215.216C836.807 215.096 836.548 214.975 836.292 214.853L835.862 215.756ZM836.649 216.125L837.074 215.219L836.287 214.85L835.862 215.755L835.438 216.661L836.225 217.03L836.649 216.125ZM835.862 215.755L836.292 214.853C836.034 214.729 835.777 214.606 835.523 214.481L835.082 215.378L834.641 216.276C834.904 216.405 835.169 216.533 835.432 216.658L835.862 215.755ZM835.082 215.378L834.646 216.278L835.426 216.656L835.862 215.756L836.298 214.856L835.518 214.478L835.082 215.378ZM830.553 212.933L830.044 213.794C830.071 213.81 830.097 213.825 830.118 213.837C830.14 213.85 830.157 213.86 830.174 213.869L830.681 213.007L831.188 212.145C831.078 212.081 831.147 212.122 831.062 212.072L830.553 212.933ZM830.681 213.007L831.187 212.145C830.903 211.978 830.621 211.81 830.342 211.64L829.822 212.495L829.302 213.349C829.592 213.525 829.883 213.698 830.174 213.869L830.681 213.007ZM829.822 212.495L829.308 213.352L830.038 213.79L830.553 212.933L831.067 212.076L830.337 211.637L829.822 212.495ZM824.914 209.19L824.318 209.993C824.776 210.333 825.239 210.667 825.706 210.995L826.281 210.177L826.856 209.359C826.402 209.04 825.954 208.717 825.51 208.387L824.914 209.19ZM826.281 210.177L826.862 209.363L826.176 208.873L825.595 209.687L825.014 210.501L825.7 210.991L826.281 210.177ZM825.595 209.687L826.18 208.877C825.731 208.552 825.287 208.223 824.849 207.888L824.242 208.683L823.635 209.478C824.089 209.824 824.547 210.164 825.009 210.498L825.595 209.687ZM824.242 208.683L823.64 209.481L824.312 209.988L824.914 209.19L825.516 208.392L824.844 207.885L824.242 208.683ZM817.912 203.143L817.205 203.85C817.61 204.255 818.019 204.653 818.433 205.045L819.121 204.32L819.809 203.594C819.408 203.213 819.011 202.827 818.619 202.436L817.912 203.143ZM819.121 204.32L819.815 203.6L819.207 203.015L818.514 203.735L817.82 204.455L818.427 205.04L819.121 204.32ZM818.514 203.735L819.211 203.018C819.012 202.824 818.814 202.63 818.619 202.435L817.912 203.142L817.205 203.849C817.408 204.052 817.613 204.253 817.816 204.451L818.514 203.735ZM817.912 203.142L818.646 202.463C818.457 202.259 818.269 202.054 818.084 201.848L817.342 202.519L816.6 203.19C816.792 203.402 816.985 203.612 817.178 203.821L817.912 203.142ZM817.342 202.519L816.604 203.194L817.174 203.818L817.912 203.143L818.65 202.468L818.08 201.844L817.342 202.519ZM815.673 200.605L814.907 201.248C815.093 201.469 815.279 201.687 815.465 201.903L816.223 201.25L816.98 200.598C816.798 200.386 816.617 200.174 816.438 199.961L815.673 200.605ZM816.223 201.25L816.984 200.603L816.436 199.957L815.674 200.605L814.912 201.253L815.461 201.898L816.223 201.25ZM815.674 200.605L816.439 199.961C816.26 199.748 816.082 199.534 815.905 199.318L815.132 199.953L814.359 200.587C814.541 200.809 814.724 201.029 814.908 201.249L815.674 200.605ZM815.132 199.953L814.362 200.591L814.903 201.243L815.673 200.605L816.443 199.967L815.902 199.314L815.132 199.953ZM812.031 195.888L811.215 196.466C811.383 196.703 811.552 196.938 811.721 197.171L812.53 196.583L813.339 195.996C813.174 195.768 813.01 195.539 812.847 195.31L812.031 195.888ZM812.53 196.583L813.343 196.001L812.844 195.305L812.031 195.887L811.218 196.47L811.717 197.166L812.53 196.583ZM812.031 195.887L812.847 195.309C812.683 195.078 812.521 194.847 812.362 194.617L811.539 195.185L810.716 195.754C810.882 195.993 811.049 196.231 811.215 196.465L812.031 195.887ZM811.539 195.185L810.72 195.759L811.212 196.462L812.031 195.888L812.85 195.315L812.358 194.612L811.539 195.185ZM809.189 191.565L808.336 192.085C808.358 192.123 808.381 192.158 808.4 192.189C808.42 192.22 808.436 192.246 808.451 192.271L809.304 191.749L810.156 191.226C810.076 191.094 810.107 191.149 810.043 191.045L809.189 191.565ZM809.304 191.749L810.156 191.226C809.967 190.918 809.781 190.614 809.6 190.308L808.74 190.819L807.88 191.329C808.07 191.648 808.262 191.963 808.451 192.271L809.304 191.749ZM808.74 190.819L807.884 191.335L808.333 192.081L809.189 191.565L810.046 191.049L809.597 190.303L808.74 190.819ZM1081.84 177.797V178.797H1181.05V177.797V176.797H1081.84V177.797ZM1181.05 177.797H1182.05V177.796H1181.05H1180.05V177.797H1181.05ZM1181.05 177.796V176.796H1081.84V177.796V178.796H1181.05V177.796ZM1081.84 177.796H1080.84V177.797H1081.84H1082.84V177.796H1081.84ZM798.392 141.413L797.395 141.331C797.387 141.433 797.377 141.576 797.37 141.66L798.367 141.738L799.364 141.815C799.375 141.682 799.379 141.609 799.388 141.494L798.392 141.413ZM798.367 141.738L799.364 141.815C799.398 141.381 799.434 140.949 799.473 140.52L798.478 140.428L797.482 140.337C797.441 140.777 797.404 141.219 797.37 141.66L798.367 141.738ZM798.478 140.428L797.481 140.341L797.395 141.326L798.392 141.413L799.388 141.5L799.474 140.515L798.478 140.428ZM725.426 133.368L724.431 133.261C724.352 134.006 724.279 134.753 724.211 135.5L725.207 135.591L726.203 135.682C726.271 134.942 726.342 134.206 726.42 133.474L725.426 133.368ZM725.207 135.591L726.203 135.682C726.271 134.942 726.342 134.207 726.42 133.475L725.426 133.369L724.431 133.262C724.352 134.007 724.279 134.753 724.211 135.5L725.207 135.591ZM725.426 133.369H726.426V133.368H725.426H724.426V133.369H725.426ZM927.984 103.444L928.721 102.768L927.923 101.897L927.186 102.573L926.449 103.249L927.247 104.12L927.984 103.444ZM927.186 102.573L927.919 101.893C927.895 101.867 927.871 101.842 927.851 101.821C927.83 101.798 927.812 101.78 927.795 101.762L927.063 102.443L926.332 103.124C926.412 103.211 926.387 103.183 926.452 103.253L927.186 102.573ZM927.063 102.443L926.332 103.124C926.638 103.453 926.942 103.783 927.244 104.116L927.984 103.444L928.725 102.772C928.416 102.431 928.106 102.094 927.795 101.761L927.063 102.443ZM813.036 101.911L812.241 101.304C812.068 101.531 811.897 101.759 811.728 101.987L812.53 102.583L813.333 103.18C813.499 102.957 813.665 102.736 813.831 102.517L813.036 101.911ZM812.53 102.583L813.329 103.185L813.835 102.513L813.036 101.912L812.237 101.31L811.731 101.982L812.53 102.583ZM813.036 101.912L813.831 102.518C814 102.297 814.168 102.078 814.336 101.863L813.549 101.247L812.761 100.63C812.585 100.855 812.412 101.081 812.241 101.305L813.036 101.912ZM813.549 101.247L812.757 100.635L812.245 101.3L813.036 101.911L813.828 102.522L814.34 101.858L813.549 101.247ZM815.673 98.6694L814.917 98.0141C814.549 98.4393 814.184 98.8698 813.825 99.3059L814.597 99.9419L815.368 100.578C815.717 100.155 816.07 99.7375 816.428 99.3248L815.673 98.6694ZM814.597 99.9419L815.364 100.584L815.899 99.9439L815.132 99.3022L814.365 98.6606L813.83 99.3002L814.597 99.9419ZM815.132 99.3022L815.895 99.9479C816.249 99.5296 816.607 99.1166 816.97 98.7093L816.223 98.0444L815.476 97.3795C815.101 97.8001 814.732 98.226 814.368 98.6566L815.132 99.3022ZM816.223 98.0444L815.472 97.3839L814.922 98.0089L815.673 98.6694L816.424 99.3299L816.974 98.7049L816.223 98.0444ZM918.072 93.894L917.432 94.662C917.859 95.0187 918.285 95.3824 918.712 95.7515L919.366 94.9956L920.021 94.2397C919.588 93.8647 919.152 93.4926 918.713 93.1261L918.072 93.894ZM919.366 94.9956L920.021 94.2397C919.588 93.8645 919.152 93.492 918.712 93.1251L918.071 93.8931L917.431 94.661C917.859 95.0179 918.285 95.382 918.712 95.7516L919.366 94.9956ZM918.071 93.8931L917.364 94.6002L917.365 94.6012L918.072 93.894L918.779 93.1869L918.778 93.186L918.071 93.8931ZM915.645 91.9399L916.259 91.1513L916.095 91.0234L915.48 91.812L914.866 92.6006L915.03 92.7285L915.645 91.9399ZM915.48 91.812L916.092 91.0207C915.923 90.89 915.749 90.7593 915.588 90.6364L914.982 91.4321L914.377 92.2278C914.547 92.3577 914.707 92.4784 914.869 92.6033L915.48 91.812ZM914.982 91.4321L914.377 92.2278C914.596 92.3951 914.815 92.5623 915.032 92.7305L915.645 91.9399L916.257 91.1493C916.034 90.9764 915.81 90.8056 915.588 90.6364L914.982 91.4321ZM841.522 80.8354L841.172 79.899C841.094 79.9282 841.01 79.9604 840.939 79.9871L841.293 80.9224L841.647 81.8576C841.729 81.8265 841.798 81.8 841.873 81.7719L841.522 80.8354ZM841.293 80.9224L841.647 81.8576C841.995 81.7261 842.344 81.5974 842.696 81.4706L842.357 80.5298L842.019 79.589C841.658 79.7188 841.298 79.8512 840.939 79.9871L841.293 80.9224ZM842.357 80.5298L842.014 79.5907L841.179 79.8964L841.522 80.8354L841.866 81.7745L842.701 81.4688L842.357 80.5298ZM844.89 79.6704L844.586 78.7176C844.298 78.8094 844.011 78.903 843.726 78.9978L844.041 79.9468L844.356 80.8958C844.635 80.8032 844.914 80.7122 845.193 80.6233L844.89 79.6704ZM844.041 79.9468L844.35 80.8977L845.2 80.6214L844.891 79.6704L844.581 78.7195L843.732 78.9958L844.041 79.9468ZM844.891 79.6704L845.194 80.6233C845.475 80.5337 845.755 80.4458 846.036 80.3603L845.744 79.4038L845.453 78.4473C845.162 78.5358 844.874 78.6264 844.587 78.7176L844.891 79.6704ZM845.744 79.4038L845.446 78.4492L844.592 78.7158L844.89 79.6704L845.188 80.625L846.042 80.3584L845.744 79.4038ZM847.468 78.9019L847.2 77.9384C846.907 78.0199 846.615 78.103 846.324 78.1879L846.604 79.1479L846.883 80.108C847.167 80.0255 847.451 79.9446 847.736 79.8653L847.468 78.9019ZM846.604 79.1479L846.877 80.1098L847.742 79.8637L847.469 78.9019L847.195 77.94L846.33 78.1861L846.604 79.1479ZM847.469 78.9019L847.737 79.8653C848.022 79.7858 848.308 79.708 848.594 79.6322L848.338 78.6655L848.082 77.6989C847.787 77.7771 847.493 77.8572 847.201 77.9384L847.469 78.9019ZM848.338 78.6655L848.076 77.7005L847.206 77.9368L847.468 78.9019L847.73 79.8669L848.6 79.6306L848.338 78.6655ZM976.646 64.2495V65.2495H976.646V64.2495V63.2495H976.646V64.2495ZM976.646 64.2495L977.429 63.6263C977.081 63.1898 976.73 62.7587 976.38 62.3318L975.606 62.9653L974.833 63.5989C975.18 64.0234 975.525 64.4466 975.864 64.8727L976.646 64.2495ZM975.606 62.9653L974.833 63.5988C975.179 64.0225 975.524 64.4462 975.863 64.8727L976.646 64.2495L977.428 63.6263C977.08 63.1905 976.73 62.7594 976.38 62.3319L975.606 62.9653ZM766.528 51.479L765.857 50.7376C765.217 51.3168 764.579 51.9026 763.947 52.4983L764.633 53.2261L765.319 53.9539C765.938 53.3699 766.566 52.7936 767.199 52.2204L766.528 51.479ZM764.633 53.2261L763.935 52.5094L762.772 53.6412L763.47 54.3579L764.167 55.0746L765.33 53.9427L764.633 53.2261ZM763.47 54.3579L762.768 53.6455C762.506 53.904 762.245 54.1671 761.992 54.42L762.7 55.1265L763.408 55.8329C763.668 55.5729 763.917 55.3209 764.172 55.0703L763.47 54.3579ZM762.7 55.1265L763.408 55.8329C764.042 55.1982 764.68 54.5692 765.327 53.9482L764.634 53.2271L763.941 52.5059C763.283 53.1383 762.634 53.7773 761.992 54.42L762.7 55.1265ZM764.634 53.2271L765.32 53.9548C765.94 53.3703 766.567 52.7928 767.199 52.2204L766.528 51.479L765.857 50.7376C765.216 51.3176 764.579 51.9042 763.948 52.4993L764.634 53.2271ZM968.176 54.6782L968.892 53.9804L968.707 53.791L967.991 54.4888L967.275 55.1866L967.46 55.376L968.176 54.6782ZM967.991 54.4888L968.703 53.7863C968.552 53.633 968.393 53.4758 968.249 53.3314L967.541 54.0376L966.833 54.7438C966.989 54.9002 967.132 55.042 967.279 55.1912L967.991 54.4888ZM967.541 54.0376L966.833 54.7438C967.044 54.9554 967.254 55.1669 967.463 55.3791L968.176 54.6782L968.889 53.9773C968.676 53.7605 968.462 53.5453 968.249 53.3314L967.541 54.0376ZM807.859 26.2739L807.5 25.3406C807.107 25.4918 806.717 25.6463 806.333 25.7979L806.7 26.728L807.067 27.6582C807.454 27.5054 807.836 27.3545 808.219 27.2072L807.859 26.2739ZM806.7 26.728L807.067 27.6582C807.522 27.4787 807.978 27.301 808.435 27.1254L808.076 26.1919L807.718 25.2584C807.254 25.4364 806.793 25.6164 806.333 25.7979L806.7 26.728ZM808.076 26.1919L807.722 25.2566L807.505 25.3386L807.859 26.2739L808.213 27.2092L808.43 27.1272L808.076 26.1919ZM868.267 15.7603L868.256 16.7602C869.712 16.7762 871.157 16.8075 872.593 16.8554L872.626 15.856L872.659 14.8565C871.208 14.8081 869.748 14.7765 868.278 14.7603L868.267 15.7603ZM872.626 15.856L872.659 14.8565C871.209 14.8081 869.748 14.7756 868.278 14.7593L868.267 15.7593L868.256 16.7592C869.711 16.7753 871.157 16.8075 872.593 16.8554L872.626 15.856ZM868.267 15.7593L868.272 14.7593L866.052 14.7476L866.047 15.7476L866.042 16.7475L868.261 16.7593L868.267 15.7593ZM866.047 15.7476L866.041 16.7475L868.261 16.7602L868.267 15.7603L868.272 14.7603L866.053 14.7476L866.047 15.7476Z" fill="url(#paint1_linear_6070_1162)" mask="url(#path-1-outside-1_6070_1162)"/>
<defs>
<radialGradient id="paint0_radial_6070_1162" cx="0" cy="0" r="1" gradientUnits="userSpaceOnUse" gradientTransform="translate(604.414 30.3125) rotate(92.5363) scale(307.258 767.073)">
<stop stop-color="#0A121D"/>
<stop offset="1"/>
</radialGradient>
<linearGradient id="paint1_linear_6070_1162" x1="620.851" y1="-172.949" x2="639.779" y2="335.118" gradientUnits="userSpaceOnUse">
<stop stop-color="#C3DEFF" stop-opacity="0.93"/>
<stop offset="0.942308" stop-opacity="0.14"/>
</linearGradient>
</defs>
</svg>
