<svg width="20" height="20" viewBox="0 0 20 20" fill="none" xmlns="http://www.w3.org/2000/svg">
<g clip-path="url(#clip0_6217_2750)">
<path d="M0 10C0 4.47715 4.47715 0 10 0C15.5228 0 20 4.47715 20 10C20 15.5228 15.5228 20 10 20C4.47715 20 0 15.5228 0 10Z" fill="#40475C"/>
<g clip-path="url(#clip1_6217_2750)">
<rect width="20" height="20" fill="white"/>
<path d="M10.0004 19.932C15.4857 19.932 19.9324 15.4853 19.9324 9.99999C19.9324 4.5147 15.4857 0.0679932 10.0004 0.0679932C4.51507 0.0679932 0.0683594 4.5147 0.0683594 9.99999C0.0683594 15.4853 4.51507 19.932 10.0004 19.932Z" fill="#2775CA"/>
<path d="M8.13673 16.908C8.13673 17.14 7.94873 17.272 7.73273 17.204C4.72473 16.24 2.55273 13.428 2.55273 10.1C2.55273 6.77998 4.72473 3.96398 7.73673 2.99998C7.96073 2.93198 8.14073 3.06398 8.14073 3.29598V3.87598C8.14073 4.03198 8.02473 4.20798 7.87673 4.26398C5.49273 5.13998 3.79673 7.42798 3.79673 10.1C3.79673 12.776 5.49673 15.06 7.87673 15.928C8.02473 15.984 8.14073 16.16 8.14073 16.316V16.908H8.13673Z" fill="#F8F8F8"/>
<path d="M10.6204 14.756C10.6204 14.928 10.4804 15.068 10.3084 15.068H9.68836C9.51636 15.068 9.37636 14.928 9.37636 14.756V13.78C8.02036 13.592 7.36036 12.84 7.18036 11.8C7.14836 11.62 7.28836 11.468 7.46836 11.468H8.17636C8.32436 11.468 8.44836 11.576 8.48036 11.716C8.61236 12.328 8.96836 12.804 10.0564 12.804C10.8564 12.804 11.4284 12.352 11.4284 11.688C11.4284 11.02 11.0964 10.764 9.91636 10.572C8.17636 10.34 7.35636 9.81199 7.35636 8.45199C7.35636 7.40399 8.15636 6.57999 9.38036 6.41199V5.44799C9.38036 5.27599 9.52036 5.13599 9.69236 5.13599H10.3124C10.4844 5.13599 10.6244 5.27599 10.6244 5.44799V6.43199C11.6244 6.61199 12.2604 7.17599 12.4724 8.12399C12.5124 8.30399 12.3724 8.46399 12.1844 8.46399H11.5324C11.3924 8.46399 11.2764 8.37199 11.2364 8.23999C11.0564 7.64399 10.6324 7.37999 9.88436 7.37999C9.06036 7.37999 8.63636 7.77599 8.63636 8.33599C8.63636 8.92399 8.87636 9.21999 10.1404 9.39999C11.8484 9.63199 12.7324 10.12 12.7324 11.572C12.7324 12.672 11.9084 13.568 10.6284 13.768V14.76H10.6204V14.756Z" fill="#F8F8F8"/>
<path d="M12.2634 17.2C12.0394 17.268 11.8594 17.136 11.8594 16.904V16.324C11.8594 16.152 11.9594 15.992 12.1234 15.936C14.4994 15.068 16.2034 12.776 16.2034 10.108C16.2034 7.43197 14.5034 5.14797 12.1234 4.27997C11.9754 4.22397 11.8594 4.04797 11.8594 3.89197V3.31197C11.8594 3.07997 12.0474 2.94797 12.2634 3.01597C15.2754 3.96397 17.4474 6.77997 17.4474 10.1C17.4474 13.428 15.2754 16.24 12.2634 17.2Z" fill="#F8F8F8"/>
</g>
</g>
<defs>
<clipPath id="clip0_6217_2750">
<path d="M0 10C0 4.47715 4.47715 0 10 0C15.5228 0 20 4.47715 20 10C20 15.5228 15.5228 20 10 20C4.47715 20 0 15.5228 0 10Z" fill="white"/>
</clipPath>
<clipPath id="clip1_6217_2750">
<rect width="20" height="20" fill="white"/>
</clipPath>
</defs>
</svg>
