<svg width="21" height="20" viewBox="0 0 21 20" fill="none" xmlns="http://www.w3.org/2000/svg">
<path d="M0.667969 10C0.667969 4.47715 5.14512 0 10.668 0C16.1908 0 20.668 4.47715 20.668 10C20.668 15.5228 16.1908 20 10.668 20C5.14512 20 0.667969 15.5228 0.667969 10Z" fill="#4D9E7D"/>
<path fill-rule="evenodd" clip-rule="evenodd" d="M14.9231 6V7.59533H11.7285V8.70141C13.9722 8.81961 15.6555 9.30507 15.668 9.88694L15.6679 11.1C15.6554 11.6819 13.9722 12.1673 11.7285 12.2856V15H9.60735V12.2856C7.36372 12.1673 5.68043 11.6819 5.66797 11.1L5.66801 9.88694C5.68051 9.30507 7.36372 8.81961 9.60735 8.70141V7.59533H6.41283V6H14.9231ZM10.668 11.4522C13.0623 11.4522 15.0635 11.0417 15.5533 10.4935C15.138 10.0286 13.6357 9.66275 11.7285 9.56226V10.7203C11.3867 10.7384 11.0319 10.7478 10.668 10.7478C10.304 10.7478 9.94919 10.7384 9.60735 10.7203V9.56226C7.70018 9.66275 6.19792 10.0286 5.7826 10.4935C6.27235 11.0417 8.27362 11.4522 10.668 11.4522Z" fill="white"/>
</svg>
