<svg width="32" height="32" viewBox="0 0 32 32" fill="none" xmlns="http://www.w3.org/2000/svg">
<path d="M0 16C0 7.16344 7.16344 0 16 0C24.8366 0 32 7.16344 32 16C32 24.8366 24.8366 32 16 32C7.16344 32 0 24.8366 0 16Z" fill="url(#paint0_linear_6061_1429)"/>
<path d="M19.0659 6.5339V18.8023C19.0659 18.8252 19.0659 18.851 19.0659 18.8739V18.8883C19.0458 19.6767 18.7275 20.4136 18.1683 20.9698C17.589 21.5489 16.8204 21.8672 16.0002 21.8672C14.3082 21.8672 12.9346 20.491 12.9346 18.8023V6.5339L16.0002 5L19.0659 6.5339Z" fill="#06070A"/>
<path d="M17.0989 23.2691C16.0207 24.2755 14.5753 24.8976 12.9923 24.912C9.59972 24.9435 6.82372 22.1223 6.82372 18.7305V13.8593H6.80078V10.5478C6.80078 9.96861 7.12771 9.4382 7.64677 9.18016L11.4007 7.3022V18.7391C11.4007 21.2765 13.4769 23.4125 16.0149 23.4039C16.3877 23.4039 16.7519 23.358 17.0989 23.272V23.2691Z" fill="#06070A"/>
<path d="M25.2005 10.5448V18.7132C25.2005 23.7851 21.1311 27.9683 16.0552 27.9998C13.8843 28.0141 11.8826 27.2744 10.3025 26.0272C11.1026 26.3197 11.9658 26.4831 12.8634 26.4888C17.1306 26.5261 20.6207 22.991 20.6207 18.7247V7.31361L24.3517 9.1801C24.8707 9.43814 25.1976 9.96855 25.1976 10.5477L25.2005 10.5448Z" fill="#06070A"/>
<defs>
<linearGradient id="paint0_linear_6061_1429" x1="16" y1="0" x2="16" y2="32" gradientUnits="userSpaceOnUse">
<stop stop-color="#FFC12F"/>
<stop offset="1" stop-color="#FF9A0C"/>
</linearGradient>
</defs>
</svg>
