<svg width="25" height="24" viewBox="0 0 25 24" fill="none" xmlns="http://www.w3.org/2000/svg">
<g clip-path="url(#clip0_6192_2678)">
<path fill-rule="evenodd" clip-rule="evenodd" d="M9.15626 0.473168C6.83684 1.14881 4.77492 2.50783 3.23948 4.37293C1.70404 6.23802 0.766377 8.5226 0.548828 10.9286H6.03454C6.35431 7.26731 7.41585 3.70939 9.15454 0.471454L9.15626 0.473168ZM6.03454 13.0715H0.548828C0.765924 15.4775 1.70318 17.7623 3.23832 19.6277C4.77346 21.4932 6.8352 22.8526 9.15454 23.5286C7.41585 20.2907 6.35431 16.7327 6.03454 13.0715ZM11.9043 23.9863C9.82582 20.6899 8.55154 16.951 8.18426 13.0715H16.8157C16.4484 16.951 15.1741 20.6899 13.0957 23.9863C12.6988 24.006 12.3012 24.006 11.9043 23.9863ZM15.8471 23.5269C18.1662 22.851 20.2278 21.4918 21.7629 19.6267C23.298 17.7617 24.2354 15.4772 24.4528 13.0715H18.9671C18.6473 16.7327 17.5858 20.2907 15.8471 23.5286V23.5269ZM18.9671 10.9286H24.4528C24.2357 8.52251 23.2985 6.23771 21.7633 4.37231C20.2282 2.5069 18.1665 1.1475 15.8471 0.471454C17.5858 3.70939 18.6473 7.26731 18.9671 10.9286ZM11.9043 0.0137396C12.3017 -0.00604471 12.6999 -0.00604471 13.0974 0.0137396C15.1752 3.31028 16.4489 7.04916 16.8157 10.9286H8.18597C8.55797 7.02517 9.83511 3.28288 11.9043 0.0137396Z" fill="#FAFAFA"/>
</g>
<defs>
<clipPath id="clip0_6192_2678">
<rect width="24" height="24" fill="white" transform="translate(0.5)"/>
</clipPath>
</defs>
</svg>
