<svg width="28" height="28" viewBox="0 0 28 28" fill="none" xmlns="http://www.w3.org/2000/svg">
<g clip-path="url(#clip0_8_16620)">
<mask id="path-1-inside-1_8_16620" fill="white">
<path d="M0 14C0 6.26801 6.26801 0 14 0C21.732 0 28 6.26801 28 14C28 21.732 21.732 28 14 28C6.26801 28 0 21.732 0 14Z"/>
</mask>
<path d="M0 14C0 6.26801 6.26801 0 14 0C21.732 0 28 6.26801 28 14C28 21.732 21.732 28 14 28C6.26801 28 0 21.732 0 14Z" fill="#40475C"/>
<g clip-path="url(#clip1_8_16620)">
<rect width="28" height="28" fill="white"/>
<path d="M14 0C21.728 0 28 6.2664 28 14C28 21.7336 21.728 28 14 28C6.272 28 0 21.728 0 14C0 6.272 6.2664 0 14 0Z" fill="#272D3D"/>
<path fill-rule="evenodd" clip-rule="evenodd" d="M6.47353 12.6615H19.4319C19.5943 12.6615 19.7455 12.7231 19.8575 12.8407L21.9071 14.9015C22.2879 15.2823 22.0191 15.9319 21.4815 15.9319H8.52313C8.36073 15.9319 8.20953 15.8703 8.09753 15.7527L6.04793 13.6919C5.66713 13.3167 5.93593 12.6615 6.47353 12.6615ZM6.04233 9.92872L8.09193 7.86792C8.20953 7.75032 8.36073 7.68872 8.51753 7.68872H21.4703C22.0079 7.68872 22.2823 8.33832 21.8959 8.71912L19.8519 10.7799C19.7399 10.8975 19.5831 10.9591 19.4263 10.9591H6.47353C5.93593 10.9591 5.66713 10.3095 6.04233 9.92872ZM21.9015 18.6759L19.8519 20.7423C19.7399 20.8543 19.5831 20.9215 19.4263 20.9215H6.47353C5.93593 20.9215 5.66713 20.2719 6.04233 19.8911L8.09193 17.8247C8.20953 17.7127 8.36073 17.6455 8.51753 17.6455H21.4703C22.0135 17.6399 22.2879 18.2895 21.9015 18.6759Z" fill="url(#paint0_linear_8_16620)"/>
</g>
</g>
<path d="M14 28V27.5C6.54416 27.5 0.5 21.4558 0.5 14H0H-0.5C-0.5 22.0081 5.99187 28.5 14 28.5V28ZM28 14H27.5C27.5 21.4558 21.4558 27.5 14 27.5V28V28.5C22.0081 28.5 28.5 22.0081 28.5 14H28ZM14 0V0.5C21.4558 0.5 27.5 6.54416 27.5 14H28H28.5C28.5 5.99187 22.0081 -0.5 14 -0.5V0ZM14 0V-0.5C5.99187 -0.5 -0.5 5.99187 -0.5 14H0H0.5C0.5 6.54416 6.54416 0.5 14 0.5V0Z" fill="#0D0D0D" fill-opacity="0.1" mask="url(#path-1-inside-1_8_16620)"/>
<defs>
<linearGradient id="paint0_linear_8_16620" x1="6.79048" y1="21.4852" x2="21.159" y2="7.11667" gradientUnits="userSpaceOnUse">
<stop stop-color="#CB4EE8"/>
<stop offset="1" stop-color="#10F4B1"/>
</linearGradient>
<clipPath id="clip0_8_16620">
<path d="M0 14C0 6.26801 6.26801 0 14 0C21.732 0 28 6.26801 28 14C28 21.732 21.732 28 14 28C6.26801 28 0 21.732 0 14Z" fill="white"/>
</clipPath>
<clipPath id="clip1_8_16620">
<rect width="28" height="28" fill="white"/>
</clipPath>
</defs>
</svg>
