<svg width="28" height="29" viewBox="0 0 28 29" fill="none" xmlns="http://www.w3.org/2000/svg">
<mask id="path-1-inside-1_18_2567" fill="white">
<path d="M0 14.5C0 6.76801 6.26801 0.5 14 0.5C21.732 0.5 28 6.76801 28 14.5C28 22.232 21.732 28.5 14 28.5C6.26801 28.5 0 22.232 0 14.5Z"/>
</mask>
<path d="M0 14.5C0 6.76801 6.26801 0.5 14 0.5C21.732 0.5 28 6.76801 28 14.5C28 22.232 21.732 28.5 14 28.5C6.26801 28.5 0 22.232 0 14.5Z" fill="#4D9E7D"/>
<path d="M14 28.5V28C6.54416 28 0.5 21.9558 0.5 14.5H0H-0.5C-0.5 22.5081 5.99187 29 14 29V28.5ZM28 14.5H27.5C27.5 21.9558 21.4558 28 14 28V28.5V29C22.0081 29 28.5 22.5081 28.5 14.5H28ZM14 0.5V1C21.4558 1 27.5 7.04416 27.5 14.5H28H28.5C28.5 6.49187 22.0081 0 14 0V0.5ZM14 0.5V0C5.99187 0 -0.5 6.49187 -0.5 14.5H0H0.5C0.5 7.04416 6.54416 1 14 1V0.5Z" fill="#0D0D0D" fill-opacity="0.1" mask="url(#path-1-inside-1_18_2567)"/>
<path fill-rule="evenodd" clip-rule="evenodd" d="M19.9571 8.90015V11.1336H15.4848V12.6821C18.6259 12.8476 20.9825 13.5272 21 14.3419L20.9999 16.0402C20.9824 16.8548 18.6259 17.5344 15.4848 17.6999V21.5001H12.5151V17.6999C9.37405 17.5344 7.01744 16.8548 7 16.0402L7.00006 14.3419C7.01756 13.5272 9.37405 12.8476 12.5151 12.6821V11.1336H8.04281V8.90015H19.9571ZM14 16.5332C17.352 16.5332 20.1538 15.9585 20.8395 15.191C20.258 14.5402 18.1548 14.028 15.4848 13.8873V15.5086C15.0063 15.5338 14.5095 15.5471 14 15.5471C13.4905 15.5471 12.9937 15.5338 12.5151 15.5086V13.8873C9.84509 14.028 7.74193 14.5402 7.16048 15.191C7.84614 15.9585 10.6479 16.5332 14 16.5332Z" fill="white"/>
</svg>
