<svg width="28" height="29" viewBox="0 0 28 29" fill="none" xmlns="http://www.w3.org/2000/svg">
<g clip-path="url(#clip0_18_2076)">
<mask id="path-1-inside-1_18_2076" fill="white">
<path d="M0 14.5C0 6.76801 6.26801 0.5 14 0.5C21.732 0.5 28 6.76801 28 14.5C28 22.232 21.732 28.5 14 28.5C6.26801 28.5 0 22.232 0 14.5Z"/>
</mask>
<path d="M0 14.5C0 6.76801 6.26801 0.5 14 0.5C21.732 0.5 28 6.76801 28 14.5C28 22.232 21.732 28.5 14 28.5C6.26801 28.5 0 22.232 0 14.5Z" fill="#40475C"/>
<g clip-path="url(#clip1_18_2076)">
<rect width="28" height="28" transform="translate(0 0.5)" fill="white"/>
<path d="M14 28.4048C21.6794 28.4048 27.9048 22.1794 27.9048 14.5C27.9048 6.82061 21.6794 0.595215 14 0.595215C6.32061 0.595215 0.0952148 6.82061 0.0952148 14.5C0.0952148 22.1794 6.32061 28.4048 14 28.4048Z" fill="#2775CA"/>
<path d="M11.3904 24.1713C11.3904 24.4961 11.1272 24.6809 10.8248 24.5857C6.61355 23.2361 3.57275 19.2993 3.57275 14.6401C3.57275 9.99206 6.61355 6.04966 10.8304 4.70006C11.144 4.60486 11.396 4.78966 11.396 5.11446V5.92646C11.396 6.14486 11.2336 6.39126 11.0264 6.46966C7.68875 7.69606 5.31435 10.8993 5.31435 14.6401C5.31435 18.3865 7.69435 21.5841 11.0264 22.7993C11.2336 22.8777 11.396 23.1241 11.396 23.3425V24.1713H11.3904Z" fill="#F8F8F8"/>
<path d="M14.8678 21.1584C14.8678 21.3992 14.6718 21.5952 14.431 21.5952H13.563C13.3222 21.5952 13.1262 21.3992 13.1262 21.1584V19.792C11.2278 19.5288 10.3038 18.476 10.0518 17.02C10.007 16.768 10.203 16.5552 10.455 16.5552H11.4462C11.6534 16.5552 11.827 16.7064 11.8718 16.9024C12.0566 17.7592 12.555 18.4256 14.0782 18.4256C15.1982 18.4256 15.999 17.7928 15.999 16.8632C15.999 15.928 15.5342 15.5696 13.8822 15.3008C11.4462 14.976 10.2982 14.2368 10.2982 12.3328C10.2982 10.8656 11.4182 9.71203 13.1318 9.47683V8.12723C13.1318 7.88643 13.3278 7.69043 13.5686 7.69043H14.4366C14.6774 7.69043 14.8734 7.88643 14.8734 8.12723V9.50483C16.2734 9.75683 17.1638 10.5464 17.4606 11.8736C17.5166 12.1256 17.3206 12.3496 17.0574 12.3496H16.1446C15.9486 12.3496 15.7862 12.2208 15.7302 12.036C15.4782 11.2016 14.8846 10.832 13.8374 10.832C12.6838 10.832 12.0902 11.3864 12.0902 12.1704C12.0902 12.9936 12.4262 13.408 14.1958 13.66C16.587 13.9848 17.8246 14.668 17.8246 16.7008C17.8246 18.2408 16.671 19.4952 14.879 19.7752V21.164H14.8678V21.1584Z" fill="#F8F8F8"/>
<path d="M17.1696 24.5801C16.856 24.6753 16.604 24.4905 16.604 24.1657V23.3537C16.604 23.1129 16.744 22.8889 16.9736 22.8105C20.3 21.5953 22.6856 18.3865 22.6856 14.6513C22.6856 10.9049 20.3056 7.70732 16.9736 6.49212C16.7664 6.41372 16.604 6.16732 16.604 5.94892V5.13692C16.604 4.81212 16.8672 4.62732 17.1696 4.72252C21.3864 6.04972 24.4272 9.99212 24.4272 14.6401C24.4272 19.2993 21.3864 23.2361 17.1696 24.5801Z" fill="#F8F8F8"/>
</g>
</g>
<path d="M14 28.5V28C6.54416 28 0.5 21.9558 0.5 14.5H0H-0.5C-0.5 22.5081 5.99187 29 14 29V28.5ZM28 14.5H27.5C27.5 21.9558 21.4558 28 14 28V28.5V29C22.0081 29 28.5 22.5081 28.5 14.5H28ZM14 0.5V1C21.4558 1 27.5 7.04416 27.5 14.5H28H28.5C28.5 6.49187 22.0081 0 14 0V0.5ZM14 0.5V0C5.99187 0 -0.5 6.49187 -0.5 14.5H0H0.5C0.5 7.04416 6.54416 1 14 1V0.5Z" fill="#0D0D0D" fill-opacity="0.1" mask="url(#path-1-inside-1_18_2076)"/>
<defs>
<clipPath id="clip0_18_2076">
<path d="M0 14.5C0 6.76801 6.26801 0.5 14 0.5C21.732 0.5 28 6.76801 28 14.5C28 22.232 21.732 28.5 14 28.5C6.26801 28.5 0 22.232 0 14.5Z" fill="white"/>
</clipPath>
<clipPath id="clip1_18_2076">
<rect width="28" height="28" fill="white" transform="translate(0 0.5)"/>
</clipPath>
</defs>
</svg>
