<svg width="28" height="29" viewBox="0 0 28 29" fill="none" xmlns="http://www.w3.org/2000/svg">
<g clip-path="url(#clip0_18_2060)">
<rect width="28" height="28" transform="translate(0 0.5)" fill="white"/>
<path d="M14 0.5C21.728 0.5 28 6.7664 28 14.5C28 22.2336 21.728 28.5 14 28.5C6.272 28.5 0 22.228 0 14.5C0 6.772 6.2664 0.5 14 0.5Z" fill="#272D3D"/>
<path fill-rule="evenodd" clip-rule="evenodd" d="M6.47353 13.1615H19.4319C19.5943 13.1615 19.7455 13.2231 19.8575 13.3407L21.9071 15.4015C22.2879 15.7823 22.0191 16.4319 21.4815 16.4319H8.52313C8.36073 16.4319 8.20953 16.3703 8.09753 16.2527L6.04793 14.1919C5.66713 13.8167 5.93593 13.1615 6.47353 13.1615ZM6.04233 10.4287L8.09193 8.36792C8.20953 8.25032 8.36073 8.18872 8.51753 8.18872H21.4703C22.0079 8.18872 22.2823 8.83832 21.8959 9.21912L19.8519 11.2799C19.7399 11.3975 19.5831 11.4591 19.4263 11.4591H6.47353C5.93593 11.4591 5.66713 10.8095 6.04233 10.4287ZM21.9015 19.1759L19.8519 21.2423C19.7399 21.3543 19.5831 21.4215 19.4263 21.4215H6.47353C5.93593 21.4215 5.66713 20.7719 6.04233 20.3911L8.09193 18.3247C8.20953 18.2127 8.36073 18.1455 8.51753 18.1455H21.4703C22.0135 18.1399 22.2879 18.7895 21.9015 19.1759Z" fill="url(#paint0_linear_18_2060)"/>
</g>
<defs>
<linearGradient id="paint0_linear_18_2060" x1="6.79048" y1="21.9852" x2="21.159" y2="7.61667" gradientUnits="userSpaceOnUse">
<stop stop-color="#CB4EE8"/>
<stop offset="1" stop-color="#10F4B1"/>
</linearGradient>
<clipPath id="clip0_18_2060">
<rect width="28" height="28" fill="white" transform="translate(0 0.5)"/>
</clipPath>
</defs>
</svg>
