<svg width="32" height="32" viewBox="0 0 32 32" fill="none" xmlns="http://www.w3.org/2000/svg">
<path d="M0 16C0 7.16344 7.16344 0 16 0C24.8366 0 32 7.16344 32 16C32 24.8366 24.8366 32 16 32C7.16344 32 0 24.8366 0 16Z" fill="url(#paint0_linear_18_3221)"/>
<path d="M19.0654 6.5339V18.8023C19.0654 18.8252 19.0654 18.851 19.0654 18.8739V18.8883C19.0453 19.6767 18.727 20.4136 18.1678 20.9698C17.5885 21.5489 16.8199 21.8672 15.9997 21.8672C14.3078 21.8672 12.9341 20.491 12.9341 18.8023V6.5339L15.9997 5L19.0654 6.5339Z" fill="#06070A"/>
<path d="M17.0985 23.2691C16.0202 24.2755 14.5748 24.8976 12.9918 24.912C9.59923 24.9435 6.82324 22.1223 6.82324 18.7305V13.8593H6.80029V10.5478C6.80029 9.96861 7.12722 9.4382 7.64629 9.18016L11.4002 7.3022V18.7391C11.4002 21.2765 13.4765 23.4125 16.0144 23.4039C16.3872 23.4039 16.7515 23.358 17.0985 23.272V23.2691Z" fill="#06070A"/>
<path d="M25.2 10.5448V18.7132C25.2 23.7851 21.1307 27.9683 16.0547 27.9998C13.8838 28.0141 11.8821 27.2744 10.302 26.0272C11.1021 26.3197 11.9653 26.4831 12.8629 26.4888C17.1301 26.5261 20.6202 22.991 20.6202 18.7247V7.31361L24.3512 9.1801C24.8702 9.43814 25.1972 9.96855 25.1972 10.5477L25.2 10.5448Z" fill="#06070A"/>
<defs>
<linearGradient id="paint0_linear_18_3221" x1="16" y1="0" x2="16" y2="32" gradientUnits="userSpaceOnUse">
<stop stop-color="#FFC12F"/>
<stop offset="1" stop-color="#FF9A0C"/>
</linearGradient>
</defs>
</svg>
