<svg width="60" height="60" viewBox="0 0 60 60" fill="none" xmlns="http://www.w3.org/2000/svg">
<path d="M40.3398 60H6.77368C3.86591 60 1.50024 57.6343 1.50024 54.7266V7.85156C1.50024 6.88078 2.28728 6.09375 3.25806 6.09375H43.8556C44.8263 6.09375 45.6134 6.88078 45.6134 7.85156V54.7266C45.6133 57.6343 43.2476 60 40.3398 60Z" fill="#DFEEFA"/>
<path d="M43.8558 6.09375H23.5571V60H40.3403C43.248 60 45.6137 57.6343 45.6137 54.7266V7.85156C45.6136 6.88078 44.8267 6.09375 43.8558 6.09375Z" fill="#C9DFF7"/>
<path d="M9.18018 13.2087C8.20939 13.2087 7.42236 12.4216 7.42236 11.4509V1.75781C7.42236 0.787031 8.20939 0 9.18018 0C10.151 0 10.938 0.787031 10.938 1.75781V11.4509C10.938 12.4216 10.151 13.2087 9.18018 13.2087Z" fill="#79A7FF"/>
<path d="M16.3787 13.2087C15.4079 13.2087 14.6208 12.4216 14.6208 11.4509V1.75781C14.6208 0.787031 15.4079 0 16.3787 0C17.3494 0 18.1365 0.787031 18.1365 1.75781V11.4509C18.1365 12.4216 17.3494 13.2087 16.3787 13.2087Z" fill="#79A7FF"/>
<path d="M23.5569 13.2087C22.5861 13.2087 21.7991 12.4216 21.7991 11.4509V1.75781C21.7991 0.787031 22.5861 0 23.5569 0C24.5277 0 25.3147 0.787031 25.3147 1.75781V11.4509C25.3147 12.4216 24.5277 13.2087 23.5569 13.2087Z" fill="#79A7FF"/>
<path d="M30.7761 13.2087C29.8053 13.2087 29.0183 12.4216 29.0183 11.4509V1.75781C29.0183 0.787031 29.8053 0 30.7761 0C31.7469 0 32.5339 0.787031 32.5339 1.75781V11.4509C32.5339 12.4216 31.747 13.2087 30.7761 13.2087Z" fill="#0055D6"/>
<path d="M37.9751 13.2087C37.0043 13.2087 36.2173 12.4216 36.2173 11.4509V1.75781C36.2173 0.787031 37.0043 0 37.9751 0C38.9459 0 39.7329 0.787031 39.7329 1.75781V11.4509C39.7329 12.4216 38.9459 13.2087 37.9751 13.2087Z" fill="#0055D6"/>
<path d="M25.3149 11.4509V1.75781C25.3149 0.787031 24.5279 0 23.5571 0V13.2087C24.5279 13.2087 25.3149 12.4216 25.3149 11.4509Z" fill="#0055D6"/>
<path d="M32.6263 37.019H10.2681C9.29729 37.019 8.51025 36.232 8.51025 35.2612C8.51025 34.2904 9.29729 33.5034 10.2681 33.5034H32.6263C33.5971 33.5034 34.3841 34.2904 34.3841 35.2612C34.3841 36.232 33.5971 37.019 32.6263 37.019Z" fill="#79A7FF"/>
<path d="M26.7316 44.0504H10.2681C9.29729 44.0504 8.51025 43.2633 8.51025 42.2925C8.51025 41.3218 9.29729 40.5347 10.2681 40.5347H26.7316C27.7024 40.5347 28.4894 41.3218 28.4894 42.2925C28.4894 43.2633 27.7024 44.0504 26.7316 44.0504Z" fill="#79A7FF"/>
<path d="M23.5356 51.0815H10.2681C9.29729 51.0815 8.51025 50.2945 8.51025 49.3237C8.51025 48.3529 9.29729 47.5659 10.2681 47.5659H23.5356C24.5063 47.5659 25.2934 48.3529 25.2934 49.3237C25.2934 50.2945 24.5063 51.0815 23.5356 51.0815Z" fill="#79A7FF"/>
<path d="M25.2937 49.3237C25.2937 48.3529 24.5067 47.5659 23.5359 47.5659V51.0815C24.5067 51.0815 25.2937 50.2945 25.2937 49.3237Z" fill="#9EBBDB"/>
<path d="M26.7319 40.5348H23.5359V44.0504H26.7319C27.7027 44.0504 28.4898 43.2634 28.4898 42.2926C28.4898 41.3217 27.7027 40.5348 26.7319 40.5348Z" fill="#0055D6"/>
<path d="M32.6266 33.5035H23.5359V37.0191H32.6266C33.5974 37.0191 34.3844 36.2321 34.3844 35.2613C34.3844 34.2905 33.5974 33.5035 32.6266 33.5035Z" fill="#0055D6"/>
<path d="M23.5361 51.0815C23.0793 51.0815 22.6295 50.9035 22.2927 50.5666C21.7746 50.0485 21.6322 49.2633 21.9354 48.5962L26.0786 39.4812C26.1679 39.2847 26.2912 39.1093 26.4403 38.9612C26.6894 38.7139 27.9044 37.4971 27.9044 37.4971L35.3575 44.9595C35.3575 44.9595 34.1432 46.1738 33.8935 46.4235C33.7464 46.5706 33.5726 46.6922 33.3781 46.7807L24.263 50.9239C24.0297 51.0299 23.7818 51.0815 23.5361 51.0815Z" fill="#FFEDD6"/>
<path d="M23.5362 51.0816C23.782 51.0816 24.0298 51.03 24.2631 50.924L33.3782 46.7808C33.5727 46.6924 33.7466 46.5707 33.8936 46.4236C34.1433 46.1739 35.3576 44.9596 35.3576 44.9596L31.6312 41.2286L22.293 50.5668C22.6299 50.9036 23.0795 51.0816 23.5362 51.0816Z" fill="#FFDAAB"/>
<path d="M26.436 38.9657L49.2808 16.1212C50.2769 15.1252 51.6011 14.5766 53.0097 14.5766C54.4183 14.5766 55.7426 15.1252 56.7386 16.1212C58.7947 18.1773 58.7947 21.5228 56.7387 23.5789L33.8938 46.4235L26.436 38.9657Z" fill="#0055D6"/>
<g opacity="0.3">
<path d="M33.894 46.4235L56.7388 23.579C58.7949 21.5229 58.7948 18.1773 56.7387 16.1213L30.1653 42.6947L33.894 46.4235Z" fill="#0055D6"/>
<path d="M33.894 46.4235L56.7388 23.579C58.7949 21.5229 58.7948 18.1773 56.7387 16.1213L30.1653 42.6947L33.894 46.4235Z" fill="black"/>
</g>
<path d="M46.7945 18.6068L40.9941 24.4072L48.4518 31.8649L54.2522 26.0645L46.7945 18.6068Z" fill="#606A70"/>
<path d="M50.5233 22.3356L44.7229 28.136L48.4517 31.8648L54.2521 26.0644L50.5233 22.3356Z" fill="#414952"/>
<path d="M56.7386 16.1212C55.7427 15.1252 54.4183 14.5766 53.0097 14.5766C51.6011 14.5766 50.2769 15.1252 49.2808 16.1212L46.7949 18.6071L54.2527 26.0648L56.7387 23.5789C58.7948 21.5228 58.7947 18.1773 56.7386 16.1212Z" fill="#79A7FF"/>
<path d="M54.2525 26.0649L56.7385 23.579C58.7945 21.523 58.7944 18.1774 56.7384 16.1213L50.5237 22.336L54.2525 26.0649Z" fill="#79A7FF"/>
<path opacity="0.3" d="M54.2525 26.0649L56.7385 23.579C58.7945 21.523 58.7944 18.1774 56.7384 16.1213L50.5237 22.336L54.2525 26.0649Z" fill="black"/>
<path d="M22.9921 46.2715L21.9354 48.5962C21.6323 49.2632 21.7745 50.0484 22.2927 50.5666C22.6295 50.9035 23.0793 51.0815 23.5361 51.0815C23.7818 51.0815 24.0297 51.0299 24.263 50.9239L26.5878 49.8672L22.9921 46.2715Z" fill="#416191"/>
<path d="M23.5366 51.0816C23.7823 51.0816 24.0302 51.03 24.2635 50.924L26.5883 49.8673L24.7906 48.0696L22.2935 50.5669C22.6303 50.9036 23.0799 51.0816 23.5366 51.0816Z" fill="#28415E"/>
<path d="M13.0343 16.5217C11.3337 16.5217 9.9502 17.9052 9.9502 19.6057V24.1507C9.9502 24.4197 10.1682 24.6376 10.4372 24.6376H15.6314C15.9004 24.6376 16.1183 24.4197 16.1183 24.1507V19.6057C16.1183 17.9052 14.7348 16.5217 13.0343 16.5217ZM15.1444 23.6637H10.9241V19.6057C10.9241 18.4422 11.8707 17.4956 13.0343 17.4956C14.1978 17.4956 15.1444 18.4422 15.1444 19.6057V23.6637Z" fill="#172A7D"/>
<path d="M16.6377 28.6955H9.4307C8.89284 28.6955 8.45679 28.2595 8.45679 27.7216V21.8781C8.45679 21.3403 8.89284 20.9042 9.4307 20.9042H16.6377C17.1755 20.9042 17.6116 21.3403 17.6116 21.8781V27.7216C17.6116 28.2595 17.1755 28.6955 16.6377 28.6955Z" fill="#314DC8"/>
<path d="M12.6447 23.0144V20.9042H13.6186V23.0144C13.6186 23.2833 13.4006 23.5014 13.1316 23.5014C12.8627 23.5014 12.6447 23.2833 12.6447 23.0144ZM13.1316 27.397C12.8627 27.397 12.6447 27.615 12.6447 27.884V28.6956H13.6186V27.884C13.6186 27.615 13.4006 27.397 13.1316 27.397ZM10.4372 26.7477C10.1682 26.7477 9.9502 26.9658 9.9502 27.2347V28.6956H10.9241V27.2347C10.9241 26.9658 10.7061 26.7477 10.4372 26.7477ZM13.0881 24.3144C12.7053 24.2938 12.3674 24.4944 12.1907 24.7999H11.1189C11.0113 24.7999 10.9241 24.7127 10.9241 24.6051V20.8718C10.9241 20.6029 10.7061 20.3848 10.4372 20.3848C10.1682 20.3848 9.9502 20.6029 9.9502 20.8718V24.7999C9.9502 25.3378 10.3862 25.7738 10.9241 25.7738H12.1907C12.3591 26.0649 12.6738 26.2608 13.0343 26.2608C13.5876 26.2608 14.0332 25.7993 14.0071 25.2402C13.9841 24.7473 13.5808 24.3409 13.0881 24.3144ZM15.6314 21.5535C15.0935 21.5535 14.6574 21.9896 14.6574 22.5274C14.6574 22.8879 14.8533 23.2026 15.1444 23.371V28.6956H16.1183V23.371C16.4094 23.2026 16.6053 22.8879 16.6053 22.5274C16.6053 21.9896 16.1692 21.5535 15.6314 21.5535Z" fill="#172A7D"/>
</svg>
